<svg xmlns="http://www.w3.org/2000/svg" width="40" height="40" viewBox="0 0 40 40">
    <g fill="none" fill-rule="evenodd">
        <g>
            <g>
                <g>
                    <path d="M0 0H40V40H0z" transform="translate(-1656 -359) translate(1656 279) translate(0 80)"/>
                    <path fill="#192038" d="M31.667 4.167C33.507 4.167 35 5.659 35 7.5v9.167C35 18.507 33.508 20 31.667 20h-.657l.06.04c.275.21.477.478.606.807l.059.17c.374-.13.728-.196 1.062-.196.463 0 .854.118 1.172.354.317.236.528.554.634.952.993 0 1.752.352 2.277 1.056.484.65.745 1.562.783 2.735l.004.299v2.172c0 1.758-.327 3.23-.982 4.413-.656 1.184-1.545 2.076-2.668 2.674-1.123.598-2.404.897-3.845.897-1.855 0-3.436-.492-4.742-1.477-1.22-.92-2.16-2.232-2.823-3.938l-.138-.371-2.136-6.043c-.049-.154-.085-.315-.11-.482-.024-.167-.044-.315-.06-.445 0-.538.18-.963.543-1.276.362-.313.787-.47 1.275-.47.35.008.676.118.977.33.258.18.468.446.63.795l.078.181 1.233 3.04c.016.065.049.097.097.097.05 0 .08-.018.092-.055l.006-.042L25.093 20H5.833C3.993 20 2.5 18.508 2.5 16.667V7.5c0-1.84 1.492-3.333 3.333-3.333h25.834zM27.01 14.535c-.317 0-.57.105-.756.317-.188.211-.281.492-.281.842v11.28c0 .22-.067.392-.202.518-.134.126-.299.19-.494.19-.179 0-.336-.043-.47-.129-.134-.085-.242-.23-.323-.433l-1.477-3.589c-.22-.545-.55-.818-.99-.818-.276 0-.508.09-.695.269-.187.179-.28.399-.28.659 0 .195.04.395.121.598l2.124 6.055c.61 1.717 1.508 3.017 2.692 3.9 1.184.883 2.586 1.324 4.205 1.324 1.294 0 2.436-.27 3.424-.811.99-.542 1.764-1.343 2.326-2.405.561-1.062.842-2.383.842-3.961v-2.063c0-1.066-.173-1.88-.519-2.442-.346-.561-.856-.842-1.532-.842v1.49c0 .178-.042.308-.128.39-.085.081-.185.122-.299.122-.114 0-.214-.04-.299-.122-.085-.082-.128-.212-.128-.39v-1.539c0-.415-.102-.734-.305-.958-.204-.224-.493-.336-.867-.336-.285 0-.582.057-.891.171v2.222c0 .17-.043.299-.128.384-.086.086-.185.128-.3.128-.113 0-.213-.042-.298-.128-.086-.085-.129-.213-.129-.384v-2.259c0-.406-.103-.722-.31-.946-.208-.223-.495-.335-.862-.335-.284 0-.581.057-.89.17v2.943c0 .13-.037.244-.11.341-.074.098-.18.147-.318.147s-.246-.049-.323-.147c-.078-.097-.116-.211-.116-.341v-7.923c0-.35-.09-.63-.269-.842-.179-.212-.427-.317-.745-.317zM31.667 5H5.833c-1.331 0-2.42 1.04-2.495 2.353l-.005.147v9.167c0 1.331 1.041 2.42 2.353 2.495l.147.005h19.26l.001-3.448c0-.557.145-1.007.434-1.348l.115-.123c.367-.354.822-.531 1.367-.531.53 0 .98.177 1.35.53.329.315.511.738.548 1.268l.007.204-.001 3.448h2.753c1.331 0 2.42-1.041 2.495-2.353l.005-.147V7.5c0-1.331-1.041-2.42-2.353-2.496L31.667 5z" transform="translate(-1656 -359) translate(1656 279) translate(0 80)"/>
                </g>
            </g>
        </g>
    </g>
</svg>
