<svg xmlns="http://www.w3.org/2000/svg" width="40" height="40" viewBox="0 0 40 40">
    <g fill="none" fill-rule="evenodd">
        <g>
            <g>
                <g>
                    <g>
                        <path d="M0 0H40V40H0z" transform="translate(-1896 -599) translate(1656 279) translate(0 320) translate(240)"/>
                        <path fill="#151A30" d="M16.756 32.5c.362 0 .657-.1.886-.298.228-.198.343-.462.343-.791 0-.146-.031-.298-.093-.458-.062-.16-.174-.332-.336-.516-.334-.416-.61-.84-.83-1.27-.218-.432-.328-.957-.328-1.577 0-1.094.317-1.946.95-2.557.634-.61 1.518-.915 2.652-.915 1.134 0 2.015.305 2.644.915.63.61.943 1.463.943 2.557 0 .62-.104 1.145-.314 1.576-.21.431-.49.855-.843 1.271-.143.184-.248.356-.315.516-.066.16-.1.312-.1.458 0 .329.115.593.343.791.229.199.524.298.886.298h4.66c.905 0 1.634-.274 2.187-.82.552-.548.829-1.272.829-2.172V23.61c0-.194.066-.332.2-.414.133-.083.29-.056.471.08.391.27.837.569 1.337.893.5.325 1.198.487 2.094.487.82 0 1.541-.184 2.165-.552.624-.368 1.11-.882 1.458-1.54.348-.659.522-1.433.522-2.324 0-.882-.174-1.654-.522-2.317-.348-.664-.834-1.177-1.458-1.54s-1.346-.545-2.165-.545c-.896 0-1.594.158-2.094.472-.5.315-.946.618-1.337.908-.18.136-.338.158-.471.066-.134-.092-.2-.23-.2-.414v-6.363c0-.91-.277-1.64-.83-2.186-.552-.547-1.28-.821-2.186-.821h-4.66c-.362 0-.657.102-.886.305-.228.203-.343.47-.343.799 0 .145.034.295.1.45.067.155.172.325.315.509.352.426.633.854.843 1.285.21.431.314.957.314 1.576 0 1.037-.328 1.872-.986 2.506-.657.635-1.524.952-2.601.952-1.086 0-1.958-.317-2.616-.952-.657-.634-.986-1.47-.986-2.506 0-.62.11-1.145.329-1.576.22-.43.495-.86.829-1.285.162-.184.274-.354.336-.509.062-.155.093-.305.093-.45 0-.33-.115-.596-.343-.799-.229-.203-.524-.305-.886-.305h-4.66c-.915 0-1.646.274-2.194.82-.548.548-.822 1.277-.822 2.187v6.363c0 .184-.066.322-.2.414-.133.092-.29.07-.471-.066-.391-.29-.834-.593-1.33-.908-.495-.314-1.19-.472-2.086-.472-.83 0-1.556.182-2.18.545-.624.363-1.11.876-1.458 1.54-.348.663-.522 1.435-.522 2.317 0 .89.174 1.665.522 2.324.348.658.834 1.172 1.458 1.54.624.368 1.35.552 2.18.552.895 0 1.59-.162 2.086-.487.496-.324.939-.622 1.33-.893.18-.136.338-.163.471-.08.134.082.2.22.2.414v5.898c0 .9.274 1.624.822 2.171.548.547 1.28.821 2.194.821h4.66zm-.064-.833h-4.525c-.692 0-1.25-.205-1.672-.614-.422-.41-.633-.955-.633-1.639V23.51c0-.366-.097-.665-.291-.896-.195-.23-.453-.346-.776-.346-.152 0-.301.034-.448.101-.147.067-.315.178-.505.332-.418.337-.835.616-1.252.838-.418.22-.93.332-1.537.332-1.015 0-1.833-.332-2.454-.997-.622-.664-.932-1.545-.932-2.642 0-1.088.31-1.964.932-2.628.62-.664 1.44-.996 2.454-.996.607 0 1.12.106 1.537.318.417.211.834.495 1.252.851.19.145.358.25.505.318.147.067.296.101.448.101.323 0 .581-.115.776-.346.194-.231.291-.53.291-.896v-6.382c0-.673.211-1.215.633-1.624.423-.41.98-.614 1.672-.614h4.525c.19 0 .325.068.405.202.081.135.055.294-.078.477-.275.395-.569.842-.882 1.343-.313.5-.47 1.203-.47 2.108 0 .828.18 1.56.541 2.195.36.635.863 1.128 1.508 1.48.645.35 1.404.527 2.277.527.863 0 1.62-.176 2.27-.527.65-.352 1.152-.845 1.508-1.48.355-.636.533-1.367.533-2.195 0-.905-.154-1.608-.462-2.108-.309-.5-.6-.948-.875-1.343-.143-.183-.171-.342-.086-.477.086-.134.228-.202.427-.202h4.525c.683 0 1.235.205 1.657.614.422.41.634.95.634 1.624v6.382c0 .366.097.665.291.896.195.23.453.346.776.346.142 0 .291-.034.448-.1.156-.068.325-.174.505-.319.408-.356.823-.64 1.245-.851.422-.212.937-.318 1.544-.318 1.015 0 1.835.332 2.461.996.626.664.94 1.54.94 2.628 0 1.097-.314 1.978-.94 2.642-.626.665-1.446.997-2.461.997-.607 0-1.122-.111-1.544-.332-.422-.222-.837-.501-1.245-.838-.18-.154-.349-.265-.505-.332-.157-.067-.306-.101-.448-.101-.323 0-.581.115-.776.346-.194.231-.291.53-.291.896v5.905c0 .684-.212 1.23-.634 1.639-.422.41-.974.614-1.657.614h-4.525c-.2 0-.341-.07-.427-.21-.085-.14-.057-.3.086-.483.275-.385.566-.828.875-1.329.308-.5.462-1.208.462-2.122 0-.867-.17-1.613-.512-2.238-.342-.626-.832-1.107-1.473-1.444-.64-.337-1.415-.506-2.326-.506-.901 0-1.674.169-2.32.506-.644.337-1.14.818-1.486 1.444-.346.625-.52 1.371-.52 2.238 0 .914.157 1.622.47 2.122.313.5.607.944.882 1.329.133.182.159.344.078.483-.08.14-.215.21-.405.21z" transform="translate(-1896 -599) translate(1656 279) translate(0 320) translate(240)"/>
                    </g>
                </g>
            </g>
        </g>
    </g>
</svg>
