<svg xmlns="http://www.w3.org/2000/svg" width="40" height="40" viewBox="0 0 40 40">
    <g fill="none" fill-rule="evenodd">
        <g>
            <g>
                <g>
                    <path d="M0 0H40V40H0z" transform="translate(-1656 -439) translate(1656 279) translate(0 160)"/>
                    <path fill="#151A30" d="M23.883 30.385l-.227-.423c-.076-.141-.141-.282-.196-.423H5.687c-1.042 0-1.831-.269-2.368-.806-.537-.537-.806-1.327-.806-2.368V11.449c0-1.03.269-1.814.806-2.351.537-.538 1.326-.806 2.368-.806h21.956c1.01 0 1.79.268 2.344.806.553.537.83 1.32.83 2.351v6.16h.505c.043 0 .097-.003.162-.009.065-.005.125-.008.18-.008v-6.104c0-1.292-.34-2.279-1.018-2.963-.678-.683-1.668-1.025-2.97-1.025H5.654c-1.302 0-2.292.34-2.97 1.017-.678.678-1.017 1.669-1.017 2.97v14.91c0 1.302.339 2.293 1.017 2.97.678.679 1.668 1.018 2.97 1.018h18.23zm-9.472-15.921c.195 0 .317-.025.366-.074.049-.048.073-.165.073-.35v-.895c0-.173-.024-.282-.073-.325-.049-.044-.17-.065-.366-.065h-.895c-.185 0-.299.021-.342.065-.044.043-.065.152-.065.325v.896c0 .184.021.3.065.35.043.048.157.073.342.073h.895zm5.403 0c.185 0 .302-.025.35-.074.05-.048.074-.165.074-.35v-.895c0-.173-.025-.282-.074-.325-.048-.044-.165-.065-.35-.065h-.911c-.184 0-.301.021-.35.065-.049.043-.073.152-.073.325v.896c0 .184.024.3.073.35.049.048.166.073.35.073h.911zm5.388 0c.184 0 .298-.025.342-.074.043-.048.065-.165.065-.35v-.895c0-.173-.022-.282-.065-.325-.044-.044-.158-.065-.342-.065h-.895c-.196 0-.318.021-.367.065-.048.043-.073.152-.073.325v.896c0 .184.025.3.073.35.05.048.171.073.367.073h.895zM9.04 19.754c.184 0 .298-.022.342-.066.043-.043.065-.152.065-.325v-.895c0-.185-.022-.299-.065-.342-.044-.044-.158-.065-.342-.065h-.895c-.196 0-.318.021-.367.065-.049.043-.073.157-.073.342v.895c0 .173.024.282.073.325.05.044.171.065.367.065h.895zm5.37 0c.196 0 .318-.022.367-.066.049-.043.073-.152.073-.325v-.895c0-.185-.024-.299-.073-.342-.049-.044-.17-.065-.366-.065h-.895c-.185 0-.299.021-.342.065-.044.043-.065.157-.065.342v.895c0 .173.021.282.065.325.043.044.157.065.342.065h.895zm5.404 0c.185 0 .302-.022.35-.066.05-.043.074-.152.074-.325v-.895c0-.185-.025-.299-.074-.342-.048-.044-.165-.065-.35-.065h-.911c-.184 0-.301.021-.35.065-.049.043-.073.157-.073.342v.895c0 .173.024.282.073.325.049.044.166.065.35.065h.911zm11.475 7.392h-3.857c-.163 0-.304-.06-.424-.179-.119-.12-.179-.266-.179-.44 0-.162.06-.3.18-.415.119-.113.26-.17.423-.17h3.271V21.27c0-.162.057-.3.171-.415.114-.114.252-.17.415-.17.174 0 .32.056.44.17.119.114.179.253.179.415v5.258c0 .162-.063.306-.188.43-.124.126-.268.188-.43.188zm-22.25-2.07c.185 0 .3-.022.343-.065.043-.044.065-.152.065-.326v-.911c0-.185-.022-.299-.065-.342-.044-.044-.158-.065-.342-.065h-.895c-.196 0-.318.021-.367.065-.049.043-.073.157-.073.342v.911c0 .174.024.282.073.326.05.043.171.065.367.065h.895zm5.372 0c.195 0 .317-.022.366-.065.049-.044.073-.152.073-.326v-.911c0-.185-.024-.299-.073-.342-.049-.044-.17-.065-.366-.065h-.895c-.185 0-.299.021-.342.065-.044.043-.065.157-.065.342v.911c0 .174.021.282.065.326.043.043.157.065.342.065h.895zm16.497-6.595c4.046 0 7.325 3.28 7.325 7.325s-3.28 7.325-7.325 7.325-7.325-3.28-7.325-7.325c0-4.046 3.28-7.325 7.325-7.325zm0 .833c-3.585 0-6.491 2.906-6.491 6.492 0 3.585 2.906 6.491 6.491 6.491 3.586 0 6.492-2.906 6.492-6.491 0-3.586-2.906-6.492-6.492-6.492zm-11.094 4.053c.185 0 .302.021.35.065.05.043.074.157.074.342v.911c0 .174-.025.282-.074.326-.048.043-.165.065-.35.065h-.911c-.184 0-.301-.022-.35-.065-.049-.044-.073-.152-.073-.326v-.911c0-.185.024-.299.073-.342.049-.044.166-.065.35-.065z" transform="translate(-1656 -439) translate(1656 279) translate(0 160)"/>
                </g>
            </g>
        </g>
    </g>
</svg>
