<svg xmlns="http://www.w3.org/2000/svg" width="40" height="40" viewBox="0 0 40 40"><g fill="none" fill-rule="evenodd"><g><g><path fill-rule="nonzero" d="M0 0H40V40H0z" transform="translate(-1656 -279) translate(1656 279)"/><path fill="#151A30" d="M27.412 36.251c.14 0 .26-.044.36-.133.102-.088.152-.208.152-.36 0-.151-.05-.271-.151-.36-.102-.088-.222-.133-.36-.133l-1.65.001-.597-4.664h10.403c1.125 0 1.978-.288 2.559-.863.581-.575.872-1.43.872-2.568V6.412c0-1.137-.29-1.99-.872-2.559-.581-.569-1.434-.853-2.56-.853H4.432c-1.137 0-1.993.284-2.568.853S1 5.275 1 6.413V27.17c0 1.137.288 1.993.863 2.568s1.43.863 2.568.863h10.402l-.597 4.664h-1.667c-.127 0-.24.044-.342.132-.1.089-.151.209-.151.36 0 .152.05.272.151.36.102.089.215.133.342.133h14.843zm8.08-6.635H4.489c-.834 0-1.46-.205-1.877-.616-.417-.41-.625-1.033-.625-1.867V6.45c0-.834.208-1.453.625-1.858.417-.404 1.043-.606 1.877-.606h31.005c.834 0 1.46.202 1.877.606.417.405.625 1.024.625 1.858v20.683c0 .834-.208 1.456-.625 1.867-.417.41-1.043.616-1.877.616z" transform="translate(-1656 -279) translate(1656 279)"/></g></g></g></svg>