<svg xmlns="http://www.w3.org/2000/svg" width="40" height="40" viewBox="0 0 40 40">
    <g fill="none" fill-rule="evenodd">
        <g>
            <g>
                <g>
                    <g>
                        <path d="M0 0H40V40H0z" transform="translate(-1736 -359) translate(1656 279) translate(0 80) translate(80)"/>
                        <path fill="#192038" d="M32.917 24.583c1.84 0 3.333 1.493 3.333 3.334v7.5c0 1.84-1.492 3.333-3.333 3.333H6.667c-1.841 0-3.334-1.492-3.334-3.333v-7.5c0-1.841 1.493-3.334 3.334-3.334h26.25zm0 .834H6.667c-1.332 0-2.42 1.04-2.496 2.353l-.004.147v7.5c0 1.331 1.04 2.42 2.353 2.495l.147.005h26.25c1.331 0 2.42-1.041 2.495-2.353l.005-.147v-7.5c0-1.332-1.041-2.42-2.353-2.496l-.147-.004zm2.916-5.834c.23 0 .417.224.417.5s-.187.5-.417.5H3.75c-.23 0-.417-.224-.417-.5s.187-.5.417-.5h32.083zM32.917 1.25c1.84 0 3.333 1.492 3.333 3.333v7.5c0 1.841-1.492 3.334-3.333 3.334H6.667c-1.841 0-3.334-1.493-3.334-3.334v-7.5c0-1.84 1.493-3.333 3.334-3.333h26.25zm0 .833H6.667c-1.332 0-2.42 1.041-2.496 2.353l-.004.147v7.5c0 1.332 1.04 2.42 2.353 2.496l.147.004h26.25c1.331 0 2.42-1.04 2.495-2.353l.005-.147v-7.5c0-1.331-1.041-2.42-2.353-2.495l-.147-.005z" transform="translate(-1736 -359) translate(1656 279) translate(0 80) translate(80)"/>
                    </g>
                </g>
            </g>
        </g>
    </g>
</svg>
