<svg xmlns="http://www.w3.org/2000/svg" width="40" height="40" viewBox="0 0 40 40"><g fill="none" fill-rule="evenodd"><g><g><g><g><path d="M0 0H40V40H0z" transform="translate(-1736 -439) translate(1656 279) translate(0 160) translate(80)"/><path fill="#151A30" d="M25.177 34.167V33.3h-9.234c-1.07 0-1.882-.275-2.434-.825-.552-.55-.828-1.353-.828-2.408V14.35c0-1.067.276-1.875.828-2.425.552-.55 1.364-.825 2.434-.825h15.758c1.038 0 1.84.275 2.41.825.568.55.852 1.358.852 2.425V24.8l.87.967V14.3c0-1.311-.345-2.32-1.037-3.025-.691-.706-1.706-1.058-3.044-1.058h-3.547V8.25c0-1.311-.345-2.32-1.037-3.025-.691-.706-1.712-1.058-3.061-1.058h-3.078v.866h3.044c1.037 0 1.84.275 2.41.825.568.55.852 1.359.852 2.425v1.934H15.91c-1.338 0-2.359.347-3.061 1.041-.703.695-1.054 1.709-1.054 3.042v12.95H8.299c-1.071 0-1.882-.275-2.434-.825-.552-.55-.828-1.364-.828-2.442v-3.016h-.87v3.066c0 1.345.345 2.361 1.037 3.05.691.69 1.712 1.034 3.061 1.034h3.53v1.966c0 1.345.351 2.361 1.054 3.05.702.69 1.723 1.034 3.06 1.034h9.268zM20 5v-.833h-7.5V5H20zM5.09 11.667v-3.11c0-1.138.294-2 .88-2.586.587-.587 1.449-.88 2.586-.88h3.11v-.924H8.522c-1.434 0-2.518.37-3.252 1.11-.735.741-1.102 1.822-1.102 3.244v3.146h.924zM5 20v-7.5h-.833V20H5zm27.712 15.808l.908-.383c.108-.033.179-.1.211-.2s.032-.2 0-.3L30.83 27.71l3.763.15c.173.023.295-.047.365-.208.07-.161.052-.308-.056-.441L26.53 17.63c-.12-.134-.265-.164-.438-.092-.173.072-.26.197-.26.375l.26 12.63c0 .189.078.314.235.375.157.061.295.03.414-.092l2.498-2.632 2.953 7.398c.043.11.113.183.21.216.098.034.2.034.309 0z" transform="translate(-1736 -439) translate(1656 279) translate(0 160) translate(80)"/></g></g></g></g></g></svg>