<svg xmlns="http://www.w3.org/2000/svg" width="40" height="40" viewBox="0 0 40 40"><g fill="none" fill-rule="evenodd"><g><g><g><g><path d="M0 0H40V40H0z" transform="translate(-1896 -439) translate(1656 279) translate(0 160) translate(240)"/><path fill="#101426" d="M2.64 30.6c.267.95.9 1.749 1.737 2.233-.333-.157-.624-.359-.873-.607-.382-.383-.656-.866-.82-1.45zM36.543 9.577c.08.266.123.548.123.84v19.166l-.005.16c-.01.206-.043.407-.095.599l-7.803-7.176c-.388-.357-.78-.71-1.176-1.058l-.91-.8c-.867-.763-2.16-.784-3.05-.05l-1.216 1.005-6.68 6.028-3.638-3.283c-.766-.69-1.933-.686-2.693.013l-5.93 5.448c-.09-.28-.138-.577-.138-.886V10.417l.005-.16c.01-.198.04-.39.089-.575-.06.294-.091.617-.091.97v18.593l.002.188L8.72 24.36c.321-.29.63-.515.924-.675.295-.161.64-.241 1.037-.241.407 0 .774.08 1.1.24.327.161.651.392.973.692l2.94 2.748 6.959-6.203c.374-.354.75-.616 1.124-.788.375-.171.799-.257 1.27-.257.482 0 .91.1 1.285.297.375.199.772.453 1.19.764l9.143 8.316V10.652c0-.32-.026-.615-.078-.887zM5.687 6.709c-1.62.244-2.901 1.524-3.145 3.144.109-.922.43-1.65.962-2.182.526-.526 1.243-.845 2.15-.958zm28.686.01c.888.118 1.592.438 2.115.96.527.528.849 1.239.964 2.133-.248-1.528-1.42-2.747-2.923-3.064zm-.623-.052c2.071 0 3.75 1.679 3.75 3.75v19.166c0 2.071-1.679 3.75-3.75 3.75H6.25c-2.071 0-3.75-1.679-3.75-3.75V10.417c0-2.071 1.679-3.75 3.75-3.75h27.5zm0 .833H6.25c-1.557 0-2.83 1.22-2.912 2.757l-.005.16v19.166c0 1.557 1.22 2.83 2.757 2.913l.16.004h27.5c1.557 0 2.83-1.22 2.912-2.757l.005-.16V10.417c0-1.557-1.22-2.83-2.757-2.913l-.16-.004zm-20.403 5.61c.654 0 1.248.161 1.784.483.536.321.964.752 1.285 1.293.322.541.483 1.139.483 1.792 0 .654-.161 1.25-.483 1.792-.321.54-.75.972-1.285 1.294-.536.32-1.13.482-1.784.482-.653 0-1.25-.161-1.792-.482-.54-.322-.972-.753-1.293-1.294-.322-.541-.482-1.138-.482-1.792 0-.653.16-1.25.482-1.792.321-.54.752-.972 1.293-1.293.541-.322 1.139-.482 1.792-.482zm0 .834c-.505 0-.955.121-1.366.365-.421.25-.753.582-1.003 1.003-.244.41-.365.861-.365 1.366 0 .505.121.955.365 1.366.25.422.582.753 1.003 1.003.41.244.86.365 1.366.365.504 0 .95-.12 1.355-.363.417-.25.747-.582.998-1.005.244-.41.365-.86.365-1.366 0-.505-.12-.955-.365-1.366-.251-.423-.58-.754-.998-1.005-.404-.242-.85-.363-1.355-.363z" transform="translate(-1896 -439) translate(1656 279) translate(0 160) translate(240)"/></g></g></g></g></g></svg>