<svg xmlns="http://www.w3.org/2000/svg" width="40" height="40" viewBox="0 0 40 40">
    <g fill="none" fill-rule="evenodd">
        <g>
            <g>
                <g>
                    <path d="M0 0H40V40H0z" transform="translate(-1656 -599) translate(1656 279) translate(0 320)"/>
                    <path fill="#151A30" d="M20.285 35.532c.157-.016.304-.07.44-.163.135-.092.246-.22.333-.382l12.5-26.481c.13-.293.182-.548.155-.765-.028-.217-.114-.39-.26-.52-.147-.131-.332-.204-.554-.22-.223-.017-.459.035-.708.154L5.66 19.606c-.196.087-.342.2-.44.342-.097.141-.152.29-.162.448-.011.157.016.3.081.43.065.131.168.24.31.326.14.087.308.13.504.13l13.183.017c.141 0 .212.07.212.211l.016 13.119c0 .217.044.393.13.529.087.136.201.236.342.301.141.065.29.09.448.073zm-.033-.984c-.06-.011-.09-.044-.09-.098l.017-13.346c0-.196-.049-.35-.146-.464-.098-.114-.277-.171-.538-.171l-13.28.016c-.077 0-.115-.027-.115-.081 0-.055.022-.093.065-.114L32.55 7.87c.12-.054.211-.051.277.008.065.06.065.15 0 .269L20.39 34.466c-.033.065-.079.092-.139.082z" transform="translate(-1656 -599) translate(1656 279) translate(0 320)"/>
                </g>
            </g>
        </g>
    </g>
</svg>
