<svg xmlns="http://www.w3.org/2000/svg" width="40" height="40" viewBox="0 0 40 40">
    <g fill="none" fill-rule="evenodd">
        <g>
            <g>
                <g>
                    <path d="M0 0H40V40H0z" transform="translate(-1736 -279) translate(1656 279) translate(80)"/>
                    <path fill="#151A30" d="M25.781 37.879c1.459 0 2.552-.368 3.282-1.104.729-.735 1.093-1.826 1.093-3.271V6.394c0-1.445-.364-2.539-1.093-3.28C28.332 2.37 27.24 2 25.78 2H14.375c-1.445 0-2.536.371-3.271 1.113C10.368 3.855 10 4.95 10 6.395v27.109c0 1.445.368 2.536 1.104 3.271.735.736 1.826 1.104 3.271 1.104h11.406zm-.058-1.016h-11.29c-1.171 0-2.03-.27-2.578-.81-.546-.54-.82-1.397-.82-2.569V6.394c0-1.171.274-2.027.82-2.568.547-.54 1.407-.81 2.579-.81h.586v.507c0 .287.08.515.244.684.162.17.38.254.654.254h8.32c.274 0 .495-.085.664-.254.17-.17.254-.397.254-.684v-.507h.567c1.185 0 2.05.27 2.597.81.547.54.82 1.397.82 2.569v27.09c0 1.171-.273 2.027-.82 2.568-.547.54-1.412.81-2.597.81zm-1.055-1.172c.13 0 .244-.052.342-.156.097-.104.146-.215.146-.332 0-.13-.049-.247-.146-.351-.098-.105-.212-.157-.342-.157h-9.18c-.13 0-.24.052-.332.157-.09.104-.136.22-.136.351 0 .117.045.228.136.332.091.104.202.156.332.156h9.18z" transform="translate(-1736 -279) translate(1656 279) translate(80)"/>
                </g>
            </g>
        </g>
    </g>
</svg>
