<svg xmlns="http://www.w3.org/2000/svg" width="40" height="40" viewBox="0 0 40 40"><g fill="none" fill-rule="evenodd"><g><g><g><g><path d="M0 0H40V40H0z" transform="translate(-1736 -599) translate(1656 279) translate(0 320) translate(80)"/><path fill="#192038" d="M33.61 33.806c1.27 0 2.236-.336 2.897-1.008.662-.673.993-1.633.993-2.883v-15.8c0-1.25-.33-2.21-.993-2.883-.661-.672-1.627-1.008-2.898-1.008h-4.557c-.424 0-.76-.016-1.009-.048-.248-.032-.468-.114-.659-.246-.19-.132-.423-.347-.698-.643l-1.334-1.493c-.403-.455-.79-.757-1.16-.905-.37-.148-.91-.222-1.62-.222h-5.59c-.698 0-1.233.074-1.603.222-.37.148-.757.45-1.16.905l-1.333 1.493c-.403.434-.741.699-1.017.794-.275.095-.725.143-1.35.143H6.392c-1.27 0-2.237.336-2.898 1.008-.662.672-.993 1.633-.993 2.882v15.801c0 1.25.33 2.21.993 2.883.661.672 1.627 1.008 2.898 1.008h27.218zm-.032-.826H6.422c-.974 0-1.733-.262-2.278-.786-.546-.524-.818-1.3-.818-2.326V14.146c0-1.016.272-1.784.818-2.302.545-.52 1.304-.779 2.278-.779h4.113c.689 0 1.223-.058 1.604-.174.381-.117.778-.408 1.191-.874l1.318-1.476c.424-.466.79-.757 1.096-.874.307-.116.73-.175 1.27-.175h5.527c.54 0 .963.059 1.27.175.307.117.673.408 1.096.874l1.334 1.476c.402.466.794.757 1.175.874.381.116.916.174 1.604.174h4.558c.974 0 1.733.26 2.278.779.546.518.818 1.286.818 2.302v15.722c0 1.027-.272 1.802-.818 2.326-.545.524-1.304.786-2.278.786zM20 30.122c1.535 0 2.933-.373 4.192-1.12 1.26-.746 2.26-1.75 3.002-3.01.74-1.259 1.111-2.662 1.111-4.207 0-1.546-.368-2.949-1.103-4.209-.736-1.26-1.734-2.263-2.994-3.009-1.26-.746-2.662-1.12-4.208-1.12-1.525 0-2.917.374-4.176 1.12-1.26.746-2.263 1.75-3.01 3.01-.746 1.26-1.12 2.662-1.12 4.208 0 1.545.374 2.948 1.12 4.208.747 1.26 1.75 2.263 3.01 3.01 1.26.746 2.651 1.119 4.176 1.119zm0-.89c-1.366 0-2.61-.333-3.732-1-1.122-.667-2.017-1.564-2.684-2.692-.667-1.127-1-2.38-1-3.755 0-1.377.333-2.629 1-3.756.667-1.128 1.562-2.027 2.684-2.7 1.122-.672 2.366-1.008 3.732-1.008 1.376 0 2.626.336 3.748 1.008 1.122.673 2.014 1.572 2.676 2.7.661 1.127.992 2.38.992 3.756s-.33 2.628-.992 3.755c-.662 1.128-1.554 2.025-2.676 2.692-1.122.667-2.372 1-3.748 1zm12.117-11.664c.338-.344.508-.743.508-1.199 0-.434-.17-.823-.508-1.167-.34-.344-.726-.516-1.16-.516-.465 0-.87.172-1.214.516-.345.344-.517.733-.517 1.167 0 .487.172.884.517 1.191.344.308.749.472 1.214.493.434.021.82-.14 1.16-.485z" transform="translate(-1736 -599) translate(1656 279) translate(0 320) translate(80)"/></g></g></g></g></g></svg>