<svg xmlns="http://www.w3.org/2000/svg" width="40" height="40" viewBox="0 0 40 40"><g fill="none" fill-rule="evenodd"><g><g><g><g><path d="M0 0H40V40H0z" transform="translate(-1896 -359) translate(1656 279) translate(0 80) translate(240)"/><path fill="#151A30" d="M20.048 19.844c1.15 0 2.184-.3 3.1-.903.918-.602 1.647-1.413 2.19-2.433.542-1.02.814-2.17.814-3.45 0-1.216-.277-2.328-.83-3.337-.554-1.01-1.294-1.812-2.222-2.41-.928-.596-1.945-.894-3.052-.894-1.128 0-2.156.298-3.084.895-.928.597-1.668 1.4-2.222 2.409-.553 1.009-.824 2.116-.814 3.32.011 1.291.288 2.45.83 3.475.543 1.025 1.27 1.836 2.181 2.433.912.597 1.948.895 3.11.895zm0-.846c-.987 0-1.88-.263-2.677-.79-.798-.526-1.43-1.236-1.896-2.132-.467-.895-.7-1.907-.7-3.035-.011-1.053.222-2.016.7-2.889.477-.873 1.115-1.576 1.912-2.108.798-.531 1.685-.797 2.661-.797.955 0 1.831.263 2.629.79.797.525 1.432 1.228 1.904 2.107.472.879.708 1.85.708 2.913 0 1.118-.23 2.124-.692 3.02-.46.895-1.087 1.605-1.88 2.132-.792.526-1.681.789-2.669.789zM30.383 33.63c1.66 0 2.49-.64 2.49-1.92 0-.988-.295-2.03-.886-3.125-.592-1.096-1.452-2.124-2.58-3.085-1.129-.96-2.482-1.741-4.061-2.343-1.579-.603-3.361-.904-5.347-.904-1.974 0-3.754.301-5.338.904-1.584.602-2.938 1.383-4.061 2.343-1.123.96-1.983 1.989-2.58 3.085-.597 1.096-.895 2.137-.895 3.125 0 1.28.83 1.92 2.49 1.92h20.768zm.017-.846H9.599c-.619 0-1.044-.082-1.278-.244-.233-.163-.35-.445-.35-.847 0-.9.274-1.85.822-2.848.548-.998 1.34-1.931 2.377-2.8 1.036-.867 2.297-1.575 3.784-2.123 1.486-.548 3.168-.822 5.045-.822 1.888 0 3.573.274 5.054.822 1.481.548 2.743 1.256 3.784 2.124 1.042.868 1.834 1.8 2.377 2.8.542.997.813 1.947.813 2.847 0 .402-.114.684-.341.847-.228.162-.657.244-1.286.244z" transform="translate(-1896 -359) translate(1656 279) translate(0 80) translate(240)"/></g></g></g></g></g></svg>