<svg xmlns="http://www.w3.org/2000/svg" width="40" height="40" viewBox="0 0 40 40">
    <g fill="none" fill-rule="evenodd">
        <g>
            <g>
                <g>
                    <g>
                        <path d="M0 0H40V40H0z" transform="translate(-1816 -519) translate(1656 279) translate(0 240) translate(160)"/>
                        <path fill="#151A30" d="M32.874 33.31c1.292 0 2.276-.344 2.954-1.033.679-.689 1.018-1.674 1.018-2.954V13.519c0-1.28-.34-2.265-1.018-2.954-.678-.69-1.668-1.034-2.97-1.034H17.835c-.683 0-1.22-.06-1.611-.179-.39-.12-.798-.385-1.22-.797l-.798-.749c-.326-.315-.627-.553-.904-.716-.276-.163-.583-.274-.92-.334-.336-.06-.764-.09-1.285-.09H6.751c-1.139 0-1.994.288-2.563.863-.57.575-.855 1.433-.855 2.572v19.222c0 1.302.34 2.292 1.018 2.97.678.678 1.668 1.018 2.97 1.018h25.553zm-.065-.846H7.354c-1.042 0-1.832-.268-2.369-.805-.537-.538-.805-1.332-.805-2.385V10.182c0-.911.222-1.587.667-2.026.445-.44 1.118-.66 2.018-.66h4.086c.661 0 1.177.066 1.546.196s.781.412 1.237.846l.797.75c.304.292.597.517.88.675.281.157.601.265.96.325.358.06.802.09 1.334.09H32.81c1.01 0 1.793.268 2.352.805.559.537.838 1.332.838 2.385v15.706c0 1.053-.28 1.847-.838 2.385-.559.537-1.343.805-2.352.805zM19.43 25.156c.109 0 .198-.04.269-.122.07-.081.106-.187.106-.317v-.488c0-.445.11-.828.333-1.148.223-.32.616-.675 1.18-1.066.738-.5 1.256-.982 1.555-1.449.298-.466.447-1.014.447-1.643 0-.554-.154-1.048-.464-1.482-.309-.434-.735-.778-1.277-1.033-.543-.255-1.167-.383-1.872-.383-1.063 0-1.918.277-2.563.83-.646.554-1.012 1.2-1.1 1.937-.01.065-.018.141-.023.228-.006.087-.009.18-.009.277 0 .12.038.211.114.277.076.065.168.097.277.097.12 0 .217-.032.293-.097.076-.066.12-.158.13-.277.065-.695.345-1.291.838-1.79.494-.5 1.159-.75 1.994-.75.868 0 1.557.21 2.067.627.51.418.765.953.765 1.604 0 .477-.133.9-.399 1.27-.265.368-.746.791-1.44 1.269-.597.412-1.017.819-1.261 1.22-.244.402-.367.88-.367 1.433v.537c0 .293.136.44.407.44zm-.016 3.63c.25 0 .464-.09.643-.269.179-.179.269-.388.269-.626 0-.26-.09-.478-.269-.651-.18-.174-.393-.26-.643-.26-.26 0-.48.089-.66.268-.178.179-.268.393-.268.643 0 .238.09.447.269.626.179.18.399.269.66.269z" transform="translate(-1816 -519) translate(1656 279) translate(0 240) translate(160)"/>
                    </g>
                </g>
            </g>
        </g>
    </g>
</svg>
