<svg xmlns="http://www.w3.org/2000/svg" width="40" height="40" viewBox="0 0 40 40"><g fill="none" fill-rule="evenodd"><g><g><g><g><path d="M0 0H40V40H0z" transform="translate(-1896 -519) translate(1656 279) translate(0 240) translate(240)"/><path fill="#151A30" d="M13.923 34.186c1.296 0 2.478-.385 3.547-1.155 1.068-.77 1.99-1.844 2.763-3.222.179-.319.348-.649.508-.992l.042-.092H38.25c.106 0 .196-.036.268-.107.073-.071.109-.16.109-.264 0-.104-.036-.192-.109-.264-.072-.071-.162-.107-.268-.107l-17.15.001.092-.231c.33-.857.61-1.78.84-2.771.39-1.686.6-3.494.633-5.424l.001-.208.357-.072c.844-.157 1.728-.235 2.65-.235.986 0 1.48.29 1.48.87 0 .342-.071.713-.211 1.112-.14.4-.28.813-.421 1.24-.14.428-.21.837-.21 1.227 0 .399.116.677.348.834.232.157.483.235.754.235.464 0 .958-.169 1.48-.506.522-.338 1.042-.751 1.56-1.24.517-.49 1.017-.98 1.5-1.47.484-.489.927-.9 1.328-1.233.402-.333.742-.499 1.023-.499.29 0 .476.147.558.442.083.295.126.66.131 1.098.005.437.036.875.094 1.312.058.437.206.803.443 1.098.237.295.63.442 1.182.442.242 0 .484-.03.725-.093.242-.061.498-.168.77-.32.077-.039.135-.09.173-.157.039-.067.058-.133.058-.2 0-.105-.031-.197-.094-.278-.063-.08-.147-.121-.254-.121-.145 0-.331.066-.558.2-.228.132-.486.199-.776.199-.358 0-.6-.15-.726-.45-.126-.299-.196-.667-.21-1.104-.015-.438-.041-.877-.08-1.32-.039-.441-.15-.812-.334-1.111-.183-.3-.512-.45-.986-.45-.406 0-.851.167-1.335.5-.483.332-.984.746-1.501 1.24-.518.494-1.025.986-1.523 1.476s-.963.9-1.393 1.233c-.43.333-.805.5-1.124.5-.261 0-.392-.138-.392-.414 0-.352.07-.725.21-1.12l.421-1.19c.14-.4.21-.775.21-1.127 0-.542-.19-.955-.573-1.24-.382-.285-.945-.428-1.69-.428-1.033 0-2.021.095-2.965.286l-.101.022-.01-.452c-.055-1.55-.246-2.991-.572-4.326-.392-1.602-.955-2.995-1.69-4.178-.735-1.184-1.613-2.101-2.633-2.752-1.02-.652-2.164-.977-3.43-.977-1.045 0-1.988.268-2.83.806-.841.537-1.51 1.261-2.009 2.174-.498.913-.747 1.944-.747 3.094 0 .837.118 1.678.355 2.524.237.846.602 1.676 1.096 2.489.493.812 1.124 1.594 1.893 2.345.769.751 1.68 1.46 2.734 2.125.235.148.476.292.726.434l.303.167-.33.29c-.783.709-1.478 1.462-2.084 2.26-.866 1.14-1.53 2.28-1.995 3.415l-.003.008H1.505c-.106 0-.196.035-.268.106-.073.072-.11.16-.11.264 0 .105.037.193.11.264.072.071.162.107.268.107h9.66l-.027.084c-.262.814-.392 1.57-.392 2.269 0 .912.288 1.658.863 2.238.576.58 1.347.87 2.314.87zm2.645-12.762l-.337-.192c-.328-.191-.65-.388-.966-.592-1.108-.713-2.09-1.51-2.945-2.389-.856-.879-1.53-1.844-2.024-2.894-.493-1.05-.74-2.194-.74-3.43 0-.988.213-1.88.639-2.673.425-.794.998-1.424 1.719-1.89.72-.465 1.525-.698 2.415-.698 1.151 0 2.19.32 3.119.962.928.642 1.72 1.53 2.372 2.667.653 1.136 1.153 2.45 1.501 3.942.314 1.344.486 2.772.517 4.284l.003.219-.117.031c-.341.099-.676.21-1.005.336-1.533.585-2.913 1.355-4.141 2.31l-.01.007zm-10.37 3.109c.102 0 .186-.034.254-.1.077-.076.116-.164.116-.264s-.039-.183-.116-.25l-2.075-2.038 2.075-2.04c.077-.066.116-.15.116-.25s-.039-.187-.116-.263c-.068-.067-.152-.1-.254-.1-.102 0-.191.033-.268.1L3.858 21.37 1.78 19.328c-.078-.067-.165-.1-.261-.1-.097 0-.18.033-.247.1-.087.076-.13.164-.13.264s.043.183.13.25l2.068 2.039-2.068 2.038c-.087.067-.13.15-.13.25s.043.188.13.264c.068.066.15.1.247.1.096 0 .183-.034.26-.1l2.078-2.042 2.072 2.042c.077.066.166.1.268.1zm14.013 3.451h-7.93l.072-.169c.422-.954.998-1.91 1.73-2.869.65-.852 1.41-1.649 2.279-2.39l.208-.174.153.075c.544.263 1.12.513 1.726.75.087.038.17.057.247.057.106 0 .193-.036.26-.107.068-.072.102-.15.102-.236 0-.085-.021-.157-.065-.214-.044-.057-.109-.109-.196-.156-.356-.16-.707-.327-1.052-.5l-.456-.233.064-.049c1.075-.783 2.27-1.42 3.584-1.913.222-.084.448-.16.677-.231l.224-.065v.045c-.034 1.719-.22 3.36-.56 4.92-.252 1.157-.572 2.224-.96 3.2l-.107.26zm-6.158 5.404c-.86 0-1.489-.228-1.885-.685-.397-.456-.595-1.017-.595-1.682 0-.63.114-1.31.341-2.042l.083-.254h7.883l-.03.062c-.055.114-.11.226-.168.337-.687 1.331-1.509 2.374-2.466 3.13-.958.756-2.012 1.134-3.163 1.134z" transform="translate(-1896 -519) translate(1656 279) translate(0 240) translate(240)"/></g></g></g></g></g></svg>