<svg xmlns="http://www.w3.org/2000/svg" width="40" height="40" viewBox="0 0 40 40"><g fill="none" fill-rule="evenodd"><g><g><g><path d="M0 0H40V40H0z" transform="translate(-1816 -279) translate(1656 279) translate(160)"/><path fill="#151A30" d="M29.993 39c1.628 0 2.87-.395 3.725-1.185S35 35.872 35 34.355V5.645c0-1.517-.427-2.67-1.282-3.46S31.62 1 29.993 1H10.007c-1.628 0-2.87.395-3.725 1.185S5 4.128 5 5.645v28.71c0 1.517.427 2.67 1.282 3.46S8.38 39 10.007 39h19.986zm-.038-.974h-19.91c-1.316 0-2.314-.313-2.992-.938-.68-.625-1.019-1.55-1.019-2.775V5.687c0-1.212.34-2.134 1.019-2.765.678-.632 1.676-.948 2.992-.948h19.91c1.316 0 2.314.316 2.992.948.68.631 1.019 1.553 1.019 2.765v28.626c0 1.225-.34 2.15-1.019 2.775-.678.625-1.676.938-2.992.938zm-4.757-.996c.136 0 .252-.044.348-.133.096-.089.144-.197.144-.323 0-.14-.048-.254-.144-.343-.096-.089-.212-.133-.348-.133H14.823c-.15 0-.273.044-.37.133-.095.089-.143.203-.143.343 0 .126.048.234.144.323.096.089.219.133.369.133h10.375z" transform="translate(-1816 -279) translate(1656 279) translate(160)"/></g></g></g></g></svg>