<svg xmlns="http://www.w3.org/2000/svg" width="40" height="40" viewBox="0 0 40 40">
    <g fill="none" fill-rule="evenodd">
        <g>
            <g>
                <g>
                    <path d="M0 0H40V40H0z" transform="translate(-1896 -279) translate(1656 279) translate(240)"/>
                    <path fill="#151A30" d="M33.988 8.33c.119 0 .22-.038.3-.114.082-.076.123-.179.123-.31 0-.13-.04-.23-.122-.3-.082-.07-.182-.106-.301-.106H5.439c-.13 0-.236.035-.317.106-.081.07-.122.17-.122.3 0 .131.04.234.122.31.081.076.187.114.317.114h28.549zm0 8.057c.119 0 .22-.038.3-.114.082-.076.123-.18.123-.31 0-.119-.04-.216-.122-.292-.082-.076-.182-.114-.301-.114H5.439c-.13 0-.236.038-.317.114-.081.076-.122.173-.122.293 0 .13.04.233.122.309.081.076.187.114.317.114h28.549zm0 8.073c.119 0 .22-.041.3-.122.082-.082.123-.188.123-.318 0-.12-.04-.217-.122-.293-.082-.076-.182-.114-.301-.114H5.439c-.13 0-.236.038-.317.114-.081.076-.122.174-.122.293 0 .13.04.236.122.318.081.08.187.122.317.122h28.549zm-13.623 8.056c.119 0 .217-.038.293-.114.076-.076.113-.179.113-.309 0-.12-.037-.22-.113-.301-.076-.081-.174-.122-.293-.122H5.439c-.13 0-.236.04-.317.122-.081.081-.122.182-.122.301 0 .13.04.233.122.31.081.075.187.113.317.113h14.926z" transform="translate(-1896 -279) translate(1656 279) translate(240)"/>
                </g>
            </g>
        </g>
    </g>
</svg>
