<svg xmlns="http://www.w3.org/2000/svg" width="40" height="40" viewBox="0 0 40 40">
    <g fill="none" fill-rule="evenodd">
        <g fill="#151A30">
            <g>
                <g>
                    <path d="M23.883 32.126c1.639 0 2.89-.432 3.752-1.294.863-.863 1.294-2.103 1.294-3.72v-3.736l6.624 5.3c.272.216.532.39.782.52s.526.195.83.195c.445 0 .803-.149 1.074-.447.271-.299.407-.725.407-1.278V11.943c0-.542-.136-.963-.407-1.261-.271-.298-.63-.448-1.074-.448-.304 0-.58.063-.83.188-.25.124-.51.295-.782.512l-6.624 5.3v-3.721c0-1.628-.431-2.87-1.294-3.727-.863-.857-2.113-1.286-3.752-1.286H6.713c-1.628 0-2.876.429-3.744 1.286-.868.857-1.302 2.1-1.302 3.727v14.6c0 1.616.434 2.856 1.302 3.719.868.862 2.116 1.294 3.743 1.294h17.171zm-.195-.814H6.924c-1.476 0-2.577-.366-3.304-1.099-.727-.732-1.09-1.836-1.09-3.312V12.725c0-1.476.363-2.583 1.09-3.32.727-.739 1.828-1.107 3.304-1.107h16.764c1.476 0 2.577.368 3.304 1.106.727.738 1.09 1.845 1.09 3.32v14.177c0 1.476-.363 2.58-1.09 3.312-.727.733-1.828 1.099-3.304 1.099zm13.412-2.75c-.141 0-.296-.052-.464-.155-.168-.104-.356-.226-.562-.367l-7.145-5.642v-5.184l7.145-5.629c.206-.152.394-.28.562-.382.168-.103.323-.155.464-.155.466 0 .7.31.7.928V27.65c0 .607-.234.911-.7.911z" transform="translate(-1656 -519) translate(1656 279) translate(0 240)"/>
                </g>
            </g>
        </g>
    </g>
</svg>
