<svg xmlns="http://www.w3.org/2000/svg" width="40" height="40" viewBox="0 0 40 40">
    <g fill="none" fill-rule="evenodd">
        <g>
            <g>
                <g>
                    <g>
                        <path d="M0 0H40V40H0z" transform="translate(-1736 -519) translate(1656 279) translate(0 240) translate(80)"/>
                        <path fill="#192038" d="M19.909 34.801c2.04 0 3.96-.39 5.762-1.171 1.8-.782 3.388-1.856 4.76-3.223 1.373-1.367 2.444-2.949 3.215-4.745.77-1.795 1.155-3.719 1.155-5.77 0-2.05-.385-3.973-1.155-5.77-.77-1.795-1.84-3.377-3.207-4.744-1.367-1.367-2.954-2.438-4.76-3.214C23.872 5.388 21.949 5 19.909 5c-2.05 0-3.977.388-5.778 1.164-1.801.776-3.386 1.847-4.753 3.214s-2.438 2.949-3.214 4.745C5.388 15.919 5 17.842 5 19.893c0 2.05.388 3.974 1.164 5.77.776 1.795 1.847 3.377 3.214 4.744s2.952 2.441 4.753 3.223c1.801.78 3.727 1.171 5.778 1.171zm.406-22.464V5.924l.139.02c.659.12 1.29.459 1.896 1.017.77.711 1.457 1.704 2.06 2.979.273.58.52 1.203.74 1.871l.002.008-.314.067c-.293.059-.593.113-.9.162-1.078.17-2.241.267-3.49.288l-.133.001zm-.83 0l.424.003c-1.454 0-2.797-.097-4.028-.292-.308-.05-.609-.103-.901-.162l-.315-.067c.222-.673.47-1.3.744-1.88.602-1.274 1.288-2.267 2.058-2.978.606-.558 1.238-.897 1.897-1.017l.121-.018v6.411zm6.496-.72l-.107-.314c-.274-.773-.583-1.48-.928-2.12-.689-1.28-1.467-2.262-2.335-2.946l-.201-.152-.082-.056.01.001c1.048.178 2.056.475 3.023.89 1.563.672 2.957 1.583 4.182 2.735l.279.271-.263.177c-.665.43-1.43.801-2.293 1.114-.37.135-.758.258-1.163.369l-.122.032zm-12.147 0l-.12-.031c-.404-.111-.792-.234-1.162-.369-.864-.313-1.628-.684-2.293-1.114l-.269-.18.276-.268c1.22-1.152 2.615-2.063 4.182-2.734.97-.416 1.98-.713 3.03-.89h.003l-.08.054c-.068.049-.135.1-.202.152-.874.684-1.652 1.666-2.336 2.946-.342.64-.649 1.347-.921 2.12l-.108.315zM12.62 19.47H5.853l.016-.397c.089-1.628.445-3.172 1.068-4.632.615-1.441 1.432-2.735 2.451-3.881l.065-.071.154.114c.672.477 1.486.897 2.44 1.258.403.153.824.293 1.263.42l.292.082-.043.15c-.12.42-.23.857-.331 1.31-.373 1.66-.575 3.513-.607 5.557l-.001.09zm21.344 0h-6.767v-.09c-.032-2.044-.234-3.896-.607-5.557-.102-.453-.212-.89-.331-1.31l-.046-.15.292-.082c.437-.127.856-.267 1.257-.42.95-.361 1.765-.78 2.445-1.258l.153-.113.064.07c1.023 1.146 1.842 2.44 2.457 3.881.623 1.46.98 3.004 1.068 4.632l.015.397zm-14.479 0h-6.002l.002-.12c.03-1.76.2-3.408.508-4.941.124-.62.265-1.211.424-1.774l.019-.065.244.056c.316.068.64.13.973.188 1.163.199 2.394.311 3.694.336l.138.001v6.32zm6.848 0h-6.018v-6.318l.155-.002c1.3-.025 2.532-.137 3.695-.336.332-.057.657-.12.973-.188l.243-.056.02.065c.158.563.3 1.154.424 1.774.308 1.533.477 3.18.508 4.942v.12zm-16.84 9.866l-.105-.114c-1.019-1.142-1.836-2.43-2.451-3.868-.623-1.455-.98-3-1.068-4.635l-.017-.402h6.767l.002.185c.031 2.035.23 3.883.598 5.544.1.453.21.89.328 1.31l.045.152-.282.078c-.439.128-.86.269-1.262.421-.955.362-1.769.777-2.44 1.246l-.116.083zm4.991-2.052l-.019-.066c-.178-.614-.336-1.26-.472-1.937-.304-1.505-.473-3.078-.507-4.72l-.003-.244h6.002V26.7l-.138.001c-1.3.026-2.531.14-3.694.345-.333.058-.657.122-.973.191l-.196.046zm10.848 0l-.194-.046c-.316-.069-.64-.133-.973-.191-1.163-.204-2.395-.32-3.695-.345h-.155v-6.385h6.018l-.001.244c-.034 1.642-.203 3.215-.507 4.72-.137.677-.294 1.323-.472 1.937l-.02.066zm4.991 2.053l.133.094c-.727-.542-1.625-1.017-2.694-1.424-.4-.152-.82-.293-1.257-.421l-.29-.08.044-.15c.119-.42.23-.857.331-1.31.373-1.661.575-3.51.606-5.544l.002-.185h6.767l-.016.402c-.089 1.634-.445 3.18-1.068 4.635-.615 1.437-1.432 2.726-2.452 3.868l-.106.115zM19.485 33.94l-.121-.02c-.66-.125-1.291-.482-1.897-1.07-.77-.75-1.456-1.775-2.058-3.077-.241-.52-.461-1.073-.66-1.656l-.027-.08.258-.055c.292-.06.593-.113.9-.162 1.078-.17 2.24-.267 3.489-.288h.116v6.408zm.83.003V27.53h.134c1.248.022 2.41.118 3.488.289.308.049.608.103.901.162l.257.055-.026.08c-.199.583-.419 1.135-.66 1.656-.602 1.302-1.288 2.328-2.059 3.076-.605.589-1.237.946-1.896 1.072l-.139.022zm2.15-.212l.146-.109c.868-.678 1.646-1.657 2.335-2.937.345-.64.654-1.347.928-2.12l.107-.315.122.032c.405.111.792.234 1.163.368.864.313 1.628.689 2.293 1.127l.203.141-.21.204c-1.22 1.148-2.615 2.06-4.183 2.735-.849.367-1.728.641-2.638.824l-.266.05zm-5.123-.001l-.255-.049c-.91-.183-1.79-.457-2.639-.824-1.567-.676-2.961-1.587-4.182-2.735l-.212-.204.205-.141c.665-.438 1.43-.814 2.293-1.127.37-.134.758-.257 1.162-.368l.11-.028.105.31c.273.774.582 1.48.926 2.12.69 1.281 1.47 2.26 2.344 2.938l.143.108z" transform="translate(-1736 -519) translate(1656 279) translate(0 240) translate(80)"/>
                    </g>
                </g>
            </g>
        </g>
    </g>
</svg>
