<svg xmlns="http://www.w3.org/2000/svg" width="25" height="24" viewBox="0 0 25 24">
    <g fill="none" fill-rule="evenodd">
        <g fill="#151A30">
            <g>
                <path d="M21.37 8.135c.184 0 .337.13.372.303l.008.077v8.732c0 .113-.05.218-.134.29l-.068.046-8.327 4.401c-.037.02-.076.033-.117.04l-.06.004c-.185 0-.338-.13-.373-.303l-.008-.076v-8.74c0-.112.05-.217.134-.289l.069-.046 8.327-4.395c.036-.02.075-.032.116-.039l.061-.005zm-18.634.016l.071.029 8.327 4.401c.1.053.17.146.194.253l.009.083v8.732c0 .062-.015.123-.044.177-.061.116-.174.188-.295.2l-.074.002c-.024-.002-.049-.007-.073-.014l-.071-.029-8.327-4.395c-.1-.052-.17-.145-.194-.253l-.009-.083V8.515c0-.061.015-.122.044-.177.061-.116.174-.187.295-.2l.074-.001c.024.002.049.007.073.014zm.9 2.027v6.412l6.243 3.261v-6.405l-6.243-3.268zm16.737.003l-6.35 3.33V19.9l6.35-3.336v-6.383zm-8.266-8.175l.069.028 8.28 4.36c.068.035.123.09.16.158.085.163.041.359-.095.471l-.065.043-8.288 4.373c-.089.046-.191.056-.286.028l-.069-.028-8.272-4.366c-.068-.036-.123-.091-.159-.159-.086-.162-.042-.359.095-.47L3.54 6.4l8.28-4.367c.09-.046.192-.056.286-.028zm-.121 1.842l-5.94 2.889 5.94 2.884 5.963-2.891-5.963-2.882z" transform="translate(-584 -511) translate(584 511)"/>
            </g>
        </g>
    </g>
</svg>
