<svg xmlns="http://www.w3.org/2000/svg" width="25" height="24" viewBox="0 0 25 24"><g fill="none" fill-rule="evenodd"><g><g><g><g><path d="M0 0H24V24H0z" transform="translate(-968 -447) translate(584 279) translate(0 168) translate(384)"/><path fill="#151A30" d="M7.25 16.813h4.071c.374 0 .679-.31.679-.688V12c0-.378-.305-.688-.679-.688H7.25c-.373 0-.679.31-.679.688v4.125c0 .378.306.688.679.688zM19.464 3.75H17.43V1.687c0-.378-.306-.687-.679-.687h-1.357c-.373 0-.679.31-.679.688V3.75H9.286V1.687C9.286 1.31 8.98 1 8.607 1H7.25c-.373 0-.679.31-.679.688V3.75H4.536c-1.124 0-2.036.924-2.036 2.063v15.125C2.5 22.075 3.412 23 4.536 23h14.928c1.124 0 2.036-.924 2.036-2.063V5.813c0-1.138-.912-2.062-2.036-2.062zm0 16.93c0 .141-.114.258-.254.258H4.79c-.14 0-.254-.117-.254-.258V7.875h14.928V20.68z" transform="translate(-968 -447) translate(584 279) translate(0 168) translate(384)"/></g></g></g></g></g></svg>