<svg xmlns="http://www.w3.org/2000/svg" width="25" height="24" viewBox="0 0 25 24"><g fill="none" fill-rule="evenodd"><g><g><g><path d="M0 0L24 0 24 24 0 24z" transform="translate(-584 -447) translate(584 279) translate(0 168)"/><path fill="#151A30" d="M12 1C5.925 1 1 5.925 1 12s4.925 11 11 11 11-4.925 11-11S18.075 1 12 1zm0 2.129c4.903 0 8.871 3.968 8.871 8.871 0 4.903-3.968 8.871-8.871 8.871-4.903 0-8.871-3.968-8.871-8.871 0-4.903 3.968-8.871 8.871-8.871m6.219 5.778l-1-1.008c-.207-.208-.544-.21-.753-.003l-6.27 6.22-2.651-2.674c-.207-.209-.544-.21-.753-.003l-1.008 1c-.208.207-.21.544-.003.752l4.027 4.06c.207.208.544.21.753.002l7.655-7.593c.208-.207.21-.544.003-.753z" transform="translate(-584 -447) translate(584 279) translate(0 168)"/></g></g></g></g></svg>