<svg xmlns="http://www.w3.org/2000/svg" width="25" height="24" viewBox="0 0 25 24"><g fill="none" fill-rule="evenodd"><g><g><g><g><path d="M0 0L24 0 24 24 0 24z" transform="translate(-632 -447) translate(584 279) translate(0 168) translate(48)"/><path fill="#151A30" d="M19.857 2H4.143C2.959 2 2 2.96 2 4.143v15.714C2 21.041 2.96 22 4.143 22h15.714C21.041 22 22 21.04 22 19.857V4.143C22 2.959 21.04 2 19.857 2zm0 17.857H4.143V4.143h15.714v15.714zm-1.6-10.791l-7.706 7.643c-.21.208-.549.207-.757-.003L5.74 12.62c-.208-.21-.207-.549.003-.757l1.014-1.006c.21-.209.55-.207.758.003l2.67 2.69 6.31-6.259c.21-.208.549-.207.757.003l1.006 1.014c.208.21.207.55-.003.758z" transform="translate(-632 -447) translate(584 279) translate(0 168) translate(48)"/></g></g></g></g></g></svg>