<svg xmlns="http://www.w3.org/2000/svg" width="25" height="24" viewBox="0 0 25 24">
    <g fill="none" fill-rule="evenodd">
        <g>
            <g>
                <g>
                    <path d="M0 0H24V24H0z" transform="translate(-872 -279) translate(584 279) translate(288)"/>
                    <path fill="#151A30" d="M12.001 3C5.926 3 1.003 6.948 1.003 11.821c0 2.02.855 3.868 2.273 5.357-.64 1.67-1.972 3.087-1.994 3.104-.283.297-.36.73-.198 1.103.164.373.538.615.95.615 2.642 0 4.726-1.09 5.976-1.964 1.242.386 2.582.607 3.991.607C18.076 20.643 23 16.694 23 11.82 23 6.948 18.076 3 12.001 3zm0 15.607c-1.147 0-2.28-.174-3.368-.513l-.975-.305-.838.585c-.614.428-1.456.907-2.47 1.23.313-.513.618-1.09.855-1.705l.455-1.192-.885-.924c-.778-.819-1.71-2.172-1.71-3.962 0-3.74 4.009-6.785 8.936-6.785 4.928 0 8.937 3.045 8.937 6.785 0 3.741-4.009 6.786-8.937 6.786z" transform="translate(-872 -279) translate(584 279) translate(288)"/>
                </g>
            </g>
        </g>
    </g>
</svg>
