<svg xmlns="http://www.w3.org/2000/svg" width="25" height="24" viewBox="0 0 25 24"><g fill="none" fill-rule="evenodd"><g><g><g><g><path d="M0 0H24V24H0z" transform="translate(-1016 -391) translate(584 279) translate(0 112) translate(432)"/><path fill="#151A30" d="M1.5 8.438V2.625c0-.623.502-1.125 1.125-1.125h5.813c.309 0 .562.253.562.563v1.124c0 .31-.253.563-.563.563H3.75v4.688c0 .309-.253.562-.563.562H2.063c-.31 0-.563-.253-.563-.563zM15 2.061v1.126c0 .309.253.562.563.562h4.687v4.688c0 .309.253.562.563.562h1.125c.309 0 .562-.253.562-.563V2.625c0-.623-.502-1.125-1.125-1.125h-5.813c-.309 0-.562.253-.562.563zM21.938 15h-1.125c-.31 0-.563.253-.563.563v4.687h-4.688c-.309 0-.562.253-.562.563v1.125c0 .309.253.562.563.562h5.812c.623 0 1.125-.502 1.125-1.125v-5.813c0-.309-.253-.562-.563-.562zM9 21.938v-1.125c0-.31-.253-.563-.563-.563H3.75v-4.688c0-.309-.253-.562-.563-.562H2.063c-.31 0-.563.253-.563.563v5.812c0 .623.502 1.125 1.125 1.125h5.813c.309 0 .562-.253.562-.563z" transform="translate(-1016 -391) translate(584 279) translate(0 112) translate(432)"/></g></g></g></g></g></svg>