<svg xmlns="http://www.w3.org/2000/svg" width="25" height="24" viewBox="0 0 25 24"><g fill="none" fill-rule="evenodd"><g><g><g><g><path d="M0 0H24V24H0z" transform="translate(-920 -335) translate(584 279) translate(0 56) translate(336)"/><path fill="#151A30" d="M20.821 19H3.18c-.375 0-.679.298-.679.667v.666c0 .369.304.667.679.667H20.82c.375 0 .679-.298.679-.667v-.666c0-.369-.304-.667-.679-.667zm0-5.333H3.18c-.375 0-.679.298-.679.666V15c0 .368.304.667.679.667H20.82c.375 0 .679-.299.679-.667v-.667c0-.368-.304-.666-.679-.666zm0-5.334H3.18c-.375 0-.679.299-.679.667v.667c0 .368.304.666.679.666H20.82c.375 0 .679-.298.679-.666V9c0-.368-.304-.667-.679-.667zm0-5.333H3.18c-.375 0-.679.298-.679.667v.666c0 .369.304.667.679.667H20.82c.375 0 .679-.298.679-.667v-.666c0-.369-.304-.667-.679-.667z" transform="translate(-920 -335) translate(584 279) translate(0 56) translate(336)"/></g></g></g></g></g></svg>