<svg xmlns="http://www.w3.org/2000/svg" width="25" height="24" viewBox="0 0 25 24"><g fill="none" fill-rule="evenodd"><g><g><g><path d="M0 0H24V24H0z" transform="translate(-584 -391) translate(584 279) translate(0 112)"/><path fill="#151A30" d="M16.54 11.308c2.047-1.826 2.138-4.871.201-6.802-.966-.964-2.312-1.509-3.718-1.506H5.182c-.377 0-.682.288-.682.643v.643c0 .355.305.643.682.643h.682V19.07h-.682c-.377 0-.682.288-.682.643v.643c0 .355.305.643.682.643h8.863c3.013 0 5.455-2.303 5.455-5.143 0-1.988-1.21-3.693-2.96-4.549zm-7.95-6.38h3.75c1.695 0 3.07 1.296 3.07 2.893 0 1.598-1.375 2.893-3.07 2.893H8.59V4.93zm4.774 14.143H8.59v-6.428h4.773c1.882 0 3.409 1.439 3.409 3.214s-1.527 3.214-3.41 3.214z" transform="translate(-584 -391) translate(584 279) translate(0 112)"/></g></g></g></g></svg>