<svg xmlns="http://www.w3.org/2000/svg" width="25" height="24" viewBox="0 0 25 24"><g fill="none" fill-rule="evenodd"><g><g><g><g><path d="M0 0H24V24H0z" transform="translate(-680 -335) translate(584 279) translate(0 56) translate(96)"/><path fill="#151A30" d="M22.793 19.559L2.238 3.123c-.238-.194-.584-.155-.773.088l-.344.439c-.19.243-.152.597.085.79l20.557 16.437c.237.194.583.154.773-.088l.343-.439c.19-.243.152-.597-.086-.791zM12 5.94c.796 1.998 1.788 3.449 2.62 4.664.144.21.28.411.41.605l2.896 2.315c-.616-3.083-3.484-4.79-4.921-9.748-.138-.512-.571-.777-1.006-.777-.424 0-.85.253-1.003.777-.36 1.237-.81 2.266-1.294 3.173l1.31 1.048c.345-.624.682-1.29.988-2.057zm0 13.372c-2.426 0-4.4-2.052-4.4-4.574 0-.926.266-1.675.714-2.474L7.005 11.22c-.623 1.063-1.055 2.142-1.055 3.52C5.95 18.199 8.656 21 12 21c1.82 0 3.445-.833 4.554-2.146l-1.312-1.049c-.805.92-1.954 1.508-3.242 1.508z" transform="translate(-680 -335) translate(584 279) translate(0 56) translate(96)"/></g></g></g></g></g></svg>