<svg xmlns="http://www.w3.org/2000/svg" width="25" height="24" viewBox="0 0 25 24">
    <g fill="none" fill-rule="evenodd">
        <g>
            <g>
                <g>
                    <g>
                        <path d="M0 0H24V24H0z" transform="translate(-1016 -335) translate(584 279) translate(0 56) translate(432)"/>
                        <path fill="#151A30" d="M20.821 18.962H3.18c-.375 0-.679.304-.679.68v.679c0 .375.304.679.679.679H20.82c.375 0 .679-.304.679-.68v-.678c0-.376-.304-.68-.679-.68zM3.658 16.385L7.73 12.31c.264-.265.264-.695 0-.96L3.658 7.274c-.426-.425-1.158-.123-1.158.48v8.152c0 .607.735.904 1.158.48zm17.298-8.29h-9.769c-.3 0-.544.243-.544.543v.949c0 .301.243.545.543.545h9.77c.3 0 .544-.243.544-.544v-.949c0-.3-.243-.544-.543-.545h-.001zM20.82 3H3.18c-.375 0-.679.304-.679.68v.678c0 .376.304.68.679.68H20.82c.375 0 .679-.304.679-.68V3.68c0-.375-.304-.679-.679-.679zm.135 10.528h-9.769c-.3 0-.544.244-.544.544v.949c0 .301.243.545.543.545h9.77c.3 0 .544-.243.544-.544v-.949c0-.3-.243-.544-.543-.545h-.001z" transform="translate(-1016 -335) translate(584 279) translate(0 56) translate(432)"/>
                    </g>
                </g>
            </g>
        </g>
    </g>
</svg>
