<svg xmlns="http://www.w3.org/2000/svg" width="25" height="24" viewBox="0 0 25 24">
    <g fill="none" fill-rule="evenodd">
        <g>
            <g>
                <g>
                    <g>
                        <path d="M0 0H24V24H0z" transform="translate(-824 -335) translate(584 279) translate(0 56) translate(240)"/>
                        <path fill="#151A30" d="M7.085 5h9.83c.284 0 .514-.226.514-.504v-.992c0-.278-.23-.504-.513-.504H7.085c-.284 0-.513.225-.514.503v.993c0 .278.23.504.514.504zM20.82 19H3.18c-.375 0-.679.298-.679.667v.666c0 .369.304.667.679.667H20.82c.375 0 .679-.298.679-.667v-.666c0-.369-.304-.667-.679-.667zm0-10.667H3.18c-.375 0-.679.299-.679.667v.667c0 .368.304.666.679.666H20.82c.375 0 .679-.298.679-.666V9c0-.368-.304-.667-.679-.667zm-3.905 7.334c.283 0 .513-.226.513-.504v-.993c0-.278-.23-.503-.513-.503H7.085c-.284 0-.513.225-.514.503v.993c0 .278.23.504.514.504h9.83z" transform="translate(-824 -335) translate(584 279) translate(0 56) translate(240)"/>
                    </g>
                </g>
            </g>
        </g>
    </g>
</svg>
