<svg xmlns="http://www.w3.org/2000/svg" width="25" height="24" viewBox="0 0 25 24">
    <g fill="none" fill-rule="evenodd">
        <g>
            <g>
                <g>
                    <g>
                        <path d="M0 0H24V24H0z" transform="translate(-632 -391) translate(584 279) translate(0 112) translate(48)"/>
                        <path fill="#151A30" d="M18 4.107v.607c0 .336-.269.607-.6.607h-2.512l-3.3 13.358H13.8c.331 0 .6.271.6.607v.607c0 .335-.269.607-.6.607H6.6c-.331 0-.6-.272-.6-.607v-.607c0-.336.269-.607.6-.607h2.512l3.3-13.358H10.2c-.331 0-.6-.271-.6-.607v-.607c0-.335.269-.607.6-.607h7.2c.331 0 .6.272.6.607z" transform="translate(-632 -391) translate(584 279) translate(0 112) translate(48)"/>
                    </g>
                </g>
            </g>
        </g>
    </g>
</svg>
