<svg xmlns="http://www.w3.org/2000/svg" width="25" height="24" viewBox="0 0 25 24"><g fill="none" fill-rule="evenodd"><g><g><g><g><path d="M0 0H24V24H0z" transform="translate(-728 -335) translate(584 279) translate(0 56) translate(144)"/><path fill="#151A30" d="M22.793 19.138L2.238 3.617c-.237-.184-.583-.147-.773.082l-.344.416c-.19.229-.152.563.085.746l20.556 15.522c.237.184.583.147.773-.082l.344-.416c.19-.229.152-.563-.085-.746zM13.1 6.688l-.851 2.466 1.745 1.319L15.3 6.688h4.95V7.75c0 .294.246.532.55.532h.55c.303 0 .55-.238.55-.532V5.094c0-.293-.247-.531-.55-.531H7.05c-.207.001-.396.116-.487.297l2.42 1.828H13.1zm-.55 11.156h-1.1l.883-2.557-1.745-1.318-1.338 3.875h-1.1c-.303 0-.55.237-.55.53v.532c0 .293.247.531.55.531h4.4c.304 0 .55-.238.55-.531v-.531c0-.294-.246-.531-.55-.531z" transform="translate(-728 -335) translate(584 279) translate(0 56) translate(144)"/></g></g></g></g></g></svg>