<svg xmlns="http://www.w3.org/2000/svg" width="25" height="24" viewBox="0 0 25 24"><g fill="none" fill-rule="evenodd"><g><g><g><path d="M0 0H24V24H0z" transform="translate(-776 -511) translate(584 511) translate(192)"/><path fill="#151A30" d="M12 23.052c1.513 0 2.936-.289 4.268-.865 1.333-.577 2.508-1.374 3.527-2.392 1.018-1.019 1.815-2.194 2.392-3.527.576-1.332.865-2.755.865-4.267 0-1.513-.29-2.935-.87-4.268-.581-1.332-1.38-2.508-2.399-3.526-1.018-1.018-2.193-1.816-3.526-2.392C14.924 1.238 13.502.95 11.99.95c-1.505 0-2.924.288-4.257.865-1.332.576-2.508 1.374-3.526 2.392C3.189 5.225 2.39 6.4 1.815 7.733 1.238 9.066.95 10.488.95 12.001c0 1.512.29 2.935.87 4.267.58 1.333 1.378 2.508 2.392 3.527 1.015 1.018 2.189 1.815 3.521 2.392 1.333.576 2.755.865 4.268.865zM7.474 6.318l-.062-.02c-.116-.038-.23-.078-.34-.12-.572-.215-1.066-.465-1.483-.748l.204-.196c.78-.716 1.664-1.289 2.649-1.718.221-.096.446-.183.674-.26l.26-.082-.13.129c-.404.427-.773.943-1.107 1.55-.189.34-.361.704-.518 1.089l-.147.376zm9.056.001l-.146-.377c-.158-.385-.33-.748-.519-1.09-.334-.606-.704-1.122-1.108-1.55l-.125-.123.244.076c.228.078.453.165.675.261.985.43 1.867 1.002 2.648 1.718l.208.2-.027.02c-.41.273-.89.515-1.442.724l-.339.12-.069.021zm-5.292.602l-.173-.006c-.61-.029-1.193-.085-1.747-.17l-.32-.054.133-.341c.05-.12.1-.237.153-.352.367-.805.784-1.437 1.252-1.898.208-.204.42-.364.636-.477l.066-.03V6.92zm1.527 0V3.592l.066.03c.216.114.428.274.636.478.468.46.886 1.093 1.253 1.898l.152.352.134.342-.315.053c-.556.085-1.14.141-1.751.17l-.175.006zM6.56 11.237H2.822l.034-.349c.101-.85.32-1.663.655-2.442.266-.617.59-1.194.97-1.73l.113-.152.017.013c.422.315.93.597 1.522.847.226.096.46.184.703.267l.2.065-.072.292c-.21.915-.342 1.89-.395 2.922l-.01.267zm14.62 0h-3.726l-.01-.267c-.053-1.033-.186-2.007-.4-2.922l-.074-.296.189-.06c.243-.084.478-.172.705-.268.595-.25 1.104-.532 1.527-.847l.01-.008.11.147c.382.536.707 1.113.975 1.73.338.779.558 1.593.66 2.442l.033.35zm-5.289 0h-3.126v-2.79l.333-.014c.718-.04 1.41-.12 2.076-.24l.274-.052.046.178c.033.143.065.289.096.436.152.738.25 1.505.294 2.3l.007.182zm-4.653 0H8.111l.008-.182c.043-.795.141-1.562.294-2.3l.096-.436.044-.177.27.052c.668.12 1.362.2 2.08.24l.334.014v2.79zm-6.623 6.231l-.133-.181c-.38-.537-.704-1.114-.97-1.732-.336-.778-.554-1.592-.655-2.442l-.034-.348h3.735l.012.306c.053 1.028.184 1.999.395 2.911l.077.316-.205.065c-.243.082-.477.17-.703.265-.494.206-.928.435-1.303.688l-.216.152zm3.948-1.558l-.053-.217c-.034-.143-.066-.288-.096-.435-.153-.738-.25-1.5-.294-2.283l-.009-.21h3.127V15.6l-.333.014c-.719.04-1.413.122-2.081.244l-.26.052zm6.876.001l-.265-.053c-.666-.122-1.358-.203-2.076-.244l-.333-.014v-2.835h3.127l-.008.21c-.044.784-.142 1.545-.294 2.283l-.096.435-.055.218zm3.943 1.553l-.21-.148c-.376-.253-.812-.482-1.308-.688-.227-.094-.462-.183-.705-.265l-.195-.06.08-.321c.214-.912.347-1.883.4-2.911l.012-.306h3.723l-.033.348c-.102.85-.322 1.664-.66 2.442-.268.618-.592 1.195-.973 1.732l-.13.177zm-8.144 2.965l-.066-.031c-.216-.116-.428-.277-.636-.485-.468-.468-.885-1.103-1.252-1.904l-.153-.35-.117-.299.304-.053c.554-.087 1.136-.145 1.747-.175l.173-.005v3.302zm1.527 0v-3.302l.175.005c.611.03 1.195.088 1.751.175l.3.052-.119.3c-.05.119-.1.236-.152.35-.367.801-.785 1.436-1.253 1.904-.208.208-.42.37-.636.485l-.066.031zm1.89.391l.102-.101c.404-.425.774-.941 1.108-1.548.188-.34.361-.703.519-1.088l.136-.35.08.023c.114.038.227.077.338.118.473.177.894.38 1.262.61l.182.12-.176.17c-.778.719-1.661 1.291-2.65 1.717-.222.096-.447.182-.676.259l-.226.07zm-5.303.001l-.229-.071c-.228-.077-.453-.163-.676-.259-.988-.426-1.873-.998-2.654-1.717l-.176-.168.187-.122c.37-.23.792-.433 1.268-.61l.34-.118.072-.023.137.35c.157.385.33.747.517 1.088.335.607.705 1.123 1.111 1.548l.103.102z" transform="translate(-776 -511) translate(584 511) translate(192)"/></g></g></g></g></svg>