<svg xmlns="http://www.w3.org/2000/svg" width="25" height="24" viewBox="0 0 25 24">
    <g fill="none" fill-rule="evenodd">
        <g>
            <g>
                <g>
                    <g>
                        <path d="M0 0L24 0 24 24 0 24z" transform="translate(-920 -447) translate(584 279) translate(0 168) translate(336)"/>
                        <path fill="#151A30" d="M20.938 2.5C22.075 2.5 23 3.412 23 4.536v14.928c0 1.124-.924 2.036-2.063 2.036H3.063C1.925 21.5 1 20.588 1 19.464V4.536C1 3.412 1.924 2.5 3.063 2.5zM7.302 15.733H2.719v3.562c0 .28.232.509.515.509H7.76l-.001-3.56c-.162-.162-.314-.332-.456-.511zm2.175 1.713v2.358h5.041v-2.356c-.766.354-1.619.552-2.518.552-.901 0-1.756-.199-2.523-.554zm11.804-1.714h-4.583c-.142.18-.294.35-.456.512l-.001 3.56h5.04v-4.072zm-6.305-4.893H9.024c-.259 0-.39.312-.205.496l2.975 2.975c.114.114.298.114.412 0l2.975-2.975c.184-.184.054-.496-.205-.496zm-8.622-.875H2.719v4.072h3.635C6.124 13.4 6 12.715 6 12c0-.715.125-1.4.354-2.036zm14.927 0h-3.635c.23.636.354 1.321.354 2.036 0 .715-.125 1.4-.354 2.036h3.635V9.964zM7.76 4.196H3.234c-.283 0-.515.23-.515.51v3.562h4.583c.142-.18.294-.35.456-.512l.001-3.56zm13.522 0h-5.04l.001 3.56c.162.162.314.332.456.511h4.583v-4.07zm-6.763 0h-5.04v2.358C10.243 6.2 11.097 6 12 6c.9 0 1.752.198 2.518.552V4.196z" transform="translate(-920 -447) translate(584 279) translate(0 168) translate(336)"/>
                    </g>
                </g>
            </g>
        </g>
    </g>
</svg>
