<svg xmlns="http://www.w3.org/2000/svg" width="25" height="24" viewBox="0 0 25 24"><g fill="none" fill-rule="evenodd"><g><g><g><g><path d="M0 0L24 0 24 24 0 24z" transform="translate(-872 -447) translate(584 279) translate(0 168) translate(288)"/><path fill="#151A30" d="M20.938 2.5C22.075 2.5 23 3.412 23 4.536v14.928c0 1.124-.924 2.036-2.063 2.036H3.063C1.925 21.5 1 20.588 1 19.464V4.536C1 3.412 1.924 2.5 3.063 2.5zM6.078 15.733h-3.36v3.562c0 .28.233.509.516.509H7.76v-2.235c-.664-.506-1.235-1.129-1.682-1.836zm3.4 2.799v1.272h5.04v-1.27c-.782.3-1.63.466-2.518.466-.89 0-1.74-.166-2.523-.468zm11.803-2.8h-3.358c-.447.708-1.018 1.33-1.681 1.837l-.001 2.235h5.04v-4.072zM5.301 9.964H2.719v4.072H5.3C5.105 13.392 5 12.708 5 12s.105-1.392.3-2.036zm15.98 0H18.7c.196.644.301 1.328.301 2.036s-.105 1.392-.3 2.036h2.581V9.964zM7.76 4.196H3.234c-.283 0-.515.23-.515.51v3.562h3.358c.447-.708 1.018-1.33 1.681-1.837l.001-2.235zm13.522 0h-5.04v2.235c.664.506 1.235 1.129 1.682 1.836h3.358v-4.07zm-6.763 0h-5.04v1.272C10.26 5.166 11.11 5 12 5c.887 0 1.736.165 2.518.466v-1.27zM12 17c2.761 0 5-2.239 5-5s-2.239-5-5-5-5 2.239-5 5 2.239 5 5 5zm0-1.5c1.933 0 3.5-1.567 3.5-3.5S13.933 8.5 12 8.5 8.5 10.067 8.5 12s1.567 3.5 3.5 3.5z" transform="translate(-872 -447) translate(584 279) translate(0 168) translate(288)"/></g></g></g></g></g></svg>