<svg xmlns="http://www.w3.org/2000/svg" width="25" height="24" viewBox="0 0 25 24">
    <g fill="none" fill-rule="evenodd">
        <g>
            <g>
                <g>
                    <path d="M0 0H24V24H0z" transform="translate(-728 -511) translate(584 511) translate(144)"/>
                    <path fill="#151A30" d="M15.665 22.62c.824 0 1.481-.237 1.972-.71.49-.472.735-1.106.735-1.9V3.96c0-.787-.245-1.42-.735-1.896s-1.148-.714-1.972-.714H8.318c-.824 0-1.483.238-1.977.714-.494.477-.741 1.109-.741 1.896v16.05c0 .794.247 1.428.741 1.9.494.473 1.153.71 1.977.71h7.347zm-.182-1.483H8.5c-.465 0-.818-.116-1.058-.349-.24-.233-.36-.571-.36-1.015V4.197c0-.444.12-.783.36-1.015.24-.233.593-.35 1.058-.35h.398v.452c0 .2.06.363.182.488.122.126.283.188.484.188h4.855c.2 0 .364-.062.49-.188.124-.125.187-.288.187-.488v-.451h.387c.458 0 .81.116 1.053.349.243.232.365.57.365 1.015v15.576c0 .444-.122.782-.365 1.015-.244.233-.595.35-1.053.35zm-.838-.741c.129 0 .236-.04.322-.118.086-.079.13-.186.13-.323 0-.128-.044-.234-.13-.316-.086-.083-.193-.124-.322-.124H9.338c-.129 0-.234.041-.317.124-.082.082-.123.188-.123.316 0 .137.041.244.123.323.083.079.188.118.317.118h5.307z" transform="translate(-728 -511) translate(584 511) translate(144)"/>
                </g>
            </g>
        </g>
    </g>
</svg>
