<svg xmlns="http://www.w3.org/2000/svg" width="25" height="24" viewBox="0 0 25 24">
    <g fill="none" fill-rule="evenodd">
        <g>
            <g>
                <g>
                    <path d="M0 0H24V24H0z" transform="translate(-680 -279) translate(584 279) translate(96)"/>
                    <path fill="#151A30" d="M4.688 20.3c-2.25-2.267-2.25-5.935 0-8.201l8.729-8.791c1.732-1.744 4.55-1.744 6.281 0 1.736 1.748 1.736 4.578 0 6.326l-7.35 7.402c-1.218 1.227-3.201 1.227-4.42 0-1.22-1.23-1.221-3.22 0-4.451l6.225-6.269c.182-.183.477-.183.659 0l.658.663c.182.183.182.48 0 .663L9.245 13.91c-.494.497-.494 1.302 0 1.799.493.496 1.294.496 1.787 0l7.35-7.402c1.008-1.015 1.008-2.659 0-3.674-1.006-1.013-2.643-1.013-3.649 0l-8.729 8.79c-1.522 1.534-1.523 4.016 0 5.55 1.524 1.534 3.991 1.534 5.515-.001l7.6-7.657c.181-.183.476-.183.658 0l.658.663c.182.183.182.48 0 .663l-7.599 7.656c-2.251 2.27-5.896 2.27-8.148.001z" transform="translate(-680 -279) translate(584 279) translate(96)"/>
                </g>
            </g>
        </g>
    </g>
</svg>
