<svg xmlns="http://www.w3.org/2000/svg" width="25" height="24" viewBox="0 0 25 24"><g fill="none" fill-rule="evenodd"><g><g><g><g><path d="M0 0H24V24H0z" transform="translate(-1016 -447) translate(584 279) translate(0 168) translate(432)"/><path fill="#192038" d="M21.475 1.984l-4.047-.933c-.929-.215-1.874.266-2.248 1.143l-1.868 4.362c-.344.8-.112 1.745.562 2.295l1.719 1.406c-1.229 2.252-3.085 4.109-5.336 5.334l-1.405-1.72c-.55-.674-1.495-.906-2.295-.563l-4.365 1.87c-.876.374-1.353 1.32-1.143 2.248l.933 4.048c.206.899.997 1.526 1.916 1.526C14.42 23.004 23 14.482 23 3.9c0-.92-.627-1.71-1.525-1.916zM3.98 20.94l-.898-3.898 4.219-1.81 2.393 2.928c4.245-1.995 6.47-4.212 8.464-8.467L15.232 7.3l1.809-4.22 3.897.898c-.043 9.352-7.61 16.92-16.958 16.963z" transform="translate(-1016 -447) translate(584 279) translate(0 168) translate(432)"/></g></g></g></g></g></svg>