<svg xmlns="http://www.w3.org/2000/svg" width="25" height="24" viewBox="0 0 25 24"><g fill="none" fill-rule="evenodd"><g><g><g><g><path d="M0 0H24V24H0z" transform="translate(-872 -391) translate(584 279) translate(0 112) translate(288)"/><path fill="#151A30" d="M21.9 3h-4.4c-.607 0-1.1.504-1.1 1.125V5.25H7.6V4.125C7.6 3.504 7.107 3 6.5 3H2.1C1.493 3 1 3.504 1 4.125v4.5c0 .621.493 1.125 1.1 1.125h3.29l3.31 5.91v4.215c0 .621.493 1.125 1.1 1.125h4.4c.607 0 1.1-.504 1.1-1.125v-4.5c0-.621-.493-1.125-1.1-1.125h-3.755L7.6 9.17V7.5h8.8v1.125c0 .621.493 1.125 1.1 1.125h4.4c.607 0 1.1-.504 1.1-1.125v-4.5C23 3.504 22.507 3 21.9 3zM5.95 8.063h-3.3V4.687h3.3v3.375zm4.4 7.874h3.3v3.376h-3.3v-3.375zm11-7.874h-3.3V4.687h3.3v3.375z" transform="translate(-872 -391) translate(584 279) translate(0 112) translate(288)"/></g></g></g></g></g></svg>