<svg xmlns="http://www.w3.org/2000/svg" width="25" height="24" viewBox="0 0 25 24"><g fill="none" fill-rule="evenodd"><g><g><path d="M0 0H24V24H0z" transform="translate(-584 -279) translate(584 279)"/><path fill="#151A30" d="M22.849 21.147l-5.217-5.216c-.098-.099-.227-.15-.365-.15H16.7c1.353-1.569 2.174-3.61 2.174-5.844C18.874 5 14.874 1 9.937 1 5 1 1 5 1 9.937c0 4.937 4 8.937 8.937 8.937 2.234 0 4.275-.82 5.844-2.174v.567c0 .138.055.267.15.365l5.216 5.217c.202.201.529.201.73 0l.972-.972c.201-.201.201-.528 0-.73zM9.937 16.812c-3.798 0-6.875-3.077-6.875-6.875S6.14 3.062 9.937 3.062s6.875 3.077 6.875 6.875-3.077 6.875-6.875 6.875z" transform="translate(-584 -279) translate(584 279)"/></g></g></g></svg>