<svg xmlns="http://www.w3.org/2000/svg" width="25" height="24" viewBox="0 0 25 24"><g fill="none" fill-rule="evenodd"><g><g><g><g><path d="M0 0H24V24H0z" transform="translate(-920 -391) translate(584 279) translate(0 112) translate(336)"/><path fill="#151A30" d="M14.406 9.421v1.032c0 .283-.232.515-.516.515H5.984c-.283 0-.515-.232-.515-.515V9.42c0-.283.232-.515.515-.515h7.906c.284 0 .516.232.516.515zm8.443 12.456l-.972.972c-.201.201-.528.201-.73 0l-5.216-5.217c-.099-.098-.15-.227-.15-.365V16.7c-1.569 1.353-3.61 2.174-5.844 2.174C5 18.874 1 14.874 1 9.937 1 5 5 1 9.937 1c4.937 0 8.937 4 8.937 8.937 0 2.234-.82 4.275-2.174 5.844h.567c.138 0 .267.055.365.15l5.217 5.216c.201.202.201.529 0 .73zm-6.037-11.94c0-3.798-3.077-6.875-6.875-6.875S3.062 6.14 3.062 9.937s3.077 6.875 6.875 6.875 6.875-3.077 6.875-6.875z" transform="translate(-920 -391) translate(584 279) translate(0 112) translate(336)"/></g></g></g></g></g></svg>