<svg xmlns="http://www.w3.org/2000/svg" width="25" height="24" viewBox="0 0 25 24"><g fill="none" fill-rule="evenodd"><g><g><g><g><path d="M0 0L24 0 24 24 0 24z" transform="translate(-776 -447) translate(584 279) translate(0 168) translate(192)"/><path fill="#151A30" d="M12 1C5.923 1 1 5.923 1 12s4.923 11 11 11 11-4.923 11-11S18.077 1 12 1zm0 19.871c-4.892 0-8.871-3.979-8.871-8.871S7.108 3.129 12 3.129 20.871 7.108 20.871 12 16.892 20.871 12 20.871zm5.225-6.494c-.452-.377-1.122-.315-1.5.138-.922 1.109-2.283 1.747-3.725 1.747-1.442 0-2.803-.634-3.726-1.747-.377-.453-1.051-.51-1.499-.138-.452.377-.51 1.047-.138 1.5 1.331 1.596 3.287 2.51 5.363 2.51 2.076 0 4.032-.914 5.363-2.51.377-.453.314-1.123-.138-1.5zM8.452 11.29c.785 0 1.419-.634 1.419-1.419s-.634-1.42-1.42-1.42c-.784 0-1.419.635-1.419 1.42 0 .785.635 1.42 1.42 1.42zm7.096-2.661c-1.14 0-2.479.75-2.656 1.867-.076.497.51.808.878.48l.421-.378c.657-.585 2.05-.585 2.706 0l.421.377c.377.329.958.014.878-.479-.168-1.117-1.508-1.867-2.648-1.867z" transform="translate(-776 -447) translate(584 279) translate(0 168) translate(192)"/></g></g></g></g></g></svg>