<svg xmlns="http://www.w3.org/2000/svg" width="25" height="24" viewBox="0 0 25 24">
    <g fill="none" fill-rule="evenodd">
        <g>
            <g>
                <g>
                    <path d="M0 0H24V24H0z" transform="translate(-728 -279) translate(584 279) translate(144)"/>
                    <path fill="#151A30" d="M21.873 8.534l-6.008-.874-2.685-5.43c-.48-.967-1.875-.98-2.36 0L8.135 7.66l-6.008.874c-1.078.156-1.51 1.48-.728 2.239l4.346 4.224-1.028 5.967c-.185 1.079.954 1.887 1.908 1.382L12 19.53l5.375 2.817c.954.5 2.093-.303 1.908-1.382l-1.028-5.967 4.346-4.224c.781-.759.35-2.083-.728-2.24zm-5.736 5.774l.974 5.676L12 17.306l-5.111 2.678.974-5.676-4.137-4.019 5.716-.828L12 4.293l2.558 5.168 5.716.828-4.137 4.02z" transform="translate(-728 -279) translate(584 279) translate(144)"/>
                </g>
            </g>
        </g>
    </g>
</svg>
