<svg xmlns="http://www.w3.org/2000/svg" width="25" height="24" viewBox="0 0 25 24">
    <g fill="none" fill-rule="evenodd">
        <g>
            <g>
                <g>
                    <path d="M0 0H24V24H0z" transform="translate(-632 -511) translate(584 511) translate(48)"/>
                    <path fill="#151A30" d="M.662 18.606c0 .845.244 1.522.73 2.03.487.509 1.136.763 1.945.763h17.316c.817 0 1.468-.254 1.955-.763.487-.508.73-1.185.73-2.03V5.38c0-.838-.243-1.51-.73-2.02-.487-.508-1.138-.762-1.955-.762H3.337c-.81 0-1.458.254-1.945.763-.486.508-.73 1.181-.73 2.02v13.225zm1.488-.167V5.58c0-.473.125-.84.376-1.101.25-.262.601-.392 1.053-.392h16.843c.459 0 .811.13 1.058.392.247.261.371.628.371 1.1V18.44c0 .466-.124.83-.37 1.09-.248.262-.6.393-1.059.393H3.58c-.452 0-.803-.131-1.053-.392-.25-.262-.376-.625-.376-1.09zm13.708.642c.129 0 .234-.041.317-.124.082-.082.123-.188.123-.317 0-.136-.04-.245-.123-.327-.083-.083-.188-.124-.317-.124H8.143c-.122 0-.226.041-.312.124-.085.082-.128.191-.128.327 0 .13.043.235.128.317.086.083.19.124.312.124h7.715z" transform="translate(-632 -511) translate(584 511) translate(48)"/>
                </g>
            </g>
        </g>
    </g>
</svg>
