<svg xmlns="http://www.w3.org/2000/svg" width="25" height="24" viewBox="0 0 25 24">
    <g fill="none" fill-rule="evenodd">
        <g>
            <g>
                <g>
                    <path d="M0 0H24V24H0z" transform="translate(-680 -511) translate(584 511) translate(96)"/>
                    <path fill="#151A30" d="M18.608 23.337c.845 0 1.522-.244 2.03-.73.509-.488.763-1.136.763-1.945V3.346c0-.817-.254-1.469-.763-1.956-.508-.487-1.185-.73-2.03-.73H5.382c-.838 0-1.51.243-2.02.73-.508.487-.762 1.14-.762 1.956v17.316c0 .81.254 1.457.763 1.944.508.487 1.181.73 2.02.73h13.225zm-.172-1.483H5.576c-.473 0-.84-.125-1.101-.376-.262-.25-.393-.601-.393-1.052V3.582c0-.458.131-.811.393-1.058.26-.247.628-.37 1.1-.37h12.86c.466 0 .83.123 1.091.37.262.247.392.6.392 1.058v16.844c0 .45-.13.802-.392 1.052-.261.251-.625.376-1.09.376zm-3.578-.773c.129 0 .234-.041.317-.124.082-.082.123-.188.123-.317 0-.136-.04-.245-.123-.327-.083-.083-.188-.124-.317-.124H9.143c-.122 0-.226.041-.312.124-.085.082-.128.191-.128.327 0 .13.043.235.128.317.086.083.19.124.312.124h5.715z" transform="translate(-680 -511) translate(584 511) translate(96)"/>
                </g>
            </g>
        </g>
    </g>
</svg>
