<svg xmlns="http://www.w3.org/2000/svg" width="25" height="24" viewBox="0 0 25 24">
    <g fill="none" fill-rule="evenodd">
        <g>
            <g>
                <g>
                    <g>
                        <path d="M0 0L24 0 24 24 0 24z" transform="translate(-680 -447) translate(584 279) translate(0 168) translate(96)"/>
                        <path fill="#151A30" d="M20.357 3c.355 0 .643.288.643.643v3.214c0 .355-.288.643-.643.643h-.643c-.355 0-.643-.288-.643-.643V5.571h-5.785v13.5h1.928c.355 0 .643.288.643.643v.643c0 .355-.288.643-.643.643H8.786c-.355 0-.643-.288-.643-.643v-.643c0-.355.288-.643.643-.643h1.928v-13.5H4.93v1.286c0 .355-.288.643-.643.643h-.643C3.288 7.5 3 7.212 3 6.857V3.643C3 3.288 3.288 3 3.643 3h16.714z" transform="translate(-680 -447) translate(584 279) translate(0 168) translate(96)"/>
                    </g>
                </g>
            </g>
        </g>
    </g>
</svg>
