<svg xmlns="http://www.w3.org/2000/svg" width="25" height="24" viewBox="0 0 25 24"><g fill="none" fill-rule="evenodd"><g><g><g><path d="M0 0H24V24H0z" transform="translate(-632 -279) translate(584 279) translate(48)"/><path fill="#151A30" d="M20.821 4.438h-3.494L15.885 2C15.517 1.38 14.853 1 14.137 1H9.863c-.716 0-1.38.38-1.748 1.001L6.673 4.438H3.18c-.375 0-.679.307-.679.687v.688c0 .38.304.687.679.687h.678l.9 14.566C4.822 22.153 5.712 23 6.786 23h10.425c1.075 0 1.965-.847 2.032-1.934L20.143 6.5h.678c.375 0 .679-.308.679-.687v-.688c0-.38-.304-.687-.679-.687zM9.862 3.063h4.275l.815 1.375H9.048l.815-1.375zm7.35 17.874H6.788L5.898 6.5h12.205l-.89 14.437z" transform="translate(-632 -279) translate(584 279) translate(48)"/></g></g></g></g></svg>