<svg xmlns="http://www.w3.org/2000/svg" width="24" height="24" viewBox="0 0 24 24">
    <g fill="none" fill-rule="evenodd">
        <path d="M0 0H24V24H0z"/>
        <path fill="#475B7F" d="M11.027 4.77c.224-.951 1.516-1.033 1.886-.18l.043.117 2.576 8.407 1.077-2.107c.152-.298.441-.497.767-.538l.124-.007H22c.552 0 1 .447 1 1 0 .512-.386.935-.883.993l-.117.007-3.888-.001-1.921 3.763c-.39.764-1.479.705-1.806-.05l-.041-.112-2.219-7.239L9.67 19.23c-.226.958-1.53 1.032-1.892.168l-.041-.118-1.988-6.819H2c-.513 0-.936-.386-.993-.883L1 11.462c0-.513.386-.936.883-.994L2 10.462h4.5c.404 0 .764.242.92.607l.04.113 1.135 3.894L11.027 4.77z"/>
    </g>
</svg>
