<svg xmlns="http://www.w3.org/2000/svg" xmlns:xlink="http://www.w3.org/1999/xlink" width="80" height="80" version="1.1" viewBox="0 0 80 80"><title>Group 2 Copy</title><g id="Tester" fill="none" fill-rule="evenodd" stroke="none" stroke-width="1"><g id="Group-2-Copy"><rect id="Rectangle" width="80" height="80" x="0" y="0"/><g id="alien-monster" transform="translate(0.000000, 9.000000)"><path id="Shape" fill="#E4E9F2" d="M77.7777778,13.2857143 L73.3333333,13.2857143 C72.7439582,13.2856974 72.1787174,13.5189821 71.7619662,13.9342449 C71.345215,14.3495077 71.1110942,14.9127297 71.1111111,15.5 L71.1111111,26.5714286 L66.6666667,26.5714286 L66.6666667,19.9285714 C66.6666836,19.3413012 66.4325627,18.7780791 66.0158116,18.3628163 C65.5990604,17.9475536 65.0338196,17.7142688 64.4444444,17.7142857 L57.7777778,17.7142857 L57.7777778,8.85714286 L64.4444444,8.85714286 C65.6717188,8.85708248 66.6666061,7.86574837 66.6666667,6.64285714 L66.6666667,2.21428571 C66.6666836,1.62701545 66.4325627,1.06379341 66.0158116,0.648530624 C65.5990604,0.23326784 65.0338196,0 64.4444444,0 L60,0 C59.4106248,0 58.8453841,0.23326784 58.4286329,0.648530624 C58.0118817,1.06379341 57.7777608,1.62701545 57.7777778,2.21428571 L57.7777778,4.42857143 L51.1111111,4.42857143 C50.5217359,4.42855454 49.9564952,4.66183927 49.539744,5.07710205 C49.1229928,5.49236484 48.8888719,6.05558688 48.8888889,6.64285714 L48.8888889,13.2857143 L31.1111111,13.2857143 L31.1111111,6.64285714 C31.1111281,6.05558688 30.8770072,5.49236484 30.460256,5.07710205 C30.0435048,4.66183927 29.4782641,4.42855454 28.8888889,4.42857143 L22.2222222,4.42857143 L22.2222222,2.21428571 C22.2222392,1.62701545 21.9881183,1.06379341 21.5713671,0.648530624 C21.1546159,0.23326784 20.5893752,0 20,0 L15.5555556,0 C14.9661804,0 14.4009396,0.23326784 13.9841884,0.648530624 C13.5674373,1.06379341 13.3333164,1.62701545 13.3333333,2.21428571 L13.3333333,6.64285714 C13.3333939,7.86574837 14.3282812,8.85708248 15.5555556,8.85714286 L22.2222222,8.85714286 L22.2222222,17.7142857 L15.5555556,17.7142857 C14.9661804,17.7142688 14.4009396,17.9475536 13.9841884,18.3628163 C13.5674373,18.7780791 13.3333164,19.3413012 13.3333333,19.9285714 L13.3333333,26.5714286 L8.88888889,26.5714286 L8.88888889,15.5 C8.88890583,14.9127297 8.65478496,14.3495077 8.23803378,13.9342449 C7.8212826,13.5189821 7.25604184,13.2856974 6.66666667,13.2857143 L2.22222222,13.2857143 C1.63284705,13.2856974 1.06760629,13.5189821 0.650855106,13.9342449 C0.234103925,14.3495077 0,14.9127297 0,15.5 L0,33.2142857 C0,34.4371769 0.994947877,35.4285111 2.22222222,35.4285714 L8.88888889,35.4285714 L8.88888889,46.5 C8.88894948,47.7228912 9.88383677,48.7142253 11.1111111,48.7142857 L17.7777778,48.7142857 L17.7777778,59.7857143 C17.7778384,61.0086055 18.7727257,62 20,62 L33.3333333,62 C34.5606077,62 35.555495,61.0086055 35.5555556,59.7857143 L35.5555556,55.3571429 C35.5555725,54.7698726 35.3214516,54.2066506 34.9047004,53.7913878 C34.4879493,53.376125 33.9227085,53.1428403 33.3333333,53.1428571 L26.6666667,53.1428571 L26.6666667,48.7142857 L53.3333333,48.7142857 L53.3333333,53.1428571 L46.6666667,53.1428571 C46.0772915,53.1428403 45.5120507,53.376125 45.0952996,53.7913878 C44.6785484,54.2066506 44.4444275,54.7698726 44.4444444,55.3571429 L44.4444444,59.7857143 C44.444505,61.0086055 45.4393923,62 46.6666667,62 L60,62 C61.2272743,62 62.2221616,61.0086055 62.2222222,59.7857143 L62.2222222,48.7142857 L68.8888889,48.7142857 C70.1161632,48.7142253 71.1110505,47.7228912 71.1111111,46.5 L71.1111111,35.4285714 L77.7777778,35.4285714 C79.0050521,35.4285111 80,34.4371769 80,33.2142857 L80,15.5 C80,14.9127297 79.7658961,14.3495077 79.3491449,13.9342449 C78.9323937,13.5189821 78.3671529,13.2856974 77.7777778,13.2857143 L77.7777778,13.2857143 Z M31.1111111,39.8571429 L22.2222222,39.8571429 L22.2222222,26.5714286 L31.1111111,26.5714286 L31.1111111,39.8571429 Z M57.7777778,39.8571429 L48.8888889,39.8571429 L48.8888889,26.5714286 L57.7777778,26.5714286 L57.7777778,39.8571429 Z"/><path id="Shape" fill="#1998D5" d="M22,40 L31,40 L31,27 L22,27 L22,40 Z M49,27 L49,40 L58,40 L58,27 L49,27 Z"/></g></g></g></svg>