<svg xmlns="http://www.w3.org/2000/svg" width="25" height="24" viewBox="0 0 25 24"><g fill="none" fill-rule="evenodd"><path d="M0 0H24V24H0z" transform="translate(1)"/><path fill="#151A30" d="M3.044 15.667H14.17c.3 0 .544-.24.544-.534V14.2c0-.295-.243-.534-.543-.534H3.043c-.3 0-.544.238-.544.533v.932c0 .295.243.534.543.535h.001zM3.044 5H14.17c.3 0 .544-.239.544-.534v-.931c0-.295-.243-.535-.543-.535H3.043c-.3 0-.544.239-.544.534v.931c0 .295.243.535.543.535h.001zm17.777 3.333H3.18c-.375 0-.679.299-.679.667v.667c0 .368.304.666.679.666H20.82c.375 0 .679-.298.679-.666V9c0-.368-.304-.667-.679-.667zm0 10.667H3.18c-.375 0-.679.298-.679.667v.666c0 .369.304.667.679.667H20.82c.375 0 .679-.298.679-.667v-.666c0-.369-.304-.667-.679-.667z" transform="translate(1)"/></g></svg>