<svg xmlns="http://www.w3.org/2000/svg" width="25" height="24" viewBox="0 0 25 24">
    <g fill="none" fill-rule="evenodd">
        <path d="M0 0H24V24H0z" transform="translate(1)"/>
        <g>
            <path fill="#8F9BB3" d="M20.033 7.857L15.865.714C15.603.272 15.128 0 14.615 0c-.514 0-.99.272-1.25.714l-4.17 7.143C8.64 8.81 9.335 10 10.446 10h8.336c1.112 0 1.807-1.19 1.251-2.143z" transform="translate(1) translate(2 2)"/>
            <path fill="#417DC8" d="M4.99 10c1.324 0 2.593.527 3.529 1.464.936.938 1.462 2.21 1.462 3.536 0 2.761-2.235 5-4.99 5C2.233 20 0 17.761 0 15s2.234-5 4.99-5zm13.723 1.25c.69 0 1.248.56 1.248 1.25v6.25c0 .69-.559 1.25-1.248 1.25h-6.237c-.69 0-1.248-.56-1.248-1.25V12.5c0-.69.559-1.25 1.248-1.25z" transform="translate(1) translate(2 2)"/>
        </g>
    </g>
</svg>
