<svg xmlns="http://www.w3.org/2000/svg" width="25" height="24" viewBox="0 0 25 24">
    <g fill="none" fill-rule="evenodd">
        <path d="M0 0H24V24H0z" transform="translate(1)"/>
        <g>
            <path fill="#475B7F" d="M12.426 19H7c0 1.519 1.215 2.75 2.713 2.75s2.713-1.231 2.713-2.75z" transform="translate(1) translate(2.5 1)"/>
            <path fill="#8F9BB3" d="M18.635 15.567c-.82-.892-2.353-2.234-2.353-6.63 0-3.338-2.31-6.01-5.426-6.667v-.895C10.856.615 10.25 0 9.5 0c-.749 0-1.356.616-1.356 1.375v.895C5.028 2.926 2.718 5.6 2.718 8.938c0 4.395-1.533 5.737-2.353 6.63-.254.276-.367.608-.365.932.005.705.55 1.375 1.361 1.375H17.64c.81 0 1.357-.67 1.36-1.375.003-.324-.11-.656-.364-.933z" transform="translate(1) translate(2.5 1)"/>
        </g>
    </g>
</svg>
