<svg xmlns="http://www.w3.org/2000/svg" xmlns:xlink="http://www.w3.org/1999/xlink" width="20" height="22" version="1.1" viewBox="0 0 20 22"><title>Icon/Bell/Linear</title><g id="💙-Icons" fill="none" fill-rule="evenodd" stroke="none" stroke-width="1"><g id="Icons-Copy" transform="translate(-922.000000, -281.000000)"><g id="Icon/Bell/Linear" transform="translate(920.000000, 280.000000)"><rect id="Base" width="24" height="24" x="0" y="0"/><path id="Icon" fill="#151A30" d="M21.1347881,16.5671484 C20.3154181,15.6751172 18.7822801,14.3332031 18.7822801,9.9375 C18.7822801,6.59882812 16.4717585,3.92617187 13.3562864,3.27046875 L13.3562864,2.375 C13.3562864,1.61574219 12.7489687,1 12,1 C11.2510313,1 10.6437136,1.61574219 10.6437136,2.375 L10.6437136,3.27046875 C7.52824151,3.92617188 5.21771987,6.59882812 5.21771987,9.9375 C5.21771987,14.3332031 3.68458188,15.6751172 2.86521187,16.5671484 C2.61074914,16.8442969 2.49793732,17.1755859 2.50002852,17.5 C2.504723,18.2046875 3.05054557,18.875 3.86143349,18.875 L20.1385665,18.875 C20.9494544,18.875 21.4957011,18.2046875 21.4999715,17.5 C21.5020627,17.1755859 21.3892509,16.8438672 21.1347881,16.5671484 Z M5.36403594,16.8125 C6.26398582,15.6106641 7.2479084,13.6186328 7.25257355,9.96242187 C7.25257355,9.95382812 7.25002892,9.94609375 7.25002892,9.9375 C7.25002892,7.27945312 9.37648919,5.125 12,5.125 C14.6235108,5.125 16.7499711,7.27945312 16.7499711,9.9375 C16.7499711,9.94609375 16.7474264,9.95382812 16.7474264,9.96242187 C16.7520916,13.6190625 17.7360142,15.6110937 18.6359641,16.8125 L5.36403594,16.8125 Z M12,23 C13.4979373,23 14.7129969,21.7689453 14.7129969,20.25 L9.28700313,20.25 C9.28700313,21.7689453 10.5020627,23 12,23 Z"/></g></g></g></svg>