<svg xmlns="http://www.w3.org/2000/svg" width="25" height="24" viewBox="0 0 25 24">
    <g fill="none" fill-rule="evenodd">
        <path d="M0 0H24V24H0z" transform="translate(1)"/>
        <g>
            <path fill="#475B7F" d="M11 0C4.923 0 0 4.923 0 11s4.923 11 11 11 11-4.923 11-11S17.077 0 11 0zm1.065 16.677v.71c0 .392-.318.71-.71.71h-.71c-.392 0-.71-.318-.71-.71v-.718c-.735-.027-1.448-.26-2.058-.67-.385-.262-.443-.803-.102-1.118l.533-.501c.24-.226.59-.24.873-.071.268.158.573.24.883.24h1.996c.501 0 .91-.466.91-1.039 0-.47-.28-.882-.675-1.006l-3.202-.972c-1.287-.39-2.183-1.64-2.183-3.042 0-1.744 1.358-3.163 3.025-3.167v-.71c0-.392.318-.71.71-.71h.71c.392 0 .71.318.71.71v.718c.735.027 1.448.26 2.058.67.385.262.443.803.102 1.118l-.533.501c-.24.226-.59.24-.873.071-.268-.158-.573-.24-.883-.24H9.94c-.501 0-.91.466-.91 1.039 0 .47.28.882.675 1.006l3.193.972c1.287.39 2.183 1.64 2.183 3.042.009 1.744-1.349 3.159-3.016 3.167z" transform="translate(1) translate(1 1)"/>
            <path fill="#8F9BB3" d="M9.935 5.323v-.71c0-.392.318-.71.71-.71h.71c.392 0 .71.318.71.71v.718c.735.027 1.448.26 2.058.67.385.262.443.803.102 1.118l-.533.501c-.24.226-.59.24-.873.071-.268-.158-.573-.24-.883-.24H9.94c-.501 0-.91.466-.91 1.039 0 .47.28.882.675 1.006l3.193.972c1.287.39 2.183 1.64 2.183 3.042.009 1.744-1.349 3.159-3.016 3.167v.71c0 .392-.318.71-.71.71h-.71c-.392 0-.71-.318-.71-.71v-.718c-.735-.027-1.448-.26-2.058-.67-.385-.262-.443-.803-.102-1.118l.533-.501c.24-.226.59-.24.873-.071.268.158.573.24.883.24h1.996c.501 0 .91-.466.91-1.039 0-.47-.28-.882-.675-1.006l-3.202-.972c-1.287-.39-2.183-1.64-2.183-3.042 0-1.744 1.358-3.163 3.025-3.167z" transform="translate(1) translate(1 1)"/>
        </g>
    </g>
</svg>
