<svg xmlns="http://www.w3.org/2000/svg" width="25" height="24" viewBox="0 0 25 24">
    <g fill="none" fill-rule="evenodd">
        <path d="M0 0H24V24H0z" transform="translate(1)"/>
        <path fill="#151A30" d="M22 13.285c-.02.681-.595 1.215-1.276 1.215h-2.162v.625c0 .854-.19 1.663-.53 2.388l2.352 2.353c.488.488.488 1.28 0 1.768s-1.28.488-1.768 0l-2.138-2.138c-.967.784-2.199 1.254-3.54 1.254v-9.531c0-.26-.21-.469-.47-.469h-.937c-.259 0-.469.21-.469.469v9.531c-1.341 0-2.573-.47-3.54-1.254l-2.138 2.138c-.488.488-1.28.488-1.768 0s-.488-1.28 0-1.768l2.353-2.353c-.34-.725-.532-1.534-.532-2.388V14.5H3.276c-.681 0-1.257-.534-1.276-1.215C1.981 12.58 2.548 12 3.25 12h2.187V9.705l-1.82-1.821c-.49-.488-.49-1.28 0-1.768.487-.488 1.279-.488 1.767 0L7.518 8.25h8.964l2.134-2.134c.488-.488 1.28-.488 1.768 0s.488 1.28 0 1.768l-1.822 1.821V12h2.188c.702 0 1.269.579 1.25 1.285zM12.039 2C9.623 2 7.664 3.959 7.664 6.375h8.75C16.414 3.959 14.455 2 12.039 2z" transform="translate(1)"/>
    </g>
</svg>
