<svg xmlns="http://www.w3.org/2000/svg" width="24" height="24" viewBox="0 0 24 24"><g fill="none" fill-rule="evenodd"><path d="M0 0H24V24H0z"/><path fill="#151A30" d="M3.5 20.125C3.5 21.16 4.316 22 5.321 22H18.68c1.005 0 1.821-.84 1.821-1.875V9.5h-17v10.625zm2.429-7.5c0-.344.273-.625.607-.625h3.643c.333 0 .607.281.607.625v3.75c0 .344-.274.625-.607.625H6.536c-.334 0-.607-.281-.607-.625v-3.75zM18.679 4.5h-1.822V2.625c0-.344-.273-.625-.607-.625h-1.214c-.334 0-.607.281-.607.625V4.5H9.57V2.625c0-.344-.273-.625-.607-.625H7.75c-.334 0-.607.281-.607.625V4.5H5.32C4.316 4.5 3.5 5.34 3.5 6.375V8.25h17V6.375c0-1.035-.816-1.875-1.821-1.875z"/></g></svg>