<svg xmlns="http://www.w3.org/2000/svg" xmlns:xlink="http://www.w3.org/1999/xlink" width="20" height="22" version="1.1" viewBox="0 0 20 22"><title>Icon/Calendar Day</title><g id="💙-Icons" fill="none" fill-rule="evenodd" stroke="none" stroke-width="1"><g id="Icons-Copy" transform="translate(-970.000000, -449.000000)"><g id="Group" transform="translate(968.000000, 448.000000)"><rect id="Base" width="24" height="24" x="0" y="0"/><path id="Icon" fill="#151A30" d="M7.25,16.8125 L11.3214286,16.8125 C11.6946429,16.8125 12,16.503125 12,16.125 L12,12 C12,11.621875 11.6946429,11.3125 11.3214286,11.3125 L7.25,11.3125 C6.87678571,11.3125 6.57142857,11.621875 6.57142857,12 L6.57142857,16.125 C6.57142857,16.503125 6.87678571,16.8125 7.25,16.8125 Z M19.4642857,3.75 L17.4285714,3.75 L17.4285714,1.6875 C17.4285714,1.309375 17.1232143,1 16.75,1 L15.3928571,1 C15.0196429,1 14.7142857,1.309375 14.7142857,1.6875 L14.7142857,3.75 L9.28571429,3.75 L9.28571429,1.6875 C9.28571429,1.309375 8.98035714,1 8.60714286,1 L7.25,1 C6.87678571,1 6.57142857,1.309375 6.57142857,1.6875 L6.57142857,3.75 L4.53571429,3.75 C3.41183036,3.75 2.5,4.67382812 2.5,5.8125 L2.5,20.9375 C2.5,22.0761719 3.41183036,23 4.53571429,23 L19.4642857,23 C20.5881696,23 21.5,22.0761719 21.5,20.9375 L21.5,5.8125 C21.5,4.67382812 20.5881696,3.75 19.4642857,3.75 Z M19.4642857,20.6796875 C19.4642857,20.8214844 19.3497768,20.9375 19.2098214,20.9375 L4.79017857,20.9375 C4.65022321,20.9375 4.53571429,20.8214844 4.53571429,20.6796875 L4.53571429,7.875 L19.4642857,7.875 L19.4642857,20.6796875 Z"/></g></g></g></svg>