<svg xmlns="http://www.w3.org/2000/svg" xmlns:xlink="http://www.w3.org/1999/xlink" width="20" height="20" version="1.1" viewBox="0 0 20 20"><title>Icon/Check Square</title><g id="💙-Icons" fill="none" fill-rule="evenodd" stroke="none" stroke-width="1"><g id="Icons-Copy" transform="translate(-634.000000, -450.000000)"><g id="Icon/Check-Square" transform="translate(632.000000, 448.000000)"><polygon id="Base" points="0 0 24 0 24 24 0 24"/><path id="Icon" fill="#151A30" d="M19.8571429,2 L4.14285714,2 C2.959375,2 2,2.959375 2,4.14285714 L2,19.8571429 C2,21.040625 2.959375,22 4.14285714,22 L19.8571429,22 C21.040625,22 22,21.040625 22,19.8571429 L22,4.14285714 C22,2.959375 21.040625,2 19.8571429,2 Z M19.8571429,19.8571429 L4.14285714,19.8571429 L4.14285714,4.14285714 L19.8571429,4.14285714 L19.8571429,19.8571429 Z M18.2560714,9.06589286 L10.5512054,16.7089286 C10.3411607,16.9172768 10.0019643,16.9159375 9.79361607,16.7058929 L5.74089286,12.6203571 C5.53254464,12.4103125 5.53388393,12.0711161 5.74397321,11.8627232 L6.75821429,10.8566518 C6.96825893,10.6483036 7.30745536,10.6496429 7.51580357,10.8597321 L10.1850893,13.5506696 L16.4954464,7.29102679 C16.7054911,7.08267857 17.0446875,7.08401786 17.2530357,7.2940625 L18.2591071,8.30825893 C18.4674554,8.51834821 18.4661161,8.85754464 18.2560714,9.06589286 Z"/></g></g></g></svg>