<svg xmlns="http://www.w3.org/2000/svg" xmlns:xlink="http://www.w3.org/1999/xlink" width="22" height="22" version="1.1" viewBox="0 0 22 22"><title>Icon/Check Circle</title><g id="💙-Icons" fill="none" fill-rule="evenodd" stroke="none" stroke-width="1"><g id="Icons-Copy" transform="translate(-585.000000, -449.000000)"><g id="Icon/Check-Circle" transform="translate(584.000000, 448.000000)"><polygon id="Base" points="0 0 24 0 24 24 0 24"/><path id="Icon" fill="#151A30" d="M12,1 C5.92485081,1 1,5.92485081 1,12 C1,18.0751492 5.92485081,23 12,23 C18.0751492,23 23,18.0751492 23,12 C23,5.92485081 18.0751492,1 12,1 Z M12,3.12903226 C16.902629,3.12903226 20.8709677,7.09661694 20.8709677,12 C20.8709677,16.902629 16.9033831,20.8709677 12,20.8709677 C7.09737097,20.8709677 3.12903226,16.9033831 3.12903226,12 C3.12903226,7.09737097 7.09661694,3.12903226 12,3.12903226 M18.2187258,8.90700403 L17.2191452,7.89935081 C17.0121411,7.69066129 16.6751331,7.68928629 16.4664435,7.89633468 L10.1967984,14.1155927 L7.54473387,11.4420161 C7.33772984,11.2333266 7.00072177,11.2319516 6.79203226,11.4389556 L5.78433468,12.4385363 C5.57564516,12.6455403 5.57427016,12.9825484 5.78131855,13.1912823 L9.80789516,17.2504597 C10.0148992,17.4591492 10.3519073,17.4605242 10.5605968,17.2534758 L18.215754,9.65975 C18.4243992,9.45270161 18.4257298,9.11569355 18.2187258,8.90700403 L18.2187258,8.90700403 Z"/></g></g></g></svg>