<svg xmlns="http://www.w3.org/2000/svg" width="25" height="24" viewBox="0 0 25 24"><g fill="none" fill-rule="evenodd"><path d="M0 0H24V24H0z" transform="translate(1)"/><path fill="#151A30" d="M20.16 10.884c.154-.406.24-.85.24-1.313 0-2.01-1.612-3.642-3.6-3.642-.739 0-1.429.227-1.999.614C13.762 4.722 11.824 3.5 9.6 3.5c-3.315 0-6 2.717-6 6.071 0 .103.004.205.007.308C1.507 10.626 0 12.653 0 15.036 0 18.052 2.419 20.5 5.4 20.5h13.8c2.651 0 4.8-2.174 4.8-4.857 0-2.349-1.65-4.31-3.84-4.759zm-5.246 2.418l-.405.41c-.36.364-.945.352-1.294-.02L12 12.383v4.778c0 .504-.401.91-.9.91h-.6c-.499 0-.9-.406-.9-.91v-4.778l-1.215 1.31c-.349.375-.934.383-1.294.018l-.405-.41c-.352-.356-.352-.933 0-1.286l3.476-3.517c.353-.357.923-.357 1.272 0l3.476 3.517c.352.357.352.934.004 1.287z" transform="translate(1)"/></g></svg>