<svg xmlns="http://www.w3.org/2000/svg" width="25" height="24" viewBox="0 0 25 24"><g fill="none" fill-rule="evenodd"><path d="M0 0H24V24H0z" transform="translate(1)"/><g><path fill="#475B7F" d="M2.878 8.651L0 13.585V2C0 .895.895 0 2 0h6.667l2.666 2.667H18c1.105 0 2 .895 2 2v2H6.333c-1.422.002-2.736.757-3.455 1.984z" transform="translate(1) translate(0 4)"/><path fill="#8F9BB3" d="M6.333 8H23c.552 0 1 .448 1 1 0 .177-.047.35-.136.504l-3.02 5.173c-.477.82-1.354 1.323-2.302 1.323H1.875c-.552 0-1-.448-1-1 0-.177.047-.35.136-.504L4.03 9.323C4.508 8.503 5.385 8 6.333 8z" transform="translate(1) translate(0 4)"/></g></g></svg>