<svg xmlns="http://www.w3.org/2000/svg" width="25" height="24" viewBox="0 0 25 24">
    <g fill="none" fill-rule="evenodd">
        <path d="M0 0H24V24H0z" transform="translate(1)"/>
        <g>
            <path fill="#475B7F" d="M12.5 10H20v5.625c0 1-.875 1.875-1.875 1.875H1.875c-1 0-1.875-.875-1.875-1.875V10h7.5v1.875c0 .345.28.625.625.625h3.75c.345 0 .625-.28.625-.625V10z" transform="translate(1) translate(2 3)"/>
            <path fill="#8F9BB3" d="M18.125 3.75H15V1.875C15 .875 14.125 0 13.125 0h-6.25C5.875 0 5 .875 5 1.875V3.75H1.875C.875 3.75 0 4.625 0 5.625V8.75h20V5.625c0-1-.875-1.875-1.875-1.875zm-5.625 0h-5V2.5h5v1.25z" transform="translate(1) translate(2 3)"/>
        </g>
    </g>
</svg>
