<svg xmlns="http://www.w3.org/2000/svg" width="25" height="24" viewBox="0 0 25 24"><g fill="none" fill-rule="evenodd"><path d="M0 0H24V24H0z" transform="translate(1)"/><g><path fill="#FFE4BC" d="M5.5 11C4.12 11 3 12.12 3 13.5S4.12 16 5.5 16 8 14.88 8 13.5 6.88 11 5.5 11zm9 0c-1.38 0-2.5 1.12-2.5 2.5s1.12 2.5 2.5 2.5 2.5-1.12 2.5-2.5-1.12-2.5-2.5-2.5z" transform="translate(1) translate(2 4)"/><path fill="#F90" d="M19.5 11H19V7.622c0-.398-.16-.779-.44-1.06l-3.122-3.121c-.281-.282-.662-.44-1.06-.441H13V1.5c0-.828-.672-1.5-1.5-1.5h-10C.672 0 0 .672 0 1.5v10c0 .828.672 1.5 1.5 1.5h.567c.245-1.69 1.676-3 3.433-3s3.204 1.308 3.45 3h2.1c.246-1.692 1.691-3 3.45-3 1.759 0 3.188 1.31 3.433 3H19.5c.276 0 .5-.224.5-.5v-1c0-.276-.224-.5-.5-.5zm-2-3H13V4.5h1.378L17.5 7.622V8z" transform="translate(1) translate(2 4)"/></g></g></svg>