<svg xmlns="http://www.w3.org/2000/svg" width="25" height="24" viewBox="0 0 25 24"><g fill="none" fill-rule="evenodd"><path d="M0 0H24V24H0z" transform="translate(1)"/><g><path fill="#475B7F" d="M15 5h-4.375C10.28 5 10 4.72 10 4.375V0H.938C.42-.001 0 .416 0 .933v18.13c-.001.516.416.936.933.937h13.13c.516.001.936-.416.937-.933V5zm-3.75 9.531c0 .26-.21.469-.469.469H4.22c-.26 0-.469-.21-.469-.469v-.312c0-.26.21-.469.469-.469h6.562c.26 0 .469.21.469.469v.312zm0-2.5c0 .26-.21.469-.469.469H4.22c-.26 0-.469-.21-.469-.469v-.312c0-.26.21-.469.469-.469h6.562c.26 0 .469.21.469.469v.312zm0-2.5c0 .26-.21.469-.469.469H4.22c-.26 0-.469-.21-.469-.469V9.22c0-.26.21-.469.469-.469h6.562c.26 0 .469.21.469.469v.312z" transform="translate(1) translate(5 2)"/><path fill="#8F9BB3" d="M14.727 4.102L10.902.273C10.726.098 10.487 0 10.238 0H10v4.375c0 .345.28.625.625.625H15v-.238c0-.248-.098-.485-.273-.66zM10.78 13.75H4.22c-.26 0-.469.21-.469.469v.312c0 .26.21.469.469.469h6.562c.26 0 .469-.21.469-.469v-.312c0-.26-.21-.469-.469-.469zm0-2.5H4.22c-.26 0-.469.21-.469.469v.312c0 .26.21.469.469.469h6.562c.26 0 .469-.21.469-.469v-.312c0-.26-.21-.469-.469-.469zm0-2.5H4.22c-.26 0-.469.21-.469.469v.312c0 .26.21.469.469.469h6.562c.26 0 .469-.21.469-.469V9.22c0-.26-.21-.469-.469-.469z" transform="translate(1) translate(5 2)"/></g></g></svg>