<svg xmlns="http://www.w3.org/2000/svg" xmlns:xlink="http://www.w3.org/1999/xlink" width="22" height="22" version="1.1" viewBox="0 0 22 22"><title>Icon/Expand</title><g id="💙-Icons" fill="none" fill-rule="evenodd" stroke="none" stroke-width="1"><g id="Icons-Copy" transform="translate(-1017.000000, -393.000000)"><g id="Icon/Expand" transform="translate(1016.000000, 392.000000)"><rect id="Base" width="24" height="24" x="0" y="0"/><path id="Icon" fill="#151A30" d="M1.5,8.4375 L1.5,2.625 C1.5,2.0015625 2.0015625,1.5 2.625,1.5 L8.4375,1.5 C8.746875,1.5 9,1.753125 9,2.0625 L9,3.1875 C9,3.496875 8.746875,3.75 8.4375,3.75 L3.75,3.75 L3.75,8.4375 C3.75,8.746875 3.496875,9 3.1875,9 L2.0625,9 C1.753125,9 1.5,8.746875 1.5,8.4375 Z M15,2.0625 L15,3.1875 C15,3.496875 15.253125,3.75 15.5625,3.75 L20.25,3.75 L20.25,8.4375 C20.25,8.746875 20.503125,9 20.8125,9 L21.9375,9 C22.246875,9 22.5,8.746875 22.5,8.4375 L22.5,2.625 C22.5,2.0015625 21.9984375,1.5 21.375,1.5 L15.5625,1.5 C15.253125,1.5 15,1.753125 15,2.0625 Z M21.9375,15 L20.8125,15 C20.503125,15 20.25,15.253125 20.25,15.5625 L20.25,20.25 L15.5625,20.25 C15.253125,20.25 15,20.503125 15,20.8125 L15,21.9375 C15,22.246875 15.253125,22.5 15.5625,22.5 L21.375,22.5 C21.9984375,22.5 22.5,21.9984375 22.5,21.375 L22.5,15.5625 C22.5,15.253125 22.246875,15 21.9375,15 Z M9,21.9375 L9,20.8125 C9,20.503125 8.746875,20.25 8.4375,20.25 L3.75,20.25 L3.75,15.5625 C3.75,15.253125 3.496875,15 3.1875,15 L2.0625,15 C1.753125,15 1.5,15.253125 1.5,15.5625 L1.5,21.375 C1.5,21.9984375 2.0015625,22.5 2.625,22.5 L8.4375,22.5 C8.746875,22.5 9,22.246875 9,21.9375 Z"/></g></g></g></svg>