<svg xmlns="http://www.w3.org/2000/svg" width="25" height="24" viewBox="0 0 25 24"><g fill="none" fill-rule="evenodd"><path d="M0 0H24V24H0z" transform="translate(1)"/><path fill="#151A30" d="M19.778 14.25s-2.222 3.257-2.222 4.5c0 1.242.995 2.25 2.222 2.25C21.005 21 22 19.992 22 18.75c0-1.243-2.222-4.5-2.222-4.5zm-.326-3.62l-7.21-7.3c-.21-.212-.492-.33-.787-.33-.284 0-.568.11-.785.33L7.643 6.394l-3.19-3.23c-.218-.22-.57-.22-.786 0l-.393.397c-.217.22-.217.576 0 .796l3.19 3.23-3.488 3.531c-1.301 1.318-1.301 3.455 0 4.773l4.07 4.12c.65.658 1.503.988 2.356.988s1.706-.33 2.356-.989l7.694-7.789c.434-.44.434-1.152 0-1.591zm-8.872 8.188c-.314.319-.733.494-1.178.494-.445 0-.863-.175-1.178-.494l-3.956-4.006h10.269l-3.957 4.006zm5.624-5.693H3.714c.069-.305.217-.586.44-.813l3.489-3.531 2.427 2.457c.325.33.852.33 1.178 0 .325-.33.325-.863 0-1.193L8.821 7.588l2.634-2.667 6.426 6.505-1.677 1.699z" transform="translate(1)"/></g></svg>