<svg xmlns="http://www.w3.org/2000/svg" width="25" height="24" viewBox="0 0 25 24"><g fill="none" fill-rule="evenodd"><path d="M0 0H24V24H0z" transform="translate(1)"/><g><path fill="#475B7F" d="M5.5 5.676c-1.38 0-2.5 1.133-2.5 2.53 0 1.399 1.12 2.532 2.5 2.532S8 9.605 8 8.207c0-1.398-1.12-2.531-2.5-2.531zm7 0c-1.38 0-2.5 1.133-2.5 2.53 0 1.399 1.12 2.532 2.5 2.532S15 9.605 15 8.207c0-1.398-1.12-2.531-2.5-2.531z" transform="translate(1) translate(3 3.7)"/><path fill="#8F9BB3" d="M2.5 11.498c-1.38 0-2.5 1.133-2.5 2.53 0 1.399 1.12 2.532 2.5 2.532S5 15.427 5 14.029c0-1.398-1.12-2.531-2.5-2.531zm4-8.967C6.5 3.93 7.62 5.062 9 5.062s2.5-1.133 2.5-2.53C11.5 1.132 10.38 0 9 0S6.5 1.133 6.5 2.531zM9 11.497c-1.38 0-2.5 1.134-2.5 2.532 0 1.398 1.12 2.531 2.5 2.531s2.5-1.133 2.5-2.531c0-1.398-1.12-2.531-2.5-2.531zm6.5 0c-1.38 0-2.5 1.134-2.5 2.532 0 1.398 1.12 2.531 2.5 2.531s2.5-1.133 2.5-2.531c0-1.398-1.12-2.531-2.5-2.531z" transform="translate(1) translate(3 3.7)"/></g></g></svg>