<svg xmlns="http://www.w3.org/2000/svg" width="25" height="24" viewBox="0 0 25 24">
    <g fill="none" fill-rule="evenodd">
        <path d="M0 0H24V24H0z" transform="translate(1)"/>
        <path fill="#151A30" d="M19.429 18.286h-1.19L13.417 4.384c-.08-.23-.297-.384-.54-.384h-1.754c-.243 0-.46.154-.54.384L5.761 18.286h-1.19c-.315 0-.571.256-.571.571v.572c0 .315.256.571.571.571h4.572c.315 0 .571-.256.571-.571v-.572c0-.315-.256-.571-.571-.571H7.877l1.19-3.429h5.866l1.19 3.429h-1.266c-.315 0-.571.256-.571.571v.572c0 .315.256.571.571.571h4.572c.315 0 .571-.256.571-.571v-.572c0-.315-.256-.571-.571-.571zm-9.767-5.143L12 6.403l2.338 6.74H9.662z" transform="translate(1)"/>
    </g>
</svg>
