<svg xmlns="http://www.w3.org/2000/svg" xmlns:xlink="http://www.w3.org/1999/xlink" width="20" height="18" version="1.1" viewBox="0 0 20 18"><title>Icon/Format/Indent Left</title><g id="💙-Icons" fill="none" fill-rule="evenodd" stroke="none" stroke-width="1"><g id="Icons-Copy" transform="translate(-970.000000, -339.000000)"><g id="Icon/Format/Indent-Left" transform="translate(968.000000, 336.000000)"><rect id="Base" width="24" height="24" x="0" y="0"/><path id="Icon" fill="#151A30" d="M20.821428,18.9622642 L3.17857144,18.9622642 L3.17857141,18.9622642 C2.8038066,18.9622642 2.5,19.2663726 2.5,19.6415095 C2.5,19.6415095 2.5,19.6415095 2.5,19.6415095 L2.5,20.3207548 L2.5,20.3207547 C2.5,20.6958917 2.8038066,21 3.17857141,21 L20.8214279,21 L20.8214279,21 C21.1961927,21 21.5,20.6958917 21.5,20.3207547 L21.5,19.6415094 L21.5,19.6415094 C21.5,19.2663725 21.1961927,18.9622642 20.8214279,18.9622642 L20.821428,18.9622642 Z M3.6582366,16.3853775 L7.72966503,12.3099058 L7.72966506,12.3099057 C7.99445423,12.04468 7.9944538,11.6148468 7.72966499,11.3496227 L3.65823657,7.27415101 C3.23243301,6.84877365 2.5,7.15103781 2.5,7.75471705 L2.5,15.9056604 C2.5,16.5131604 3.23497765,16.8099057 3.65823657,16.3853774 L3.6582366,16.3853775 Z M20.9558699,8.09433956 L11.1869863,8.09433956 L11.1869863,8.09433956 C10.8867062,8.09410518 10.6430901,8.33758171 10.6428567,8.63816048 C10.6428567,8.63844361 10.6428567,8.63872674 10.6428567,8.63900987 L10.6428567,9.58740609 L10.6428567,9.58741053 C10.642625,9.88798888 10.8858622,10.1318426 11.1861423,10.1320763 C11.1864252,10.1320763 11.186708,10.1320763 11.1869909,10.1320763 L20.9558745,10.1320763 L20.9558745,10.1320763 C21.2561546,10.1323082 21.4997664,9.88882944 21.4999998,9.58825109 C21.4999998,9.58796944 21.4999998,9.58768779 21.4999998,9.58740614 L21.4999998,8.63900992 L21.4999998,8.63900541 C21.5002315,8.33842706 21.2569943,8.09457334 20.9567142,8.09433956 C20.9564314,8.09433956 20.9561485,8.09433956 20.9558657,8.09433956 L20.9558699,8.09433956 Z M20.821428,3 L3.17857144,3 L3.17857141,3 C2.8038066,3 2.5,3.3041084 2.5,3.67924539 C2.5,3.67924539 2.5,3.67924539 2.5,3.67924539 L2.5,4.35849067 L2.5,4.35849057 C2.5,4.73362755 2.8038066,5.03773585 3.17857141,5.03773585 L20.8214279,5.03773585 L20.8214279,5.03773585 C21.1961927,5.03773585 21.5,4.73362755 21.5,4.35849057 L21.5,3.67924528 L21.5,3.67924528 C21.5,3.3041083 21.1961927,3 20.8214279,3 L20.821428,3 Z M20.9558699,13.5283018 L11.1869863,13.5283018 L11.1869863,13.5283018 C10.8867062,13.5280674 10.6430901,13.771544 10.6428567,14.0721227 C10.6428567,14.0724059 10.6428567,14.072689 10.6428567,14.0729721 L10.6428567,15.0213684 L10.6428567,15.0213728 C10.642625,15.3219511 10.8858622,15.5658049 11.1861423,15.5660385 C11.1864252,15.5660385 11.186708,15.5660385 11.1869909,15.5660385 L20.9558745,15.5660385 L20.9558745,15.5660385 C21.2561546,15.5662704 21.4997664,15.3227917 21.4999998,15.0222134 C21.4999998,15.0219317 21.4999998,15.0216501 21.4999998,15.0213684 L21.4999998,14.0729722 L21.4999998,14.0729677 C21.5002315,13.7723893 21.2569943,13.5285356 20.9567142,13.5283018 C20.9564314,13.5283018 20.9561485,13.5283018 20.9558657,13.5283018 L20.9558699,13.5283018 Z" transform="translate(12.000000, 12.000000) scale(-1, 1) translate(-12.000000, -12.000000)"/></g></g></g></svg>