<?xml version="1.0" encoding="UTF-8"?>
<svg width="20px" height="18px" viewBox="0 0 20 18" version="1.1" xmlns="http://www.w3.org/2000/svg" xmlns:xlink="http://www.w3.org/1999/xlink">
    <title>Icon/Format/Fill Drip</title>
    <g id="💙-Icons" stroke="none" stroke-width="1" fill="none" fill-rule="evenodd">
        <g id="Icons-Copy" transform="translate(-634.000000, -339.000000)">
            <g id="Icon/Format/Fill-Drip" transform="translate(632.000000, 336.000000)">
                <rect id="Base" x="0" y="0" width="24" height="24"></rect>
                <path d="M19.7778067,14.2497806 C19.7778067,14.2497806 17.5556134,17.5069434 17.5556134,18.7496925 C17.5556134,19.9924416 18.5507393,20.9996484 19.7778067,20.9996484 C21.0048741,20.9996484 22,19.9924416 22,18.7496925 C22,17.5069434 19.7778067,14.2497806 19.7778067,14.2497806 Z M19.4524637,10.6308671 L12.2410993,3.32940855 L12.2410993,3.3294086 C12.0328215,3.11824848 11.7500918,2.99972045 11.4553457,3.0000005 C11.1709744,3.0000005 10.8866031,3.10968634 10.6699392,3.3294086 L7.64254807,6.394622 L4.45231183,3.16488058 C4.23530076,2.94515832 3.88356923,2.94515832 3.66655817,3.16488058 L3.27420216,3.56248997 C3.0571911,3.78221223 3.0571911,4.13833807 3.27420216,4.35806033 L6.46443841,7.58815331 L2.97628937,11.1191779 C1.67457021,12.4368083 1.67457021,14.5735634 2.97628937,15.8915454 L7.04533362,20.0114256 C7.6960196,20.6702408 8.54913349,21.0000005 9.40190017,21.0000005 C10.2550141,21.0000005 11.1077807,20.6705924 11.7584667,20.0114256 L19.4517693,12.2220079 C19.8861387,11.7822118 19.8861387,11.0703117 19.4524638,10.6308672 L19.4524637,10.6308671 Z M10.580357,18.8182458 C10.2657778,19.1367552 9.84738043,19.3121814 9.40224733,19.3121814 C8.95711424,19.3121814 8.53871691,19.1367552 8.22413767,18.8182458 L4.26759196,14.8122696 L14.5365555,14.8122696 L10.580357,18.8182458 Z M16.2035477,13.1248026 L3.7134325,13.1248026 C3.78287604,12.8200039 3.931138,12.5387594 4.1547462,12.3123576 L7.64254802,8.78098146 L10.0695998,11.2383552 C10.3949427,11.5677628 10.9223664,11.5677628 11.2480566,11.2383552 C11.5733996,10.9089476 11.5733996,10.3745831 11.2480566,10.0451754 L8.8210049,7.58780171 L11.4553456,4.92054926 L17.8806092,11.4264375 L16.2035477,13.1248026 Z" id="Icon" fill="#151A30"></path>
            </g>
        </g>
    </g>
</svg>