<svg xmlns="http://www.w3.org/2000/svg" xmlns:xlink="http://www.w3.org/1999/xlink" width="16" height="16" version="1.1" viewBox="0 0 16 16"><title>Icon/Format/Font</title><g id="💙-Icons" fill="none" fill-rule="evenodd" stroke="none" stroke-width="1"><g id="Icons-Copy" transform="translate(-588.000000, -340.000000)"><g id="Icon/Format/Font" transform="translate(584.000000, 336.000000)"><rect id="Base" width="24" height="24" x="0" y="0"/><path id="Icon" fill="#151A30" d="M19.4285714,18.2857145 L18.2385714,18.2857145 L13.4171429,4.38428606 L13.4171429,4.38428606 C13.3373571,4.15410035 13.1204068,3.99981106 12.8767857,4.00000017 L11.1232143,4.00000017 L11.1232143,4.00000017 C10.8797247,4.00000017 10.6629572,4.15422463 10.5832143,4.38428606 L5.7614286,18.2857145 L4.5714286,18.2857145 L4.57142857,18.2857145 C4.25583714,18.2857145 4,18.5415516 4,18.857143 C4,18.857143 4,18.857143 4,18.857143 L4,19.4285716 L4,19.4285715 C4,19.7441629 4.25583714,20.0000002 4.57142857,20.0000002 L9.14285714,20.0000002 L9.14285712,20.0000002 C9.45844855,20.0000002 9.71428569,19.7441629 9.71428569,19.4285715 L9.71428569,18.857143 L9.71428569,18.857143 C9.71428569,18.5415515 9.45844855,18.2857144 9.14285712,18.2857144 L7.87714283,18.2857144 L9.06678569,14.857143 L14.9332143,14.857143 L16.1228571,18.2857144 L14.8571428,18.2857144 L14.8571428,18.2857144 C14.5415514,18.2857144 14.2857142,18.5415515 14.2857142,18.857143 C14.2857142,18.857143 14.2857142,18.857143 14.2857142,18.857143 L14.2857142,19.4285715 L14.2857142,19.4285716 C14.2857143,19.744163 14.5415517,20.0000002 14.8571428,20.0000002 L19.4285714,20.0000002 L19.4285714,20.0000002 C19.7441628,20.0000002 20,19.744163 20,19.4285716 L20,18.857143 L20,18.857143 C20,18.5415516 19.7441628,18.2857145 19.4285714,18.2857145 L19.4285714,18.2857145 Z M9.66178572,13.1428574 L12,6.4039289 L14.3382143,13.1428574 L9.66178572,13.1428574 Z"/></g></g></g></svg>