<svg xmlns="http://www.w3.org/2000/svg" xmlns:xlink="http://www.w3.org/1999/xlink" width="22" height="18" version="1.1" viewBox="0 0 22 18"><title>Icon/Format/Remove Format</title><g id="💙-Icons" fill="none" fill-rule="evenodd" stroke="none" stroke-width="1"><g id="Icons-Copy" transform="translate(-729.000000, -339.000000)"><g id="Icon/Format/Remove-Format" transform="translate(728.000000, 336.000000)"><rect id="Base" width="24" height="24" x="0" y="0"/><path id="Icon" fill="#151A30" d="M22.7933649,19.1383612 L2.23805258,3.61675058 L2.23805259,3.61675058 C2.00105465,3.43325062 1.65492107,3.47006788 1.46494255,3.69898424 C1.46472977,3.69924063 1.46451724,3.6994972 1.46430496,3.69975397 L1.12057064,4.1147703 L1.12057065,4.11477029 C0.930800771,4.34384769 0.969221675,4.67814334 1.20638633,4.86144443 C1.20654012,4.86156329 1.20669398,4.86168208 1.20684791,4.86180078 L21.7621602,20.3834114 L21.7621602,20.3834114 C21.9992506,20.5667995 22.345364,20.5298192 22.5352256,20.3008132 C22.5353375,20.3006782 22.5354493,20.3005432 22.5355611,20.3004081 L22.8792954,19.8853918 L22.8792954,19.8853918 C23.0691578,19.6563861 23.030872,19.3220752 22.7937812,19.1386878 C22.7936415,19.1385797 22.7935017,19.1384717 22.7933618,19.1383637 L22.7933649,19.1383612 Z M13.1000571,6.6878714 L12.2489709,9.15373241 L13.9937663,10.4728203 L15.2999567,6.6878714 L20.249731,6.6878714 L20.249731,7.7503132 L20.249731,7.75031328 C20.249731,8.04369862 20.4959633,8.28153418 20.7997059,8.28153418 L21.3496808,8.28153418 L21.3496808,8.28153418 C21.6534236,8.28153419 21.8996557,8.04369862 21.8996557,7.75031328 L21.8996557,5.09420879 L21.8996557,5.09420879 C21.8996557,4.80082345 21.6534236,4.56298789 21.3496808,4.56298789 L7.05033304,4.56298789 L7.05033306,4.56298789 C6.84257969,4.56413722 6.65356397,4.67924226 6.56291779,4.85980756 L8.98349487,6.68787148 L13.1000571,6.6878714 Z M12.5500822,17.8435103 L11.4501324,17.8435103 L12.3328421,15.2870097 L10.587703,13.9689179 L9.25023271,17.8435103 L8.15028289,17.8435103 L8.15028287,17.8435103 C7.84653997,17.8435103 7.60030795,18.0813458 7.60030795,18.3747312 C7.60030795,18.3747312 7.60030795,18.3747312 7.60030795,18.3747312 L7.60030795,18.9059521 L7.60030795,18.9059522 C7.60030795,19.1993375 7.84654031,19.4371731 8.15028287,19.4371731 L12.5500822,19.4371731 L12.5500821,19.4371731 C12.853825,19.4371731 13.100057,19.1993375 13.100057,18.9059522 L13.100057,18.3747313 L13.100057,18.3747313 C13.100057,18.0813459 12.853825,17.8435104 12.5500821,17.8435104 L12.5500822,17.8435103 Z"/></g></g></g></svg>