<svg xmlns="http://www.w3.org/2000/svg" xmlns:xlink="http://www.w3.org/1999/xlink" width="20" height="18" version="1.1" viewBox="0 0 20 18"><title>Icon/Format/Align Right</title><g id="💙-Icons" fill="none" fill-rule="evenodd" stroke="none" stroke-width="1"><g id="Icons-Copy" transform="translate(-874.000000, -339.000000)"><g id="Icon/Format/Align-Right" transform="translate(872.000000, 336.000000)"><rect id="Base" width="24" height="24" x="0" y="0"/><path id="Icon" fill="#151A30" d="M3.17857148,10.3333336 L20.8214284,10.3333336 L20.8214284,10.3333336 C21.1961932,10.3333336 21.5,10.0348569 21.5,9.6666669 L21.5,9.00000025 L21.5,9.00000025 C21.5,8.63181025 21.1961932,8.33333359 20.8214284,8.33333359 L3.17857145,8.33333359 L3.17857142,8.33333359 C2.8038066,8.33333359 2.5,8.63181025 2.5,9.00000025 C2.5,9.00000025 2.5,9.00000025 2.5,9.00000025 L2.5,9.6666669 L2.5,9.6666668 C2.5,10.0348568 2.8038066,10.3333336 3.17857142,10.3333336 L3.17857148,10.3333336 Z M20.8214284,19 L3.17857148,19 L3.17857145,19 C2.80380663,19 2.50000003,19.2984768 2.50000003,19.6666668 C2.50000003,19.6666668 2.50000003,19.6666668 2.50000003,19.6666668 L2.50000003,20.3333334 L2.50000003,20.3333333 C2.50000003,20.7015233 2.80380663,21 3.17857145,21 L20.8214284,21 L20.8214284,21 C21.1961932,21 21.5,20.7015233 21.5,20.3333333 L21.5,19.6666667 L21.5,19.6666667 C21.5,19.2984767 21.1961932,19 20.8214284,19 L20.8214284,19 Z M20.9558704,3.00000017 L9.82984373,3.00000017 L9.82984372,3.00000017 C9.52956356,2.99977013 9.28594752,3.23873783 9.28571409,3.53375032 C9.28571409,3.53402821 9.28571409,3.5343061 9.28571409,3.53458398 L9.28571409,4.4654173 L9.28571409,4.46542166 C9.28548239,4.76043374 9.52871959,4.99977165 9.82899974,5.00000017 C9.82928258,5.00000017 9.82956542,5.00000017 9.82984827,5.00000017 L20.9558749,5.00000017 L20.955875,5.00000017 C21.2561551,5.00022861 21.4997669,4.76125873 21.5000003,4.46624665 C21.5000003,4.46597022 21.5000003,4.46569378 21.5000003,4.46541735 L21.5000003,3.53458403 L21.5000003,3.5345796 C21.500232,3.23956752 21.2569948,3.00022961 20.9567147,3.00000017 C20.9564318,3.00000017 20.956149,3.00000017 20.9558661,3.00000017 L20.9558704,3.00000017 Z M20.9558704,13.6666667 L9.82984373,13.6666667 L9.82984372,13.6666667 C9.52956356,13.6664366 9.28594752,13.9054043 9.28571409,14.2004168 C9.28571409,14.2006947 9.28571409,14.2009726 9.28571409,14.2012505 L9.28571409,15.1320838 L9.28571409,15.1320882 C9.28548239,15.4271002 9.52871959,15.6664382 9.82899974,15.6666667 C9.82928258,15.6666667 9.82956542,15.6666667 9.82984827,15.6666667 L20.9558749,15.6666667 L20.955875,15.6666667 C21.2561551,15.6668951 21.4997669,15.4279252 21.5000003,15.1329132 C21.5000003,15.1326367 21.5000003,15.1323603 21.5000003,15.1320839 L21.5000003,14.2012505 L21.5000003,14.2012461 C21.500232,13.906234 21.2569948,13.6668961 20.9567147,13.6666667 C20.9564318,13.6666667 20.956149,13.6666667 20.9558662,13.6666667 L20.9558704,13.6666667 Z"/></g></g></g></svg>