<svg xmlns="http://www.w3.org/2000/svg" xmlns:xlink="http://www.w3.org/1999/xlink" width="12" height="18" version="1.1" viewBox="0 0 12 18"><title>Icon/Format/Italic</title><g id="💙-Icons" fill="none" fill-rule="evenodd" stroke="none" stroke-width="1"><g id="Icons-Copy" transform="translate(-638.000000, -395.000000)"><g id="Icon/Format/Italic" transform="translate(632.000000, 392.000000)"><rect id="Base" width="24" height="24" x="0" y="0"/><path id="Icon" fill="#151A30" d="M18,4.10714268 L18,4.71428554 L18,4.71428554 C18,5.04960144 17.731371,5.32142841 17.4,5.32142841 L14.8875,5.32142841 L11.5875,18.6785714 L13.8,18.6785714 L13.8,18.6785714 C14.131371,18.6785714 14.4,18.9503984 14.4,19.2857143 L14.4,19.8928571 L14.4,19.8928571 C14.4,20.228173 14.131371,20.5 13.8,20.5 L6.60000002,20.5 L6.6,20.5 C6.268629,20.5 6,20.228173 6,19.8928571 C6,19.8928571 6,19.8928571 6,19.8928571 L6,19.2857143 L6,19.2857144 C6,18.9503985 6.268629,18.6785715 6.6,18.6785715 L9.11249999,18.6785715 L12.4125,5.3214285 L10.2,5.3214285 L10.2,5.3214285 C9.86862896,5.32142848 9.59999996,5.04960153 9.59999996,4.71428564 C9.59999996,4.71428564 9.59999996,4.71428564 9.59999996,4.71428564 L9.59999996,4.10714277 L9.59999996,4.10714286 C9.59999991,3.77182697 9.86862896,3.5 10.2,3.5 L17.3999999,3.5 L17.3999999,3.5 C17.7313709,3.5 18,3.77182697 18,4.10714286 L18,4.10714268 Z"/></g></g></g></svg>