<svg xmlns="http://www.w3.org/2000/svg" xmlns:xlink="http://www.w3.org/1999/xlink" width="22" height="18" version="1.1" viewBox="0 0 22 18"><title>Icon/Format/List Bullet</title><g id="💙-Icons" fill="none" fill-rule="evenodd" stroke="none" stroke-width="1"><g id="Icons-Copy" transform="translate(-825.000000, -395.000000)"><g id="Icon/Format/List-Bullet" transform="translate(824.000000, 392.000000)"><rect id="Base" width="24" height="24" x="0" y="0"/><path id="Icon" fill="#151A30" d="M3.06250009,16.8461538 L3.0625,16.8461538 C1.92341133,16.8461538 1,17.7760226 1,18.9230769 C1,20.0701312 1.92341133,21 3.0625,21 C4.20158867,21 5.12499999,20.0701312 5.12499999,18.9230769 L5.12499999,18.9230769 C5.12499999,17.7760226 4.20158867,16.8461538 3.0625,16.8461538 L3.06250009,16.8461538 Z M3.06250009,9.92307692 L3.0625,9.92307692 C1.92341133,9.92307692 1,10.8529457 1,12 C1,13.1470543 1.92341133,14.0769231 3.0625,14.0769231 C4.20158867,14.0769231 5.12499999,13.1470543 5.12499999,12 L5.12499999,12 C5.12499999,10.8529457 4.20158867,9.92307692 3.0625,9.92307692 L3.06250009,9.92307692 Z M3.06250009,3 L3.0625,3 C1.92341133,3 1,3.92986875 1,5.07692308 C1,6.2239774 1.92341133,7.15384615 3.0625,7.15384615 C4.20158867,7.15384615 5.12499999,6.2239774 5.12499999,5.07692308 L5.12499999,5.07692308 C5.12499999,3.92986875 4.20158867,3 3.0625,3 L3.06250009,3 Z M22.3125001,4.03846154 L8.56250008,4.03846154 L8.56250005,4.03846154 C8.18280411,4.03846154 7.87500005,4.34841808 7.87500005,4.73076923 C7.87500005,4.73076923 7.87500005,4.73076923 7.87500005,4.73076923 L7.87500005,5.42307692 L7.87500005,5.42307703 C7.87500005,5.80542818 8.18280454,6.11538472 8.56250005,6.11538472 L22.3125,6.11538472 L22.3125,6.11538472 C22.6921959,6.11538472 23,5.80542818 23,5.42307703 L23,4.73076934 L23,4.73076934 C23,4.34841818 22.6921959,4.03846154 22.3125,4.03846154 L22.3125001,4.03846154 Z M22.3125001,10.9615385 L8.56250008,10.9615385 L8.56250005,10.9615385 C8.18280411,10.9615385 7.87500005,11.271495 7.87500005,11.6538462 C7.87500005,11.6538462 7.87500005,11.6538462 7.87500005,11.6538462 L7.87500005,12.3461538 L7.87500005,12.346154 C7.87500005,12.7285051 8.18280454,13.0384616 8.56250005,13.0384616 L22.3125,13.0384616 L22.3125,13.0384616 C22.6921959,13.0384616 23,12.7285051 23,12.346154 L23,11.6538463 L23,11.6538463 C23,11.2714951 22.6921959,10.9615385 22.3125,10.9615385 L22.3125001,10.9615385 Z M22.3125001,17.8846154 L8.56250008,17.8846154 L8.56250005,17.8846154 C8.18280411,17.8846154 7.87500005,18.1945719 7.87500005,18.5769231 C7.87500005,18.5769231 7.87500005,18.5769231 7.87500005,18.5769231 L7.87500005,19.2692308 L7.87500005,19.2692309 C7.87500005,19.651582 8.18280454,19.9615386 8.56250005,19.9615386 L22.3125,19.9615386 L22.3125,19.9615386 C22.6921959,19.9615386 23,19.651582 23,19.2692309 L23,18.5769232 L23,18.5769232 C23,18.194572 22.6921959,17.8846154 22.3125,17.8846154 L22.3125001,17.8846154 Z"/></g></g></g></svg>