<?xml version="1.0" encoding="UTF-8"?>
<svg width="20px" height="18px" viewBox="0 0 20 18" version="1.1" xmlns="http://www.w3.org/2000/svg" xmlns:xlink="http://www.w3.org/1999/xlink">
    <title>Icon/Format/Align Center</title>
    <g id="💙-Icons" stroke="none" stroke-width="1" fill="none" fill-rule="evenodd">
        <g id="Icons-Copy" transform="translate(-826.000000, -339.000000)">
            <g id="Icon/Format/Align-Center" transform="translate(824.000000, 336.000000)">
                <rect id="Base" x="0" y="0" width="24" height="24"></rect>
                <path d="M7.08459825,5.00000018 L16.9158259,5.00000018 L16.9158259,5.00000018 C17.1990073,5.00000018 17.4285715,4.77446423 17.4285715,4.49625048 C17.4285715,4.49611154 17.4285715,4.49597259 17.4285715,4.49583365 L17.4285715,3.50375034 L17.4285715,3.50375034 C17.4285715,3.22553701 17.1990072,3.00000018 16.9158257,3.00000018 C16.9158257,3.00000018 16.9158257,3.00000018 16.9158257,3.00000018 L7.08459805,3.00000018 L7.08459806,3.00000018 C6.80141663,2.99977023 6.57166167,3.22512035 6.57142824,3.50333367 C6.57142824,3.50347262 6.57142824,3.50361156 6.57142824,3.50375051 L6.57142824,4.49583382 L6.57142824,4.49583389 C6.57142824,4.77427764 6.80118234,5.00000018 7.08459788,5.00000018 C7.08459788,5.00000018 7.08459788,5.00000018 7.08459788,5.00000018 L7.08459825,5.00000018 Z M20.8214286,19 L3.17857146,19 L3.17857143,19 C2.80380661,19 2.5,19.2984768 2.5,19.6666668 C2.5,19.6666668 2.5,19.6666668 2.5,19.6666668 L2.5,20.3333334 L2.5,20.3333333 C2.5,20.7015233 2.80380661,21 3.17857143,21 L20.8214286,21 L20.8214286,21 C21.1961934,21 21.5,20.7015233 21.5,20.3333333 L21.5,19.6666667 L21.5,19.6666667 C21.5,19.2984767 21.1961934,19 20.8214286,19 L20.8214286,19 Z M20.8214286,8.33333362 L3.17857146,8.33333362 L3.17857143,8.33333362 C2.80380661,8.33333362 2.5,8.63181038 2.5,9.00000037 C2.5,9.00000037 2.5,9.00000037 2.5,9.00000037 L2.5,9.66666702 L2.5,9.66666692 C2.5,10.0348569 2.80380661,10.3333336 3.17857143,10.3333336 L20.8214286,10.3333336 L20.8214286,10.3333336 C21.1961934,10.3333336 21.5,10.0348569 21.5,9.66666692 L21.5,9.00000027 L21.5,9.00000027 C21.5,8.63181028 21.1961934,8.33333362 20.8214286,8.33333362 L20.8214286,8.33333362 Z M16.9158259,15.6666665 L16.9158259,15.6666665 C17.1990073,15.6666665 17.4285715,15.4411306 17.4285715,15.1629169 C17.4285715,15.1627779 17.4285715,15.162639 17.4285715,15.1625 L17.4285715,14.1704167 L17.4285715,14.1704167 C17.4285715,13.8922034 17.1990072,13.6666665 16.9158257,13.6666665 C16.9158257,13.6666665 16.9158257,13.6666665 16.9158257,13.6666665 L7.08459801,13.6666665 L7.08459803,13.6666665 C6.8014166,13.6664366 6.57166164,13.8917867 6.57142821,14.17 C6.57142821,14.170139 6.57142821,14.1702779 6.57142821,14.1704169 L6.57142821,15.1625002 L6.57142821,15.1625001 C6.57142821,15.4409438 6.80118189,15.6666665 7.08459785,15.6666665 L16.9158259,15.6666665 Z" id="Icon" fill="#151A30"></path>
            </g>
        </g>
    </g>
</svg>