<svg xmlns="http://www.w3.org/2000/svg" xmlns:xlink="http://www.w3.org/1999/xlink" width="24" height="16" version="1.1" viewBox="0 0 24 16"><title>Icon/Format/Text Size</title><g id="💙-Icons" fill="none" fill-rule="evenodd" stroke="none" stroke-width="1"><g id="Icons-Copy" transform="translate(-728.000000, -396.000000)"><g id="Icon/Format/Text-Size" transform="translate(728.000000, 392.000000)"><rect id="Base" width="24" height="24" x="0" y="0"/><path id="Icon" fill="#151A30" d="M22.9250001,4 L10.2750001,4 L10.275,4 C9.95743617,4 9.70000004,4.25583714 9.70000004,4.57142857 C9.70000004,4.57142857 9.70000004,4.57142857 9.70000004,4.57142857 L9.70000004,7.42857143 L9.70000004,7.42857151 C9.70000004,7.74416294 9.95743653,8 10.275,8 L10.85,8 L10.85,8 C11.1675639,8 11.425,7.74416294 11.425,7.42857151 L11.425,6.28571437 L15.45,6.28571437 L15.45,18.2857144 L13.725,18.2857144 L13.725,18.2857144 C13.4074361,18.2857144 13.15,18.5415515 13.15,18.8571429 C13.15,18.8571429 13.15,18.8571429 13.15,18.8571429 L13.15,19.4285715 L13.15,19.4285716 C13.1500001,19.744163 13.4074365,20 13.725,20 L19.475,20 L19.475,20 C19.7925639,20 20.05,19.744163 20.05,19.4285716 L20.05,18.857143 L20.05,18.857143 C20.05,18.5415516 19.7925639,18.2857145 19.475,18.2857145 L17.75,18.2857145 L17.75,6.28571446 L21.775,6.28571446 L21.775,7.4285716 L21.775,7.42857169 C21.7750001,7.74416312 22.0324365,8 22.35,8 L22.925,8 L22.925,8 C23.2425639,8 23.5,7.74416312 23.5,7.42857169 L23.5,4.57142883 L23.5,4.57142883 C23.5,4.2558374 23.2425639,4 22.925,4 L22.9250001,4 Z M11.4250001,10.8571429 L1.07500003,10.8571429 L1.075,10.8571429 C0.757436126,10.8571429 0.5,11.11298 0.5,11.4285714 C0.5,11.4285714 0.5,11.4285714 0.5,11.4285714 L0.5,13.7142857 L0.5,13.7142856 C0.5,14.0298771 0.757436126,14.2857142 1.075,14.2857142 L1.65000001,14.2857142 L1.64999998,14.2857142 C1.96756386,14.2857142 2.22499998,14.0298771 2.22499998,13.7142856 C2.22499998,13.7142856 2.22499998,13.7142856 2.22499998,13.7142856 L2.22499998,12.5714285 L5.09999999,12.5714285 L5.09999999,18.2857142 L3.94999999,18.2857142 L3.94999996,18.2857142 C3.63243609,18.2857142 3.37499996,18.5415513 3.37499996,18.8571429 C3.37499996,18.8571429 3.37499996,18.8571429 3.37499996,18.8571429 L3.37499996,19.4285713 L3.37499996,19.4285714 C3.37500001,19.7441629 3.63243645,20 3.94999996,20 L8.54999998,20 L8.54999996,20 C8.86756384,20 9.12499996,19.7441629 9.12499996,19.4285714 L9.12499996,18.8571429 L9.12499996,18.8571429 C9.12499996,18.5415514 8.86756384,18.2857143 8.54999996,18.2857143 L7.39999995,18.2857143 L7.39999995,12.5714286 L10.275,12.5714286 L10.275,13.7142857 L10.275,13.7142858 C10.275,14.0298772 10.5324365,14.2857144 10.85,14.2857144 L11.425,14.2857144 L11.4249999,14.2857144 C11.7425638,14.2857144 12,14.0298772 12,13.7142858 L12,11.4285715 L12,11.4285715 C12,11.1129801 11.7425638,10.8571429 11.4249999,10.8571429 L11.4250001,10.8571429 Z"/></g></g></g></svg>