<svg xmlns="http://www.w3.org/2000/svg" xmlns:xlink="http://www.w3.org/1999/xlink" width="24" height="20" version="1.1" viewBox="0 0 24 20"><title>Icon/Format/List Numbers</title><g id="💙-Icons" fill="none" fill-rule="evenodd" stroke="none" stroke-width="1"><g id="Icons-Copy" transform="translate(-776.000000, -394.000000)"><g id="Icon/Format/List-Numbers" transform="translate(776.000000, 392.000000)"><rect id="Base" width="24" height="24" x="0" y="0"/><path id="Icon" fill="#151A30" d="M3.27482428,18.4732179 L4.06095709,17.5736642 L4.06095714,17.5736641 C4.2174124,17.4002859 4.29918773,17.1728332 4.28871105,16.9401818 L4.28871105,16.7924139 C4.28871105,16.4642889 4.11621105,16.2857174 3.77929699,16.2857174 L1.21875011,16.2857174 L1.21875009,16.2857174 C1.02027267,16.2857174 0.859375095,16.4456156 0.859375095,16.6428603 C0.859375095,16.6428603 0.859375095,16.6428603 0.859375095,16.6428603 L0.859375095,17.3571462 L0.859375095,17.3571463 C0.859375125,17.5543909 1.02027267,17.7142892 1.21875009,17.7142892 L2.24476572,17.7142892 L2.24476567,17.7142892 C2.07033583,17.8886089 1.90538855,18.0720531 1.75062954,18.2638385 L1.49861782,18.5763385 C1.31893032,18.8026779 1.26277798,19.0285708 1.37283657,19.2406244 L1.42000454,19.3267851 C1.55477017,19.583928 1.70301235,19.6785709 1.97029751,19.6785709 L2.18277798,19.6785709 C2.64682095,19.6785709 2.89883267,19.7874995 2.89883267,20.0843746 C2.89883267,20.2950889 2.71016079,20.4513389 2.25375454,20.4513389 L2.25375457,20.4513389 C2.01527961,20.449468 1.77937507,20.4021863 1.55881316,20.3120532 C1.26727019,20.1388389 1.03143035,20.1558032 0.858031911,20.4513389 L0.60691863,20.866964 C0.439360036,21.1406248 0.46316863,21.3901784 0.724613942,21.5785713 C1.0709616,21.7879464 1.64057097,22 2.38672332,22 C3.92125457,22 4.56543425,20.9843748 4.56543425,20.0303567 C4.5640866,19.3883923 4.15574675,18.701785 3.27482879,18.4732135 L3.27482428,18.4732179 Z M22.7812501,18.0714321 L8.40625006,18.0714321 L8.40625003,18.0714321 C8.00929519,18.0714321 7.68750003,18.3912286 7.68750003,18.785718 C7.68750003,18.785718 7.68750003,18.785718 7.68750003,18.785718 L7.68750003,19.5000039 L7.68750003,19.500004 C7.68750003,19.8944933 8.00929564,20.2142898 8.40625003,20.2142898 L22.78125,20.2142898 L22.78125,20.2142898 C23.1782048,20.2142898 23.5,19.8944933 23.5,19.500004 L23.5,18.7857181 L23.5,18.7857181 C23.5,18.3912287 23.1782048,18.0714321 22.78125,18.0714321 L22.7812501,18.0714321 Z M22.7812501,3.78571468 L8.40625006,3.78571468 L8.40625003,3.78571468 C8.00929519,3.78571468 7.68750003,4.10551118 7.68750003,4.50000055 C7.68750003,4.50000055 7.68750003,4.50000055 7.68750003,4.50000055 L7.68750003,5.21428642 L7.68750003,5.21428653 C7.68750003,5.60877591 8.00929564,5.9285724 8.40625003,5.9285724 L22.78125,5.9285724 L22.78125,5.9285724 C23.1782048,5.9285724 23.5,5.60877591 23.5,5.21428653 L23.5,4.50000066 L23.5,4.50000066 C23.5,4.10551129 23.1782048,3.78571468 22.78125,3.78571468 L22.7812501,3.78571468 Z M22.7812501,10.9285734 L8.40625006,10.9285734 L8.40625003,10.9285734 C8.00929519,10.9285734 7.68750003,11.2483699 7.68750003,11.6428593 C7.68750003,11.6428593 7.68750003,11.6428593 7.68750003,11.6428593 L7.68750003,12.3571451 L7.68750003,12.3571453 C7.68750003,12.7516346 8.00929564,13.0714311 8.40625003,13.0714311 L22.78125,13.0714311 L22.78125,13.0714311 C23.1782048,13.0714311 23.5,12.7516346 23.5,12.3571453 L23.5,11.6428594 L23.5,11.6428594 C23.5,11.24837 23.1782048,10.9285734 22.78125,10.9285734 L22.7812501,10.9285734 Z M1.21875006,7.71428802 L4.09375006,7.71428802 L4.09375005,7.71428802 C4.29222747,7.71428802 4.45312505,7.55438873 4.45312505,7.35714404 L4.45312505,6.64285817 L4.45312505,6.64285817 C4.45312505,6.44561348 4.29222747,6.28571523 4.09375005,6.28571523 L3.37500005,6.28571523 L3.37500005,2.35714294 L3.37500005,2.35714294 C3.37500005,2.15989825 3.21410247,2 3.01562505,2 L1.93750005,2 L1.93750005,2 C1.80165136,2.00024095 1.67755018,2.07658841 1.61675786,2.19732147 L1.25738286,2.91160734 L1.25738286,2.91160736 C1.16856377,3.08799981 1.24045005,3.30254896 1.41794487,3.39081728 C1.46767922,3.41554997 1.52251131,3.42847421 1.57812504,3.42857274 L1.93750004,3.42857274 L1.93750004,6.28571623 L1.21875004,6.28571623 L1.21875003,6.28571623 C1.0202726,6.28571623 0.859375027,6.44561448 0.859375027,6.64285916 C0.859375027,6.64285916 0.859375027,6.64285916 0.859375027,6.64285916 L0.859375027,7.35714503 L0.859375027,7.35714509 C0.859375027,7.55438977 1.0202726,7.71428802 1.21875003,7.71428802 L1.21875006,7.71428802 Z M1.04355475,14.8571457 L4.09375006,14.8571457 L4.09375005,14.8571457 C4.29222747,14.8571457 4.45312505,14.6972474 4.45312505,14.5000028 L4.45312505,13.7857169 L4.45312505,13.7857169 C4.45312505,13.5884722 4.29222747,13.428574 4.09375005,13.428574 L2.35662114,13.428574 C2.50396489,12.9691989 4.52769536,12.5946452 4.52769536,10.9089305 C4.52769536,9.61160882 3.40464848,9.14285872 2.53001958,9.14285872 C1.57048833,9.14285872 1.0116602,9.58928739 0.712929735,9.97991248 C0.516171922,10.2294661 0.57816411,10.4638412 0.838261766,10.6660733 L1.22369145,10.9732163 C1.47570317,11.1767877 1.71783208,11.0834841 1.9482813,10.8642877 L1.94828125,10.8642877 C2.06151088,10.7537627 2.21408129,10.6921511 2.37279297,10.6928591 C2.52238281,10.6928591 2.78966797,10.762502 2.78966797,11.0834842 C2.79101569,11.6513415 0.5,12.0584844 0.5,14.1691992 L0.5,14.3477706 C0.5,14.6785743 0.728203125,14.8571457 1.04355469,14.8571457 L1.04355475,14.8571457 Z"/></g></g></g></svg>