<svg xmlns="http://www.w3.org/2000/svg" xmlns:xlink="http://www.w3.org/1999/xlink" width="16" height="18" version="1.1" viewBox="0 0 16 18"><title>Icon/Format/Bold</title><g id="💙-Icons" fill="none" fill-rule="evenodd" stroke="none" stroke-width="1"><g id="Icons-Copy" transform="translate(-588.000000, -395.000000)"><g id="Icon/Format/Bold" transform="translate(584.000000, 392.000000)"><rect id="Base" width="24" height="24" x="0" y="0"/><path id="Icon" fill="#151A30" d="M16.5392036,11.3081393 L16.5392035,11.3081394 C18.5872149,9.48235474 18.6776581,6.43689465 16.741219,4.50591461 C15.7748014,3.54222459 14.4293695,2.99735554 13.0227275,3.00000965 L5.18181825,3.00000965 L5.18181822,3.00000965 C4.80526026,3.00000965 4.5,3.28783585 4.5,3.64287582 C4.5,3.64287582 4.5,3.64287582 4.5,3.64287582 L4.5,4.28573226 L4.5,4.28573236 C4.5,4.64077233 4.80526069,4.9285888 5.18181822,4.9285888 L5.86363642,4.9285888 L5.86363642,19.0714306 L5.18181822,19.0714306 L5.18181819,19.0714306 C4.80526023,19.0714306 4.5,19.359247 4.5,19.714287 C4.5,19.714287 4.5,19.714287 4.5,19.714287 L4.5,20.3571435 L4.5,20.3571436 C4.5,20.7121835 4.80526066,21.0000097 5.18181819,21.0000097 L14.0454547,21.0000097 L14.0454545,21.0000097 C17.0579147,21.0000097 19.5,18.697469 19.5,15.8571484 C19.5,13.8687131 18.290625,12.1639382 16.5392045,11.3081355 L16.5392036,11.3081393 Z M8.59090788,4.92859266 L12.3409081,4.92859266 L12.3409079,4.92859266 C14.0354179,4.92859266 15.4090898,6.22376759 15.4090898,7.82144666 C15.4090898,9.41912572 14.0354179,10.7143007 12.3409079,10.7143007 L8.59090788,10.7143007 L8.59090788,4.92859266 Z M13.3636354,19.0714344 L8.59090801,19.0714344 L8.59090801,12.64287 L13.3636354,12.64287 L13.3636352,12.64287 C15.246425,12.64287 16.7727262,14.0819524 16.7727262,15.8571522 C16.7727262,17.6323521 15.246425,19.0714344 13.3636352,19.0714344 L13.3636354,19.0714344 Z"/></g></g></g></svg>