<?xml version="1.0" encoding="UTF-8"?>
<svg width="20px" height="18px" viewBox="0 0 20 18" version="1.1" xmlns="http://www.w3.org/2000/svg" xmlns:xlink="http://www.w3.org/1999/xlink">
    <title>Icon/Format/Align Justify</title>
    <g id="💙-Icons" stroke="none" stroke-width="1" fill="none" fill-rule="evenodd">
        <g id="Icons-Copy" transform="translate(-922.000000, -339.000000)">
            <g id="Icon/Format/Align-Justify" transform="translate(920.000000, 336.000000)">
                <rect id="Base" x="0" y="0" width="24" height="24"></rect>
                <path d="M20.8214286,19 L3.17857146,19 L3.17857143,19 C2.80380661,19 2.5,19.2984768 2.5,19.6666668 C2.5,19.6666668 2.5,19.6666668 2.5,19.6666668 L2.5,20.3333334 L2.5,20.3333333 C2.5,20.7015233 2.80380661,21 3.17857143,21 L20.8214286,21 L20.8214286,21 C21.1961934,21 21.5,20.7015233 21.5,20.3333333 L21.5,19.6666667 L21.5,19.6666667 C21.5,19.2984767 21.1961934,19 20.8214286,19 L20.8214286,19 Z M20.8214286,13.6666667 L3.17857146,13.6666667 L3.17857143,13.6666667 C2.80380661,13.6666667 2.5,13.9651434 2.5,14.3333334 C2.5,14.3333334 2.5,14.3333334 2.5,14.3333334 L2.5,15.0000001 L2.5,15 C2.5,15.36819 2.80380661,15.6666667 3.17857143,15.6666667 L20.8214286,15.6666667 L20.8214286,15.6666667 C21.1961934,15.6666667 21.5,15.36819 21.5,15 L21.5,14.3333333 L21.5,14.3333333 C21.5,13.9651433 21.1961934,13.6666667 20.8214286,13.6666667 L20.8214286,13.6666667 Z M20.8214286,8.33333333 L3.17857146,8.33333333 L3.17857143,8.33333333 C2.80380661,8.33333333 2.5,8.6318101 2.5,9.0000001 C2.5,9.0000001 2.5,9.0000001 2.5,9.0000001 L2.5,9.66666677 L2.5,9.66666667 C2.5,10.0348567 2.80380661,10.3333333 3.17857143,10.3333333 L20.8214286,10.3333333 L20.8214286,10.3333333 C21.1961934,10.3333333 21.5,10.0348567 21.5,9.66666667 L21.5,9 L21.5,9 C21.5,8.63181 21.1961934,8.33333333 20.8214286,8.33333333 L20.8214286,8.33333333 Z M20.8214286,3 L3.17857146,3 L3.17857143,3 C2.80380661,3 2.5,3.29847677 2.5,3.66666677 C2.5,3.66666677 2.5,3.66666677 2.5,3.66666677 L2.5,4.33333343 L2.5,4.33333333 C2.5,4.70152333 2.80380661,5 3.17857143,5 L20.8214286,5 L20.8214286,5 C21.1961934,5 21.5,4.70152333 21.5,4.33333333 L21.5,3.66666667 L21.5,3.66666667 C21.5,3.29847667 21.1961934,3 20.8214286,3 L20.8214286,3 Z" id="Icon" fill="#151A30"></path>
            </g>
        </g>
    </g>
</svg>