<svg xmlns="http://www.w3.org/2000/svg" xmlns:xlink="http://www.w3.org/1999/xlink" width="22" height="18" version="1.1" viewBox="0 0 22 18"><title>Icon/Format/Tint Slash</title><g id="💙-Icons" fill="none" fill-rule="evenodd" stroke="none" stroke-width="1"><g id="Icons-Copy" transform="translate(-681.000000, -339.000000)"><g id="Icon/Format/Tint-Slash" transform="translate(680.000000, 336.000000)"><rect id="Base" width="24" height="24" x="0" y="0"/><path id="Icon" fill="#151A30" d="M22.793434,19.5589453 L2.2376381,3.12339874 C2.00045187,2.92933625 1.65429748,2.96835968 1.4645485,3.21093781 L1.12080034,3.65003936 C0.930707615,3.89261748 0.969207408,4.24664091 1.20639363,4.44070341 L21.7625333,20.8766016 C21.9997195,21.0706641 22.3455301,21.0312891 22.5356229,20.7890625 L22.879371,20.3499609 C23.06912,20.1073828 23.0309639,19.7533594 22.793434,19.5589453 Z M12.0000857,5.94117213 C12.7958627,7.93910179 13.7882636,9.3900002 14.6194466,10.6050002 C14.7638208,10.8159377 14.8999451,11.0159767 15.0302257,11.2100392 L17.9259601,13.5254298 C17.3099634,10.4422267 14.4417288,8.73468771 13.0045178,3.77660186 C12.8666748,3.26507843 12.4335521,3.00000031 11.9990544,3.00000031 C11.5745255,3.00000031 11.1486215,3.2531253 10.9956536,3.77660186 C10.6367805,5.01410184 10.1850954,6.04312526 9.70247301,6.95015649 L11.012841,7.99781272 C11.3569329,7.3737893 11.6944936,6.70722681 12.0000857,5.94117213 Z M12.0000857,19.3125 C9.57391121,19.3125 7.6001093,17.2607813 7.6001093,14.7390235 C7.6001093,13.8126564 7.86582663,13.0638283 8.31373047,12.2650783 L7.005425,11.2188283 C6.3815221,12.2819533 5.95011816,13.3612501 5.95011816,14.7390235 C5.95011816,18.1998047 8.65610363,21 12.0000857,21 C13.8195447,21 15.4454734,20.1671485 16.5540612,18.8540625 L15.2419745,17.8050001 C14.4365726,18.724336 13.2877663,19.3125 12.0000857,19.3125 L12.0000857,19.3125 Z"/></g></g></g></svg>