<?xml version="1.0" encoding="UTF-8"?>
<svg width="16px" height="18px" viewBox="0 0 16 18" version="1.1" xmlns="http://www.w3.org/2000/svg" xmlns:xlink="http://www.w3.org/1999/xlink">
    <title>Icon/Format/Underline</title>
    <g id="💙-Icons" stroke="none" stroke-width="1" fill="none" fill-rule="evenodd">
        <g id="Icons-Copy" transform="translate(-684.000000, -395.000000)">
            <g id="Icon/Format/Underline" transform="translate(680.000000, 392.000000)">
                <rect id="Base" x="0" y="0" width="24" height="24"></rect>
                <path d="M5.14285717,4.68750001 L6.28571431,4.68750001 L6.28571431,12 C6.28571431,15.1014844 8.84928575,17.6250001 12,17.6250001 C15.1507143,17.6250001 17.7142858,15.1014844 17.7142858,12 L17.7142858,4.68750001 L18.8571429,4.68750001 L18.8571429,4.68750001 C19.1727343,4.68750002 19.4285715,4.43566032 19.4285715,4.12500001 L19.4285715,3.5625 L19.4285715,3.5625 C19.4285715,3.25183969 19.1727343,3 18.8571429,3 L14.2857143,3 L14.2857143,3 C13.9701228,3 13.7142857,3.25183969 13.7142857,3.5625 C13.7142857,3.5625 13.7142857,3.5625 13.7142857,3.5625 L13.7142857,4.12500001 L13.7142857,4.12500009 C13.7142858,4.4356604 13.9701232,4.68750009 14.2857143,4.68750009 L15.4285714,4.68750009 L15.4285714,12 L15.4285714,12 C15.4285714,13.8639599 13.8935464,15.3750001 12,15.3750001 C10.1064536,15.3750001 8.5714285,13.8639599 8.5714285,12 L8.5714285,4.68750009 L9.7142857,4.68750009 L9.71428567,4.68750009 C10.0298771,4.68750011 10.2857142,4.4356604 10.2857142,4.12500009 L10.2857142,3.56250009 L10.2857142,3.56250009 C10.2857142,3.25183977 10.0298771,3 9.71428567,3 L5.14285709,3 L5.14285707,3 C4.82726564,3 4.5714285,3.25183977 4.5714285,3.56250009 C4.5714285,3.56250009 4.5714285,3.56250009 4.5714285,3.56250009 L4.5714285,4.12500009 L4.5714285,4.12500018 C4.5714285,4.43566049 4.827266,4.68750018 5.14285707,4.68750018 L5.14285717,4.68750001 Z M19.4285715,19.3125 L4.5714286,19.3125 L4.57142857,19.3125 C4.25583714,19.3125 4,19.5643398 4,19.8750001 C4,19.8750001 4,19.8750001 4,19.8750001 L4,20.4375001 L4,20.4375 C4,20.7481603 4.25583714,21 4.57142857,21 C4.57142857,21 4.57142857,21 4.57142857,21 L19.4285715,21 L19.4285714,21 C19.7441629,21 20,20.7481603 20,20.4375 L20,19.875 L20,19.875 C20,19.5643397 19.7441629,19.3125 19.4285714,19.3125 L19.4285715,19.3125 Z" id="Icon" fill="#151A30"></path>
            </g>
        </g>
    </g>
</svg>