<?xml version="1.0" encoding="UTF-8"?>
<svg width="20px" height="18px" viewBox="0 0 20 18" version="1.1" xmlns="http://www.w3.org/2000/svg" xmlns:xlink="http://www.w3.org/1999/xlink">
    <title>Icon/Format/Align Left</title>
    <g id="💙-Icons" stroke="none" stroke-width="1" fill="none" fill-rule="evenodd">
        <g id="Icons-Copy" transform="translate(-778.000000, -339.000000)">
            <g id="Icon/Format/Align-Left" transform="translate(776.000000, 336.000000)">
                <rect id="Base" x="0" y="0" width="24" height="24"></rect>
                <path d="M3.0441343,15.6666663 L14.1701582,15.6666663 L14.1701582,15.6666663 C14.4704383,15.6668972 14.7140542,15.4279295 14.7142877,15.132917 C14.7142877,15.1326391 14.7142877,15.1323612 14.7142877,15.1320833 L14.7142877,14.20125 L14.7142877,14.2012456 C14.7145193,13.9062335 14.4712822,13.6668956 14.1710022,13.6666663 C14.1707193,13.6666663 14.1704364,13.6666663 14.1701536,13.6666663 L3.04412968,13.6666663 L3.04412966,13.6666663 C2.74384958,13.6664362 2.50023359,13.9054039 2.50000017,14.2004164 C2.50000017,14.2006943 2.50000017,14.2009722 2.50000017,14.2012501 L2.50000017,15.1320833 L2.50000017,15.1320877 C2.49976847,15.4270998 2.7430056,15.6664377 3.04328568,15.6666663 C3.04356852,15.6666663 3.04385136,15.6666663 3.04413421,15.6666663 L3.0441343,15.6666663 Z M3.0441343,5.00000017 L14.1701582,5.00000017 L14.1701582,5.00000017 C14.4704383,5.00023104 14.7140542,4.76126333 14.7142877,4.46625084 C14.7142877,4.46597295 14.7142877,4.46569507 14.7142877,4.46541718 L14.7142877,3.5345839 L14.7142877,3.53457947 C14.7145193,3.2395674 14.4712822,3.00022949 14.1710022,3.00000017 C14.1707193,3.00000017 14.1704365,3.00000017 14.1701536,3.00000017 L3.04412971,3.00000017 L3.04412969,3.00000017 C2.74384961,2.99977013 2.50023362,3.23873782 2.5000002,3.53375031 C2.5000002,3.53402819 2.5000002,3.53430608 2.5000002,3.53458396 L2.5000002,4.46541725 L2.5000002,4.4654216 C2.4997685,4.76043367 2.74300563,4.99977157 3.04328571,5.00000017 C3.04356855,5.00000017 3.04385139,5.00000017 3.04413424,5.00000017 L3.0441343,5.00000017 Z M20.8214288,8.33333388 L3.17857623,8.33333388 L3.1785762,8.33333388 C2.80381148,8.33333388 2.50000495,8.63181063 2.50000495,9.00000061 C2.50000495,9.00000061 2.50000495,9.00000061 2.50000495,9.00000061 L2.50000495,9.66666725 L2.50000495,9.66666715 C2.50000495,10.0348571 2.80381148,10.3333339 3.1785762,10.3333339 L20.8214288,10.3333339 L20.8214287,10.3333339 C21.1961935,10.3333339 21.500005,10.0348571 21.500005,9.66666715 L21.500005,9.00000051 L21.500005,9.00000051 C21.500005,8.63181053 21.1961935,8.33333388 20.8214287,8.33333388 L20.8214288,8.33333388 Z M20.8214288,19 L3.17857623,19 L3.1785762,19 C2.80381148,19 2.50000495,19.2984768 2.50000495,19.6666667 C2.50000495,19.6666667 2.50000495,19.6666667 2.50000495,19.6666667 L2.50000495,20.3333334 L2.50000495,20.3333333 C2.50000495,20.7015233 2.80381148,21 3.1785762,21 L20.8214288,21 L20.8214287,21 C21.1961935,21 21.500005,20.7015233 21.500005,20.3333333 L21.500005,19.6666666 L21.500005,19.6666666 C21.500005,19.2984767 21.1961935,19 20.8214287,19 L20.8214288,19 Z" id="Icon" fill="#151A30"></path>
            </g>
        </g>
    </g>
</svg>