<svg xmlns="http://www.w3.org/2000/svg" width="25" height="24" viewBox="0 0 25 24">
    <g fill="none" fill-rule="evenodd">
        <path d="M0 0H24V24H0z" transform="translate(1)"/>
        <path fill="#475B7F" d="M11.273 11.298l8.084-8.007c.387-.386 1.016-.388 1.405-.005l.005.005.942.937c.387.387.387 1.01 0 1.397L15.307 12l6.4 6.375c.39.384.391 1.007.004 1.393l-.004.004-.944.937c-.387.386-1.016.388-1.405.005l-.005-.005-8.08-8.007c-.388-.389-.388-1.015 0-1.404z" transform="translate(1)"/>
        <path fill="#8F9BB3" d="M3.291 11.298l8.084-8.007c.387-.386 1.016-.388 1.405-.005l.005.005.942.937c.39.383.391 1.007.004 1.393l-.004.004L7.323 12l6.404 6.375c.387.387.387 1.01 0 1.397l-.944.937c-.386.386-1.015.388-1.405.005l-.005-.005-8.082-8.007c-.388-.389-.388-1.015 0-1.404z" transform="translate(1)"/>
    </g>
</svg>
