<svg xmlns="http://www.w3.org/2000/svg" width="76" height="76" viewBox="0 0 76 76"><g fill="none" fill-rule="evenodd"><g><g><path d="M0 0H96V96H0z" transform="translate(-34 -34) translate(24 24)"/><path fill="#8F9BB3" d="M60.426 82v-2.08H38.264c-2.57 0-4.517-.66-5.841-1.98-1.325-1.32-1.988-3.247-1.988-5.78V34.44c0-2.56.663-4.5 1.988-5.82 1.324-1.32 3.272-1.98 5.841-1.98h37.82c2.489 0 4.416.66 5.78 1.98 1.366 1.32 2.048 3.26 2.048 5.82v25.08L86 61.84V34.32c0-3.147-.83-5.567-2.49-7.26-1.659-1.693-4.094-2.54-7.306-2.54l-8.512.001V19.8c0-3.147-.83-5.567-2.489-7.26-1.66-1.693-4.108-2.54-7.347-2.54H50.47v2.08h7.307c2.49 0 4.416.66 5.781 1.98 1.365 1.32 2.048 3.26 2.048 5.82v4.641l-27.421-.001c-3.212 0-5.661.833-7.347 2.5-1.686 1.667-2.53 4.1-2.53 7.3V65.4h-8.39c-2.57 0-4.517-.66-5.842-1.98-1.325-1.32-1.987-3.273-1.987-5.86v-7.24H10v7.36c0 3.227.83 5.667 2.49 7.32 1.659 1.653 4.108 2.48 7.346 2.48h8.47l.001 4.72c0 3.227.844 5.667 2.53 7.32 1.686 1.653 4.135 2.48 7.347 2.48h22.242zM48 12v-2H30v2h18zM12.218 28v-7.464c0-2.73.704-4.799 2.111-6.207 1.408-1.407 3.477-2.111 6.207-2.111H28V10h-7.55c-3.44 0-6.042.889-7.805 2.666S10 17.038 10 20.45V28h2.218zM12 48V30h-2v18h2zm66.508 37.94l2.18-.92c.26-.08.429-.24.506-.48.078-.24.078-.48 0-.72l-7.202-17.315 9.032.36c.416.053.708-.113.876-.5.169-.387.124-.74-.136-1.06l-20.09-22.994c-.285-.32-.636-.393-1.051-.22-.415.174-.623.474-.623.9l.623 30.312c0 .453.188.753.564.9.377.147.708.073.993-.22l5.996-6.318 7.086 17.755c.104.267.273.44.506.52.234.08.48.08.74 0z" transform="translate(-34 -34) translate(24 24)"/></g></g></g></svg>