<svg xmlns="http://www.w3.org/2000/svg" width="25" height="24" viewBox="0 0 25 24"><g fill="none" fill-rule="evenodd"><path d="M0 0H24V24H0z" transform="translate(1)"/><path fill="#151A30" d="M3.275 18.473l.786-.9c.156-.173.238-.4.228-.633v-.148c0-.328-.173-.506-.51-.506H1.22c-.199 0-.36.16-.36.357v.714c0 .197.161.357.36.357h1.026c-.175.175-.34.358-.494.55l-.252.312c-.18.227-.236.453-.126.665l.047.086c.135.257.283.352.55.352h.213c.464 0 .716.108.716.405 0 .211-.189.367-.645.367-.239-.002-.475-.049-.695-.139-.292-.173-.528-.156-.701.14l-.251.415c-.168.274-.144.523.118.712.346.209.916.421 1.662.421 1.534 0 2.178-1.016 2.178-1.97 0-.642-.41-1.328-1.29-1.557zm19.506-.402H8.406c-.397 0-.718.32-.718.715v.714c0 .394.321.714.718.714h14.375c.397 0 .719-.32.719-.714v-.714c0-.395-.322-.715-.719-.715zm0-14.285H8.406c-.397 0-.718.32-.718.714v.714c0 .395.321.715.718.715h14.375c.397 0 .719-.32.719-.715V4.5c0-.394-.322-.714-.719-.714zm0 7.143H8.406c-.397 0-.718.32-.718.714v.714c0 .395.321.714.718.714h14.375c.397 0 .719-.32.719-.714v-.714c0-.395-.322-.714-.719-.714zM1.22 7.714h2.875c.198 0 .36-.16.36-.357v-.714c0-.197-.162-.357-.36-.357h-.719V2.357c0-.197-.16-.357-.36-.357H1.939c-.136 0-.26.077-.321.197l-.36.715c-.088.176-.017.39.16.479.05.025.106.037.161.038h.36v2.857h-.72c-.198 0-.359.16-.359.357v.714c0 .197.161.357.36.357zm-.175 7.143h3.05c.198 0 .36-.16.36-.357v-.714c0-.198-.162-.357-.36-.357H2.357c.147-.46 2.17-.834 2.17-2.52 0-1.297-1.122-1.766-1.997-1.766-.96 0-1.518.446-1.817.837-.197.25-.135.484.125.686l.386.307c.252.204.494.11.724-.109.114-.11.266-.172.425-.171.15 0 .417.07.417.39.001.568-2.29.975-2.29 3.086v.179c0 .33.228.51.544.51z" transform="translate(1)"/></g></svg>