<svg xmlns="http://www.w3.org/2000/svg" width="25" height="24" viewBox="0 0 25 24">
    <g fill="none" fill-rule="evenodd">
        <path d="M0 0H24V24H0z" transform="translate(1)"/>
        <path fill="#151A30" d="M8.734 21h-3.61C2.849 21 1 19.096 1 16.75v-8.5C1 5.904 2.848 4 5.125 4h3.609c.284 0 .516.24.516.531v1.771c0 .292-.232.531-.516.531h-3.61c-.76 0-1.374.633-1.374 1.417v8.5c0 .784.614 1.417 1.375 1.417h3.609c.284 0 .516.239.516.53v1.772c0 .292-.232.531-.516.531zM13.8 7.582l3.334 3.147H8.906c-.572 0-1.031.474-1.031 1.063v1.416c0 .59.46 1.063 1.03 1.063h8.229L13.8 17.418c-.434.408-.447 1.107-.035 1.537l.941.97c.4.41 1.053.415 1.457.004l6.53-6.676c.409-.417.409-1.094 0-1.51l-6.526-6.667c-.404-.412-1.052-.412-1.456.004l-.941.97c-.417.425-.4 1.124.03 1.532z" transform="translate(1)"/>
    </g>
</svg>
