<?xml version="1.0" encoding="UTF-8"?>
<svg width="24px" height="24px" viewBox="0 0 24 24" version="1.1" xmlns="http://www.w3.org/2000/svg" xmlns:xlink="http://www.w3.org/1999/xlink">
    <title>Icon/Matrix Checkbox</title>
    <g id="💙-Icons" stroke="none" stroke-width="1" fill="none" fill-rule="evenodd">
        <g id="Icons-Copy" transform="translate(-824.000000, -448.000000)">
            <g id="Icon/Matrix-Checkbox" transform="translate(824.000000, 448.000000)">
                <polygon id="Base" points="0 0 24 0 24 24 0 24"></polygon>
                <path d="M20.9375,2.5 C22.0761719,2.5 23,3.41183036 23,4.53571429 L23,4.53571429 L23,19.4642857 C23,20.5881696 22.0761719,21.5 20.9375,21.5 L20.9375,21.5 L3.0625,21.5 C1.92382812,21.5 1,20.5881696 1,19.4642857 L1,19.4642857 L1,4.53571429 C1,3.41183036 1.92382812,2.5 3.0625,2.5 L3.0625,2.5 Z M6,15.732 L2.71875,15.7321429 L2.71875,19.2946429 C2.71875,19.5745536 2.95078125,19.8035714 3.234375,19.8035714 L3.234375,19.8035714 L7.75898438,19.8035714 L7.758,18 L7.28571429,18 C6.575625,18 6,17.424375 6,16.7142857 L6,15.732 Z M14.517,18 L9.477,18 L9.47773438,19.8035714 L14.5179688,19.8035714 L14.517,18 Z M21.28125,15.7321429 L18,15.732 L18,16.7142857 C18,17.424375 17.424375,18 16.7142857,18 L16.241,18 L16.2410156,19.8035714 L21.28125,19.8035714 L21.28125,15.7321429 Z M14.9480089,9.2326875 L10.9285714,13.2520982 L9.05199107,11.3755179 C8.88463393,11.2081607 8.61326786,11.2081607 8.44588393,11.3755179 L7.83980357,11.9815982 C7.67244643,12.1489554 7.67244643,12.4203214 7.83980357,12.5876786 L10.6255179,15.3733929 C10.7929018,15.5408036 11.0642411,15.5408036 11.231625,15.3734196 L16.1601964,10.4448482 C16.3275536,10.2774911 16.3275536,10.006125 16.1601964,9.83876786 L15.5541161,9.2326875 C15.3867589,9.06533036 15.1153929,9.06530357 14.9480089,9.2326875 Z M6,9.964 L2.71875,9.96428571 L2.71875,14.0357143 L6,14.035 L6,9.964 Z M21.28125,9.96428571 L18,9.964 L18,14.035 L21.28125,14.0357143 L21.28125,9.96428571 Z M7.75898438,4.19642857 L3.234375,4.19642857 C2.95078125,4.19642857 2.71875,4.42544643 2.71875,4.70535714 L2.71875,4.70535714 L2.71875,8.26785714 L6,8.267 L6,7.28571429 C6,6.575625 6.575625,6 7.28571429,6 L7.758,6 L7.75898438,4.19642857 Z M21.28125,4.19642857 L16.2410156,4.19642857 L16.241,6 L16.7142857,6 C17.424375,6 18,6.575625 18,7.28571429 L18,8.267 L21.28125,8.26785714 L21.28125,4.19642857 Z M14.5179688,4.19642857 L9.47773438,4.19642857 L9.477,6 L14.517,6 L14.5179688,4.19642857 Z" id="Icon" fill="#151A30"></path>
            </g>
        </g>
    </g>
</svg>