<svg xmlns="http://www.w3.org/2000/svg" xmlns:xlink="http://www.w3.org/1999/xlink" width="24" height="24" version="1.1" viewBox="0 0 24 24"><title>Icon/Matrix Radio</title><g id="💙-Icons" fill="none" fill-rule="evenodd" stroke="none" stroke-width="1"><g id="Icons-Copy" transform="translate(-872.000000, -448.000000)"><g id="Icon/Matrix-Radio" transform="translate(872.000000, 448.000000)"><polygon id="Base" points="0 0 24 0 24 24 0 24"/><path id="Icon" fill="#151A30" d="M20.9375,2.5 C22.0761719,2.5 23,3.41183036 23,4.53571429 L23,4.53571429 L23,19.4642857 C23,20.5881696 22.0761719,21.5 20.9375,21.5 L20.9375,21.5 L3.0625,21.5 C1.92382812,21.5 1,20.5881696 1,19.4642857 L1,19.4642857 L1,4.53571429 C1,3.41183036 1.92382812,2.5 3.0625,2.5 L3.0625,2.5 Z M6.07709098,15.7325519 L2.71875,15.7321429 L2.71875,19.2946429 C2.71875,19.5745536 2.95078125,19.8035714 3.234375,19.8035714 L3.234375,19.8035714 L7.75898438,19.8035714 L7.75808147,17.5687872 C7.09450524,17.062548 6.5241048,16.4403993 6.07709098,15.7325519 Z M9.47728755,18.5316417 L9.47773438,19.8035714 L14.5179688,19.8035714 L14.5176729,18.5335872 C13.7363965,18.834843 12.8874861,19 12,19 C11.1106053,19 10.2599525,18.8341319 9.47728755,18.5316417 Z M21.28125,15.7321429 L17.922909,15.7325519 C17.4758952,16.4403993 16.9054948,17.062548 16.2419185,17.5687872 L16.2410156,19.8035714 L21.28125,19.8035714 L21.28125,15.7321429 Z M5.30066649,9.9641001 L2.71875,9.96428571 L2.71875,14.0357143 L5.30066649,14.0358999 C5.10514219,13.3916647 5,12.7081114 5,12 C5,11.2918886 5.10514219,10.6083353 5.30066649,9.9641001 Z M21.28125,9.96428571 L18.6993335,9.9641001 C18.8948578,10.6083353 19,11.2918886 19,12 C19,12.7081114 18.8948578,13.3916647 18.6993335,14.0358999 L21.28125,14.0357143 L21.28125,9.96428571 Z M7.75898438,4.19642857 L3.234375,4.19642857 C2.95078125,4.19642857 2.71875,4.42544643 2.71875,4.70535714 L2.71875,4.70535714 L2.71875,8.26785714 L6.07709098,8.26744806 C6.5241048,7.55960069 7.09450524,6.93745199 7.75808147,6.43121279 L7.75898438,4.19642857 Z M21.28125,4.19642857 L16.2410156,4.19642857 L16.2419185,6.43121279 C16.9054948,6.93745199 17.4758952,7.55960069 17.922909,8.26744806 L21.28125,8.26785714 L21.28125,4.19642857 Z M14.5179688,4.19642857 L9.47773438,4.19642857 L9.47728755,5.46835825 C10.2599525,5.16586811 11.1106053,5 12,5 C12.8874861,5 13.7363965,5.16515699 14.5176729,5.46641278 L14.5179688,4.19642857 Z M12,17 C14.7614237,17 17,14.7614237 17,12 C17,9.23857625 14.7614237,7 12,7 C9.23857625,7 7,9.23857625 7,12 C7,14.7614237 9.23857625,17 12,17 Z M12,15.5 C13.9329966,15.5 15.5,13.9329966 15.5,12 C15.5,10.0670034 13.9329966,8.5 12,8.5 C10.0670034,8.5 8.5,10.0670034 8.5,12 C8.5,13.9329966 10.0670034,15.5 12,15.5 Z"/></g></g></g></svg>