<svg xmlns="http://www.w3.org/2000/svg" xmlns:xlink="http://www.w3.org/1999/xlink" width="24" height="24" version="1.1" viewBox="0 0 24 24"><title>Icon/Matrix Caret</title><g id="💙-Icons" fill="none" fill-rule="evenodd" stroke="none" stroke-width="1"><g id="Icons-Copy" transform="translate(-920.000000, -448.000000)"><g id="Icon/Matrix-Caret" transform="translate(920.000000, 448.000000)"><polygon id="Base" points="0 0 24 0 24 24 0 24"/><path id="Icon" fill="#151A30" d="M20.9375,2.5 C22.0761719,2.5 23,3.41183036 23,4.53571429 L23,4.53571429 L23,19.4642857 C23,20.5881696 22.0761719,21.5 20.9375,21.5 L20.9375,21.5 L3.0625,21.5 C1.92382812,21.5 1,20.5881696 1,19.4642857 L1,19.4642857 L1,4.53571429 C1,3.41183036 1.92382812,2.5 3.0625,2.5 L3.0625,2.5 Z M7.30167857,15.7327574 L2.71875,15.7321429 L2.71875,19.2946429 C2.71875,19.5745536 2.95078125,19.8035714 3.234375,19.8035714 L3.234375,19.8035714 L7.75898438,19.8035714 L7.75804355,16.2439304 C7.59646936,16.0824309 7.44406546,15.9117577 7.30167857,15.7327574 Z M9.47713814,17.445699 L9.47773438,19.8035714 L14.5179688,19.8035714 L14.5179045,17.447996 C13.7522923,17.8023072 12.8992994,18 12,18 C11.0987591,18 10.2440249,17.8014527 9.47713814,17.445699 Z M21.28125,15.7321429 L16.6983214,15.7327574 C16.5559345,15.9117577 16.4035306,16.0824309 16.2419564,16.2439304 L16.2410156,19.8035714 L21.28125,19.8035714 L21.28125,15.7321429 Z M14.9758065,10.8387097 L9.02419355,10.8387097 C8.76532258,10.8387097 8.63467742,11.1508065 8.81854839,11.3346774 L11.7943548,14.3104839 C11.9080645,14.4241935 12.0919355,14.4241935 12.2056452,14.3104839 L15.1814516,11.3346774 C15.3653226,11.1508065 15.2346774,10.8387097 14.9758065,10.8387097 Z M6.35396576,9.96426537 L2.71875,9.96428571 L2.71875,14.0357143 L6.35396576,14.0357346 C6.1248609,13.4001478 6,12.7146972 6,12 C6,11.2853028 6.1248609,10.5998522 6.35396576,9.96426537 Z M21.28125,9.96428571 L17.6460342,9.96426537 C17.8751391,10.5998522 18,11.2853028 18,12 C18,12.7146972 17.8751391,13.4001478 17.6460342,14.0357346 L21.28125,14.0357143 L21.28125,9.96428571 Z M7.75898438,4.19642857 L3.234375,4.19642857 C2.95078125,4.19642857 2.71875,4.42544643 2.71875,4.70535714 L2.71875,4.70535714 L2.71875,8.26785714 L7.30167857,8.26724255 C7.44406546,8.08824228 7.59646936,7.91756906 7.75804355,7.75606958 L7.75898438,4.19642857 Z M21.28125,4.19642857 L16.2410156,4.19642857 L16.2419564,7.75606958 C16.4035306,7.91756906 16.5559345,8.08824228 16.6983214,8.26724255 L21.28125,8.26785714 L21.28125,4.19642857 Z M14.5179688,4.19642857 L9.47773438,4.19642857 L9.47713814,6.55430097 C10.2440249,6.19854731 11.0987591,6 12,6 C12.8992994,6 13.7522923,6.1976928 14.5179045,6.55200402 L14.5179688,4.19642857 Z"/></g></g></g></svg>