<svg xmlns="http://www.w3.org/2000/svg" width="24" height="24" viewBox="0 0 24 24">
    <g fill="none" fill-rule="evenodd">
        <path d="M0 0H24V24H0z"/>
        <path fill="currentColor" d="M22.5 18.5c.828 0 1.5.672 1.5 1.5s-.672 1.5-1.5 1.5h-21C.672 21.5 0 20.828 0 20s.672-1.5 1.5-1.5h21zm0-8c.828 0 1.5.672 1.5 1.5s-.672 1.5-1.5 1.5h-21C.672 13.5 0 12.828 0 12s.672-1.5 1.5-1.5h21zm0-8c.828 0 1.5.672 1.5 1.5s-.672 1.5-1.5 1.5h-21C.672 5.5 0 4.828 0 4s.672-1.5 1.5-1.5h21z"/>
    </g>
</svg>
