<svg xmlns="http://www.w3.org/2000/svg" xmlns:xlink="http://www.w3.org/1999/xlink" width="22" height="19" version="1.1" viewBox="0 0 22 19"><title>Icon/Comment/Linear</title><g id="💙-Icons" fill="none" fill-rule="evenodd" stroke="none" stroke-width="1"><g id="Icons-Copy" transform="translate(-873.000000, -283.000000)"><g id="Icon/Comment/Linear" transform="translate(872.000000, 280.000000)"><rect id="Base" width="24" height="24" x="0" y="0"/><path id="Icon" fill="#151A30" d="M12.0014257,3 C5.92643192,3 1.00285139,6.9484375 1.00285139,11.8214286 C1.00285139,13.8401786 1.85781869,15.6892857 3.27560366,17.1779018 C2.63545226,18.8488839 1.30359366,20.2654018 1.28211207,20.2823661 C0.998555072,20.5792411 0.921221346,21.0118304 1.08448143,21.3850446 C1.24774152,21.7582589 1.62152119,22 2.03396773,22 C4.67620336,22 6.75991763,20.9100446 8.01014619,20.0363839 C9.25178212,20.4223214 10.5922334,20.6428571 12.0014257,20.6428571 C18.0764195,20.6428571 23,16.6944196 23,11.8214286 C23,6.9484375 18.0764195,3 12.0014257,3 Z M12.0014257,18.6071429 C10.8543088,18.6071429 9.72008079,18.4332589 8.63311231,18.0939732 L7.65784811,17.7886161 L6.82006608,18.3738839 C6.20569259,18.8022321 5.36361425,19.2814732 4.34968318,19.6037946 C4.6633144,19.090625 4.96835299,18.5138393 5.20465048,17.8988839 L5.6600602,16.7071429 L4.77501867,15.7825893 C3.9973851,14.9640625 3.06508407,13.6111607 3.06508407,11.8214286 C3.06508407,8.08080357 7.07354885,5.03571429 12.0014257,5.03571429 C16.9293025,5.03571429 20.9377673,8.08080357 20.9377673,11.8214286 C20.9377673,15.5620536 16.9293025,18.6071429 12.0014257,18.6071429 Z"/></g></g></g></svg>