<svg xmlns="http://www.w3.org/2000/svg" width="25" height="24" viewBox="0 0 25 24">
    <g fill="none" fill-rule="evenodd">
        <path d="M0 0H24V24H0z" transform="translate(1)"/>
        <path fill="#151A30" d="M3.063 16.846l.147.005c1.07.076 1.915.975 1.915 2.072l-.005.148C5.044 20.15 4.152 21 3.062 21 1.923 21 1 20.07 1 18.923c0-1.147.923-2.077 2.063-2.077zm19.25.692c.38 0 .687.31.687.693v1.384c0 .383-.308.693-.688.693H8.563c-.38 0-.687-.31-.687-.693v-1.384l.006-.094c.046-.338.333-.599.682-.599zM3.063 9.923l.147.005c1.07.076 1.915.975 1.915 2.072l-.005.148c-.076 1.078-.968 1.929-2.058 1.929C1.923 14.077 1 13.147 1 12c0-1.147.923-2.077 2.063-2.077zm19.25.692c.38 0 .687.31.687.693v1.384c0 .383-.308.693-.688.693H8.563c-.38 0-.687-.31-.687-.693v-1.384l.006-.094c.046-.338.333-.599.682-.599zM3.063 3l.147.005c1.07.076 1.915.975 1.915 2.072l-.005.148c-.076 1.078-.968 1.929-2.058 1.929C1.923 7.154 1 6.224 1 5.077 1 3.93 1.923 3 3.063 3zm19.25.692c.38 0 .687.31.687.693v1.384c0 .383-.308.693-.688.693H8.563c-.38 0-.687-.31-.687-.693V4.385l.006-.094c.046-.338.333-.599.682-.599z" transform="translate(1)"/>
    </g>
</svg>
