<?xml version="1.0" encoding="UTF-8"?>
<svg width="18px" height="20px" viewBox="0 0 18 20" version="1.1" xmlns="http://www.w3.org/2000/svg" xmlns:xlink="http://www.w3.org/1999/xlink">
    <title>Icon/Paperclip</title>
    <g id="💙-Icons" stroke="none" stroke-width="1" fill="none" fill-rule="evenodd">
        <g id="Icons-Copy" transform="translate(-683.000000, -282.000000)">
            <g id="Icon/Paperclip" transform="translate(680.000000, 280.000000)">
                <rect id="Base" x="0" y="0" width="24" height="24"></rect>
                <path d="M4.68780595,20.2994734 C2.43761138,18.0333417 2.43718466,14.3651013 4.68780595,12.098579 L13.4166833,3.30795834 C15.1485243,1.56401389 17.9663009,1.56401389 19.6980643,3.30795834 C21.4337846,5.0559653 21.4341725,7.88553422 19.6980643,9.63389274 L12.348127,17.0358422 C11.1296353,18.2629119 9.14699681,18.2628729 7.92858269,17.0358813 C6.70741426,15.8061163 6.70698753,13.8150626 7.92858269,12.584946 L14.1534033,6.3160428 C14.3352267,6.13295695 14.6300155,6.13295695 14.8118001,6.3160428 L15.4700028,6.97897216 C15.6517486,7.16201895 15.6517486,7.45877662 15.4700028,7.6418234 L9.24502701,13.9108047 C8.75142343,14.4078357 8.75119067,15.2126791 9.24502701,15.7099444 C9.73754438,16.2059208 10.5390101,16.2059989 11.0316051,15.7099054 L18.3815424,8.30799495 C19.389659,7.29280014 19.3899306,5.6494025 18.3815812,4.63393425 C17.375637,3.62088788 15.7390331,3.620966 14.7331276,4.63393425 L6.00428907,13.4245159 C4.48169814,14.9577964 4.481349,17.4399436 6.00425027,18.9736147 C7.52823775,20.5083796 9.99547979,20.5082624 11.5191569,18.972521 C14.0517689,16.4198698 16.5848558,13.8676965 19.1184176,11.3160013 C19.3002021,11.1329154 19.5948746,11.1330326 19.7766979,11.3161575 L20.4349007,11.9790869 C20.6166464,12.1621337 20.6168016,12.4587351 20.4350559,12.6417819 C17.9016466,15.1933442 15.3687019,17.7453743 12.8362219,20.2978719 C10.5849024,22.5670895 6.93951346,22.5671286 4.68780595,20.2994734 L4.68780595,20.2994734 Z" id="Icon" fill="#151A30"></path>
            </g>
        </g>
    </g>
</svg>