<svg xmlns="http://www.w3.org/2000/svg" xmlns:xlink="http://www.w3.org/1999/xlink" width="22" height="22" version="1.1" viewBox="0 0 22 22"><title>Icon/Phone/Linear</title><g id="💙-Icons" fill="none" fill-rule="evenodd" stroke="none" stroke-width="1"><g id="Icons-Copy" transform="translate(-1017.000000, -449.000000)"><g id="Icon/Phone/Linear" transform="translate(1016.000000, 448.000000)"><rect id="Base" width="24" height="24" x="0" y="0"/><path id="Icon" fill="#192038" d="M21.4747606,1.98354048 L17.4275056,1.05090852 C16.4994726,0.836016359 15.5542538,1.31737479 15.1804628,2.1941348 L13.3115074,6.5564456 C12.9677915,7.35584443 13.1997997,8.30136992 13.8743422,8.85149384 L15.5929219,10.2568886 C14.3641374,12.5089584 12.5080715,14.3656266 10.2567322,15.5905119 L8.85179332,13.8713746 C8.30184784,13.1966133 7.35662906,12.9645297 6.55748954,13.3083572 L2.19229731,15.177919 C1.31582171,15.5518313 0.838915868,16.4973568 1.04944187,17.4256909 L1.98177131,21.4742592 C2.18800087,22.3725084 2.97854749,23 3.89798758,23 C14.4199913,23.0042914 23,14.4816684 23,3.90037853 C23,2.98064009 22.3727184,2.18983695 21.4747606,1.98354048 L21.4747606,1.98354048 Z M3.97962011,20.9413266 L3.08166227,17.0431829 L7.30077522,15.2337909 L9.69389733,18.1606221 C13.938789,16.1664229 16.1643496,13.9487358 18.1579019,9.6938711 L15.2320201,7.29997246 L17.0408252,3.07949049 L20.9377045,3.97773971 C20.89474,13.3298464 13.3286932,20.8983482 3.97962011,20.9413266 Z"/></g></g></g></svg>