<svg xmlns="http://www.w3.org/2000/svg" width="25" height="24" viewBox="0 0 25 24"><g fill="none" fill-rule="evenodd"><path d="M0 0H24V24H0z" transform="translate(1)"/><g><path fill="#8F9BB3" d="M0 7.143V18.57C0 19.361.64 20 1.429 20H18.57c.79 0 1.429-.64 1.429-1.429V7.143H0zm10.714 9.995v.72c0 .196-.16.356-.357.356h-.714c-.197 0-.357-.16-.357-.357v-.728c-.507-.026-.995-.201-1.402-.504-.156-.121-.183-.346-.062-.501.01-.014.022-.027.035-.04l.527-.5c.125-.113.312-.126.45-.03.172.107.37.164.572.165h1.255c.29 0 .527-.264.527-.59 0-.267-.161-.5-.393-.567l-2.01-.602c-.83-.25-1.41-1.045-1.41-1.938 0-1.093.848-1.982 1.906-2.013v-.723c0-.198.16-.357.357-.357h.715c.197 0 .357.16.357.357v.727c.507.027.994.202 1.402.505.155.121.183.346.062.501-.011.014-.023.027-.036.039l-.522.505c-.125.114-.312.127-.45.03-.172-.106-.37-.163-.572-.164H9.339c-.29 0-.526.263-.526.589 0 .268.16.5.392.567l2.01.603c.83.25 1.41 1.044 1.41 1.937-.004 1.094-.857 1.987-1.91 2.013z" transform="translate(1) translate(2 2)"/><path fill="#475B7F" d="M9.286 0H3.888c-.615 0-1.162.393-1.357.978L.018 5.66c.018.022.022.031.04.053h9.228V0zm8.183.978c-.195-.585-.742-.979-1.357-.978h-5.398v5.714h9.228c.018-.022.022-.031.04-.053L17.47.978z" transform="translate(1) translate(2 2)"/></g></g></svg>