<?xml version="1.0" encoding="UTF-8"?>
<svg width="22px" height="18px" viewBox="0 0 22 18" version="1.1" xmlns="http://www.w3.org/2000/svg" xmlns:xlink="http://www.w3.org/1999/xlink">
    <title>Icon/Project Diagram</title>
    <g id="💙-Icons" stroke="none" stroke-width="1" fill="none" fill-rule="evenodd">
        <g id="Icons-Copy" transform="translate(-873.000000, -395.000000)">
            <g id="Icon/Project-Diagram" transform="translate(872.000000, 392.000000)">
                <rect id="Base" x="0" y="0" width="24" height="24"></rect>
                <path d="M21.9,3 L17.5,3 C16.8925937,3 16.4,3.50378906 16.4,4.125 L16.4,5.25 L7.6,5.25 L7.6,4.125 C7.6,3.50378906 7.10740625,3 6.5,3 L2.1,3 C1.49259375,3 1,3.50378906 1,4.125 L1,8.625 C1,9.24621094 1.49259375,9.75 2.1,9.75 L5.390375,9.75 L8.7,15.6604687 L8.7,19.875 C8.7,20.4962109 9.19259375,21 9.8,21 L14.2,21 C14.8074062,21 15.3,20.4962109 15.3,19.875 L15.3,15.375 C15.3,14.7537891 14.8074062,14.25 14.2,14.25 L10.444875,14.25 L7.6,9.16992188 L7.6,7.5 L16.4,7.5 L16.4,8.625 C16.4,9.24621094 16.8925937,9.75 17.5,9.75 L21.9,9.75 C22.5074062,9.75 23,9.24621094 23,8.625 L23,4.125 C23,3.50378906 22.5074062,3 21.9,3 Z M5.95,8.0625 L2.65,8.0625 L2.65,4.6875 L5.95,4.6875 L5.95,8.0625 Z M10.35,15.9375 L13.65,15.9375 L13.65,19.3125 L10.35,19.3125 L10.35,15.9375 Z M21.35,8.0625 L18.05,8.0625 L18.05,4.6875 L21.35,4.6875 L21.35,8.0625 Z" id="Icon" fill="#151A30"></path>
            </g>
        </g>
    </g>
</svg>