<svg xmlns="http://www.w3.org/2000/svg" xmlns:xlink="http://www.w3.org/1999/xlink" width="22" height="16" version="1.1" viewBox="0 0 22 16"><title>Icon/Pulse/Linear</title><g id="💙-Icons" fill="none" fill-rule="evenodd" stroke="none" stroke-width="1"><g id="Icons-Copy" transform="translate(-825.000000, -284.000000)"><g id="Icon/Pulse/Linear" transform="translate(824.000000, 280.000000)"><rect id="Base" width="24" height="24" x="0" y="0"/><path id="Icon" fill="#151A30" d="M11.026722,4.7703699 C11.2512345,3.81878258 12.5428771,3.73702915 12.9132029,4.59040032 L12.956118,4.70701813 L15.532,13.114 L16.6094221,11.0067076 C16.7613152,10.7092946 17.0499937,10.5098649 17.3761349,10.469219 L17.5,10.4615385 L22,10.4615385 C22.5522847,10.4615385 23,10.9092537 23,11.4615385 C23,11.9743743 22.6139598,12.3970456 22.1166211,12.4548107 L22,12.4615385 L18.112,12.461 L16.1905779,16.2240616 C15.8004542,16.98794 14.7123598,16.9288527 14.3852741,16.174668 L14.343882,16.0622126 L12.125,8.823 L9.67019141,19.2296301 C9.44407311,20.1880234 8.1397934,20.26155 7.77846747,19.3977744 L7.73685168,19.2797882 L5.749,12.461 L2,12.4615385 C1.48716416,12.4615385 1.06449284,12.0754983 1.00672773,11.5781596 L1,11.4615385 C1,10.9487026 1.38604019,10.5260313 1.88337887,10.4682662 L2,10.4615385 L6.5,10.4615385 C6.90411469,10.4615385 7.26412712,10.7040502 7.41968753,11.0687838 L7.46006175,11.1817503 L8.595,15.076 L11.026722,4.7703699 Z"/></g></g></g></svg>