<svg xmlns="http://www.w3.org/2000/svg" width="24" height="24" viewBox="0 0 24 24">
    <g fill="none" fill-rule="evenodd">
        <path d="M0 0H24V24H0z"/>
        <path fill="#8F9BB3" d="M21.375 20.588h-.625v-1.764c0-.585-.42-1.06-.938-1.06H18.25V10H17v7.765H7V10H5.75v7.765H4.187c-.517 0-.937.474-.937 1.059v1.764h-.625c-.345 0-.625.316-.625.706v.353c0 .195.14.353.313.353h19.375c.172 0 .312-.158.312-.353v-.353c0-.39-.28-.706-.625-.706z"/>
        <path fill="#8F9BB3" d="M5 19L20 19 20 20 5 20zM21.698 6.55l-9.105-4.442c-.385-.144-.801-.144-1.186 0L2.302 6.55C2.12 6.627 2 6.823 2 7.04v.385c0 .29.21.525.469.525h.781v.525c0 .29.21.525.469.525H20.28c.26 0 .469-.235.469-.525V7.95h.781c.26 0 .469-.235.469-.525v-.384c0-.218-.12-.414-.302-.491z"/>
        <path fill="#8F9BB3" d="M20 8H5v-.567l7.342-3.411c.103-.03.213-.03.316 0L20 7.433V8z"/>
        <path fill="#F90" d="M11.85 15.1c-.301 0-.566.158-.717.395l-.013.021c-.076.126-.12.275-.12.434 0 .435.329.795.751.844l.099.006.099-.006c.422-.049.751-.409.751-.844 0-.469-.381-.85-.85-.85zM11.89 10c-1.098 0-1.799.475-2.349 1.319-.06.09-.053.208.01.291l.045.045.635.44.056.033c.02.008.04.013.06.016h.061l.06-.016c.037-.015.072-.04.1-.076.36-.469.657-.794 1.206-.794.542 0 1.073.307 1.073.794 0 .275-.333.599-.662.794l-.326.19c-.4.238-.713.425-.777 1.051l-.008.163v.083l.009.066c.022.084.087.15.169.174l.064.008.966.019.064-.009c.082-.023.147-.09.169-.173l.009-.066v-.028l.009-.074c.133-.52 1.707-.617 1.707-2.14 0-1.2-1.213-2.11-2.35-2.11z"/>
    </g>
</svg>
