<svg xmlns="http://www.w3.org/2000/svg" width="25" height="24" viewBox="0 0 25 24">
    <g fill="none" fill-rule="evenodd">
        <path d="M0 0L24 0 24 24 0 24z" transform="translate(1)"/>
        <path fill="#151A30" d="M18.4 10.6C16.55 8.99 14.15 8 11.5 8c-4.65 0-8.58 3.03-9.96 7.22L3.9 16c1.05-3.19 4.05-5.5 7.6-5.5 1.95 0 3.73.72 5.12 1.88l-1.913 1.913c-.39.39-.39 1.024 0 1.414.188.188.442.293.707.293H22V9.414c0-.552-.448-1-1-1-.265 0-.52.106-.707.293L18.4 10.6z" transform="translate(1)"/>
    </g>
</svg>
