<svg xmlns="http://www.w3.org/2000/svg" width="25" height="24" viewBox="0 0 25 24"><g fill="none" fill-rule="evenodd"><path d="M0 0H24V24H0z" transform="translate(1)"/><path fill="#8F9BB3" d="M21.75 1.5H2.25C1.007 1.5 0 2.507 0 3.75v16.5c0 1.243 1.007 2.25 2.25 2.25h19.5c1.243 0 2.25-1.007 2.25-2.25V3.75c0-1.243-1.007-2.25-2.25-2.25zM6 18.375c-1.036 0-1.875-.84-1.875-1.875 0-1.036.84-1.875 1.875-1.875 1.036 0 1.875.84 1.875 1.875 0 1.036-.84 1.875-1.875 1.875zm0-4.5c-1.036 0-1.875-.84-1.875-1.875 0-1.036.84-1.875 1.875-1.875 1.036 0 1.875.84 1.875 1.875 0 1.036-.84 1.875-1.875 1.875zm0-4.5c-1.036 0-1.875-.84-1.875-1.875 0-1.036.84-1.875 1.875-1.875 1.036 0 1.875.84 1.875 1.875 0 1.036-.84 1.875-1.875 1.875zm13.5 7.875c0 .31-.252.563-.562.563H9.563c-.311 0-.563-.252-.563-.563v-1.5c0-.31.252-.562.563-.562h9.375c.31 0 .562.251.562.562v1.5zm0-4.5c0 .31-.252.563-.562.563H9.563c-.311 0-.563-.252-.563-.563v-1.5c0-.31.252-.562.563-.562h9.375c.31 0 .562.251.562.562v1.5zm0-4.5c0 .31-.252.563-.562.563H9.563C9.252 8.813 9 8.56 9 8.25v-1.5c0-.31.252-.562.563-.562h9.375c.31 0 .562.251.562.562v1.5z" transform="translate(1)"/><path fill="#F90" d="M6 9.375c1.036 0 1.875-.84 1.875-1.875 0-1.036-.84-1.875-1.875-1.875-1.036 0-1.875.84-1.875 1.875 0 1.036.84 1.875 1.875 1.875zm0 .75c-1.036 0-1.875.84-1.875 1.875 0 1.036.84 1.875 1.875 1.875 1.036 0 1.875-.84 1.875-1.875 0-1.036-.84-1.875-1.875-1.875zm0 4.5c-1.036 0-1.875.84-1.875 1.875 0 1.036.84 1.875 1.875 1.875 1.036 0 1.875-.84 1.875-1.875 0-1.036-.84-1.875-1.875-1.875z" transform="translate(1)"/></g></svg>