<?xml version="1.0" encoding="UTF-8"?>
<svg width="22px" height="22px" viewBox="0 0 22 22" version="1.1" xmlns="http://www.w3.org/2000/svg" xmlns:xlink="http://www.w3.org/1999/xlink">
    <title>Icon/Search Plus</title>
    <g id="💙-Icons" stroke="none" stroke-width="1" fill="none" fill-rule="evenodd">
        <g id="Icons-Copy" transform="translate(-969.000000, -393.000000)">
            <g id="Icon/Search-Plus" transform="translate(968.000000, 392.000000)">
                <rect id="Base" x="0" y="0" width="24" height="24"></rect>
                <path d="M14.4055954,9.4214638 L14.4055954,10.4526634 C14.4055954,10.7362433 14.1735755,10.9682633 13.8899956,10.9682633 L10.9682633,10.9682633 L10.9682633,13.8899956 C10.9682633,14.1735755 10.7362433,14.4055954 10.4526634,14.4055954 L9.4214638,14.4055954 C9.13788389,14.4055954 8.90586397,14.1735755 8.90586397,13.8899956 L8.90586397,10.9682633 L5.98413163,10.9682633 C5.70055173,10.9682633 5.46853181,10.7362433 5.46853181,10.4526634 L5.46853181,9.4214638 C5.46853181,9.13788389 5.70055173,8.90586397 5.98413163,8.90586397 L8.90586397,8.90586397 L8.90586397,5.98413163 C8.90586397,5.70055173 9.13788389,5.46853181 9.4214638,5.46853181 L10.4526634,5.46853181 C10.7362433,5.46853181 10.9682633,5.70055173 10.9682633,5.98413163 L10.9682633,8.90586397 L13.8899956,8.90586397 C14.1735755,8.90586397 14.4055954,9.13788389 14.4055954,9.4214638 Z M22.8485426,21.8774962 L21.8774962,22.8485426 C21.675553,23.0504858 21.3490064,23.0504858 21.1470631,22.8485426 L15.9309116,17.632391 C15.8320883,17.5335677 15.7805283,17.4046677 15.7805283,17.2671745 L15.7805283,16.7000146 C14.2122455,18.0534642 12.1713295,18.8741272 9.93706362,18.8741272 C5.0001953,18.8741272 1,14.8739319 1,9.93706362 C1,5.0001953 5.0001953,1 9.93706362,1 C14.8739319,1 18.8741272,5.0001953 18.8741272,9.93706362 C18.8741272,12.1713295 18.0534642,14.2122455 16.7000146,15.7805283 L17.2671745,15.7805283 C17.4046677,15.7805283 17.5335677,15.8363849 17.632391,15.9309116 L22.8485426,21.1470631 C23.0504858,21.3490064 23.0504858,21.675553 22.8485426,21.8774962 L22.8485426,21.8774962 Z M16.8117279,9.93706362 C16.8117279,6.13881158 13.7353157,3.0623993 9.93706362,3.0623993 C6.13881158,3.0623993 3.0623993,6.13881158 3.0623993,9.93706362 C3.0623993,13.7353157 6.13881158,16.8117279 9.93706362,16.8117279 C13.7353157,16.8117279 16.8117279,13.7353157 16.8117279,9.93706362 Z" id="Icon" fill="#151A30"></path>
            </g>
        </g>
    </g>
</svg>