<svg xmlns="http://www.w3.org/2000/svg" xmlns:xlink="http://www.w3.org/1999/xlink" width="22" height="22" version="1.1" viewBox="0 0 22 22"><title>Icon/Smile/Linear</title><g id="💙-Icons" fill="none" fill-rule="evenodd" stroke="none" stroke-width="1"><g id="Icons-Copy" transform="translate(-969.000000, -281.000000)"><g id="Icon/Smile/Linear" transform="translate(968.000000, 280.000000)"><rect id="Base" width="24" height="24" x="0" y="0"/><path id="Icon" fill="#151A30" d="M12,1 C5.9233871,1 1,5.9233871 1,12 C1,18.0766129 5.9233871,23 12,23 C18.0766129,23 23,18.0766129 23,12 C23,5.9233871 18.0766129,1 12,1 Z M12,20.8709677 C7.10766129,20.8709677 3.12903226,16.8923387 3.12903226,12 C3.12903226,7.10766129 7.10766129,3.12903226 12,3.12903226 C16.8923387,3.12903226 20.8709677,7.10766129 20.8709677,12 C20.8709677,16.8923387 16.8923387,20.8709677 12,20.8709677 Z M8.4516129,11.2903226 C9.23669355,11.2903226 9.87096774,10.6560484 9.87096774,9.87096774 C9.87096774,9.0858871 9.23669355,8.4516129 8.4516129,8.4516129 C7.66653226,8.4516129 7.03225806,9.0858871 7.03225806,9.87096774 C7.03225806,10.6560484 7.66653226,11.2903226 8.4516129,11.2903226 Z M15.5483871,11.2903226 C16.3334677,11.2903226 16.9677419,10.6560484 16.9677419,9.87096774 C16.9677419,9.0858871 16.3334677,8.4516129 15.5483871,8.4516129 C14.7633065,8.4516129 14.1290323,9.0858871 14.1290323,9.87096774 C14.1290323,10.6560484 14.7633065,11.2903226 15.5483871,11.2903226 Z M15.7258065,14.5104839 C14.8032258,15.6193548 13.4415323,16.2580645 12,16.2580645 C10.5584677,16.2580645 9.19677419,15.6237903 8.27419355,14.5104839 C7.89717742,14.0580645 7.22298387,14.0004032 6.775,14.3729839 C6.32258065,14.75 6.26491935,15.4197581 6.6375,15.8721774 C7.96814516,17.4689516 9.92419355,18.3826613 12,18.3826613 C14.0758065,18.3826613 16.0318548,17.4689516 17.3625,15.8721774 C17.7395161,15.4197581 17.6774194,14.75 17.225,14.3729839 C16.7770161,14.0004032 16.1028226,14.0580645 15.7258065,14.5104839 L15.7258065,14.5104839 Z"/></g></g></g></svg>