<?xml version="1.0" encoding="UTF-8"?>
<svg width="22px" height="22px" viewBox="0 0 22 22" version="1.1" xmlns="http://www.w3.org/2000/svg" xmlns:xlink="http://www.w3.org/1999/xlink">
    <title>Icon/Smile Wink</title>
    <g id="💙-Icons" stroke="none" stroke-width="1" fill="none" fill-rule="evenodd">
        <g id="Icons-Copy" transform="translate(-777.000000, -449.000000)">
            <g id="Icon/Smile-Wink" transform="translate(776.000000, 448.000000)">
                <polygon id="Base" points="0 0 24 0 24 24 0 24"></polygon>
                <path d="M12,1 C5.9233871,1 1,5.9233871 1,12 C1,18.0766129 5.9233871,23 12,23 C18.0766129,23 23,18.0766129 23,12 C23,5.9233871 18.0766129,1 12,1 Z M12,20.8709677 C7.10766129,20.8709677 3.12903226,16.8923387 3.12903226,12 C3.12903226,7.10766129 7.10766129,3.12903226 12,3.12903226 C16.8923387,3.12903226 20.8709677,7.10766129 20.8709677,12 C20.8709677,16.8923387 16.8923387,20.8709677 12,20.8709677 Z M17.225,14.3774194 C16.7725806,14.0004032 16.1028226,14.0625 15.7258065,14.5149194 C14.8032258,15.6237903 13.4415323,16.2625 12,16.2625 C10.5584677,16.2625 9.19677419,15.6282258 8.27419355,14.5149194 C7.89717742,14.0625 7.22298387,14.0048387 6.775,14.3774194 C6.32258065,14.7544355 6.26491935,15.4241935 6.6375,15.8766129 C7.96814516,17.4733871 9.92419355,18.3870968 12,18.3870968 C14.0758065,18.3870968 16.0318548,17.4733871 17.3625,15.8766129 C17.7395161,15.4241935 17.6774194,14.7544355 17.225,14.3774194 L17.225,14.3774194 Z M8.4516129,11.2903226 C9.23669355,11.2903226 9.87096774,10.6560484 9.87096774,9.87096774 C9.87096774,9.0858871 9.23669355,8.4516129 8.4516129,8.4516129 C7.66653226,8.4516129 7.03225806,9.0858871 7.03225806,9.87096774 C7.03225806,10.6560484 7.66653226,11.2903226 8.4516129,11.2903226 Z M15.5483871,8.62903226 C14.4084677,8.62903226 13.0689516,9.37862903 12.8915323,10.496371 C12.816129,10.9931452 13.4016129,11.303629 13.7697581,10.9754032 L14.191129,10.5983871 C14.8475806,10.0129032 16.2403226,10.0129032 16.8967742,10.5983871 L17.3181452,10.9754032 C17.6951613,11.303629 18.2762097,10.9887097 18.196371,10.496371 C18.0278226,9.37862903 16.6883065,8.62903226 15.5483871,8.62903226 L15.5483871,8.62903226 Z" id="Icon" fill="#151A30"></path>
            </g>
        </g>
    </g>
</svg>