<?xml version="1.0" encoding="UTF-8"?>
<svg width="22px" height="22px" viewBox="0 0 22 22" version="1.1" xmlns="http://www.w3.org/2000/svg" xmlns:xlink="http://www.w3.org/1999/xlink">
    <title>Icon/Star/Linear</title>
    <g id="💙-Icons" stroke="none" stroke-width="1" fill="none" fill-rule="evenodd">
        <g id="Icons-Copy" transform="translate(-729.000000, -281.000000)">
            <g id="Icon/Star/Linear" transform="translate(728.000000, 280.000000)">
                <rect id="Base" x="0" y="0" width="24" height="24"></rect>
                <path d="M21.8732535,8.53382981 L15.8654137,7.66030502 L13.1801848,2.23050777 C12.6990642,1.26265871 11.305048,1.25035554 10.8198152,2.23050777 L8.1345863,7.66030502 L2.1267465,8.53382981 C1.04936523,8.68966991 0.6175903,10.0143108 1.39889732,10.773006 L5.74543166,14.997093 L4.71739611,20.9641285 C4.53234971,22.0427061 5.6714131,22.850614 6.6254301,22.3461842 L12,19.5287591 L17.3745699,22.3461842 C18.3285869,22.8465129 19.4676503,22.0427061 19.2826039,20.9641285 L18.2545683,14.997093 L22.6011027,10.773006 C23.3824097,10.0143108 22.9506348,8.68966991 21.8732535,8.53382981 L21.8732535,8.53382981 Z M16.1368151,14.3081157 L17.1113928,19.9839763 L12,17.3059872 L6.8886072,19.9839763 L7.86318491,14.3081157 L3.72636983,10.2890815 L9.44224753,9.46066831 L12,4.2933386 L14.5577525,9.46066831 L20.2736302,10.2890815 L16.1368151,14.3081157 L16.1368151,14.3081157 Z" id="Icon" fill="#151A30"></path>
            </g>
        </g>
    </g>
</svg>