<svg xmlns="http://www.w3.org/2000/svg" width="25" height="24" viewBox="0 0 25 24"><g fill="none" fill-rule="evenodd"><path d="M0 0H24V24H0z" transform="translate(1)"/><g><path fill="#475B7F" d="M21.438 14.846H7.688c-.38 0-.688.31-.688.692v1.385c0 .382.308.692.688.692h13.75c.38 0 .687-.31.687-.692v-1.385c0-.382-.308-.692-.688-.692zm0-13.846H7.688C7.308 1 7 1.31 7 1.692v1.385c0 .382.308.692.688.692h13.75c.38 0 .687-.31.687-.692V1.692c0-.382-.308-.692-.688-.692zm0 6.923H7.688c-.38 0-.688.31-.688.692V10c0 .382.308.692.688.692h13.75c.38 0 .687-.31.687-.692V8.615c0-.382-.308-.692-.688-.692z" transform="translate(1) translate(.875 2.692)"/><path fill="#8F9BB3" d="M2.188.308c-1.14 0-2.063.93-2.063 2.077 0 1.147.923 2.077 2.062 2.077 1.14 0 2.063-.93 2.063-2.077 0-1.147-.923-2.077-2.063-2.077zm0 6.923c-1.14 0-2.063.93-2.063 2.077 0 1.147.923 2.077 2.062 2.077 1.14 0 2.063-.93 2.063-2.077 0-1.147-.923-2.077-2.063-2.077zm0 6.923c-1.14 0-2.063.93-2.063 2.077 0 1.147.923 2.077 2.062 2.077 1.14 0 2.063-.93 2.063-2.077 0-1.147-.923-2.077-2.063-2.077z" transform="translate(1) translate(.875 2.692)"/></g></g></svg>