<svg xmlns="http://www.w3.org/2000/svg" width="25" height="24" viewBox="0 0 25 24"><g fill="none" fill-rule="evenodd"><path d="M0 0H24V24H0z" transform="translate(1)"/><g><path fill="#475B7F" d="M16.5 7.5c1.823 0 3.3-1.44 3.3-3.214 0-1.775-1.477-3.215-3.3-3.215-1.823 0-3.3 1.44-3.3 3.215S14.677 7.5 16.5 7.5zm1.65 1.071h-.13c-.478.161-.984.268-1.52.268s-1.042-.107-1.52-.268h-.13c-.701 0-1.348.198-1.915.516.84.88 1.365 2.05 1.365 3.342v1.285c0 .074-.017.144-.02.215h6.07c.911 0 1.65-.72 1.65-1.608.001-2.07-1.72-3.749-3.846-3.75h-.004z" transform="translate(1) translate(1 4.5)"/><path fill="#8F9BB3" d="M6.6 7.5c2.126 0 3.85-1.679 3.85-3.75C10.45 1.679 8.726 0 6.6 0 4.474 0 2.75 1.679 2.75 3.75 2.749 5.82 4.47 7.5 6.596 7.5H6.6zm2.64 1.071h-.285c-.734.35-1.539.533-2.355.536-.846 0-1.636-.2-2.355-.536H3.96C1.773 8.572 0 10.3 0 12.43v.964C0 14.28.739 15 1.65 15h9.9c.911 0 1.65-.72 1.65-1.607v-.964c0-2.13-1.772-3.856-3.959-3.858H9.24z" transform="translate(1) translate(1 4.5)"/></g></g></svg>