<svg xmlns="http://www.w3.org/2000/svg" width="24" height="24" viewBox="0 0 24 24"><g fill="none" fill-rule="evenodd"><path d="M0 0H24V24H0z"/><path fill="#000" fill-rule="nonzero" d="M15.857 19.5v1.563c0 .517-.432.937-.964.937H3.964C3.432 22 3 21.58 3 21.062V6.688c0-.517.432-.937.964-.937h2.893v11.563c0 1.206 1.01 2.187 2.25 2.187h6.75zm0-13.438V2h-6.75c-.532 0-.964.42-.964.938v14.374c0 .518.432.938.964.938h10.929c.532 0 .964-.42.964-.938V7h-4.179c-.53 0-.964-.422-.964-.938zm4.86-1.212l-2.649-2.575c-.18-.176-.426-.275-.682-.275h-.243v3.75H21v-.237c0-.248-.102-.487-.282-.663z"/></g></svg>