<?xml version="1.0" encoding="UTF-8"?>
<svg width="18px" height="18px" viewBox="0 0 18 18" version="1.1" xmlns="http://www.w3.org/2000/svg" xmlns:xlink="http://www.w3.org/1999/xlink">
    <title>Icon/Text</title>
    <g id="💙-Icons" stroke="none" stroke-width="1" fill="none" fill-rule="evenodd">
        <g id="Icons-Copy" transform="translate(-683.000000, -451.000000)">
            <g id="Icon/Text" transform="translate(680.000000, 448.000000)">
                <polygon id="Base" points="0 0 24 0 24 24 0 24"></polygon>
                <path d="M20.3571429,3 L20.3571429,3 C20.7121832,3 21,3.28781679 21,3.64285714 L21,6.85714286 L21,6.85714286 C21,7.21218321 20.7121832,7.5 20.3571429,7.5 L19.7142857,7.5 L19.7142857,7.5 C19.3592453,7.5 19.0714286,7.21218321 19.0714286,6.85714286 C19.0714286,6.85714286 19.0714286,6.85714286 19.0714286,6.85714286 L19.0714286,5.57142857 L13.2857143,5.57142857 L13.2857143,19.0714286 L15.2142857,19.0714286 L15.2142857,19.0714286 C15.569326,19.0714286 15.8571428,19.3592454 15.8571428,19.7142857 L15.8571428,20.3571429 L15.8571428,20.3571429 C15.8571428,20.7121832 15.569326,21 15.2142857,21 L8.78571431,21 L8.78571428,21 C8.43067392,21 8.14285714,20.7121832 8.14285714,20.3571429 C8.14285714,20.3571429 8.14285714,20.3571429 8.14285714,20.3571429 L8.14285714,19.7142857 L8.14285714,19.7142858 C8.14285709,19.3592455 8.43067392,19.0714287 8.78571428,19.0714287 L10.7142857,19.0714287 L10.7142857,5.57142867 L4.92857144,5.57142867 L4.92857144,6.85714295 L4.92857144,6.85714295 C4.92857144,7.21218331 4.64075466,7.5 4.28571431,7.5 L3.64285717,7.5 L3.64285714,7.5 C3.28781678,7.5 3,7.21218331 3,6.85714295 C3,6.85714295 3,6.85714295 3,6.85714295 L3,3.64285724 L3,3.64285734 C3,3.28781698 3.28781678,3 3.64285714,3 L20.3571429,3 Z" id="Icon" fill="#151A30"></path>
            </g>
        </g>
    </g>
</svg>