<svg xmlns="http://www.w3.org/2000/svg" width="24" height="24" viewBox="0 0 24 24">
    <g fill="none" fill-rule="evenodd">
        <path d="M0 0H24V24H0z"/>
        <path fill="#151A30" d="M22.925 4h-12.65c-.318 0-.575.256-.575.571V7.43c0 .315.257.571.575.571h.575c.318 0 .575-.256.575-.571V6.286h4.025v12h-1.725c-.318 0-.575.256-.575.571v.572c0 .315.257.571.575.571h5.75c.318 0 .575-.256.575-.571v-.572c0-.315-.257-.571-.575-.571H17.75v-12h4.025v1.143c0 .315.257.571.575.571h.575c.318 0 .575-.256.575-.571V4.57c0-.315-.257-.571-.575-.571zm-11.5 6.857H1.075c-.318 0-.575.256-.575.572v2.285c0 .316.257.572.575.572h.575c.318 0 .575-.256.575-.572v-1.143H5.1v5.715H3.95c-.318 0-.575.256-.575.571v.572c0 .315.257.571.575.571h4.6c.318 0 .575-.256.575-.571v-.572c0-.315-.257-.571-.575-.571H7.4V12.57h2.875v1.143c0 .316.257.572.575.572h.575c.318 0 .575-.256.575-.572V11.43c0-.316-.257-.572-.575-.572z"/>
    </g>
</svg>
