<?xml version="1.0" encoding="UTF-8"?>
<svg width="20px" height="22px" viewBox="0 0 20 22" version="1.1" xmlns="http://www.w3.org/2000/svg" xmlns:xlink="http://www.w3.org/1999/xlink">
    <title>Icon/Trash/Linear</title>
    <g id="💙-Icons" stroke="none" stroke-width="1" fill="none" fill-rule="evenodd">
        <g id="Icons-Copy" transform="translate(-634.000000, -281.000000)">
            <g id="Icon/Trash/Linear" transform="translate(632.000000, 280.000000)">
                <rect id="Base" x="0" y="0" width="24" height="24"></rect>
                <path d="M20.8214286,4.43750126 L17.3267857,4.43750126 L15.8848214,2.00117341 C15.5165628,1.37947651 14.8531446,0.999354371 14.1375,1.00000082 L9.8625,1.00000082 C9.14685541,0.999354371 8.48343721,1.37947651 8.11517857,2.00117341 L6.67321429,4.43750126 L3.17857143,4.43750126 C2.80380678,4.43750126 2.5,4.74530546 2.5,5.12500119 L2.5,5.81250111 C2.5,6.19219683 2.80380678,6.50000082 3.17857143,6.50000082 L3.85714286,6.50000082 L4.75625,21.0664056 C4.82342434,22.1532081 5.71293369,23.0000008 6.78772321,23.0000008 L17.2122768,23.0000008 C18.2870663,23.0000008 19.1765757,22.1532081 19.24375,21.0664056 L20.1428571,6.50000082 L20.8214286,6.50000082 C21.1961932,6.50000082 21.5,6.19219683 21.5,5.81250111 L21.5,5.12500119 C21.5,4.74530546 21.1961932,4.43750126 20.8214286,4.43750126 Z M9.8625,3.06250142 L14.1375,3.06250142 L14.9517857,4.43750126 L9.04821429,4.43750126 L9.8625,3.06250142 Z M17.2122768,20.9374994 L6.78814732,20.9374994 L5.89752232,6.50000103 L18.1033259,6.50000103 L17.2122768,20.9374994 Z" id="Icon" fill="#151A30"></path>
            </g>
        </g>
    </g>
</svg>