<svg xmlns="http://www.w3.org/2000/svg" width="25" height="24" viewBox="0 0 25 24"><g fill="none" fill-rule="evenodd"><path d="M0 0H24V24H0z" transform="translate(1)"/><path fill="#151A30" d="M5.143 4.688h1.143V12c0 3.101 2.563 5.625 5.714 5.625 3.15 0 5.714-2.524 5.714-5.625V4.688h1.143c.316 0 .572-.252.572-.563v-.563c0-.31-.256-.562-.572-.562h-4.571c-.316 0-.572.252-.572.563v.562c0 .31.256.563.572.563h1.143V12c0 1.864-1.535 3.375-3.429 3.375S8.571 13.864 8.571 12V4.688h1.143c.316 0 .572-.252.572-.563v-.562c0-.311-.256-.563-.572-.563H5.143c-.316 0-.572.252-.572.563v.562c0 .31.256.563.572.563zm14.286 14.624H4.57c-.315 0-.571.252-.571.563v.563c0 .31.256.562.571.562H19.43c.315 0 .571-.252.571-.563v-.562c0-.31-.256-.563-.571-.563z" transform="translate(1)"/></g></svg>