<svg xmlns="http://www.w3.org/2000/svg" width="65" height="64" viewBox="0 0 65 64"><g fill="none" fill-rule="evenodd"><path d="M0 0H64V64H0z" transform="translate(.5)"/><g transform="translate(.5) translate(1.6)"><path fill="#EDF1F7" d="M54.4 16h-14c-1.105 0-2-.895-2-2V0h-29c-1.653-.004-2.996 1.332-3 2.985V61c-.004 1.653 1.332 2.996 2.985 3H51.4c1.653.004 2.996-1.332 3-2.985V16z"/><path fill="#F7F9FC" d="M53.525 13.125L41.288.875c-.565-.562-1.33-.877-2.125-.875H38.4v14c0 1.105.895 2 2 2h14v-.762c0-.793-.315-1.553-.875-2.113z"/><rect width="32" height="19.2" fill="#1998D5" rx="1.6" transform="translate(0 6.4)"/></g><path fill="#C5CEE0" d="M22.596 56.416c-.348 0-.682-.113-.967-.326-1.041-.781-1.181-1.65-1.115-2.242.182-1.628 2.195-3.332 5.985-5.068 1.504-3.296 2.935-7.357 3.788-10.75-.998-2.172-1.968-4.99-1.261-6.643.248-.579.557-1.023 1.134-1.215.228-.076.804-.172 1.016-.172.504 0 .947.649 1.26 1.049.296.376.965 1.173-.372 6.802 1.348 2.784 3.258 5.62 5.088 7.562 1.31-.237 2.439-.358 3.358-.358 1.566 0 2.515.365 2.902 1.117.32.622.189 1.349-.39 2.16-.557.779-1.325 1.191-2.22 1.191-1.216 0-2.632-.768-4.211-2.285-2.837.593-6.15 1.651-8.828 2.822-.836 1.774-1.637 3.203-2.383 4.251-1.025 1.435-1.91 2.105-2.784 2.105zm2.662-5.126c-2.137 1.201-3.008 2.188-3.071 2.744-.01.092-.037.334.43.692.15-.047 1.02-.444 2.64-3.436zm13.637-4.442c.815.627 1.014.944 1.547.944.234 0 .9-.01 1.21-.441.149-.209.207-.343.23-.415-.123-.065-.286-.197-1.175-.197-.505.001-1.14.023-1.812.109zm-7.47-6.582c-.715 2.474-1.66 5.145-2.674 7.564 2.09-.811 4.362-1.519 6.496-2.02-1.35-1.568-2.7-3.526-3.822-5.544zm-.607-8.462c-.098.033-1.33 1.757.096 3.216.949-2.115-.053-3.23-.096-3.216z" transform="translate(.5)"/><g fill="#FFF" fill-rule="nonzero"><path d="M2.385 11H.744V.924h2.898c.428 0 .852.068 1.271.205.419.137.795.342 1.128.615.333.273.602.604.807.991.205.387.308.822.308 1.306 0 .511-.087.973-.26 1.388-.173.415-.415.764-.725 1.046-.31.282-.684.501-1.121.656-.437.155-.921.232-1.449.232H2.384V11h.001zm0-8.832V6.16h1.504c.2 0 .398-.034.595-.103.196-.068.376-.18.54-.335.164-.155.296-.371.396-.649.1-.278.15-.622.15-1.032 0-.164-.023-.354-.068-.567-.046-.214-.139-.419-.28-.615-.142-.196-.34-.36-.595-.492-.255-.132-.593-.198-1.012-.198h-1.23v-.001zM17.219 5.682c0 .829-.089 1.538-.267 2.126-.178.588-.403 1.08-.677 1.477s-.581.709-.923.937c-.342.228-.672.398-.991.513-.319.114-.611.187-.875.219-.264.03-.46.046-.588.046H9.084V.924h3.035c.848 0 1.593.135 2.235.403.642.268 1.176.627 1.6 1.073.424.446.74.955.95 1.524.21.57.315 1.156.315 1.758zm-4.867 4.115c1.112 0 1.914-.355 2.406-1.066.492-.711.738-1.741.738-3.09 0-.419-.05-.834-.15-1.244-.101-.41-.294-.781-.581-1.114-.287-.333-.677-.602-1.169-.807-.492-.205-1.13-.308-1.914-.308h-.957v7.629h1.627zM21.266 2.168L21.266 5.34 25.477 5.34 25.477 6.461 21.266 6.461 21.266 11 19.598 11 19.598.924 25.9.924 25.9 2.168z" transform="translate(.5) translate(5.5 10)"/></g></g></svg>