<?xml version="1.0" encoding="UTF-8"?>
<svg width="80px" height="64px" viewBox="0 0 80 64" version="1.1" xmlns="http://www.w3.org/2000/svg" xmlns:xlink="http://www.w3.org/1999/xlink">
    <title>user-check</title>
    <g id="Tester" stroke="none" stroke-width="1" fill="none" fill-rule="evenodd">
        <g id="Mobile:-Thank-You-Copy-3" transform="translate(-147.000000, -232.000000)">
            <g id="user-check" transform="translate(147.000000, 232.000000)">
                <path d="M79.5752317,20.1178792 C80.1464404,20.7287459 80.1408551,21.7007398 79.5626668,22.3045194 L61.8084125,40.5525526 C61.5271403,40.8414219 61.1464228,41.0024148 60.7503495,41 C60.3542762,40.9975305 59.9754359,40.8318542 59.6975033,40.5395368 L49.4319508,29.827603 C49.153086,29.5362398 48.9976689,29.1418638 49,28.7315809 C49.002384,28.3212981 49.1623223,27.9288665 49.4445157,27.6409628 L52.9752627,24.0095781 C53.2565349,23.7207088 53.6372523,23.5597159 54.0333256,23.5621581 C54.429399,23.5646003 54.8082393,23.7302765 55.0861719,24.0225939 L60.8032176,29.9837916 L73.9712703,16.4474474 C74.2525426,16.1585781 74.63326,15.9975852 75.0293333,16 C75.4254066,16.0024695 75.8042469,16.1681458 76.0821795,16.4604632 L79.5752317,20.1178792 Z" id="Path" fill="#ADE422"></path>
                <path d="M28.5,32 C37.4943516,32 44.7857143,24.836556 44.7857143,16 C44.7857143,7.163444 37.4943516,0 28.5,0 C19.5056484,0 12.2142857,7.163444 12.2142857,16 C12.2142857,24.836556 19.5056484,32 28.5,32 Z M39.9,36 L37.7752232,36 C31.8895874,38.6665876 25.1104126,38.6665876 19.2247768,36 L17.1,36 C7.65680373,36.0020702 0.00210715087,43.5224738 0,52.8 L0,58 C0,61.3137085 2.73426099,64 6.10714286,64 L50.8928571,64 C54.265739,64 57,61.3137085 57,58 L57,52.8 C56.9978928,43.5224738 49.3431963,36.0020702 39.9,36 L39.9,36 Z" id="Shape" fill="#E4E9F2"></path>
            </g>
        </g>
    </g>
</svg>
