<svg xmlns="http://www.w3.org/2000/svg" width="24" height="24" viewBox="0 0 24 24"><g fill="none" fill-rule="evenodd"><g><g><g><g fill-rule="nonzero"><path fill="#169154" d="M15 0H7.046C6.47 0 6 .469 6 1.046v4.356h9V0z" transform="translate(-1120 -695) translate(1120 279) translate(0 416) translate(0 1)"/><path fill="#18482A" d="M6 16.232v4.322c0 .577.469 1.046 1.046 1.046H15v-5.368H6z" transform="translate(-1120 -695) translate(1120 279) translate(0 416) translate(0 1)"/><path fill="#0C8045" d="M6 5.402L15 5.402 15 10.803 6 10.803z" transform="translate(-1120 -695) translate(1120 279) translate(0 416) translate(0 1)"/><path fill="#17472A" d="M6 10.803L15 10.803 15 16.233 6 16.233z" transform="translate(-1120 -695) translate(1120 279) translate(0 416) translate(0 1)"/><g><path fill="#29C27F" d="M7.954 0H0v5.402h9V1.046C9 .47 8.531 0 7.954 0z" transform="translate(-1120 -695) translate(1120 279) translate(0 416) translate(0 1) translate(15)"/><path fill="#27663F" d="M0 16.232V21.6h7.954C8.531 21.6 9 21.131 9 20.554v-4.321H0z" transform="translate(-1120 -695) translate(1120 279) translate(0 416) translate(0 1) translate(15)"/><path fill="#19AC65" d="M0 5.402L9 5.402 9 10.803 0 10.803z" transform="translate(-1120 -695) translate(1120 279) translate(0 416) translate(0 1) translate(15)"/><path fill="#129652" d="M0 10.803L9 10.803 9 16.233 0 16.233z" transform="translate(-1120 -695) translate(1120 279) translate(0 416) translate(0 1) translate(15)"/></g><path fill="#0C7238" d="M10.991 16.8H1.01C.452 16.8 0 16.348 0 15.791V5.81C0 5.252.452 4.8 1.009 4.8h9.982c.557 0 1.009.452 1.009 1.009v9.982c0 .557-.452 1.009-1.009 1.009z" transform="translate(-1120 -695) translate(1120 279) translate(0 416) translate(0 1)"/><path fill="#FFF" d="M3.484 7.8L4.916 7.8 6.077 10.052 7.305 7.8 8.642 7.8 6.8 10.8 8.684 13.8 7.274 13.8 6.008 11.442 4.747 13.8 3.316 13.8 5.231 10.789z" transform="translate(-1120 -695) translate(1120 279) translate(0 416) translate(0 1)"/></g><path d="M0 0H24V24H0z" transform="translate(-1120 -695) translate(1120 279) translate(0 416)"/></g></g></g></g></svg>