<svg xmlns="http://www.w3.org/2000/svg" width="24" height="24" viewBox="0 0 24 24"><g fill="none" fill-rule="evenodd"><g><g><g><g><path d="M0 0H24V24H0z" transform="translate(-1168 -695) translate(1120 279) translate(0 416) translate(48)"/><path fill="#D1DAEA" d="M15 1.3H7.046C6.47 1.3 6 1.769 6 2.346v4.356h9V1.3z" transform="translate(-1168 -695) translate(1120 279) translate(0 416) translate(48)"/><path fill="#B9C3D6" fill-rule="nonzero" d="M6 17.532v4.322c0 .577.469 1.046 1.046 1.046H15v-5.368H6z" transform="translate(-1168 -695) translate(1120 279) translate(0 416) translate(48)"/><path fill="#C5CFE2" d="M6 6.702L15 6.702 15 12.103 6 12.103z" transform="translate(-1168 -695) translate(1120 279) translate(0 416) translate(48)"/><path fill="#BEC8DA" fill-rule="nonzero" d="M6 12.103L15 12.103 15 17.533 6 17.533z" transform="translate(-1168 -695) translate(1120 279) translate(0 416) translate(48)"/><g><path fill="#F7F9FC" d="M7.954 0H0v5.402h9V1.046C9 .47 8.531 0 7.954 0z" transform="translate(-1168 -695) translate(1120 279) translate(0 416) translate(48) translate(15 1.3)"/><path fill="#C5CEE0" d="M0 16.232V21.6h7.954C8.531 21.6 9 21.131 9 20.554v-4.321H0z" transform="translate(-1168 -695) translate(1120 279) translate(0 416) translate(48) translate(15 1.3)"/><path fill="#EDF1F7" d="M0 5.402L9 5.402 9 10.803 0 10.803z" transform="translate(-1168 -695) translate(1120 279) translate(0 416) translate(48) translate(15 1.3)"/><path fill="#E4E9F2" d="M0 10.803L9 10.803 9 16.233 0 16.233z" transform="translate(-1168 -695) translate(1120 279) translate(0 416) translate(48) translate(15 1.3)"/></g><path fill="#C5CEE0" fill-rule="nonzero" d="M10.991 18.1H1.01C.452 18.1 0 17.648 0 17.091V7.11C0 6.552.452 6.1 1.009 6.1h9.982c.557 0 1.009.452 1.009 1.009v9.982c0 .557-.452 1.009-1.009 1.009z" transform="translate(-1168 -695) translate(1120 279) translate(0 416) translate(48)"/><path fill="#FFF" fill-rule="nonzero" d="M3.484 9.1L4.916 9.1 6.077 11.352 7.305 9.1 8.642 9.1 6.8 12.1 8.684 15.1 7.274 15.1 6.008 12.742 4.747 15.1 3.316 15.1 5.231 12.089z" transform="translate(-1168 -695) translate(1120 279) translate(0 416) translate(48)"/></g></g></g></g></g></svg>