<svg xmlns="http://www.w3.org/2000/svg" width="24" height="24" viewBox="0 0 24 24">
    <g fill="none" fill-rule="evenodd">
        <g>
            <g>
                <g>
                    <g>
                        <path d="M0 0H24V24H0z" transform="translate(-1168 -327) translate(1120 279) translate(0 48) translate(48)"/>
                        <g>
                            <path fill="#475B7F" d="M1.18 5.125l7.623 4.358c.117.067.26.067.377 0l7.637-4.365c.182-.104.245-.336.141-.518-.034-.059-.083-.108-.142-.141L9.187.107c-.116-.066-.26-.066-.376 0L1.18 4.467c-.182.104-.246.336-.142.518.034.059.083.108.142.141z" transform="translate(-1168 -327) translate(1120 279) translate(0 48) translate(48) translate(3 1.941)"/>
                            <path fill="#8F9BB3" d="M.05 6.41c.104-.182.337-.245.519-.14l7.628 4.367c.118.068.19.194.19.33v8.716c0 .066-.016.131-.05.189-.103.182-.335.245-.518.141L.191 15.652c-.118-.068-.191-.194-.191-.33V6.6c0-.066.017-.131.05-.189zm17.57-.191c.21 0 .38.17.38.38v8.716c0 .136-.073.262-.191.33l-7.628 4.367c-.058.033-.123.05-.189.05-.21 0-.38-.17-.38-.38V10.96c0-.136.073-.262.191-.33l7.629-4.361c.057-.033.122-.05.188-.05z" transform="translate(-1168 -327) translate(1120 279) translate(0 48) translate(48) translate(3 1.941)"/>
                        </g>
                    </g>
                </g>
            </g>
        </g>
    </g>
</svg>
