<svg xmlns="http://www.w3.org/2000/svg" width="24" height="24" viewBox="0 0 24 24">
    <g fill="none" fill-rule="evenodd">
        <g>
            <g>
                <g>
                    <g>
                        <path d="M0 0H24V24H0z" transform="translate(-1265 -535) translate(1120 279) translate(0 256) translate(145)"/>
                        <path fill="#475B7F" d="M16.414 6.375h-8.75C7.664 3.959 9.623 2 12.04 2s4.375 1.959 4.375 4.375z" transform="translate(-1265 -535) translate(1120 279) translate(0 256) translate(145)"/>
                        <path fill="#8F9BB3" d="M22 13.285c-.019.681-.595 1.215-1.276 1.215h-2.162v.625c.002.825-.18 1.641-.53 2.388l2.352 2.353c.488.488.488 1.28 0 1.768s-1.28.488-1.768 0l-2.138-2.138c-1 .813-2.251 1.256-3.54 1.254v-9.531c0-.26-.21-.469-.47-.469h-.937c-.259 0-.468.21-.468.469v9.531c-1.29.002-2.54-.441-3.541-1.254l-2.138 2.138c-.488.488-1.28.488-1.768 0s-.488-1.28 0-1.768l2.353-2.353c-.351-.747-.533-1.562-.531-2.388V14.5H3.276c-.681 0-1.257-.534-1.276-1.215-.02-.69.524-1.265 1.214-1.285h2.224V9.705L3.616 7.884c-.488-.488-.488-1.28 0-1.768s1.28-.488 1.768 0L7.518 8.25h8.964l2.134-2.134c.488-.488 1.28-.488 1.768 0s.488 1.28 0 1.768l-1.821 1.821V12h2.187c.69 0 1.25.56 1.25 1.25v.035z" transform="translate(-1265 -535) translate(1120 279) translate(0 256) translate(145)"/>
                    </g>
                </g>
            </g>
        </g>
    </g>
</svg>
