<svg xmlns="http://www.w3.org/2000/svg" width="24" height="24" viewBox="0 0 24 24"><g fill="none" fill-rule="evenodd"><g><g><g><path d="M0 0H24V24H0z" transform="translate(-1552 -279) translate(1120 279) translate(432)"/><g><path fill="#8F9BB3" d="M7.732 7.063H6.125c-.266 0-.482.22-.482.492v1.64c0 .272.216.493.482.493h1.607c.266 0 .482-.22.482-.493v-1.64c0-.272-.216-.492-.482-.492zm0 3.937H6.125c-.266 0-.482.22-.482.492v1.64c0 .273.216.493.482.493h1.607c.266 0 .482-.22.482-.492v-1.64c0-.273-.216-.493-.482-.493zm0-7.875H6.125c-.266 0-.482.22-.482.492v1.64c0 .273.216.493.482.493h1.607c.266 0 .482-.22.482-.492v-1.64c0-.273-.216-.493-.482-.493zm5.143 0h-1.607c-.266 0-.482.22-.482.492v1.64c0 .273.216.493.482.493h1.607c.266 0 .482-.22.482-.492v-1.64c0-.273-.216-.493-.482-.493zm0 3.938h-1.607c-.266 0-.482.22-.482.492v1.64c0 .272.216.493.482.493h1.607c.266 0 .482-.22.482-.493v-1.64c0-.272-.216-.492-.482-.492zm0 3.937h-1.607c-.266 0-.482.22-.482.492v1.64c0 .273.216.493.482.493h1.607c.266 0 .482-.22.482-.492v-1.64c0-.273-.216-.493-.482-.493z" transform="translate(-1552 -279) translate(1120 279) translate(432) translate(2.5 1)"/><path fill="#4350F7" d="M18.018 20.188h-.804V1.483c0-.543-.431-.984-.964-.984H2.75c-.533 0-.964.44-.964.984v18.703H.982c-.266 0-.482.22-.482.493v.82h18v-.82c0-.272-.216-.492-.482-.492zM5.643 3.617c0-.273.216-.493.482-.493h1.607c.266 0 .482.22.482.492v1.64c0 .273-.216.493-.482.493H6.125c-.266 0-.482-.22-.482-.492v-1.64zm0 3.937c0-.272.216-.492.482-.492h1.607c.266 0 .482.22.482.492v1.64c0 .272-.216.493-.482.493H6.125c-.266 0-.482-.22-.482-.493v-1.64zm2.09 6.07H6.124c-.266 0-.482-.22-.482-.492v-1.64c0-.273.216-.493.482-.493h1.607c.266 0 .482.22.482.492v1.64c0 .273-.216.493-.482.493zm3.053 6.563H8.214v-3.446c0-.272.216-.492.482-.492h1.608c.266 0 .482.22.482.492v3.445zm2.571-7.055c0 .272-.216.492-.482.492h-1.607c-.266 0-.482-.22-.482-.492v-1.64c0-.273.216-.493.482-.493h1.607c.266 0 .482.22.482.492v1.64zm0-3.938c0 .272-.216.492-.482.492h-1.607c-.266 0-.482-.22-.482-.492v-1.64c0-.272.216-.492.482-.492h1.607c.266 0 .482.22.482.492v1.64zm0-3.937c0 .272-.216.492-.482.492h-1.607c-.266 0-.482-.22-.482-.492v-1.64c0-.273.216-.493.482-.493h1.607c.266 0 .482.22.482.492v1.64z" transform="translate(-1552 -279) translate(1120 279) translate(432) translate(2.5 1)"/></g></g></g></g></g></svg>