<svg xmlns="http://www.w3.org/2000/svg" width="24" height="24" viewBox="0 0 24 24">
    <g fill="none" fill-rule="evenodd">
        <g>
            <g>
                <g>
                    <g>
                        <path d="M0 0H24V24H0z" transform="translate(-1216 -431) translate(1120 279) translate(0 152) translate(96) matrix(-1 0 0 1 24 0)"/>
                        <path fill="#475B7F" d="M2.291 11.298l8.084-8.007c.387-.386 1.016-.388 1.405-.005l.005.005.942.937c.387.387.387 1.01 0 1.397L6.325 12l6.4 6.375c.389.384.39 1.007.004 1.393l-.005.004-.943.937c-.387.386-1.016.388-1.405.005l-.005-.005-8.08-8.007c-.388-.389-.388-1.015 0-1.404z" transform="translate(-1216 -431) translate(1120 279) translate(0 152) translate(96) matrix(-1 0 0 1 15.018 0)"/>
                        <path fill="#8F9BB3" d="M10.271 11.298l8.084-8.007c.387-.386 1.016-.388 1.405-.005l.005.005.942.937c.39.383.391 1.007.004 1.393l-.004.004L14.303 12l6.404 6.375c.386.387.386 1.01 0 1.397l-.944.937c-.387.386-1.016.388-1.405.005l-.005-.005-8.082-8.007c-.388-.389-.388-1.015 0-1.404z" transform="translate(-1216 -431) translate(1120 279) translate(0 152) translate(96) matrix(-1 0 0 1 30.98 0)"/>
                    </g>
                </g>
            </g>
        </g>
    </g>
</svg>
