<svg xmlns="http://www.w3.org/2000/svg" width="24" height="24" viewBox="0 0 24 24">
    <g fill="none" fill-rule="evenodd">
        <g>
            <g>
                <g>
                    <g>
                        <path d="M0 0H24V24H0z" transform="translate(-1217 -535) translate(1120 279) translate(0 256) translate(97)"/>
                        <path fill="#475B7F" d="M18.573 3.375h-3.65c1.613 0 2.92 1.287 2.92 2.875H6.161c0-1.588 1.307-2.875 2.92-2.875h-3.65c-1.21 0-2.191.965-2.191 2.156v15.813c0 1.19.98 2.156 2.19 2.156h13.143c1.21 0 2.19-.965 2.19-2.156V5.53c0-1.19-.98-2.156-2.19-2.156zm-12.34 7.97l.58-.567c.096-.094.251-.094.347 0l.94.934 2.172-2.12c.096-.094.251-.094.347 0l.575.57c.096.095.096.248 0 .342l-2.93 2.857c-.095.094-.25.095-.346 0l-1.684-1.675c-.096-.095-.096-.247 0-.342zm1.388 6.764c-.605 0-1.095-.482-1.095-1.078 0-.595.49-1.078 1.095-1.078s1.095.483 1.095 1.078c.002.594-.486 1.077-1.09 1.078h-.005zm10.222-.718c0 .198-.163.359-.365.359h-6.571c-.202 0-.365-.16-.365-.36v-.718c0-.199.163-.36.365-.36h6.571c.202 0 .365.161.365.36v.719zm0-4.313c0 .198-.196.36-.438.36h-7.133L11.746 12h5.66c.24 0 .437.162.437.36v.718z" transform="translate(-1217 -535) translate(1120 279) translate(0 256) translate(97)"/>
                        <path fill="#8F9BB3" d="M7.621 15.953c-.605 0-1.095.483-1.095 1.078 0 .596.49 1.078 1.095 1.078s1.095-.482 1.095-1.078c.002-.594-.486-1.076-1.09-1.078h-.005zm2.998-6.36c-.095-.095-.25-.095-.346-.001L8.1 11.712l-.94-.934c-.096-.094-.25-.094-.347 0l-.58.566c-.095.094-.095.247 0 .341l1.685 1.676c.095.094.25.095.346 0l2.93-2.857c.096-.094.096-.247 0-.341l-.575-.57zm4.304-6.218C14.923 1.787 13.615.5 12.002.5c-1.613 0-2.92 1.287-2.92 2.875-1.614 0-2.921 1.287-2.921 2.875h11.682c0-1.588-1.307-2.875-2.92-2.875zm-2.921 1.078c-.605 0-1.095-.483-1.095-1.078 0-.595.49-1.078 1.095-1.078s1.095.483 1.095 1.078c.002.594-.486 1.077-1.09 1.078h-.005z" transform="translate(-1217 -535) translate(1120 279) translate(0 256) translate(97)"/>
                    </g>
                </g>
            </g>
        </g>
    </g>
</svg>
