<svg xmlns="http://www.w3.org/2000/svg" width="25" height="24" viewBox="0 0 25 24">
    <g fill="none" fill-rule="evenodd">
        <g>
            <g>
                <g>
                    <g>
                        <path d="M0 0H24V24H0z" transform="translate(-1409 -647) translate(1120 279) translate(0 368) translate(289)"/>
                        <g>
                            <path fill="#EDF1F7" d="M20.4 6h-5.25c-.414 0-.75-.336-.75-.75V0H3.525C2.905-.002 2.402.5 2.4 1.12v21.755c-.002.62.5 1.123 1.12 1.125h15.755c.62.002 1.123-.5 1.125-1.12V6z" transform="translate(-1409 -647) translate(1120 279) translate(0 368) translate(289) translate(.6)"/>
                            <path fill="#F7F9FC" d="M20.072 4.922L15.482.328c-.21-.21-.497-.329-.796-.328H14.4v5.25c0 .414.336.75.75.75h5.25v-.286c0-.297-.118-.582-.328-.792z" transform="translate(-1409 -647) translate(1120 279) translate(0 368) translate(289) translate(.6)"/>
                            <g>
                                <path d="M0 0H12V12H0z" transform="translate(-1409 -647) translate(1120 279) translate(0 368) translate(289) translate(.6) translate(5.4 10.8)"/>
                                <path fill="#C5CEE0" d="M9.75 4.903c0 1.424-1.154 2.578-2.578 2.578-.164 0-.325-.015-.481-.045l-.352.396c-.066.075-.162.118-.262.118H5.53v.586c0 .194-.157.351-.351.351h-.586v.586c0 .195-.158.352-.352.352h-1.64c-.195 0-.352-.157-.352-.352V8.33c0-.093.037-.183.103-.249l2.37-2.37c-.084-.254-.13-.526-.13-.808 0-1.424 1.155-2.578 2.579-2.578 1.428 0 2.578 1.15 2.578 2.578zM7.172 4.2c0 .388.315.703.703.703.388 0 .703-.315.703-.703 0-.388-.315-.703-.703-.703-.388 0-.703.315-.703.703z" transform="translate(-1409 -647) translate(1120 279) translate(0 368) translate(289) translate(.6) translate(5.4 10.8)"/>
                            </g>
                            <g transform="translate(-1409 -647) translate(1120 279) translate(0 368) translate(289) translate(.6) translate(0 2.4)">
                                <rect width="12" height="7.2" fill="#FFD044" rx=".6"/>
                                <path fill="#FFF" fill-rule="nonzero" d="M2.89 5.475l.229-.77h1.155l.24.77h.794l-1.19-3.378h-.804l-1.19 3.378h.766zm1.233-1.297h-.848l.42-1.414.428 1.414zM6.44 5.475V4.242h.58c.35 0 .629-.096.833-.288.205-.192.308-.453.308-.785 0-.331-.103-.593-.308-.785-.204-.192-.482-.287-.833-.287H5.727v3.378h.712zm.497-1.78h-.497V2.644h.497c.162 0 .287.044.373.134.086.09.13.22.13.392 0 .172-.044.303-.13.393-.086.089-.21.134-.373.134zm2.56 1.78V2.097h-.732v3.378h.731z"/>
                            </g>
                        </g>
                    </g>
                </g>
            </g>
        </g>
    </g>
</svg>
