<svg xmlns="http://www.w3.org/2000/svg" width="25" height="24" viewBox="0 0 25 24">
    <g fill="none" fill-rule="evenodd">
        <g>
            <g>
                <g>
                    <g>
                        <path d="M0 0H24V24H0z" transform="translate(-1456 -647) translate(1120 279) translate(0 368) translate(336)"/>
                        <g>
                            <path fill="#EDF1F7" d="M20.4 6h-5.25c-.414 0-.75-.336-.75-.75V0H3.525C2.905-.002 2.402.5 2.4 1.12v21.755c-.002.62.5 1.123 1.12 1.125h15.755c.62.002 1.123-.5 1.125-1.12V6z" transform="translate(-1456 -647) translate(1120 279) translate(0 368) translate(336) translate(.6)"/>
                            <path fill="#F7F9FC" d="M20.072 4.922L15.482.328c-.21-.21-.497-.329-.796-.328H14.4v5.25c0 .414.336.75.75.75h5.25v-.286c0-.297-.118-.582-.328-.792z" transform="translate(-1456 -647) translate(1120 279) translate(0 368) translate(336) translate(.6)"/>
                            <g>
                                <path d="M0 0H12V12H0z" transform="translate(-1456 -647) translate(1120 279) translate(0 368) translate(336) translate(.6) translate(5.25 10.875)"/>
                                <path fill="#C5CEE0" d="M9.75 4.903c0 1.424-1.154 2.578-2.578 2.578-.164 0-.325-.015-.481-.045l-.352.396c-.066.075-.162.118-.262.118H5.53v.586c0 .194-.157.351-.351.351h-.586v.586c0 .195-.158.352-.352.352h-1.64c-.195 0-.352-.157-.352-.352V8.33c0-.093.037-.183.103-.249l2.37-2.37c-.084-.254-.13-.526-.13-.808 0-1.424 1.155-2.578 2.579-2.578 1.428 0 2.578 1.15 2.578 2.578zM7.172 4.2c0 .388.315.703.703.703.388 0 .703-.315.703-.703 0-.388-.315-.703-.703-.703-.388 0-.703.315-.703.703z" transform="translate(-1456 -647) translate(1120 279) translate(0 368) translate(336) translate(.6) translate(5.25 10.875)"/>
                            </g>
                            <g transform="translate(-1456 -647) translate(1120 279) translate(0 368) translate(336) translate(.6) translate(0 2.4)">
                                <rect width="12" height="7.2" fill="#FFD044" rx=".6"/>
                                <path fill="#FFF" fill-rule="nonzero" d="M1.8 5.164c.573 0 .859-.304.859-.912v-1.75h-.563v1.762c0 .157-.029.27-.086.335-.057.067-.154.1-.289.1-.127 0-.261-.018-.401-.053v.431c.09.03.171.052.244.066.072.014.151.02.236.02zm2.134 0c.322 0 .576-.075.761-.223.185-.15.277-.352.277-.61 0-.182-.049-.33-.148-.444-.098-.114-.264-.213-.497-.298l-.277-.102c-.14-.05-.236-.097-.287-.142-.051-.045-.077-.103-.077-.173 0-.19.148-.285.443-.285.207 0 .432.038.675.113v-.428c-.235-.09-.475-.135-.72-.135-.293 0-.526.07-.7.21-.173.14-.26.328-.26.563 0 .182.048.333.146.452.098.119.257.22.48.302l.285.105c.147.055.246.105.294.15.05.045.074.106.074.183 0 .1-.04.177-.12.231-.08.054-.194.08-.342.08-.115 0-.244-.01-.386-.033-.143-.023-.276-.053-.401-.09v.427c.1.045.22.081.36.107.14.027.28.04.42.04zm2.659 0c.264 0 .493-.057.684-.169.191-.113.336-.271.435-.476.099-.205.148-.445.148-.72 0-.285-.052-.53-.156-.733-.103-.204-.25-.36-.44-.467-.19-.108-.414-.162-.671-.162-.266 0-.494.056-.685.167-.191.112-.336.27-.435.475-.099.205-.148.445-.148.72 0 .285.052.53.156.735.103.205.25.361.44.468.19.108.414.162.671.162zm0-.458c-.226 0-.397-.077-.514-.232-.118-.155-.176-.38-.176-.675 0-.295.058-.52.176-.673.117-.154.288-.231.514-.231.224 0 .396.077.513.23.118.154.176.379.176.674 0 .295-.058.52-.176.675-.117.155-.288.232-.513.232zM8.88 5.1V3.296L9.937 5.1h.6V2.501h-.495V4.32L8.986 2.501h-.6V5.1h.495z"/>
                            </g>
                        </g>
                    </g>
                </g>
            </g>
        </g>
    </g>
</svg>
