<svg xmlns="http://www.w3.org/2000/svg" width="25" height="24" viewBox="0 0 25 24">
    <g fill="none" fill-rule="evenodd">
        <g>
            <g>
                <g>
                    <g>
                        <path d="M0 0H24V24H0z" transform="translate(-1168 -647) translate(1120 279) translate(0 368) translate(48)"/>
                        <g>
                            <path fill="#EDF1F7" d="M20.4 6h-5.25c-.414 0-.75-.336-.75-.75V0H3.525C2.905-.002 2.402.5 2.4 1.12v21.755c-.002.62.5 1.123 1.12 1.125h15.755c.62.002 1.123-.5 1.125-1.12V6z" transform="translate(-1168 -647) translate(1120 279) translate(0 368) translate(48) translate(.6)"/>
                            <path fill="#F7F9FC" d="M20.072 4.922L15.482.328c-.21-.21-.497-.329-.796-.328H14.4v5.25c0 .414.336.75.75.75h5.25v-.286c0-.297-.118-.582-.328-.792z" transform="translate(-1168 -647) translate(1120 279) translate(0 368) translate(48) translate(.6)"/>
                            <g>
                                <path d="M0 0H12V12H0z" transform="translate(-1168 -647) translate(1120 279) translate(0 368) translate(48) translate(.6) translate(5.4 10.8)"/>
                                <path fill="#C5CEE0" d="M5.96 4.113c.061-.106.025-.243-.081-.304L5.3 3.476c-.106-.061-.243-.024-.304.082l-.885 1.55-.977 1.707-.815 1.426c-.061.106-.024.243.082.303l.578.334c.105.061.242.024.304-.082l1.132-1.981.732-1.28.813-1.422zM2.944 5.965h-1.21c-.294 0-.533.237-.533.53v.53c0 .292.239.529.533.529h.25l.96-1.59zm2.558 0l-.889 1.589H7.75l-.8-1.59H5.501zm-2.71 3.168L2.213 8.8c-.106-.06-.203-.01-.217.111l-.1.874c-.015.121.057.165.158.096l.746-.51c.101-.07.097-.177-.01-.238zm7.476-3.168H9.13l.915 1.589h.222c.294 0 .533-.237.533-.53v-.53c0-.292-.239-.53-.533-.53zm-1.165.872c-.004-.005-.008-.014-.012-.022-.054-.1-.188-.359-.365-.696-.002-.004-.005-.008-.006-.013l-.042-.08-.03-.057-.026-.05c-.017-.03-.032-.06-.048-.091l-.016-.029-.054-.104-.016-.03C8.08 4.892 7.568 3.94 7.252 3.44c-.552-.877-1.29-2.338-1.495-2.235-.288.145.605 2 .9 2.697.295.697 1.448 3.369 1.68 3.485.23.117.32.052.475-.012.154-.065.43-.28.29-.538zm.574 2.145c-.087.083-.293.264-.044.616s.805.369.878.602c0 0 .174-1.79-.834-1.218zm.085-.768l-.275-.53c-.063-.12-.21-.17-.326-.11l-.332.172c-.117.06-.154.203-.082.317l.348.553c.072.114.224.151.337.083l.237-.143c.113-.068.154-.222.093-.342z" transform="translate(-1168 -647) translate(1120 279) translate(0 368) translate(48) translate(.6) translate(5.4 10.8)"/>
                            </g>
                            <g transform="translate(-1168 -647) translate(1120 279) translate(0 368) translate(48) translate(.6) translate(0 2.4)">
                                <rect width="12" height="7.2" fill="#4A99F9" rx=".6"/>
                                <path fill="#FFF" fill-rule="nonzero" d="M3.398 5.4V2.074h-.585V5.4h.585zm1.378 0V4.147h.662c.333 0 .596-.093.79-.278.194-.186.29-.439.29-.759s-.096-.572-.29-.758c-.194-.186-.457-.278-.79-.278H4.205V5.4h.571zm.605-1.704h-.605V2.525h.605c.185 0 .325.05.42.149.094.099.141.244.141.436s-.047.338-.141.437c-.095.1-.235.149-.42.149zM7.075 5.4l.269-.835h1.277l.278.835h.62L8.313 2.074H7.68L6.47 5.4h.605zm1.411-1.262H7.483l.5-1.536.503 1.536z"/>
                            </g>
                        </g>
                    </g>
                </g>
            </g>
        </g>
    </g>
</svg>
