<svg xmlns="http://www.w3.org/2000/svg" width="25" height="24" viewBox="0 0 25 24">
    <g fill="none" fill-rule="evenodd">
        <g>
            <g>
                <g>
                    <g>
                        <path d="M0 0H24V24H0z" transform="translate(-1312 -647) translate(1120 279) translate(0 368) translate(192)"/>
                        <g>
                            <path fill="#EDF1F7" d="M20.4 6h-5.25c-.414 0-.75-.336-.75-.75V0H3.525C2.905-.002 2.402.5 2.4 1.12v21.755c-.002.62.5 1.123 1.12 1.125h15.755c.62.002 1.123-.5 1.125-1.12V6z" transform="translate(-1312 -647) translate(1120 279) translate(0 368) translate(192) translate(.6)"/>
                            <path fill="#F7F9FC" d="M20.072 4.922L15.482.328c-.21-.21-.497-.329-.796-.328H14.4v5.25c0 .414.336.75.75.75h5.25v-.286c0-.297-.118-.582-.328-.792z" transform="translate(-1312 -647) translate(1120 279) translate(0 368) translate(192) translate(.6)"/>
                            <g>
                                <path d="M0 0H12V12H0z" transform="translate(-1312 -647) translate(1120 279) translate(0 368) translate(192) translate(.6) translate(5.4 10.8)"/>
                                <path fill="#C5CEE0" d="M8.724 5.673L4.598 3.082c-.335-.21-.848-.006-.848.514v5.18c0 .468.477.749.848.515L8.724 6.7c.368-.23.369-.798 0-1.028z" transform="translate(-1312 -647) translate(1120 279) translate(0 368) translate(192) translate(.6) translate(5.4 10.8)"/>
                            </g>
                            <g transform="translate(-1312 -647) translate(1120 279) translate(0 368) translate(192) translate(.6) translate(0 2.4)">
                                <rect width="12" height="7.2" fill="#FF463D" rx=".6"/>
                                <path fill="#FFF" fill-rule="nonzero" d="M1.361 5.331v-2.52l.853 1.672h.537l.882-1.682v2.53h.536V1.953h-.633L2.497 3.966 1.478 1.953H.825v3.378h.536zm5.075.083c.335 0 .624-.072.868-.217.244-.144.429-.35.556-.616.126-.267.19-.579.19-.936 0-.368-.067-.684-.2-.951-.133-.266-.321-.47-.563-.61-.242-.14-.526-.209-.85-.209-.336 0-.625.072-.869.217-.243.145-.429.35-.555.617-.127.266-.19.578-.19.936 0 .367.066.684.2.95.133.267.32.47.562.61.243.14.526.21.851.21zm0-.497c-.328 0-.578-.108-.75-.324-.173-.216-.259-.532-.259-.948 0-.416.086-.732.258-.949.173-.216.423-.324.751-.324s.579.108.75.324c.173.217.26.533.26.949 0 .416-.087.732-.26.948-.171.216-.422.324-.75.324zm3.642.414l1.228-3.378h-.633l-.898 2.793-.901-2.793H8.22L9.45 5.331h.629z"/>
                            </g>
                        </g>
                    </g>
                </g>
            </g>
        </g>
    </g>
</svg>
