<svg xmlns="http://www.w3.org/2000/svg" width="25" height="24" viewBox="0 0 25 24">
    <g fill="none" fill-rule="evenodd">
        <g>
            <g>
                <g>
                    <path d="M0 0H24V24H0z" transform="translate(-1120 -647) translate(1120 279) translate(0 368)"/>
                    <g>
                        <path fill="#EDF1F7" d="M20.4 6h-5.25c-.414 0-.75-.336-.75-.75V0H3.525C2.905-.002 2.402.5 2.4 1.12v21.755c-.002.62.5 1.123 1.12 1.125h15.755c.62.002 1.123-.5 1.125-1.12V6z" transform="translate(-1120 -647) translate(1120 279) translate(0 368) translate(.6)"/>
                        <path fill="#F7F9FC" d="M20.072 4.922L15.482.328c-.21-.21-.497-.329-.796-.328H14.4v5.25c0 .414.336.75.75.75h5.25v-.286c0-.297-.118-.582-.328-.792z" transform="translate(-1120 -647) translate(1120 279) translate(0 368) translate(.6)"/>
                        <g>
                            <path d="M0 0H12V12H0z" transform="translate(-1120 -647) translate(1120 279) translate(0 368) translate(.6) translate(5.4 10.8)"/>
                            <path fill="#C5CEE0" d="M8.342 4.627l.796-1.384c.045-.077.018-.176-.058-.22-.076-.046-.176-.02-.22.058l-.806 1.401C7.438 4.2 6.745 4.043 6 4.043c-.745 0-1.438.157-2.054.44L3.14 3.08c-.045-.078-.144-.104-.22-.059-.078.045-.104.144-.06.221l.797 1.384C2.284 5.373 1.354 6.767 1.2 8.4h9.6c-.154-1.632-1.084-3.027-2.458-3.773zm-4.546 2.42c-.223 0-.402-.18-.402-.403 0-.223.18-.404.402-.404.223 0 .402.182.402.404.001.222-.18.404-.402.404zm4.407 0c-.223 0-.402-.18-.402-.403 0-.223.18-.404.402-.404.223 0 .402.182.402.404.001.222-.18.404-.402.404z" transform="translate(-1120 -647) translate(1120 279) translate(0 368) translate(.6) translate(5.4 10.8)"/>
                        </g>
                        <g transform="translate(-1120 -647) translate(1120 279) translate(0 368) translate(.6) translate(0 2.4)">
                            <rect width="12" height="7.2" fill="#23B34A" rx=".6"/>
                            <path fill="#FFF" fill-rule="nonzero" d="M1.843 5.4l.269-.835h1.277l.278.835h.62L3.081 2.074h-.634L1.238 5.4h.605zm1.411-1.262H2.251l.5-1.536.503 1.536zM5.29 5.4V4.147h.662c.333 0 .596-.093.79-.278.193-.186.29-.439.29-.759s-.097-.572-.29-.758c-.194-.186-.457-.278-.79-.278H4.718V5.4h.572zm.604-1.704H5.29V2.525h.604c.186 0 .326.05.42.149.095.099.142.244.142.436s-.047.338-.142.437c-.094.1-.234.149-.42.149zM8.213 5.4V3.816L9.605 5.4h.73L8.77 3.643l1.416-1.57h-.672L8.213 3.539V2.074h-.586V5.4h.586z"/>
                        </g>
                    </g>
                </g>
            </g>
        </g>
    </g>
</svg>
