<svg xmlns="http://www.w3.org/2000/svg" width="24" height="24" viewBox="0 0 24 24">
    <g fill="none" fill-rule="evenodd">
        <g>
            <g>
                <g>
                    <g>
                        <path d="M0 0H24V24H0z" transform="translate(-1552 -535) translate(1120 279) translate(0 256) translate(432)"/>
                        <g>
                            <path fill="#475B7F" d="M15 5h-4.375C10.28 5 10 4.72 10 4.375V0H.937C.69 0 .452.097.276.272.1.447 0 .685 0 .932v18.13c0 .249.097.487.272.662.175.176.413.275.66.276h13.13c.249 0 .487-.097.662-.272.176-.175.275-.413.276-.66V5zM2.5 2.812c0-.172.14-.312.313-.312h3.124c.173 0 .313.14.313.313v.624c0 .173-.14.313-.313.313H2.813c-.172 0-.312-.14-.312-.313v-.624zm0 2.5c0-.172.14-.312.313-.312h3.124c.173 0 .313.14.313.313v.625c0 .172-.14.312-.313.312H2.813c-.172 0-.312-.14-.312-.313v-.625zm9.375 10.938h-1.843c-.64.002-1.225-.36-1.51-.932-.07-.156-.226-.256-.397-.255-.166-.002-.319.092-.39.242l-.3.6c-.106.211-.323.345-.56.345-.015 0-.03 0-.045-.002-.25-.018-.467-.186-.546-.425l-.659-1.972-.414 1.245c-.23.69-.875 1.155-1.602 1.154h-.484c-.345 0-.625-.28-.625-.625S2.78 15 3.125 15h.484c.188 0 .355-.12.414-.3l.711-2.134c.127-.383.486-.641.89-.641.403 0 .762.258.89.641l.541 1.627c.774-.632 2.113-.379 2.579.553.073.154.227.252.396.254h1.845c.345 0 .625.28.625.625s-.28.625-.625.625z" transform="translate(-1552 -535) translate(1120 279) translate(0 256) translate(432) translate(5 2)"/>
                            <path fill="#8F9BB3" d="M14.727 4.102L10.902.273C10.726.098 10.487 0 10.238 0H10v4.375c0 .345.28.625.625.625H15v-.238c0-.248-.098-.485-.273-.66zM11.875 15h-1.843c-.17-.002-.324-.1-.397-.254-.469-.932-1.806-1.185-2.578-.553l-.544-1.627c-.127-.383-.486-.641-.89-.641-.403 0-.762.258-.889.641l-.71 2.135c-.06.178-.227.299-.415.299h-.484c-.345 0-.625.28-.625.625s.28.625.625.625h.484c.727 0 1.372-.464 1.602-1.154l.414-1.245.659 1.972c.08.239.295.407.546.425.015.002.03.002.045.002.237 0 .454-.134.56-.346l.3-.599c.071-.15.224-.244.39-.242.171 0 .327.099.397.255.285.573.87.934 1.51.932h1.843c.345 0 .625-.28.625-.625S12.22 15 11.875 15z" transform="translate(-1552 -535) translate(1120 279) translate(0 256) translate(432) translate(5 2)"/>
                        </g>
                    </g>
                </g>
            </g>
        </g>
    </g>
</svg>
