<svg xmlns="http://www.w3.org/2000/svg" width="25" height="24" viewBox="0 0 25 24"><g fill="none" fill-rule="evenodd"><g><g><g><g><path d="M0 0H24V24H0z" transform="translate(-1360 -647) translate(1120 279) translate(0 368) translate(240)"/><g><path fill="#EDF1F7" d="M20.4 6h-5.25c-.414 0-.75-.336-.75-.75V0H3.525C2.905-.002 2.402.5 2.4 1.12v21.755c-.002.62.5 1.123 1.12 1.125h15.755c.62.002 1.123-.5 1.125-1.12V6z" transform="translate(-1360 -647) translate(1120 279) translate(0 368) translate(240) translate(.6)"/><path fill="#F7F9FC" d="M20.072 4.922L15.482.328c-.21-.21-.497-.329-.796-.328H14.4v5.25c0 .414.336.75.75.75h5.25v-.286c0-.297-.118-.582-.328-.792z" transform="translate(-1360 -647) translate(1120 279) translate(0 368) translate(240) translate(.6)"/><g><path d="M0 0H12V12H0z" transform="translate(-1360 -647) translate(1120 279) translate(0 368) translate(240) translate(.6) translate(5.4 10.8)"/><path fill="#C5CEE0" d="M8.292 6.953v1.845l1.255.884c.244.172.578-.003.578-.302V6.37c0-.298-.333-.474-.577-.303l-1.256.886zm-6.188-.484c-.126 0-.229.105-.229.234v.469c0 .13.103.234.23.234h.687V9.05c0 .386.306.7.684.7H7.15c.378 0 .684-.314.684-.7V7.169c0-.387-.306-.7-.684-.7H2.104zm3.209-3.234c-.311-.584-.909-.985-1.605-.985-1.012 0-1.833.84-1.833 1.875C1.875 5.161 2.695 6 3.708 6h3.209C7.929 6 8.75 5.16 8.75 4.125c0-1.036-.82-1.875-1.833-1.875-.696 0-1.294.4-1.604.985zm-2.521.89c0-.518.41-.938.916-.938.507 0 .917.42.917.938s-.41.937-.917.937c-.506 0-.916-.42-.916-.937zm3.208 0c0-.518.41-.938.917-.938.506 0 .917.42.917.938-.001.518-.411.937-.917.937S6 4.642 6 4.125z" transform="translate(-1360 -647) translate(1120 279) translate(0 368) translate(240) translate(.6) translate(5.4 10.8)"/></g><g transform="translate(-1360 -647) translate(1120 279) translate(0 368) translate(240) translate(.6) translate(0 2.4)"><rect width="12" height="7.2" fill="#FF463D" rx=".6"/><path fill="#FFF" fill-rule="nonzero" d="M1.834 5.328v-2.52l.853 1.672h.536l.883-1.682v2.53h.536V1.95h-.634L2.97 3.963 1.95 1.95h-.652v3.378h.536zm4.187 0V4.056h.673c.338 0 .605-.094.802-.283.197-.188.295-.445.295-.77s-.098-.582-.295-.77c-.197-.189-.464-.283-.802-.283H5.441v3.378h.58zm.615-1.73H6.02v-1.19h.615c.188 0 .33.05.426.151.096.101.144.249.144.444s-.048.343-.144.444c-.096.1-.238.15-.426.15zm3.612 1.73v-.702h.453v-.458h-.453V1.95h-.546L8.127 4.192v.434h1.6v.702h.521zm-.522-1.16H8.688l1.038-1.487v1.487z"/></g></g></g></g></g></g></g></svg>