<svg xmlns="http://www.w3.org/2000/svg" width="24" height="24" viewBox="0 0 24 24"><g fill="none" fill-rule="evenodd"><g><g><g><path d="M0 0H24V24H0z" transform="translate(-1456 -279) translate(1120 279) translate(336)"/><g><path fill="#8F9BB3" d="M0 11.814h2.4c.663 0 1.2-.529 1.2-1.181V2.37H0v9.444zm1.8-2.36c.331 0 .6.265.6.592 0 .326-.269.59-.6.59-.331 0-.6-.264-.6-.59 0-.327.269-.591.6-.591zM17.149.348C16.925.125 16.619 0 16.3 0H13.08c-.3 0-.589.11-.81.31L8.584 3.633l-.011.015c-.599.55-.634 1.474-.08 2.067.477.513 1.478.65 2.105.1.003-.004.01-.004.015-.008l2.996-2.702c.249-.215.628-.19.846.055.212.238.196.598-.036.816l-.979.883 5.46 4.363c.106.087.205.183.296.285V2.363L17.15.347z" transform="translate(-1456 -279) translate(1120 279) translate(336) translate(0 4.91)"/><path fill="#4350F7" d="M20.4 2.37v8.266c0 .653.537 1.182 1.2 1.182H24V2.37h-3.6zm1.8 8.266c-.331 0-.6-.264-.6-.59 0-.327.269-.591.6-.591.331 0 .6.264.6.59 0 .327-.269.591-.6.591zm-4.054-.494l-5.599-4.475-1.125 1.015c-1.122.967-2.828.854-3.81-.25-.949-1.069-.878-2.683.162-3.667L10.84 0H7.7c-.318 0-.623.125-.848.347L4.8 2.363v8.266h.686l3.394 3.024c1.028.822 2.54.668 3.375-.344l.008-.007.67.572c.598.478 1.475.39 1.961-.198l.001-.001 1.178-1.425.202.162c.515.41 1.27.333 1.688-.173l.356-.432c.42-.507.342-1.252-.173-1.665z" transform="translate(-1456 -279) translate(1120 279) translate(336) translate(0 4.91)"/></g></g></g></g></g></svg>