<svg xmlns="http://www.w3.org/2000/svg" width="25" height="24" viewBox="0 0 25 24"><g fill="none" fill-rule="evenodd"><g><g><g><g><path d="M0 0H24V24H0z" transform="translate(-1504 -383) translate(1120 279) translate(0 104) translate(384)"/><g><path fill="#8F9BB3" d="M13.999 17.983V14c0-.368-.299-.667-.667-.667h-2.667c-.368 0-.666.299-.666.667v3.988c0 .367-.297.665-.664.667l-4.67.012C4.297 18.667 4 18.368 4 18v-6.83l7.683-6.328c.186-.15.451-.15.637 0l7.68 6.325V18c0 .368-.299.667-.667.667l-4.667-.013c-.368 0-.666-.299-.666-.667v-.004z" transform="translate(-1504 -383) translate(1120 279) translate(0 104) translate(384) translate(.001 2.667)"/><path fill="#4350F7" d="M23.887 9.848l-1.063 1.292c-.175.213-.49.244-.703.069l-9.802-8.075c-.186-.15-.451-.15-.637 0L1.88 11.208c-.214.176-.529.145-.704-.068L.114 9.848c-.175-.213-.145-.528.068-.704L10.727.458c.739-.607 1.804-.607 2.542 0l3.73 3.067V.5c0-.276.223-.5.5-.5h2.333c.276 0 .5.224.5.5v5.771l3.483 2.872c.215.173.248.488.074.703l-.002.002z" transform="translate(-1504 -383) translate(1120 279) translate(0 104) translate(384) translate(.001 2.667)"/></g></g></g></g></g></g></svg>