<svg xmlns="http://www.w3.org/2000/svg" width="24" height="24" viewBox="0 0 24 24">
    <g fill="none" fill-rule="evenodd">
        <g>
            <g>
                <g>
                    <g>
                        <path d="M0 0H24V24H0z" transform="translate(-1312 -535) translate(1120 279) translate(0 256) translate(192)"/>
                        <path fill="#475B7F" d="M19.333 4.833L3.444 9.723v4.888l3.886 1.196c-.68 1.907.314 4.005 2.22 4.685 1.908.68 4.006-.314 4.686-2.221.037-.102.069-.205.096-.31l5.001 1.539V4.833zM10.778 18.89c-1.013 0-1.833-.821-1.833-1.834 0-.243.048-.483.142-.708l3.486 1.073c-.174.854-.924 1.467-1.795 1.469z" transform="translate(-1312 -535) translate(1120 279) translate(0 256) translate(192)"/>
                        <path fill="#8F9BB3" d="M22.389 3.611h-1.222c-.338 0-.611.274-.611.611v15.89c0 .337.273.61.61.61h1.223c.337 0 .611-.273.611-.61V4.221c0-.337-.274-.61-.611-.61zM2.222 8.5C1.547 8.5 1 9.047 1 9.722v4.89c0 .674.547 1.221 1.222 1.221.675 0 1.222-.547 1.222-1.222V9.722c0-.675-.547-1.222-1.222-1.222z" transform="translate(-1312 -535) translate(1120 279) translate(0 256) translate(192)"/>
                    </g>
                </g>
            </g>
        </g>
    </g>
</svg>
