<svg xmlns="http://www.w3.org/2000/svg" width="25" height="24" viewBox="0 0 25 24"><g fill="none" fill-rule="evenodd"><g><g><g><g><path fill="#0364B8" fill-rule="nonzero" d="M21.446 1.5H8.553C7.97 1.5 7.5 1.97 7.5 2.553V3.75L14.767 6l7.732-2.25V2.553c0-.582-.472-1.053-1.053-1.053z" transform="translate(-1264 -695) translate(1120 279) translate(0 416) translate(144)"/><path fill="#0A2767" fill-rule="nonzero" d="M23.736 13.053c.11-.345.198-.697.263-1.054 0-.178-.096-.343-.25-.432l-.01-.006-.003-.001-8.128-4.63c-.035-.023-.071-.044-.109-.063-.315-.156-.685-.156-1 0-.037.019-.074.04-.109.062L6.262 11.56l-.003.001-.009.005c-.154.09-.25.254-.25.432.065.357.152.709.262 1.054l8.619 6.303 8.855-6.303z" transform="translate(-1264 -695) translate(1120 279) translate(0 416) translate(144)"/><path fill="#28A8EA" fill-rule="nonzero" d="M17.999 3.75L12.749 3.75 11.234 6 12.749 8.25 17.999 12.749 22.499 12.749 22.499 8.25z" transform="translate(-1264 -695) translate(1120 279) translate(0 416) translate(144)"/><path fill="#0078D4" fill-rule="nonzero" d="M7.5 3.75L12.749 3.75 12.749 8.25 7.5 8.25z" transform="translate(-1264 -695) translate(1120 279) translate(0 416) translate(144)"/><path fill="#50D9FF" fill-rule="nonzero" d="M17.999 3.75L22.499 3.75 22.499 8.25 17.999 8.25z" transform="translate(-1264 -695) translate(1120 279) translate(0 416) translate(144)"/><path fill="#0364B8" fill-rule="nonzero" d="M17.999 12.749L12.749 8.25 7.5 8.25 7.5 12.749 12.749 17.249 20.873 18.575z" transform="translate(-1264 -695) translate(1120 279) translate(0 416) translate(144)"/><path d="M7.523 3.75L22.499 3.75" transform="translate(-1264 -695) translate(1120 279) translate(0 416) translate(144)"/><path fill="#0078D4" fill-rule="nonzero" d="M12.749 8.25L17.999 8.25 17.999 12.749 12.749 12.749z" transform="translate(-1264 -695) translate(1120 279) translate(0 416) translate(144)"/><path fill="#064A8C" fill-rule="nonzero" d="M7.5 12.749L12.749 12.749 12.749 17.249 7.5 17.249z" transform="translate(-1264 -695) translate(1120 279) translate(0 416) translate(144)"/><path fill="#0078D4" fill-rule="nonzero" d="M17.999 12.749L22.499 12.749 22.499 17.249 17.999 17.249z" transform="translate(-1264 -695) translate(1120 279) translate(0 416) translate(144)"/><path fill="#0A2767" fill-rule="nonzero" d="M15.142 18.912l-8.845-6.45.372-.652 8.181 4.66c.102.04.216.037.315-.01l8.2-4.672.371.652-8.594 6.472z" opacity=".5" transform="translate(-1264 -695) translate(1120 279) translate(0 416) translate(144)"/><path fill="#1490DF" fill-rule="nonzero" d="M23.749 12.432l-.01.006-.003.002-8.128 4.63c-.328.211-.743.237-1.095.068l2.83 3.796 6.19 1.347v.003c.293-.211.466-.55.466-.91v-9.375c0 .179-.095.344-.25.433z" transform="translate(-1264 -695) translate(1120 279) translate(0 416) translate(144)"/><path fill="#000" fill-rule="nonzero" d="M23.999 21.374v-.554l-7.487-4.265-.904.515c-.328.211-.743.237-1.095.068l2.83 3.796 6.19 1.347v.003c.293-.211.466-.55.466-.91z" opacity=".05" transform="translate(-1264 -695) translate(1120 279) translate(0 416) translate(144)"/><path fill="#000" fill-rule="nonzero" d="M23.961 21.661l-8.207-4.674-.146.082c-.328.212-.743.238-1.095.07l2.83 3.795 6.19 1.347v.003c.21-.152.362-.372.428-.622z" opacity=".1" transform="translate(-1264 -695) translate(1120 279) translate(0 416) translate(144)"/><path fill="#28A8EA" fill-rule="nonzero" d="M6.262 12.442v-.008h-.007l-.023-.015c-.146-.09-.234-.249-.232-.42v9.375c0 .298.118.585.329.796.21.21.497.33.796.329h15.749c.093-.001.187-.014.277-.038.047-.008.093-.023.135-.045.016-.001.032-.006.045-.015.062-.025.12-.058.173-.097.015-.008.022-.008.03-.023l-17.272-9.84z" transform="translate(-1264 -695) translate(1120 279) translate(0 416) translate(144)"/><path fill="#000" fill-rule="nonzero" d="M13.5 18.5V6.25c-.002-.552-.449-.999-1-1H7.522v5.591l-1.26.719-.004.001-.009.006c-.154.089-.25.254-.25.432v.004V12v7.5h6.5c.552-.002.999-.448 1-1z" opacity=".1" transform="translate(-1264 -695) translate(1120 279) translate(0 416) translate(144)"/><path fill="#000" fill-rule="nonzero" d="M12.75 19.25V7c-.002-.552-.449-.999-1-1H7.522v4.841l-1.26.719-.004.001-.009.006c-.154.089-.25.254-.25.432v.004V12v8.25h5.75c.552-.002.999-.448 1-1z" opacity=".2" transform="translate(-1264 -695) translate(1120 279) translate(0 416) translate(144)"/><path fill="#000" fill-rule="nonzero" d="M12.75 17.75V7c-.002-.552-.449-.999-1-1H7.522v4.841l-1.26.719-.004.001-.009.006c-.154.089-.25.254-.25.432v.004V12v6.75h5.75c.552-.002.999-.448 1-1z" opacity=".2" transform="translate(-1264 -695) translate(1120 279) translate(0 416) translate(144)"/><path fill="#000" fill-rule="nonzero" d="M12 17.75V7c-.002-.552-.449-.999-1-1H7.522v4.841l-1.26.719-.004.001-.009.006c-.154.089-.25.254-.25.432v.004V12v6.75h5c.552-.002.999-.448 1-1z" opacity=".2" transform="translate(-1264 -695) translate(1120 279) translate(0 416) translate(144)"/><path fill="#0078D4" fill-rule="nonzero" d="M1 6h10c.552 0 1 .447 1 1v10c0 .551-.448.999-1 .999H1c-.552 0-1-.448-1-1V7c0-.552.448-1 1-1z" transform="translate(-1264 -695) translate(1120 279) translate(0 416) translate(144)"/><path fill="#FFF" fill-rule="nonzero" d="M2.9 10.1c.266-.566.695-1.04 1.232-1.36.594-.34 1.272-.51 1.957-.49.634-.014 1.26.147 1.81.465.517.307.933.759 1.198 1.3.289.595.433 1.25.42 1.912.014.69-.134 1.375-.433 1.999-.27.56-.7 1.027-1.233 1.345-.571.328-1.221.494-1.88.478-.647.016-1.288-.147-1.85-.47-.521-.309-.942-.76-1.213-1.302-.291-.587-.437-1.234-.426-1.89-.012-.685.13-1.364.418-1.987zm1.313 3.194c.141.358.381.668.692.895.316.222.696.336 1.082.326.411.016.817-.102 1.156-.336.307-.227.54-.54.672-.898.148-.4.22-.823.215-1.249.004-.43-.064-.857-.203-1.264-.122-.366-.348-.69-.65-.93-.329-.246-.733-.372-1.144-.355-.395-.01-.783.106-1.108.33-.317.227-.562.54-.708.902-.322.83-.324 1.749-.005 2.58v-.001z" transform="translate(-1264 -695) translate(1120 279) translate(0 416) translate(144)"/><path d="M0 0L23.999 0 23.999 23.999 0 23.999z" transform="translate(-1264 -695) translate(1120 279) translate(0 416) translate(144)"/></g></g></g></g></g></svg>