<svg xmlns="http://www.w3.org/2000/svg" width="24" height="24" viewBox="0 0 24 24"><g fill="none" fill-rule="evenodd"><g><g><g><path d="M0 0H24V24H0z" transform="translate(-1120 -535) translate(1120 279) translate(0 256)"/><path fill="#475B7F" d="M16.363 19.705c.277.281.256.758-.064.988-1.6 1.153-3.509 1.784-5.471 1.806-5.184.065-9.646-4.244-9.822-9.5C.834 7.884 4.519 3.614 9.338 2.923c.382-.055.721.267.721.659v9.732l6.304 6.392z" transform="translate(-1120 -535) translate(1120 279) translate(0 256)"/><path fill="#8F9BB3" d="M21.707 10.655c-.335-4.9-4.196-8.814-9.027-9.154-.369-.024-.68.291-.68.666v9.177h9.05c.37 0 .68-.315.657-.689zm.638 2.658H12.75l6.39 6.48c.242.246.647.267.897.027 1.605-1.528 2.648-3.566 2.958-5.777.055-.386-.262-.73-.649-.73z" transform="translate(-1120 -535) translate(1120 279) translate(0 256)"/></g></g></g></g></svg>