<svg xmlns="http://www.w3.org/2000/svg" width="24" height="24" viewBox="0 0 24 24">
    <g fill="none" fill-rule="evenodd">
        <g>
            <g>
                <g>
                    <g transform="translate(-1456 -431) translate(1120 279) translate(0 152) translate(336)">
                        <circle cx="12" cy="12" r="12" fill="#E4E9F2"/>
                        <path fill="#475B7F" d="M17.5 11H13V6.5c0-.276-.224-.5-.5-.5h-1c-.276 0-.5.224-.5.5V11H6.5c-.276 0-.5.224-.5.5v1c0 .276.224.5.5.5H11v4.5c0 .276.224.5.5.5h1c.276 0 .5-.224.5-.5V13h4.5c.276 0 .5-.224.5-.5v-1c0-.276-.224-.5-.5-.5z"/>
                    </g>
                </g>
            </g>
        </g>
    </g>
</svg>
