<svg xmlns="http://www.w3.org/2000/svg" width="24" height="24" viewBox="0 0 24 24">
    <g fill="none" fill-rule="evenodd">
        <g>
            <g>
                <g>
                    <g>
                        <path d="M0 0H24V24H0z" transform="translate(-1409 -535) translate(1120 279) translate(0 256) translate(289)"/>
                        <path fill="#475B7F" d="M7 10v7.765h10V10h1.25v7.765h1.563c.517 0 .937.474.937 1.059v1.764h.625c.345 0 .625.316.625.706v.353c0 .195-.14.353-.313.353H2.313C2.14 22 2 21.842 2 21.647v-.353c0-.39.28-.706.625-.706h.625v-1.764c0-.585.42-1.06.938-1.06H5.75V10H7zm4.407-7.892c.385-.144.801-.144 1.186 0l9.105 4.442c.182.077.302.273.302.49v.385c0 .29-.21.525-.469.525h-.781v.525c0 .29-.21.525-.469.525H3.72c-.26 0-.469-.235-.469-.525V7.95h-.781c-.26 0-.469-.235-.469-.525v-.384c0-.218.12-.414.302-.491z" transform="translate(-1409 -535) translate(1120 279) translate(0 256) translate(289)"/>
                        <path fill="#8F9BB3" d="M11.85 15.1c.469 0 .85.381.85.85 0 .435-.329.795-.751.844l-.099.006-.099-.006c-.422-.049-.751-.409-.751-.844 0-.159.044-.308.12-.434l.013-.021c.15-.237.416-.395.717-.395zm.04-5.1c1.137 0 2.35.91 2.35 2.11 0 1.523-1.574 1.62-1.707 2.14l-.01.074v.028l-.008.066c-.022.084-.087.15-.169.173l-.064.009-.966-.019-.064-.008c-.082-.024-.147-.09-.17-.174l-.008-.066v-.083l.008-.163c.064-.626.376-.813.777-1.052l.326-.189c.33-.195.662-.519.662-.794 0-.487-.53-.794-1.073-.794-.549 0-.847.325-1.207.794-.027.035-.062.06-.1.076l-.059.016h-.061c-.02-.003-.04-.008-.06-.016l-.056-.032-.635-.441-.045-.045c-.063-.083-.07-.2-.01-.291.55-.844 1.251-1.319 2.35-1.319z" transform="translate(-1409 -535) translate(1120 279) translate(0 256) translate(289)"/>
                    </g>
                </g>
            </g>
        </g>
    </g>
</svg>
