<svg xmlns="http://www.w3.org/2000/svg" width="24" height="24" viewBox="0 0 24 24">
    <g fill="none" fill-rule="evenodd">
        <g>
            <g>
                <g>
                    <g transform="translate(-1456 -383) translate(1120 279) translate(0 104) translate(336)">
                        <path d="M0 0H24V24H0z"/>
                        <path fill="#EDF1F7" d="M18 2c2.21 0 4 1.79 4 4v12c0 2.21-1.79 4-4 4H6c-2.21 0-4-1.79-4-4V6c0-2.21 1.79-4 4-4h12zm0 1H6C4.402 3 3.096 4.249 3.005 5.824L3 6v12c0 1.598 1.249 2.904 2.824 2.995L6 21h12c1.598 0 2.904-1.249 2.995-2.824L21 18V6c0-1.598-1.249-2.904-2.824-2.995L18 3z"/>
                        <rect width="18" height="18" x="3" y="3" fill="#4350F7" rx="3"/>
                    </g>
                </g>
            </g>
        </g>
    </g>
</svg>
