<svg xmlns="http://www.w3.org/2000/svg" width="25" height="24" viewBox="0 0 25 24">
    <g fill="none" fill-rule="evenodd">
        <g>
            <g>
                <g>
                    <g>
                        <path d="M0 0H24V24H0z" transform="translate(-1552 -383) translate(1120 279) translate(0 104) translate(432)"/>
                        <path fill="#8F9BB3" d="M17.134 10.214c.762-.169 1.577-.176 2.379 0 .119.025.205.13.205.25v1.047c.485.17.934.422 1.326.75l.927-.525c.108-.06.241-.038.324.05.539.57.952 1.258 1.193 2.018.036.116-.01.239-.119.298l-.927.524c.094.496.094 1.002 0 1.498l.927.524c.105.06.155.182.119.298-.24.76-.654 1.449-1.193 2.018-.083.088-.22.11-.324.05l-.927-.524c-.392.327-.841.58-1.326.749v1.047c0 .12-.086.225-.205.25-.762.169-1.578.176-2.38 0-.118-.025-.204-.13-.204-.25V19.24c-.485-.17-.935-.422-1.326-.75l-.928.525c-.108.06-.24.038-.323-.05-.54-.573-.953-1.258-1.193-2.018-.036-.116.01-.239.118-.298l.927-.524c-.093-.496-.093-1.002 0-1.498l-.927-.524c-.104-.06-.154-.182-.118-.298.24-.76.654-1.449 1.193-2.018.082-.088.219-.11.323-.05l.928.524c.391-.327.84-.58 1.326-.749v-1.047c0-.12.086-.225.205-.25zm1.193 3.456c-.96 0-1.743.766-1.743 1.705 0 .939.78 1.705 1.743 1.705.963 0 1.743-.766 1.743-1.705 0-.939-.783-1.705-1.743-1.705z" transform="translate(-1552 -383) translate(1120 279) translate(0 104) translate(432)"/>
                        <path fill="#4350F7" d="M8.55 12c2.542 0 4.601-2.014 4.601-4.5S11.091 3 8.551 3c-2.541 0-4.6 2.014-4.6 4.5S6.01 12 8.55 12zm7.232 7.963c-.082-.042-.165-.092-.244-.137l-.284.162c-.216.119-.46.186-.705.186-.391 0-.769-.162-1.038-.443-.658-.696-1.161-1.544-1.445-2.447-.198-.622.068-1.28.643-1.607l.284-.161c-.003-.092-.003-.183 0-.275l-.284-.161c-.575-.324-.84-.985-.643-1.607.032-.102.079-.204.115-.306-.137-.01-.27-.042-.41-.042h-.6c-.798.359-1.686.563-2.62.563-.935 0-1.819-.204-2.62-.563h-.6C2.664 13.125.5 15.241.5 17.85v1.462C.5 20.244 1.273 21 2.225 21h12.652c.363 0 .7-.113.977-.299-.043-.133-.072-.27-.072-.415v-.323z" transform="translate(-1552 -383) translate(1120 279) translate(0 104) translate(432)"/>
                    </g>
                </g>
            </g>
        </g>
    </g>
</svg>
