<svg xmlns="http://www.w3.org/2000/svg" width="24" height="24" viewBox="0 0 24 24"><g fill="none" fill-rule="evenodd"><g><g><g><g><path d="M0 0H24V24H0z" transform="translate(-1504 -535) translate(1120 279) translate(0 256) translate(384)"/><path fill="#475B7F" d="M22.685 8.746c.154.159.152.41-.003.568l-4.769 4.731c-.157.156-.41.155-.566-.002l-.001-.001-2.757-2.778c-.156-.157-.155-.41.002-.566h.001l.948-.942c.157-.156.41-.155.566.002l.001.001 1.536 1.546 3.537-3.51c.157-.156.41-.155.566.002l.001.001.938.948z" transform="translate(-1504 -535) translate(1120 279) translate(0 256) translate(384)"/><path fill="#8F9BB3" d="M8.76 12c2.386 0 4.32-1.934 4.32-4.32s-1.934-4.32-4.32-4.32-4.32 1.934-4.32 4.32S6.374 12 8.76 12zm3.024 1.08h-.564c-1.56.72-3.36.72-4.92 0h-.564c-2.505 0-4.535 2.031-4.536 4.536v1.404c0 .895.725 1.62 1.62 1.62H14.7c.895 0 1.62-.725 1.62-1.62v-1.404.001c0-2.505-2.03-4.536-4.535-4.537h-.001z" transform="translate(-1504 -535) translate(1120 279) translate(0 256) translate(384)"/></g></g></g></g></g></svg>