<svg xmlns="http://www.w3.org/2000/svg" width="25" height="24" viewBox="0 0 25 24"><g fill="none" fill-rule="evenodd"><g><g><g><g><path d="M0 0H24V24H0z" transform="translate(-1360 -383) translate(1120 279) translate(0 104) translate(240)"/><path fill="#8F9BB3" d="M3.6 11.2c1.325 0 2.4-1.075 2.4-2.4S4.925 6.4 3.6 6.4 1.2 7.475 1.2 8.8s1.075 2.4 2.4 2.4zm16.8 0c1.325 0 2.4-1.075 2.4-2.4s-1.075-2.4-2.4-2.4S18 7.475 18 8.8s1.075 2.4 2.4 2.4zm1.2 1.2h-2.4c-.633 0-1.241.25-1.69.697 1.54.84 2.587 2.364 2.817 4.103H22.8c.663 0 1.2-.537 1.2-1.2v-1.2c0-1.325-1.075-2.4-2.4-2.4zm-19.2 0c-1.325 0-2.4 1.075-2.4 2.4V16c0 .663.537 1.2 1.2 1.2h2.473c.23-1.739 1.277-3.263 2.817-4.103-.449-.447-1.057-.698-1.69-.697H2.4zM12 4l-1.8.9L8.4 4v3h7.2V4l-1.8.9L12 4z" transform="translate(-1360 -383) translate(1120 279) translate(0 104) translate(240)"/><path fill="#4350F7" d="M12 12.4c1.988 0 3.6-1.612 3.6-3.6v-.6H8.4v.6c0 1.988 1.612 3.6 3.6 3.6zm2.88 1.2h-.312c-.781.375-1.645.6-2.568.6-.922 0-1.786-.225-2.568-.6H9.12c-2.386 0-4.32 1.934-4.32 4.32V19c0 .994.806 1.8 1.8 1.8h10.8c.994 0 1.8-.806 1.8-1.8v-1.08c0-2.386-1.934-4.32-4.32-4.32z" transform="translate(-1360 -383) translate(1120 279) translate(0 104) translate(240)"/></g></g></g></g></g></svg>