<svg xmlns="http://www.w3.org/2000/svg" width="25" height="24" viewBox="0 0 25 24"><g fill="none" fill-rule="evenodd"><g><g><g><g><path d="M0 0H24V24H0z" transform="translate(-144 -615) translate(48 279) translate(0 336) translate(96)"/><path fill="#151A30" d="M7 10v7.765h10V10h1.25v7.765h1.563c.48 0 .877.408.93.935l.007.124v1.764h.625c.314 0 .574.261.618.602l.007.104v.353c0 .17-.107.313-.25.346l-.063.007H2.313c-.15 0-.277-.121-.306-.282L2 21.648v-.354c0-.354.231-.648.533-.698l.092-.008h.625v-1.764c0-.543.362-.991.828-1.052l.11-.007H5.75V10H7zm4.85 5.1c.469 0 .85.381.85.85 0 .399-.276.735-.648.826l-.103.018-.099.006-.099-.006c-.422-.049-.751-.409-.751-.844 0-.12.025-.233.07-.335l.05-.099.013-.021c.15-.237.416-.395.717-.395zm.04-5.1c1.137 0 2.35.91 2.35 2.11 0 1.457-1.44 1.61-1.682 2.075l-.025.065-.01.074v.028l-.008.066c-.017.063-.057.116-.111.148l-.058.025-.064.009-.966-.019-.064-.008c-.062-.018-.114-.06-.145-.115l-.024-.059-.009-.066v-.083l.008-.163c.059-.574.326-.779.679-.993l.098-.059.326-.189c.33-.195.662-.519.662-.794 0-.487-.53-.794-1.073-.794-.549 0-.847.325-1.207.794-.018.023-.04.043-.063.058l-.037.018-.059.016h-.061l-.03-.006-.03-.01-.056-.032-.635-.441-.045-.045c-.063-.083-.07-.2-.01-.291.55-.844 1.251-1.319 2.35-1.319zm.536-7.945l.167.053 9.105 4.442c.156.066.266.22.295.399l.007.092v.384c0 .258-.166.472-.384.517l-.085.008h-.781v.525c0 .258-.166.472-.384.517L20.28 9l-13.49.001c.082-.167.134-.35.152-.542l.007-.146-.001-1.251H8.15l.142-.006c.746-.068 1.335-.67 1.402-1.415L9.7 5.5V4.375l-.006-.141-.019-.138c-.064-.355-.247-.669-.506-.898l2.238-1.09c.33-.123.683-.141 1.02-.053zM8.15 3.812l.089.008c.26.044.461.277.461.555V5.5c0 .31-.247.563-.55.563h-2.2v2.25l-.007.09c-.034.208-.179.378-.37.443l-.084.022-.089.007H4.3l-.089-.007c-.203-.034-.369-.183-.433-.378l-.02-.087-.008-.09v-2.25h-2.2c-.302 0-.55-.254-.55-.563V4.375c0-.31.248-.563.55-.563h2.2v-2.25c0-.309.248-.562.55-.562h1.1c.302 0 .55.253.55.563v2.25h2.2z" transform="translate(-144 -615) translate(48 279) translate(0 336) translate(96)"/></g></g></g></g></g></svg>