<svg xmlns="http://www.w3.org/2000/svg" width="25" height="24" viewBox="0 0 25 24">
    <g fill="none" fill-rule="evenodd">
        <g>
            <g>
                <g>
                    <path d="M0 0H24V24H0z" transform="translate(-48 -559) translate(48 279) translate(0 280)"/>
                    <path fill="#151A30" d="M3.773 13.496l-.966-.99c-.41-.42-.41-1.099 0-1.514l8.455-8.677c.41-.42 1.07-.42 1.476 0l8.455 8.673c.41.42.41 1.098 0 1.513l-.966.991c-.413.424-1.088.415-1.493-.018L13.743 8.1v12.829c0 .593-.466 1.071-1.045 1.071h-1.392c-.579 0-1.045-.478-1.045-1.071V8.099l-4.995 5.38c-.405.437-1.08.446-1.493.017z" transform="translate(-48 -559) translate(48 279) translate(0 280)"/>
                </g>
            </g>
        </g>
    </g>
</svg>
