<svg xmlns="http://www.w3.org/2000/svg" width="25" height="24" viewBox="0 0 25 24"><g fill="none" fill-rule="evenodd"><g><g><g><g><path d="M0 0H24V24H0z" transform="translate(-96 -447) translate(48 279) translate(0 168) translate(48)"/><path fill="#151A30" d="M10.196 3.5H13.8c.499 0 .9.406.9.91V12h3.897c.803 0 1.205.978.638 1.555l-6.599 6.678c-.353.356-.923.356-1.276 0l-6.595-6.678c-.567-.573-.165-1.556.638-1.556h3.893V4.411c0-.505.401-.911.9-.911z" transform="translate(-96 -447) translate(48 279) translate(0 168) translate(48)"/></g></g></g></g></g></svg>