<svg xmlns="http://www.w3.org/2000/svg" width="25" height="24" viewBox="0 0 25 24"><g fill="none" fill-rule="evenodd"><g><g><g><g><path d="M0 0H24V24H0z" transform="translate(-96 -559) translate(48 279) translate(0 280) translate(48)"/><path fill="#151A30" d="M20.227 10.504l.966.99c.41.42.41 1.099 0 1.514l-8.453 8.677c-.41.42-1.07.42-1.475 0l-8.458-8.677c-.41-.42-.41-1.098 0-1.514l.966-.99c.413-.425 1.087-.416 1.492.017l4.995 5.38V3.07c0-.593.465-1.071 1.044-1.071h1.392c.579 0 1.044.478 1.044 1.071v12.83l4.995-5.38c.405-.437 1.08-.446 1.492-.017z" transform="translate(-96 -559) translate(48 279) translate(0 280) translate(48)"/></g></g></g></g></g></svg>