<svg xmlns="http://www.w3.org/2000/svg" width="25" height="24" viewBox="0 0 25 24"><g fill="none" fill-rule="evenodd"><g><g><g><g><path d="M0 0H24V24H0z" transform="translate(-384 -727) translate(48 279) translate(0 448) translate(336)"/><path fill="#151A30" d="M3.8 15.197l.164.006c1.25.082 2.25 1.094 2.33 2.36l.006.166-.005.166c-.085 1.32-1.17 2.365-2.495 2.365-1.38 0-2.5-1.133-2.5-2.531 0-1.342 1.032-2.44 2.336-2.526l.164-.005zm4.79.685c.594 1.622 1.691 3.001 3.102 3.948l-.042.03c-.39.253-.853.4-1.35.4-1.38 0-2.5-1.133-2.5-2.531 0-.729.304-1.385.79-1.847zM16.2 6.6c3.589 0 6.5 2.911 6.5 6.5s-2.911 6.5-6.5 6.5-6.5-2.911-6.5-6.5 2.911-6.5 6.5-6.5zM6.8 9.376l.164.005c.662.043 1.253.347 1.675.811-.348.903-.539 1.883-.539 2.908 0 .316.018.629.054.936-.39.254-.855.402-1.354.402-1.38 0-2.5-1.133-2.5-2.531 0-1.342 1.032-2.44 2.336-2.526l.164-.005zM19.5 12h-6.6c-.303 0-.55.253-.55.563v1.124c0 .31.248.563.55.563h6.6c.302 0 .55-.253.55-.563v-1.124c0-.31-.248-.563-.55-.563zm-9.2-8.3c1.224 0 2.243.891 2.458 2.068-1.344.63-2.486 1.62-3.302 2.846C8.49 8.264 7.8 7.329 7.8 6.23 7.8 4.833 8.92 3.7 10.3 3.7z" transform="translate(-384 -727) translate(48 279) translate(0 448) translate(336)"/></g></g></g></g></g></svg>