<svg xmlns="http://www.w3.org/2000/svg" width="25" height="24" viewBox="0 0 25 24"><g fill="none" fill-rule="evenodd"><g><g><g><g><path d="M0 0H24V24H0z" transform="translate(-480 -727) translate(48 279) translate(0 448) translate(432)"/><path fill="#151A30" d="M5.5 15.197l.164.006C6.968 15.289 8 16.387 8 17.729l-.005.166c-.085 1.32-1.17 2.365-2.495 2.365-1.38 0-2.5-1.133-2.5-2.531 0-1.398 1.12-2.531 2.5-2.531zm6.5 0l.164.006c1.304.086 2.336 1.184 2.336 2.526l-.005.166c-.085 1.32-1.17 2.365-2.495 2.365-1.38 0-2.5-1.133-2.5-2.531 0-1.398 1.12-2.531 2.5-2.531zm6.5 0l.164.006c1.304.086 2.336 1.184 2.336 2.526l-.005.166c-.085 1.32-1.17 2.365-2.495 2.365-1.38 0-2.5-1.133-2.5-2.531 0-1.398 1.12-2.531 2.5-2.531zm-10-5.821l.164.005C9.968 9.467 11 10.565 11 11.907l-.005.166c-.085 1.32-1.17 2.365-2.495 2.365-1.38 0-2.5-1.133-2.5-2.531 0-1.398 1.12-2.531 2.5-2.531zm7 0l.164.005C16.968 9.467 18 10.565 18 11.907l-.005.166c-.085 1.32-1.17 2.365-2.495 2.365-1.38 0-2.5-1.133-2.5-2.531 0-1.398 1.12-2.531 2.5-2.531zM12 3.7c1.38 0 2.5 1.133 2.5 2.531 0 1.398-1.12 2.531-2.5 2.531S9.5 7.63 9.5 6.232C9.5 4.832 10.62 3.7 12 3.7z" transform="translate(-480 -727) translate(48 279) translate(0 448) translate(432)"/></g></g></g></g></g></svg>