<svg xmlns="http://www.w3.org/2000/svg" width="25" height="24" viewBox="0 0 25 24"><g fill="none" fill-rule="evenodd"><g><g><g><g><path d="M0 0H24V24H0z" transform="translate(-240 -895) translate(48 279) translate(0 616) translate(192)"/><path fill="#151A30" d="M7.325 7.6h-1.65c-.151 0-.275.124-.275.275v8.25c0 .151.124.275.275.275h1.65c.151 0 .275-.124.275-.275v-8.25c0-.151-.124-.275-.275-.275zm-1.375 11H3.2v-2.75c0-.303-.248-.55-.55-.55h-1.1c-.302 0-.55.247-.55.55v4.4c0 .302.248.55.55.55h4.4c.303 0 .55-.248.55-.55v-1.1c0-.302-.247-.55-.55-.55zm3.575-11h-.55c-.151 0-.275.124-.275.275v8.25c0 .151.124.275.275.275h.55c.151 0 .275-.124.275-.275v-8.25c0-.151-.124-.275-.275-.275zM1.55 8.7h1.1c.303 0 .55-.247.55-.55V5.4h2.75c.303 0 .55-.248.55-.55v-1.1c0-.303-.247-.55-.55-.55h-4.4c-.302 0-.55.247-.55.55v4.4c0 .303.248.55.55.55zm13.475-1.1h-1.65c-.151 0-.275.124-.275.275v8.25c0 .151.124.275.275.275h1.65c.151 0 .275-.124.275-.275v-8.25c0-.151-.124-.275-.275-.275zm-3.3 0h-.55c-.151 0-.275.124-.275.275v8.25c0 .151.124.275.275.275h.55c.151 0 .275-.124.275-.275v-8.25c0-.151-.124-.275-.275-.275zM22.45 3.2h-4.4c-.303 0-.55.247-.55.55v1.1c0 .303.247.55.55.55h2.75v2.75c0 .303.247.55.55.55h1.1c.303 0 .55-.247.55-.55v-4.4c0-.303-.247-.55-.55-.55zm0 12.1h-1.1c-.303 0-.55.247-.55.55v2.75h-2.75c-.303 0-.55.247-.55.55v1.1c0 .302.247.55.55.55h4.4c.303 0 .55-.248.55-.55v-4.4c0-.303-.247-.55-.55-.55zm-3.85.825v-8.25c0-.151-.124-.275-.275-.275h-1.65c-.151 0-.275.124-.275.275v8.25c0 .151.124.275.275.275h1.65c.151 0 .275-.124.275-.275z" transform="translate(-240 -895) translate(48 279) translate(0 616) translate(192)"/></g></g></g></g></g></svg>