<svg xmlns="http://www.w3.org/2000/svg" width="25" height="24" viewBox="0 0 25 24">
    <g fill="none" fill-rule="evenodd">
        <g>
            <g>
                <g>
                    <path d="M0 0H24V24H0z" transform="translate(-96 -279) translate(48 279) translate(48)"/>
                    <path fill="#151A30" d="M12 23c1.498 0 2.713-1.231 2.713-2.75H9.287C9.287 21.769 10.502 23 12 23zm9.135-6.433c-.82-.892-2.353-2.234-2.353-6.63 0-3.338-2.31-6.01-5.426-6.667v-.895C13.356 1.615 12.75 1 12 1c-.749 0-1.356.616-1.356 1.375v.895C7.528 3.926 5.218 6.6 5.218 9.938c0 4.395-1.533 5.737-2.353 6.63-.254.276-.367.608-.365.932.005.705.55 1.375 1.361 1.375H20.14c.81 0 1.357-.67 1.361-1.375.002-.324-.11-.656-.365-.933z" transform="translate(-96 -279) translate(48 279) translate(48)"/>
                </g>
            </g>
        </g>
    </g>
</svg>
