<svg xmlns="http://www.w3.org/2000/svg" width="25" height="24" viewBox="0 0 25 24">
    <g fill="none" fill-rule="evenodd">
        <g>
            <g>
                <g>
                    <g>
                        <path d="M0 0H24V24H0z" transform="translate(-240 -727) translate(48 279) translate(0 448) translate(192)"/>
                        <path fill="#151A30" d="M10.612 18.763c.556.896 1.282 1.676 2.133 2.294l-1.564.896c-.058.033-.123.05-.189.05-.184 0-.337-.13-.372-.303l-.008-.076v-2.861zM1.498 8.179l.07.032 7.629 4.368c.094.054.16.145.182.25l.009.08v8.715c0 .066-.017.131-.05.189-.091.16-.28.228-.448.172l-.07-.03-7.629-4.362c-.094-.054-.16-.146-.182-.25L1 17.263V8.54c0-.066.017-.131.05-.189.091-.159.28-.227.448-.172zM17.5 8c3.589 0 6.5 2.911 6.5 6.5S21.089 21 17.5 21 11 18.089 11 14.5 13.911 8 17.5 8zm.55 2.57h-1.1c-.302 0-.55.253-.55.563v2.25h-2.2c-.302 0-.55.253-.55.562v1.125c0 .31.248.563.55.563h2.2v2.25c0 .309.248.562.55.562h1.1c.302 0 .55-.253.55-.563v-2.25h2.2c.302 0 .55-.253.55-.562v-1.125c0-.31-.248-.563-.55-.563h-2.2v-2.25c0-.309-.248-.562-.55-.562zm-7.935-8.553l.072.031 7.63 4.352.012.007c-.11-.005-.219-.007-.329-.007-3.402 0-6.315 2.099-7.515 5.072-.037.002-.074-.004-.11-.016l-.072-.032L2.18 7.067c-.06-.034-.108-.083-.142-.142-.09-.16-.054-.357.08-.473l.062-.045 7.63-4.358c.093-.054.203-.064.304-.032z" transform="translate(-240 -727) translate(48 279) translate(0 448) translate(192)"/>
                    </g>
                </g>
            </g>
        </g>
    </g>
</svg>
