<svg xmlns="http://www.w3.org/2000/svg" width="25" height="24" viewBox="0 0 25 24">
    <g fill="none" fill-rule="evenodd">
        <g>
            <g>
                <g>
                    <g>
                        <path d="M0 0H24V24H0z" transform="translate(-384 -783) translate(48 279) translate(0 504) translate(336)"/>
                        <path fill="#151A30" d="M10.303 9.143C8.82 10.61 7.9 12.648 7.9 14.9c0 3.059 1.697 5.722 4.2 7.1H2.43c-.744 0-1.353-.565-1.422-1.29L1 20.57V9.143h9.303zM16 8.4c3.589 0 6.5 2.911 6.5 6.5s-2.911 6.5-6.5 6.5-6.5-2.911-6.5-6.5 2.911-6.5 6.5-6.5zm3.3 5.4h-6.6c-.302 0-.55.253-.55.563v1.125c0 .309.248.562.55.562h6.6c.302 0 .55-.253.55-.563v-1.124c0-.31-.248-.563-.55-.563zM17.112 2c.568 0 1.076.335 1.305.846l.052.132 2.513 4.683-.02.027-.02.026H19.74C18.62 7.13 17.349 6.8 16 6.8c-1.349 0-2.621.33-3.74.914h-.546V2h5.398zm-6.826 0v5.714H1.058l-.02-.027-.02-.026L3.53 2.978c.182-.54.66-.916 1.217-.971L4.888 2h5.398z" transform="translate(-384 -783) translate(48 279) translate(0 504) translate(336)"/>
                    </g>
                </g>
            </g>
        </g>
    </g>
</svg>
