<svg xmlns="http://www.w3.org/2000/svg" width="25" height="24" viewBox="0 0 25 24">
    <g fill="none" fill-rule="evenodd">
        <g>
            <g>
                <g>
                    <g>
                        <path d="M0 0H24V24H0z" transform="translate(-144 -335) translate(48 279) translate(0 56) translate(96)"/>
                        <path fill="#151A30" d="M20.518 21.188h-.804V2.483c0-.543-.431-.984-.964-.984H5.25c-.533 0-.964.44-.964.984v18.703h-.804c-.266 0-.482.22-.482.493v.82h18v-.82c0-.272-.216-.492-.482-.492zM8.143 4.617c0-.273.216-.493.482-.493h1.607c.266 0 .482.22.482.492v1.64c0 .273-.216.493-.482.493H8.625c-.266 0-.482-.22-.482-.492v-1.64zm0 3.937c0-.272.216-.492.482-.492h1.607c.266 0 .482.22.482.492v1.64c0 .272-.216.492-.482.492H8.625c-.266 0-.482-.22-.482-.492v-1.64zm2.09 6.07H8.624c-.266 0-.482-.22-.482-.492v-1.64c0-.273.216-.493.482-.493h1.607c.266 0 .482.22.482.492v1.64c0 .273-.216.493-.482.493zm3.053 6.563h-2.572v-3.446c0-.272.216-.492.482-.492h1.608c.266 0 .482.22.482.492v3.445zm2.571-7.055c0 .272-.216.492-.482.492h-1.607c-.266 0-.482-.22-.482-.492v-1.64c0-.273.216-.493.482-.493h1.607c.266 0 .482.22.482.492v1.64zm0-3.938c0 .272-.216.492-.482.492h-1.607c-.266 0-.482-.22-.482-.492v-1.64c0-.272.216-.492.482-.492h1.607c.266 0 .482.22.482.492v1.64zm0-3.937c0 .272-.216.492-.482.492h-1.607c-.266 0-.482-.22-.482-.492v-1.64c0-.273.216-.493.482-.493h1.607c.266 0 .482.22.482.492v1.64z" transform="translate(-144 -335) translate(48 279) translate(0 56) translate(96)"/>
                    </g>
                </g>
            </g>
        </g>
    </g>
</svg>
