<svg xmlns="http://www.w3.org/2000/svg" width="25" height="24" viewBox="0 0 25 24"><g fill="none" fill-rule="evenodd"><g><g><g><g><path d="M0 0H24V24H0z" transform="translate(-240 -503) translate(48 279) translate(0 224) translate(192)"/><path fill="#151A30" d="M23 6.75v12.214C23 20.088 22.076 21 20.937 21H3.063C1.925 21 1 20.088 1 18.964V6.75c0-1.124.924-2.036 2.063-2.036h3.78l.53-1.395C7.672 2.526 8.442 2 9.301 2h5.392c.86 0 1.629.526 1.93 1.319l.532 1.395h3.782c1.138 0 2.062.912 2.062 2.036zm-5.844 6.107c0-2.807-2.311-5.09-5.156-5.09-2.845 0-5.156 2.283-5.156 5.09 0 2.808 2.311 5.09 5.156 5.09 2.845 0 5.156-2.282 5.156-5.09zm-1.375 0c0 2.057-1.697 3.732-3.781 3.732s-3.781-1.675-3.781-3.732c0-2.057 1.697-3.732 3.781-3.732s3.781 1.675 3.781 3.732z" transform="translate(-240 -503) translate(48 279) translate(0 224) translate(192)"/></g></g></g></g></g></svg>