<svg xmlns="http://www.w3.org/2000/svg" width="25" height="24" viewBox="0 0 25 24"><g fill="none" fill-rule="evenodd"><g><g><g><g><path d="M0 0H24V24H0z" transform="translate(-96 -727) translate(48 279) translate(0 448) translate(48)"/><path fill="#151A30" d="M22.313 2.5c.345 0 .63.247.68.568l.007.099v17c0 .693-.545 1.262-1.243 1.327l-.132.006H1.687c-.345 0-.63-.247-.68-.568L1 20.833V19.5c0-.335.254-.612.586-.66l.101-.007H20.25V3.167c0-.335.254-.612.586-.66l.102-.007h1.375zM12.95 6.833c.275 0 .55.267.55.534v8.266c0 .267-.275.534-.55.534H11.3c-.275 0-.55-.267-.55-.534V7.367c0-.267.275-.534.55-.534h1.65zm4.125 5.334c.275 0 .55.266.55.533v2.933c0 .267-.275.534-.55.534h-1.65c-.275 0-.55-.267-.55-.534V12.7c0-.267.275-.533.55-.533h1.65zM4.7 5.5c.275 0 .55.267.55.533v9.6c0 .267-.275.534-.55.534H3.05c-.275 0-.55-.267-.55-.534v-9.6c0-.266.275-.533.55-.533H4.7zm4.125 4c.275 0 .55.267.55.533v5.6c0 .267-.275.534-.55.534h-1.65c-.275 0-.55-.267-.55-.534v-5.6c0-.266.275-.533.55-.533h1.65z" transform="translate(-96 -727) translate(48 279) translate(0 448) translate(48) rotate(90 12 12)"/></g></g></g></g></g></svg>