<svg xmlns="http://www.w3.org/2000/svg" width="25" height="24" viewBox="0 0 25 24">
    <g fill="none" fill-rule="evenodd">
        <g>
            <g>
                <g>
                    <path d="M0 0H24V24H0z" transform="translate(-48 -727) translate(48 279) translate(0 448)"/>
                    <path fill="#151A30" d="M10.892 17.417V23C5.51 22.463 1.266 18.03 1 12.548h5.517c.237 2.426 2.037 4.392 4.375 4.869zM23 12c0 5.732-4.344 10.446-9.907 11v-5.583c2.513-.512 4.404-2.743 4.404-5.417s-1.891-4.905-4.404-5.417V1C18.656 1.554 23 6.268 23 12zM3.718 4.71l3.916 3.916c-.392.51-.697 1.091-.894 1.72H1.11c.32-2.141 1.25-4.081 2.61-5.636zM10.892 1v5.583c-.567.116-1.103.32-1.592.596L5.326 3.204C6.902 1.997 8.812 1.208 10.892 1z" transform="translate(-48 -727) translate(48 279) translate(0 448)"/>
                </g>
            </g>
        </g>
    </g>
</svg>
