<svg xmlns="http://www.w3.org/2000/svg" width="25" height="24" viewBox="0 0 25 24"><g fill="none" fill-rule="evenodd"><g><g><g><g><path d="M0 0H24V24H0z" transform="translate(-144 -727) translate(48 279) translate(0 448) translate(96)"/><path fill="#151A30" d="M2.25 4c.414 0 .75.317.75.708v13.459h20.25c.414 0 .75.317.75.708v1.417c0 .39-.336.708-.75.708H1.5C.672 21 0 20.366 0 19.583V4.708C0 4.318.336 4 .75 4h1.5zM12.9 5.417c.3 0 .6.283.6.566v8.784c0 .283-.3.566-.6.566h-1.8c-.3 0-.6-.283-.6-.566V5.983c0-.283.3-.566.6-.566zm-4.5 5.666c.3 0 .6.284.6.567v3.117c0 .283-.3.566-.6.566H6.6c-.3 0-.6-.283-.6-.566V11.65c0-.283.3-.567.6-.567zM21.9 4c.3 0 .6.283.6.567v10.2c0 .283-.3.566-.6.566h-1.8c-.3 0-.6-.283-.6-.566v-10.2c0-.284.3-.567.6-.567zm-4.5 4.25c.3 0 .6.283.6.567v5.95c0 .283-.3.566-.6.566h-1.8c-.3 0-.6-.283-.6-.566v-5.95c0-.284.3-.567.6-.567z" transform="translate(-144 -727) translate(48 279) translate(0 448) translate(96)"/></g></g></g></g></g></svg>