<svg xmlns="http://www.w3.org/2000/svg" width="25" height="24" viewBox="0 0 25 24">
    <g fill="none" fill-rule="evenodd">
        <g>
            <g>
                <g>
                    <g>
                        <path d="M0 0H24V24H0z" transform="translate(-192 -727) translate(48 279) translate(0 448) translate(144)"/>
                        <path fill="#151A30" d="M22.344 13.312h-9.596l6.391 6.482c.244.248.646.268.897.028 1.566-1.495 2.642-3.511 2.958-5.777.054-.388-.263-.733-.65-.733zm-.64-2.657c-.333-4.9-4.193-8.816-9.025-9.154-.368-.025-.679.29-.679.665v9.178h9.05c.37 0 .68-.315.654-.69zM10.06 13.312V3.58c0-.392-.34-.714-.722-.659C4.518 3.611.834 7.881 1.006 13c.176 5.255 4.638 9.565 9.822 9.5 2.039-.027 3.922-.693 5.47-1.807.32-.23.341-.706.064-.987l-6.303-6.394z" transform="translate(-192 -727) translate(48 279) translate(0 448) translate(144)"/>
                    </g>
                </g>
            </g>
        </g>
    </g>
</svg>
