<svg xmlns="http://www.w3.org/2000/svg" width="25" height="24" viewBox="0 0 25 24">
    <g fill="none" fill-rule="evenodd">
        <g>
            <g>
                <g>
                    <g>
                        <path d="M0 0H24V24H0z" transform="translate(-240 -335) translate(48 279) translate(0 56) translate(192)"/>
                        <path fill="#151A30" d="M18 4.125h-3.333C14.667 2.677 13.47 1.5 12 1.5c-1.47 0-2.667 1.177-2.667 2.625H6c-1.104 0-2 .882-2 1.969V20.53c0 1.087.896 1.969 2 1.969h12c1.104 0 2-.882 2-1.969V6.094c0-1.087-.896-1.969-2-1.969zm-6-.984c.554 0 1 .438 1 .984s-.446.984-1 .984-1-.438-1-.984.446-.984 1-.984zm-5.267 6.948l.53-.517c.087-.086.229-.086.316 0l.859.853 1.983-1.936c.087-.086.229-.086.317 0l.524.521c.088.086.088.226 0 .312L8.587 11.93c-.087.086-.229.086-.316 0L6.733 10.4c-.087-.086-.087-.225 0-.311zM8 17.579c-.554 0-1-.44-1-.985 0-.546.446-.985 1-.985s1 .44 1 .985c0 .545-.446.984-1 .984zm9.333-.657c0 .18-.15.328-.333.328h-6c-.183 0-.333-.148-.333-.328v-.656c0-.18.15-.328.333-.328h6c.183 0 .333.147.333.328v.656zm0-5.25c0 .18-.179.328-.4.328h-6.512l1.346-1.313h5.166c.221 0 .4.148.4.329v.656z" transform="translate(-240 -335) translate(48 279) translate(0 56) translate(192)"/>
                    </g>
                </g>
            </g>
        </g>
    </g>
</svg>
