<svg xmlns="http://www.w3.org/2000/svg" width="25" height="24" viewBox="0 0 25 24"><g fill="none" fill-rule="evenodd"><g><g><g><g><path d="M0 0H24V24H0z" transform="translate(-192 -783) translate(48 279) translate(0 504) translate(144)"/><path fill="#151A30" d="M13.88 1.67l.419.084.083.027c.159.066.274.21.303.381l.008.087v2.08c.82.288 1.589.71 2.273 1.248l.287.237 1.795-1.041c.18-.103.4-.085.559.038l.064.06.258.29c.84.987 1.492 2.12 1.923 3.345l.123.37.018.085c.017.137-.021.273-.103.379C20.412 7.776 18.32 6.8 16 6.8c-1.513 0-2.93.415-4.141 1.138-2.167.073-3.901 1.862-3.901 4.058 0 .377.05.742.146 1.088-.133.583-.204 1.191-.204 1.816 0 3.432 2.137 6.367 5.152 7.546-.978.1-1.966.06-2.936-.116l-.415-.084-.083-.026c-.16-.067-.275-.21-.305-.382l-.007-.087v-2.083c-.822-.29-1.59-.711-2.273-1.249l-.288-.238-1.795 1.042c-.179.103-.4.085-.559-.038l-.064-.06-.258-.29c-.84-.987-1.493-2.12-1.923-3.345l-.123-.37-.018-.086c-.022-.172.045-.345.178-.456l.072-.05 1.794-1.042c-.158-.86-.178-1.738-.06-2.603l.06-.37-1.794-1.04c-.18-.104-.277-.306-.25-.507l.018-.086.122-.37c.43-1.225 1.082-2.36 1.924-3.345l.258-.29.064-.06c.136-.107.318-.136.48-.075l.08.037 1.792 1.042c.662-.567 1.409-1.023 2.213-1.353l.347-.134V2.25c0-.208.127-.391.313-.469l.083-.026.38-.078c1.257-.232 2.545-.235 3.802-.007zM16 8.4c3.589 0 6.5 2.911 6.5 6.5s-2.911 6.5-6.5 6.5-6.5-2.911-6.5-6.5 2.911-6.5 6.5-6.5zm.55 2.57h-1.1c-.302 0-.55.253-.55.563v2.25h-2.2c-.302 0-.55.253-.55.562v1.125c0 .31.248.562.55.562h2.2v2.25c0 .31.248.563.55.563h1.1c.302 0 .55-.253.55-.563v-2.25h2.2c.302 0 .55-.253.55-.562v-1.125c0-.31-.248-.563-.55-.563h-2.2v-2.25c0-.309-.248-.562-.55-.562z" transform="translate(-192 -783) translate(48 279) translate(0 504) translate(144)"/></g></g></g></g></g></svg>