<svg xmlns="http://www.w3.org/2000/svg" width="25" height="24" viewBox="0 0 25 24"><g fill="none" fill-rule="evenodd"><g><g><g><g><path d="M0 0H24V24H0z" transform="translate(-432 -335) translate(48 279) translate(0 56) translate(384)"/><path fill="#151A30" d="M13.95 19.503c.445.209.935.334 1.46.334.448 0 .874-.092 1.266-.25l.193-.084h.176c1.301 0 2.367.991 2.45 2.243l.005.157v.6c0 .516-.4.94-.911.994l-.112.006h-6.136c-.527 0-.961-.39-1.017-.89l-.006-.11v-.6c0-1.272 1.013-2.313 2.293-2.395l.162-.005h.177zM6.924 5.5c.645 0 1.167.522 1.167 1.167 0 .644-.522 1.166-1.167 1.166l-1.561-.001v10.334h1.561c.602 0 1.097.456 1.16 1.04l.007.127c0 .645-.522 1.167-1.167 1.167H4.167C3.522 20.5 3 19.978 3 19.333V6.667C3 6.022 3.522 5.5 4.167 5.5zm8.485 8.67c1.319 0 2.386 1.044 2.386 2.333 0 1.29-1.067 2.334-2.386 2.334-1.319 0-2.386-1.044-2.386-2.334s1.067-2.333 2.386-2.333zm-1.46-8.337c.446.209.936.334 1.46.334.45 0 .875-.092 1.267-.25l.193-.084h.176c1.301 0 2.367.991 2.45 2.243l.005.157v.6c0 .516-.4.94-.911.994l-.112.006h-6.136c-.527 0-.961-.39-1.017-.89l-.006-.11v-.6c0-1.272 1.013-2.313 2.293-2.395l.162-.005h.177zM15.41.5c1.319 0 2.386 1.044 2.386 2.333 0 1.29-1.067 2.334-2.386 2.334-1.319 0-2.386-1.044-2.386-2.334S14.09.5 15.409.5z" transform="translate(-432 -335) translate(48 279) translate(0 56) translate(384)"/></g></g></g></g></g></svg>