<svg xmlns="http://www.w3.org/2000/svg" width="25" height="24" viewBox="0 0 25 24"><g fill="none" fill-rule="evenodd"><g><g><path d="M0 0H24V24H0z" transform="translate(-48 -279) translate(48 279)"/><path fill="#151A30" d="M12 3C5.924 3 1 6.948 1 11.821c0 2.104.92 4.03 2.45 5.544-.538 2.137-2.334 4.041-2.355 4.062-.095.098-.12.242-.065.37.056.127.176.203.314.203 2.849 0 4.984-1.349 6.041-2.18 1.405.522 2.965.823 4.615.823 6.076 0 11-3.949 11-8.822C23 6.948 18.076 3 12 3z" transform="translate(-48 -279) translate(48 279)"/></g></g></g></svg>