<svg xmlns="http://www.w3.org/2000/svg" width="25" height="24" viewBox="0 0 25 24">
    <g fill="none" fill-rule="evenodd">
        <g>
            <g>
                <g>
                    <g>
                        <path d="M0 0H24V24H0z" transform="translate(-432 -559) translate(48 279) translate(0 280) translate(384)"/>
                        <path fill="#151A30" d="M12 2C6.477 2 2 6.477 2 12s4.477 10 10 10 10-4.477 10-10S17.523 2 12 2zm7.097 11.935H4.903c-.356 0-.645-.288-.645-.645v-2.58c0-.357.289-.645.645-.645h14.194c.356 0 .645.288.645.645v2.58c0 .357-.289.645-.645.645z" transform="translate(-432 -559) translate(48 279) translate(0 280) translate(384)"/>
                    </g>
                </g>
            </g>
        </g>
    </g>
</svg>
