<svg xmlns="http://www.w3.org/2000/svg" width="25" height="24" viewBox="0 0 25 24">
    <g fill="none" fill-rule="evenodd">
        <g>
            <g>
                <g>
                    <g>
                        <path d="M0 0H24V24H0z" transform="translate(-96 -391) translate(48 279) translate(0 112) translate(48)"/>
                        <path fill="#151A30" d="M21.621 9.623c.152-.113.379-.007.379.171v7.456c0 .966-.84 1.75-1.875 1.75H3.875C2.84 19 2 18.216 2 17.25V9.798c0-.182.223-.284.379-.171.875.634 2.035 1.44 6.02 4.141.824.562 2.214 1.743 3.601 1.736 1.395.01 2.813-1.196 3.605-1.736 3.985-2.701 5.141-3.51 6.016-4.145zM12 14.333c.906.015 2.21-1.064 2.867-1.509 5.184-3.511 5.578-3.817 6.774-4.692.226-.164.359-.42.359-.69V6.75C22 5.784 21.16 5 20.125 5H3.875C2.84 5 2 5.784 2 6.75v.693c0 .27.133.521.36.689 1.195.871 1.59 1.181 6.773 4.692.656.445 1.96 1.524 2.867 1.51z" transform="translate(-96 -391) translate(48 279) translate(0 112) translate(48)"/>
                    </g>
                </g>
            </g>
        </g>
    </g>
</svg>
