<svg xmlns="http://www.w3.org/2000/svg" width="25" height="24" viewBox="0 0 25 24"><g fill="none" fill-rule="evenodd"><g><g><g><g><path d="M0 0H24V24H0z" transform="translate(-480 -391) translate(48 279) translate(0 112) translate(432)"/><path fill="#151A30" d="M22 12c0 5.524-4.478 10-10 10S2 17.524 2 12C2 6.48 6.478 2 12 2s10 4.48 10 10zm-10 2.016c-1.024 0-1.855.83-1.855 1.855 0 1.024.83 1.855 1.855 1.855 1.024 0 1.855-.83 1.855-1.855 0-1.024-.83-1.855-1.855-1.855zM10.239 7.35l.3 5.484c.013.256.225.457.482.457h1.958c.257 0 .469-.2.483-.457l.299-5.484c.015-.277-.206-.51-.483-.51h-2.556c-.277 0-.498.233-.483.51z" transform="translate(-480 -391) translate(48 279) translate(0 112) translate(432)"/></g></g></g></g></g></svg>