<svg xmlns="http://www.w3.org/2000/svg" width="25" height="24" viewBox="0 0 25 24"><g fill="none" fill-rule="evenodd"><g><g><g><g><path d="M0 0H24V24H0z" transform="translate(-192 -335) translate(48 279) translate(0 56) translate(144)"/><path fill="#151A30" d="M22.264 18.329c.673 1.187-.172 2.671-1.516 2.671H3.252c-1.347 0-2.187-1.486-1.516-2.671L10.484 2.89c.673-1.188 2.36-1.186 3.032 0l8.748 15.439zM12 15.137c-.926 0-1.677.764-1.677 1.707 0 .943.75 1.707 1.677 1.707.926 0 1.677-.764 1.677-1.707 0-.943-.75-1.707-1.677-1.707zM10.408 9l.27 5.047c.013.236.205.42.437.42h1.77c.232 0 .424-.184.437-.42L13.592 9c.014-.255-.186-.47-.437-.47h-2.31c-.251 0-.45.215-.437.47z" transform="translate(-192 -335) translate(48 279) translate(0 56) translate(144)"/></g></g></g></g></g></svg>