<svg xmlns="http://www.w3.org/2000/svg" width="25" height="24" viewBox="0 0 25 24">
    <g fill="none" fill-rule="evenodd">
        <g>
            <g>
                <g>
                    <path d="M0 0H24V24H0z" transform="translate(-48 -895) translate(48 279) translate(0 616)"/>
                    <path fill="#151A30" d="M18.188 14.25h-1.125c-.311 0-.563.252-.563.562v3.938H5.25V7.5h5.063c.31 0 .562-.252.562-.563V5.812c0-.31-.252-.562-.562-.562H4.688C3.756 5.25 3 6.006 3 6.937v12.375C3 20.244 3.756 21 4.688 21h12.375c.931 0 1.687-.756 1.687-1.688v-4.5c0-.31-.252-.562-.562-.562zM19.688 3h-5.579c-.543 0-.984.44-.984.984v.658c.016.544.469.972 1.012.956l2.363-.067-8.752 8.687-.002.002c-.33.33-.33.864 0 1.193l.842.839.002.002c.33.328.863.326 1.192-.003L18.469 7.5l-.066 2.363v.028c0 .543.44.984.984.984h.629c.543 0 .984-.44.984-.984V4.312C21 3.588 20.412 3 19.688 3z" transform="translate(-48 -895) translate(48 279) translate(0 616)"/>
                </g>
            </g>
        </g>
    </g>
</svg>
