<svg xmlns="http://www.w3.org/2000/svg" width="25" height="24" viewBox="0 0 25 24">
    <g fill="none" fill-rule="evenodd">
        <g>
            <g>
                <g>
                    <g>
                        <path d="M0 0H24V24H0z" transform="translate(-192 -671) translate(48 279) translate(0 392) translate(144)"/>
                        <path fill="#151A30" d="M21.072 2.927C18.385.242 14.126.143 10.232 4.032L6.548 7.713c-2.598 2.595-3.025 6.481-2.735 9.074l7.667-7.66c.27-.268.705-.268.974 0 .268.27.268.705 0 .973L1.302 21.24c-.403.402-.403 1.055 0 1.458s1.057.403 1.46 0l2.84-2.837c2.248.675 7.386.78 10.607-2.36h-4.22l6.342-2.112c2.148-2.146 1.563-1.555 1.99-2.014h-4.202l5.652-1.882c1.953-3.2 1.474-6.395-.699-8.566z" transform="translate(-192 -671) translate(48 279) translate(0 392) translate(144)"/>
                    </g>
                </g>
            </g>
        </g>
    </g>
</svg>
