<svg xmlns="http://www.w3.org/2000/svg" width="25" height="24" viewBox="0 0 25 24">
    <g fill="none" fill-rule="evenodd">
        <g>
            <g>
                <g>
                    <path d="M0 0H24V24H0z" transform="translate(-48 -839) translate(48 279) translate(0 560)"/>
                    <path fill="#151A30" d="M20.5 6.238V6.5h-5.667V1h.27c.284 0 .554.107.753.3l4.334 4.212c.2.193.31.455.31.726zm-6.02 1.637h6.02v14.094c0 .571-.474 1.031-1.063 1.031H4.563c-.588 0-1.062-.46-1.062-1.031V2.03C3.5 1.46 3.974 1 4.563 1h8.854v5.844c0 .567.478 1.031 1.062 1.031zm1.593 8.25c.292 0 .531-.232.531-.516v-1.718c0-.284-.239-.516-.531-.516H7.927c-.292 0-.531.232-.531.516v1.718c0 .284.239.516.531.516h8.146z" transform="translate(-48 -839) translate(48 279) translate(0 560)"/>
                </g>
            </g>
        </g>
    </g>
</svg>
