<svg xmlns="http://www.w3.org/2000/svg" width="25" height="24" viewBox="0 0 25 24">
    <g fill="none" fill-rule="evenodd">
        <g>
            <g>
                <g>
                    <path d="M0 0H24V24H0z" transform="translate(-480 -279) translate(48 279) translate(432)"/>
                    <path fill="#151A30" d="M13.417 6.844V1H4.563C3.973 1 3.5 1.46 3.5 2.031V21.97C3.5 22.54 3.974 23 4.563 23h14.875c.588 0 1.062-.46 1.062-1.031V7.875h-6.02c-.585 0-1.063-.464-1.063-1.031zm2.833 10.14c0 .284-.24.516-.531.516H8.28c-.292 0-.531-.232-.531-.516v-.343c0-.284.24-.516.531-.516h7.438c.292 0 .531.232.531.516v.343zm0-2.75c0 .284-.24.516-.531.516H8.28c-.292 0-.531-.232-.531-.516v-.343c0-.284.24-.516.531-.516h7.438c.292 0 .531.232.531.516v.343zm0-3.093v.343c0 .284-.24.516-.531.516H8.28c-.292 0-.531-.232-.531-.516v-.343c0-.284.24-.516.531-.516h7.438c.292 0 .531.232.531.516zm4.25-4.903V6.5h-5.667V1h.27c.284 0 .554.107.753.3l4.334 4.212c.2.193.31.455.31.726z" transform="translate(-480 -279) translate(48 279) translate(432)"/>
                </g>
            </g>
        </g>
    </g>
</svg>
