<svg xmlns="http://www.w3.org/2000/svg" width="25" height="24" viewBox="0 0 25 24">
    <g fill="none" fill-rule="evenodd">
        <g>
            <g>
                <g>
                    <path d="M0 0H24V24H0z" transform="translate(-48 -335) translate(48 279) translate(0 56)"/>
                    <path fill="#151A30" d="M9.212 18.568c-.118-.231-.323-.255-.406-.255-.084 0-.289.023-.4.242l-.307.6c-.254.499-1 .443-1.177-.082L6.25 17.1l-.424 1.245c-.235.69-.893 1.154-1.637 1.154h-.495c-.353 0-.638-.28-.638-.625s.285-.625.638-.625h.495c.193 0 .364-.12.425-.3l.726-2.134c.132-.383.497-.64.91-.64.413 0 .778.257.91.64l.553 1.627c.789-.632 2.16-.379 2.636.553.075.148.219.233.374.245v-3.208l5.11-4.965V8.25h-5.43c-.527 0-.959-.422-.959-.938V2H1.458C.928 2 .5 2.418.5 2.938v18.125c0 .519.427.937.958.937h13.417c.531 0 .958-.418.958-.938V19.5l-5.11-.004c-.644-.012-1.222-.363-1.511-.928zm6.621-11.806c0-.246-.1-.485-.28-.66l-3.908-3.829c-.18-.175-.424-.273-.68-.273h-.243v5h5.111v-.238zM12 15.553v2.697h2.755l6.456-6.359L18.5 9.24 12 15.553zm11.202-7.017l-1.273-1.245c-.396-.388-1.04-.388-1.437 0l-1.089 1.065 2.71 2.651 1.089-1.064c.397-.388.397-1.018 0-1.407z" transform="translate(-48 -335) translate(48 279) translate(0 56)"/>
                </g>
            </g>
        </g>
    </g>
</svg>
