<svg xmlns="http://www.w3.org/2000/svg" width="25" height="24" viewBox="0 0 25 24">
    <g fill="none" fill-rule="evenodd">
        <g>
            <g>
                <g>
                    <g>
                        <path d="M0 0H24V24H0z" transform="translate(-480 -783) translate(48 279) translate(0 504) translate(432)"/>
                        <path fill="#151A30" d="M13.417 6.844V1H4.563C3.973 1 3.5 1.46 3.5 2.031V21.97C3.5 22.54 3.974 23 4.563 23h14.875c.588 0 1.062-.46 1.062-1.031V7.875h-6.02c-.585 0-1.063-.464-1.063-1.031zm-7.084-2.75c0-.19.159-.344.354-.344h3.542c.196 0 .354.154.354.344v.687c0 .19-.158.344-.354.344H6.688c-.196 0-.355-.154-.355-.344v-.687zm0 2.75c0-.19.159-.344.354-.344h3.542c.196 0 .354.154.354.344v.687c0 .19-.158.344-.354.344H6.688c-.196 0-.355-.154-.355-.344v-.687zM14.87 17.5h2.09c.39 0 .708.308.708.688 0 .38-.317.687-.709.687H14.87c-.728 0-1.384-.393-1.71-1.025-.131-.255-.359-.28-.45-.28-.093 0-.32.025-.444.266l-.34.659c-.12.233-.365.38-.633.38-.017 0-.034-.001-.05-.003-.286-.019-.532-.204-.622-.468l-.745-2.168-.47 1.37c-.26.759-.99 1.269-1.815 1.269h-.548c-.392 0-.709-.308-.709-.688 0-.38.317-.687.709-.687h.548c.214 0 .403-.132.471-.33l.806-2.347c.146-.421.55-.705 1.008-.705.458 0 .862.283 1.008.705l.615 1.79c.875-.696 2.392-.418 2.921.608.09.174.264.279.45.279zM20.19 5.512L15.856 1.3c-.2-.194-.47-.301-.753-.301h-.27v5.5H20.5v-.262c0-.27-.11-.533-.31-.726z" transform="translate(-480 -783) translate(48 279) translate(0 504) translate(432)"/>
                    </g>
                </g>
            </g>
        </g>
    </g>
</svg>
