<svg xmlns="http://www.w3.org/2000/svg" width="25" height="24" viewBox="0 0 25 24"><g fill="none" fill-rule="evenodd"><g><g><g><g><path d="M0 0H24V24H0z" transform="translate(-96 -839) translate(48 279) translate(0 560) translate(48)"/><path fill="#151A30" d="M20.5 6.238V6.5h-5.667V1h.27c.284 0 .554.107.753.3l4.334 4.212c.2.193.31.455.31.726zm-6.02 1.637h6.02v14.094c0 .571-.474 1.031-1.063 1.031H4.563c-.588 0-1.062-.46-1.062-1.031V2.03C3.5 1.46 3.974 1 4.563 1h8.854v5.844c0 .567.478 1.031 1.062 1.031zm-2.64 4.71l-4.205 4.081-.24 2.072c-.03.274.209.51.497.48l2.134-.231 4.205-4.082c.089-.086.089-.224 0-.31l-2.072-2.01c-.088-.087-.23-.087-.318 0zm4.857-1.303l-1.124-1.091c-.35-.34-.917-.34-1.266 0l-1.152 1.117c-.088.086-.088.224 0 .31l2.072 2.01c.089.086.23.086.32 0l1.15-1.117c.35-.34.35-.89 0-1.229z" transform="translate(-96 -839) translate(48 279) translate(0 560) translate(48)"/></g></g></g></g></g></svg>