<svg xmlns="http://www.w3.org/2000/svg" width="25" height="24" viewBox="0 0 25 24">
    <g fill="none" fill-rule="evenodd">
        <g>
            <g>
                <g>
                    <g>
                        <path d="M0 0H24V24H0z" transform="translate(-96 -783) translate(48 279) translate(0 504) translate(48)"/>
                        <path fill="#151A30" d="M15.9 9.4c3.589 0 6.5 2.911 6.5 6.5s-2.911 6.5-6.5 6.5-6.5-2.911-6.5-6.5 2.911-6.5 6.5-6.5zM5.083 3.002c1.017.04 1.85.842 1.913 1.842.015.226-.01.451-.074.668l-.054.16.28-.095c.662-.209 1.37-.327 2.15-.327 2.406 0 3.987 1.223 5.9 1.223 1.447 0 2.951-.56 4.178-1.12.721-.33 1.542.148 1.618.905l.006.115.001 3.236C19.608 8.478 17.833 7.8 15.9 7.8c-4.472 0-8.1 3.628-8.1 8.1 0 .136.003.272.01.407-.53.116-.997.265-1.419.43l-.248.1v3.32c0 .43-.327.784-.75.836L5.286 21h-.572c-.437 0-.797-.322-.85-.738l-.007-.106V6.584C3.34 6.228 3 5.638 3 4.969c0-1.018.784-1.855 1.79-1.958L4.936 3h.147zM16.45 11.97h-1.1c-.303 0-.55.253-.55.563v2.25h-2.2c-.303 0-.55.253-.55.562v1.125c0 .31.247.563.55.563h2.2v2.25c0 .309.247.562.55.562h1.1c.303 0 .55-.253.55-.563v-2.25h2.2c.303 0 .55-.253.55-.562v-1.125c0-.31-.247-.563-.55-.563H17v-2.25c0-.309-.247-.562-.55-.562z" transform="translate(-96 -783) translate(48 279) translate(0 504) translate(48)"/>
                    </g>
                </g>
            </g>
        </g>
    </g>
</svg>
