<svg xmlns="http://www.w3.org/2000/svg" width="25" height="24" viewBox="0 0 25 24">
    <g fill="none" fill-rule="evenodd">
        <g>
            <g>
                <g>
                    <g>
                        <path d="M0 0H24V24H0z" transform="translate(-432 -671) translate(48 279) translate(0 392) translate(384)"/>
                        <path fill="#151A30" d="M20.938 6.833h-8.25L9.938 4H3.061C1.923 4 1 4.951 1 6.125v12.75C1 20.049 1.923 21 3.063 21h17.875C22.076 21 23 20.049 23 18.875V8.958c0-1.173-.923-2.125-2.063-2.125zm-4.125 7.438c0 .391-.308.708-.688.708h-3.094v3.188c0 .391-.307.708-.687.708h-.688c-.38 0-.687-.317-.687-.708v-3.188H7.875c-.38 0-.688-.317-.688-.708v-.709c0-.39.308-.708.688-.708h3.094V9.667c0-.392.307-.709.687-.709h.688c.38 0 .687.317.687.709v3.187h3.094c.38 0 .688.317.688.709v.708z" transform="translate(-432 -671) translate(48 279) translate(0 392) translate(384)"/>
                    </g>
                </g>
            </g>
        </g>
    </g>
</svg>
