<svg xmlns="http://www.w3.org/2000/svg" width="25" height="24" viewBox="0 0 25 24">
    <g fill="none" fill-rule="evenodd">
        <g>
            <g>
                <g>
                    <g>
                        <path d="M0 0H24V24H0z" transform="translate(-480 -671) translate(48 279) translate(0 392) translate(432)"/>
                        <path fill="#151A30" d="M20.938 6.833h-8.25L9.938 4H3.061C1.923 4 1 4.951 1 6.125v12.75C1 20.049 1.923 21 3.063 21h17.875C22.076 21 23 20.049 23 18.875V8.958c0-1.173-.923-2.125-2.063-2.125zm-4.186 4.664l-.81.81c-.083.083-.216.083-.3 0l-1.95-1.951c-.083-.083-.083-.216 0-.3l.81-.81c.329-.328.863-.328 1.194 0l1.056 1.057c.33.329.33.863 0 1.194zm-3.756-.744l-4.617 4.616-.372 2.136c-.051.288.2.538.488.489l2.136-.375 4.616-4.616c.083-.082.083-.216 0-.299l-1.95-1.951c-.085-.083-.219-.083-.301 0zm-3.45 5.7h.844v.637l-1.134.199-.546-.547.198-1.134h.639v.844z" transform="translate(-480 -671) translate(48 279) translate(0 392) translate(432)"/>
                    </g>
                </g>
            </g>
        </g>
    </g>
</svg>
