<svg xmlns="http://www.w3.org/2000/svg" width="25" height="24" viewBox="0 0 25 24"><g fill="none" fill-rule="evenodd"><g><g><g><g><path d="M0 0H24V24H0z" transform="translate(-480 -615) translate(48 279) translate(0 336) translate(432)"/><path fill="#151A30" d="M11.683 7.43l-7.681 6.44v6.951c0 .375.298.679.666.679l4.67-.012c.366-.002.662-.305.662-.679v-4.06c0-.374.299-.678.667-.678h2.666c.369 0 .667.304.667.678v4.057c-.001.375.296.68.665.68h.002l4.667.014c.368 0 .666-.304.666-.679v-6.956L12.32 7.43c-.185-.153-.45-.153-.637 0zm12.134 4.377l-3.483-2.923V3.009c0-.281-.224-.509-.5-.509H17.5c-.276 0-.5.228-.5.509v3.08l-3.73-3.125c-.739-.618-1.804-.618-2.542 0L.183 11.807c-.213.179-.243.5-.067.716l1.063 1.315c.175.218.49.249.703.07h.001l9.8-8.218c.186-.153.452-.153.638 0l9.8 8.218c.213.179.528.149.704-.068l1.063-1.315c.175-.217.144-.538-.07-.717l-.001-.001z" transform="translate(-480 -615) translate(48 279) translate(0 336) translate(432)"/></g></g></g></g></g></svg>