<svg xmlns="http://www.w3.org/2000/svg" width="25" height="24" viewBox="0 0 25 24"><g fill="none" fill-rule="evenodd"><g><g><g><path d="M0 0H24V24H0z" transform="translate(-432 -279) translate(48 279) translate(384)"/><path fill="#151A30" d="M21.982 7.66L19.47 2.979C19.272 2.393 18.728 2 18.112 2h-5.398v5.714h9.228c.018-.022.022-.031.04-.053zm-10.696.054V2H5.888c-.616 0-1.16.393-1.357.978L2.018 7.66c.018.022.022.031.04.053h9.228zM2 9.143V20.57C2 21.361 2.638 22 3.429 22H20.57c.79 0 1.429-.638 1.429-1.429V9.143H2zm10.714 9.995v.72c0 .196-.16.356-.357.356h-.714c-.197 0-.357-.16-.357-.357v-.728c-.505-.026-.996-.2-1.402-.504-.174-.13-.183-.393-.027-.54l.527-.5c.125-.116.308-.125.45-.031.175.107.371.165.572.165h1.255c.29 0 .527-.264.527-.59 0-.267-.161-.5-.393-.567l-2.01-.602c-.83-.25-1.41-1.045-1.41-1.938 0-1.093.848-1.982 1.906-2.013v-.723c0-.197.161-.357.357-.357h.715c.196 0 .357.16.357.357v.727c.504.027.995.201 1.402.505.174.13.183.393.026.54l-.522.505c-.125.116-.308.124-.45.03-.175-.106-.371-.164-.572-.164h-1.255c-.29 0-.527.263-.527.589 0 .268.161.5.393.567l2.01.602c.83.25 1.41 1.045 1.41 1.938-.004 1.094-.857 1.987-1.91 2.013z" transform="translate(-432 -279) translate(48 279) translate(384)"/></g></g></g></g></svg>