<svg xmlns="http://www.w3.org/2000/svg" xmlns:xlink="http://www.w3.org/1999/xlink" width="25" height="24" viewBox="0 0 25 24"><g fill="none" fill-rule="evenodd"><g><path fill="#151A30" d="M19 2c1.657 0 3 1.343 3 3v14c0 1.657-1.343 3-3 3H5l-.058-.002h-.001L5 22c-1.657 0-3-1.343-3-3V5c0-1.657 1.343-3 3-3h14zm0 2H5c-.552 0-1 .448-1 1v14c0 .429.27.795.65.937L15.292 9.293c.39-.39 1.024-.39 1.414 0L20 12.585V5c0-.552-.448-1-1-1zM8.5 6C9.88 6 11 7.12 11 8.5S9.88 11 8.5 11 6 9.88 6 8.5 7.12 6 8.5 6z" transform="translate(-192 -895) translate(48 279) translate(0 616) translate(144)"/></g></g></svg>