<svg xmlns="http://www.w3.org/2000/svg" width="19" height="19" viewBox="0 0 19 19">
    <g fill="none" fill-rule="evenodd">
        <g>
            <g>
                <path d="M0 0H19V19H0z" transform="translate(-191 -355) translate(191 355)"/>
                <path fill="#FFF" fill-rule="nonzero" d="M10.356 5.943c.432-.298.95-.403 1.457-.298.508.104.946.408 1.233.852l5.001 7.783c.197.307.215.701.047 1.025-.17.326-.498.528-.854.528H1.76c-.357 0-.687-.202-.853-.528-.17-.325-.15-.72.047-1.026l3.29-5.092c.015-.022.08-.116.096-.136.678-.868 1.899-1.007 2.731-.315l.789.65L9.845 6.46c.138-.204.311-.379.511-.517zM4.8 3.167c.803 0 1.454.671 1.454 1.5 0 .828-.65 1.5-1.454 1.5-.803 0-1.454-.672-1.454-1.5 0-.829.651-1.5 1.454-1.5z" transform="translate(-191 -355) translate(191 355)"/>
            </g>
        </g>
    </g>
</svg>
