<svg xmlns="http://www.w3.org/2000/svg" width="25" height="24" viewBox="0 0 25 24">
    <g fill="none" fill-rule="evenodd">
        <g>
            <g>
                <g>
                    <g>
                        <path d="M0 0H24V24H0z" transform="translate(-288 -615) translate(48 279) translate(0 336) translate(240)"/>
                        <path fill="#151A30" d="M12 2C6.478 2 2 6.48 2 12c0 5.524 4.478 10 10 10s10-4.476 10-10c0-5.52-4.478-10-10-10zm0 4.435c.935 0 1.694.759 1.694 1.694 0 .935-.759 1.694-1.694 1.694-.935 0-1.694-.759-1.694-1.694 0-.935.759-1.694 1.694-1.694zm2.258 10.242c0 .268-.217.484-.484.484h-3.548c-.267 0-.484-.216-.484-.484v-.967c0-.268.217-.484.484-.484h.484v-2.58h-.484c-.267 0-.484-.217-.484-.485v-.967c0-.268.217-.484.484-.484h2.58c.268 0 .484.216.484.484v4.032h.484c.267 0 .484.216.484.484v.967z" transform="translate(-288 -615) translate(48 279) translate(0 336) translate(240)"/>
                    </g>
                </g>
            </g>
        </g>
    </g>
</svg>
