<svg xmlns="http://www.w3.org/2000/svg" width="25" height="24" viewBox="0 0 25 24">
    <g fill="none" fill-rule="evenodd">
        <g>
            <g>
                <g>
                    <g>
                        <path d="M0 0H24V24H0z" transform="translate(-480 -559) translate(48 279) translate(0 280) translate(432)"/>
                        <path fill="#151A30" d="M12 1C5.925 1 1 5.925 1 12s4.925 11 11 11 11-4.925 11-11S18.075 1 12 1zm7.704 5.303l-2.812 2.812c-.487-.823-1.183-1.52-2.007-2.007l2.812-2.812c.764.567 1.44 1.243 2.007 2.007zM12 16.258c-2.352 0-4.258-1.906-4.258-4.258 0-2.352 1.906-4.258 4.258-4.258 2.352 0 4.258 1.906 4.258 4.258 0 2.352-1.906 4.258-4.258 4.258zM6.303 4.296l2.812 2.812c-.823.487-1.52 1.183-2.007 2.007L4.296 6.303c.567-.764 1.243-1.44 2.007-2.007zM4.296 17.697l2.812-2.812c.487.823 1.183 1.52 2.007 2.007l-2.812 2.812c-.764-.567-1.44-1.243-2.007-2.007zm13.401 2.007l-2.812-2.812c.823-.487 1.52-1.183 2.007-2.007l2.812 2.812c-.567.764-1.243 1.44-2.007 2.007z" transform="translate(-480 -559) translate(48 279) translate(0 280) translate(432)"/>
                    </g>
                </g>
            </g>
        </g>
    </g>
</svg>
