<svg xmlns="http://www.w3.org/2000/svg" width="25" height="24" viewBox="0 0 25 24">
    <g fill="none" fill-rule="evenodd">
        <g>
            <g>
                <g>
                    <g>
                        <path d="M0 0H24V24H0z" transform="translate(-384 -391) translate(48 279) translate(0 112) translate(336)"/>
                        <path fill="#151A30" d="M14.274 9.726c1.996 1.996 2.124 5.167.381 7.31-.244.303-.109.152-3.318 3.36-2.136 2.137-5.596 2.14-7.734 0-2.137-2.135-2.138-5.595 0-7.733l2.477-2.479c.292-.291.794-.092.8.32.008.498.07.994.186 1.478.037.157-.01.323-.125.437L5.15 14.21c-1.28 1.281-1.285 3.356 0 4.641 1.28 1.28 3.355 1.285 4.64 0l2.937-2.937c1.278-1.278 1.28-3.36 0-4.64-.259-.26-.56-.474-.89-.634-.181-.088-.281-.283-.257-.483.053-.434.246-.854.579-1.187l.17-.171c.142-.142.359-.18.538-.09.508.255.984.594 1.407 1.018zm6.123-6.123c-2.138-2.138-5.598-2.136-7.734 0-3.21 3.21-3.074 3.058-3.318 3.36-1.743 2.144-1.615 5.315.38 7.311.424.424.9.763 1.408 1.018.179.09.396.052.537-.09l.171-.17c.333-.334.526-.754.579-1.188.024-.2-.076-.395-.256-.483-.33-.16-.632-.374-.891-.634-1.28-1.28-1.278-3.362 0-4.64L14.21 5.15c1.285-1.285 3.36-1.28 4.64 0 1.285 1.285 1.28 3.36 0 4.64l-1.79 1.79c-.115.115-.163.28-.126.438.116.485.178.98.186 1.478.006.412.508.611.8.32l2.477-2.479c2.138-2.138 2.137-5.598 0-7.734z" transform="translate(-384 -391) translate(48 279) translate(0 112) translate(336)"/>
                    </g>
                </g>
            </g>
        </g>
    </g>
</svg>
