<svg xmlns="http://www.w3.org/2000/svg" width="25" height="24" viewBox="0 0 25 24"><g fill="none" fill-rule="evenodd"><g><g><g><g><path d="M0 0H24V24H0z" transform="translate(-96 -671) translate(48 279) translate(0 392) translate(48)"/><path fill="#151A30" d="M22.675 6.275l1.173 1.189c.203.205.203.538 0 .743l-11.485 11.64c-.202.204-.53.204-.733 0l-1.173-1.19c-.202-.205-.202-.537 0-.742l11.485-11.64c.203-.205.53-.205.733 0zM16.98 5.15c.195-.199.51-.199.705 0l1.176 1.195c.195.198.195.52 0 .718L6.398 19.736c-.195.198-.51.198-.706 0l-5.546-5.64c-.195-.199-.195-.52 0-.718l1.176-1.195c.195-.199.51-.199.705 0l4.018 4.085z" transform="translate(-96 -671) translate(48 279) translate(0 392) translate(48)"/></g></g></g></g></g></svg>