<svg xmlns="http://www.w3.org/2000/svg" xmlns:xlink="http://www.w3.org/1999/xlink" width="25" height="24" viewBox="0 0 25 24">
    <defs>
        <path id="bj6c5y286a" d="M21.553 16.106c.494-.247 1.095-.047 1.342.447.247.494.046 1.094-.448 1.341l-10 5c-.281.141-.612.141-.894 0l-10-5c-.494-.247-.694-.847-.447-1.341.247-.494.847-.694 1.341-.447L12 20.882zm0-5c.494-.247 1.095-.047 1.342.447.247.494.046 1.094-.448 1.341l-10 5c-.281.141-.612.141-.894 0l-10-5c-.494-.247-.694-.847-.447-1.341.247-.494.847-.694 1.341-.447L12 15.882zm-9.106-10l10 5c.737.368.737 1.42 0 1.788l-10 5c-.281.141-.612.141-.894 0l-10-5c-.737-.368-.737-1.42 0-1.788l10-5c.282-.141.613-.141.894 0z"/>
    </defs>
    <g fill="none" fill-rule="evenodd">
        <g>
            <g>
                <g>
                    <g transform="translate(-336 -615) translate(48 279) translate(0 336) translate(288)">
                        <path d="M0 0H24V24H0z"/>
                        <use fill="#151A30" xlink:href="#bj6c5y286a"/>
                    </g>
                </g>
            </g>
        </g>
    </g>
</svg>
