<svg xmlns="http://www.w3.org/2000/svg" width="25" height="24" viewBox="0 0 25 24"><g fill="none" fill-rule="evenodd"><g><g><g><g><path d="M0 0H24V24H0z" transform="translate(-336 -503) translate(48 279) translate(0 224) translate(288)"/><path fill="#151A30" d="M22.394 7.103l-1.98 1.98c-.203.203-.53.203-.731 0l-4.77-4.769c-.202-.202-.202-.528 0-.73l1.98-1.981c.804-.804 2.11-.804 2.919 0l2.582 2.582c.808.804.808 2.11 0 2.918zm-9.183-1.818L1.927 16.57l-.91 5.221c-.125.705.489 1.315 1.194 1.195l5.22-.916 11.285-11.284c.202-.202.202-.528 0-.73l-4.77-4.77c-.206-.202-.533-.202-.735 0zm-8.43 13.931h2.062v1.56l-2.772.486-1.336-1.337.486-2.771h1.56v2.062z" transform="translate(-336 -503) translate(48 279) translate(0 224) translate(288)"/></g></g></g></g></g></svg>