<svg xmlns="http://www.w3.org/2000/svg" width="25" height="24" viewBox="0 0 25 24">
    <g fill="none" fill-rule="evenodd">
        <g>
            <g>
                <g>
                    <g>
                        <path d="M0 0H24V24H0z" transform="translate(-192 -503) translate(48 279) translate(0 224) translate(144)"/>
                        <path fill="#151A30" d="M21.273 2.961l-4.062-.937c-.441-.102-.894.129-1.074.543l-1.875 4.375c-.164.383-.055.832.27 1.093l2.367 1.938c-1.407 2.996-3.864 5.488-6.922 6.922l-1.938-2.367c-.265-.325-.71-.434-1.093-.27L2.57 16.133c-.418.184-.649.637-.547 1.078l.937 4.062c.098.422.473.727.914.727C13.88 22 22 13.895 22 3.875c0-.437-.3-.816-.727-.914z" transform="translate(-192 -503) translate(48 279) translate(0 224) translate(144)"/>
                    </g>
                </g>
            </g>
        </g>
    </g>
</svg>
