<svg xmlns="http://www.w3.org/2000/svg" width="25" height="24" viewBox="0 0 25 24"><g fill="none" fill-rule="evenodd"><g><g><g><g><path d="M0 0H24V24H0z" transform="translate(-288 -727) translate(48 279) translate(0 448) translate(240)"/><path fill="#151A30" d="M20.25 9.25V4.32c0-.365-.145-.715-.403-.973l-1.944-1.944C17.645 1.145 17.295 1 16.93 1H5.125c-.76 0-1.375.616-1.375 1.375V9.25C2.231 9.25 1 10.481 1 12v4.813c0 .38.308.687.688.687H3.75v4.125c0 .76.616 1.375 1.375 1.375h13.75c.76 0 1.375-.616 1.375-1.375V17.5h2.063c.38 0 .687-.308.687-.688V12c0-1.519-1.231-2.75-2.75-2.75zm-2.75 11h-11v-4.125h11v4.125zm0-9.625h-11V3.75h8.25v2.063c0 .38.308.687.688.687H17.5v4.125zm2.063 3.094c-.57 0-1.032-.462-1.032-1.031 0-.57.462-1.032 1.032-1.032.569 0 1.03.462 1.03 1.031 0 .57-.461 1.032-1.03 1.032z" transform="translate(-288 -727) translate(48 279) translate(0 448) translate(240)"/></g></g></g></g></g></svg>