<svg xmlns="http://www.w3.org/2000/svg" width="25" height="24" viewBox="0 0 25 24">
    <g fill="none" fill-rule="evenodd">
        <g>
            <g>
                <g>
                    <g>
                        <path d="M0 0H24V24H0z" transform="translate(-96 -895) translate(48 279) translate(0 616) translate(48)"/>
                        <path fill="#151A30" d="M11.7 21.963c1.367 0 2.652-.261 3.855-.784 1.203-.523 2.263-1.242 3.179-2.158.916-.917 1.634-1.974 2.153-3.174.52-1.2.78-2.483.78-3.85 0-1.368-.26-2.651-.78-3.85-.52-1.2-1.239-2.26-2.158-3.18-.92-.919-1.981-1.638-3.184-2.158s-2.488-.78-3.856-.78c-1.353 0-2.631.26-3.835.78-1.203.52-2.264 1.24-3.183 2.159-.92.919-1.64 1.979-2.159 3.178-.52 1.2-.78 2.483-.78 3.85 0 1.368.262 2.651.785 3.85.523 1.2 1.243 2.258 2.159 3.175.916.916 1.975 1.635 3.178 2.158 1.204.523 2.485.784 3.846.784zm-.226-7.936c-.595 0-.892-.277-.892-.83v-.124c0-.471.118-.853.354-1.143.236-.29.531-.562.887-.815.43-.308.753-.566.969-.774.215-.209.323-.477.323-.805 0-.356-.127-.643-.38-.862-.253-.218-.591-.328-1.015-.328-.314 0-.586.074-.815.22-.229.148-.426.351-.59.61l-.41.462c-.116.13-.314.195-.594.195-.212 0-.397-.065-.554-.195-.157-.13-.236-.314-.236-.554 0-.088.009-.176.026-.261.017-.085.042-.17.077-.251.143-.472.492-.879 1.045-1.22.554-.342 1.265-.513 2.133-.513.581 0 1.12.1 1.615.302.496.202.894.496 1.195.882.3.386.451.863.451 1.43 0 .589-.154 1.055-.461 1.4-.308.345-.708.679-1.2 1-.335.219-.59.429-.764.63-.174.202-.265.436-.272.703v.113c-.007.212-.09.386-.251.523-.16.136-.374.205-.64.205zm-.01 3.045c-.308 0-.576-.102-.805-.307-.23-.205-.344-.462-.344-.77 0-.3.113-.555.339-.763.225-.209.495-.313.81-.313.314 0 .583.102.805.308.222.205.333.461.333.769 0 .314-.111.572-.333.774-.222.201-.49.302-.805.302z" transform="translate(-96 -895) translate(48 279) translate(0 616) translate(48)"/>
                    </g>
                </g>
            </g>
        </g>
    </g>
</svg>
