<svg xmlns="http://www.w3.org/2000/svg" width="25" height="24" viewBox="0 0 25 24"><g fill="none" fill-rule="evenodd"><g><g><g><g><path d="M0 0L24 0 24 24 0 24z" transform="translate(-336 -839) translate(48 279) translate(0 560) translate(288)"/><path fill="#151A30" d="M12 7c-2.76 0-5 2.24-5 5s2.24 5 5 5 5-2.24 5-5-2.24-5-5-5zm0-5C6.48 2 2 6.48 2 12s4.48 10 10 10 10-4.48 10-10S17.52 2 12 2zm0 18c-4.42 0-8-3.58-8-8s3.58-8 8-8 8 3.58 8 8-3.58 8-8 8z" transform="translate(-336 -839) translate(48 279) translate(0 560) translate(288)"/></g></g></g></g></g></svg>