<svg xmlns="http://www.w3.org/2000/svg" width="25" height="24" viewBox="0 0 25 24"><g fill="none" fill-rule="evenodd"><g><g><g><g><path d="M0 0H24V24H0z" transform="translate(-192 -615) translate(48 279) translate(0 336) translate(144)"/><path fill="#151A30" d="M16.124 12.869l.004.003.205.209c.159.16.225.274.262.397.036.123.036.25-.002.373-.037.123-.104.235-.264.395l-1.994 1.994c-.273.273-.716.273-.99 0l-.003-.004-.206-.209c-.158-.16-.224-.273-.26-.397-.038-.123-.037-.25 0-.372.038-.124.105-.236.265-.396l1.993-1.993c.274-.274.717-.274.99 0zm-.212-5.664l.008.008.213.22c.161.167.226.279.261.402.036.123.035.248-.003.37-.037.123-.103.234-.268.398L8.5 16.23c-.274.274-.717.274-.99 0l-.009-.008-.212-.22c-.162-.167-.226-.279-.262-.402-.036-.123-.035-.248.003-.37.038-.123.104-.234.268-.398l7.625-7.627c.273-.273.717-.273.99 0z" transform="translate(-192 -615) translate(48 279) translate(0 336) translate(144)"/></g></g></g></g></g></svg>