<svg xmlns="http://www.w3.org/2000/svg" width="25" height="24" viewBox="0 0 25 24">
    <g fill="none" fill-rule="evenodd">
        <g>
            <g>
                <g>
                    <g>
                        <path d="M0 0H24V24H0z" transform="translate(-384 -615) translate(48 279) translate(0 336) translate(336)"/>
                        <path fill="#151A30" d="M21.5 6V4c0-.552-.448-1-1-1h-17c-.552 0-1 .448-1 1v2c0 .552.448 1 1 1h17c.552 0 1-.448 1-1zm0 7.5v-3c0-.552-.448-1-1-1h-17c-.552 0-1 .448-1 1v3c0 .552.448 1 1 1h17c.552 0 1-.448 1-1zM2.5 18v2c0 .552.448 1 1 1h17c.552 0 1-.448 1-1v-2c0-.552-.448-1-1-1h-17c-.552 0-1 .448-1 1z" transform="translate(-384 -615) translate(48 279) translate(0 336) translate(336)"/>
                    </g>
                </g>
            </g>
        </g>
    </g>
</svg>
