<svg xmlns="http://www.w3.org/2000/svg" width="24" height="24" viewBox="0 0 24 24">
    <g fill="none" fill-rule="evenodd">
        <g>
            <g>
                <g>
                    <g>
                        <path d="M0 0H24V24H0z" transform="translate(-480 -839) translate(48 279) translate(0 560) translate(432)"/>
                        <path fill="#151A30" d="M8.734 20h-3.61C2.849 20 1 18.208 1 16V8c0-2.208 1.848-4 4.125-4h3.609c.284 0 .516.225.516.5v1.667c0 .275-.232.5-.516.5h-3.61c-.76 0-1.374.596-1.374 1.333v8c0 .738.614 1.333 1.375 1.333h3.609c.284 0 .516.225.516.5V19.5c0 .275-.232.5-.516.5zM13.8 7.37l3.334 2.963H8.906c-.572 0-1.031.446-1.031 1v1.334c0 .554.46 1 1.03 1h8.229L13.8 16.629c-.434.383-.447 1.042-.035 1.446l.941.913c.4.387 1.053.391 1.457.004l6.53-6.284c.409-.391.409-1.029 0-1.42l-6.526-6.276c-.404-.387-1.052-.387-1.456.005l-.941.912c-.417.4-.4 1.058.03 1.442z" transform="translate(-480 -839) translate(48 279) translate(0 560) translate(432) rotate(-180 12 12)"/>
                    </g>
                </g>
            </g>
        </g>
    </g>
</svg>
