<svg xmlns="http://www.w3.org/2000/svg" width="25" height="24" viewBox="0 0 25 24">
    <g fill="none" fill-rule="evenodd">
        <g>
            <g>
                <g>
                    <g>
                        <path d="M0 0H24V24H0z" transform="translate(-288 -839) translate(48 279) translate(0 560) translate(240)"/>
                        <path fill="#151A30" d="M12 1C5.923 1 1 5.923 1 12s4.923 11 11 11 11-4.923 11-11S18.077 1 12 1zm3.548 7.452c.785 0 1.42.634 1.42 1.419s-.635 1.42-1.42 1.42c-.785 0-1.419-.635-1.419-1.42 0-.785.634-1.42 1.42-1.42zm-7.096 0c.785 0 1.419.634 1.419 1.419s-.634 1.42-1.42 1.42c-.784 0-1.419-.635-1.419-1.42 0-.785.635-1.42 1.42-1.42zM17.092 16c-1.264 1.517-3.118 2.386-5.092 2.386-1.974 0-3.828-.87-5.092-2.386-.603-.723.488-1.628 1.091-.91.994 1.194 2.449 1.872 4.001 1.872 1.552 0 3.007-.683 4-1.871.595-.719 1.69.186 1.092.909z" transform="translate(-288 -839) translate(48 279) translate(0 560) translate(240)"/>
                    </g>
                </g>
            </g>
        </g>
    </g>
</svg>
