<svg xmlns="http://www.w3.org/2000/svg" width="25" height="24" viewBox="0 0 25 24">
    <g fill="none" fill-rule="evenodd">
        <g>
            <g>
                <g>
                    <g>
                        <path d="M0 0H24V24H0z" transform="translate(-144 -671) translate(48 279) translate(0 392) translate(96)"/>
                        <path fill="#151A30" d="M19.213 2.491l.156 3.233c-1.837-2.167-4.535-3.415-7.376-3.412-4.73 0-8.668 3.396-9.513 7.884-.025.137.012.278.1.385.09.107.222.169.361.169h1.916c.217 0 .406-.15.456-.362.638-2.65 2.783-4.671 5.465-5.153 2.683-.482 5.397.667 6.918 2.93l-3.964-.19c-.128-.007-.253.04-.346.128-.092.089-.145.212-.145.34v1.852c0 .259.21.469.47.469h7.82c.26 0 .469-.21.469-.47V2.47c0-.26-.21-.469-.469-.469h-1.85c-.128 0-.25.053-.34.145-.088.093-.134.218-.128.346zm-7.22 16.384c-2.289.002-4.428-1.138-5.703-3.04l3.977.191c.128.006.253-.04.346-.129.093-.089.145-.211.145-.34v-1.851c0-.259-.21-.469-.469-.469H2.47c-.26 0-.469.21-.469.469v7.825c0 .26.21.469.469.469h1.85c.128 0 .25-.052.34-.145.088-.094.135-.219.128-.347l-.162-3.226c1.837 2.163 4.531 3.408 7.368 3.405 4.731 0 8.67-3.395 9.514-7.883.025-.137-.012-.278-.1-.385-.09-.107-.222-.169-.36-.169H19.13c-.217 0-.406.15-.456.362-.742 3.088-3.505 5.264-6.68 5.263z" transform="translate(-144 -671) translate(48 279) translate(0 392) translate(96)"/>
                    </g>
                </g>
            </g>
        </g>
    </g>
</svg>
