<svg xmlns="http://www.w3.org/2000/svg" width="25" height="24" viewBox="0 0 25 24">
    <g fill="none" fill-rule="evenodd">
        <g>
            <g>
                <g>
                    <g>
                        <path d="M0 0H24V24H0z" transform="translate(-144 -447) translate(48 279) translate(0 168) translate(96)"/>
                        <path fill="#151A30" d="M2 5.188v9.375c0 .517.42.937.937.937h3.125c.518 0 .938-.42.938-.938V5.188c0-.518-.42-.938-.938-.938H2.937c-.517 0-.937.42-.937.938zM3.562 13c0-.518.42-.938.938-.938s.937.42.937.938-.42.938-.937.938c-.518 0-.938-.42-.938-.938zm10.625 10c-.788 0-1.151-1.535-1.325-2.258-.203-.846-.414-1.721-.992-2.3-1.268-1.27-1.934-2.89-3.481-4.419-.089-.088-.139-.208-.139-.333V5.34c0-.256.205-.464.46-.469.619-.011 1.434-.354 2.057-.632 1.24-.552 2.784-1.238 4.67-1.239h.111c1.671 0 3.647.016 4.445 1.162.327.47.408 1.056.24 1.743.637.666.979 1.909.64 2.92.685.916.747 2.193.363 3.104l.005.005c.464.467.762 1.22.759 1.922-.006 1.185-1.022 2.269-2.326 2.269H15.7c.286 1.107 1.3 2.036 1.3 3.693C17 22.688 15.125 23 14.187 23z" transform="translate(-144 -447) translate(48 279) translate(0 168) translate(96)"/>
                    </g>
                </g>
            </g>
        </g>
    </g>
</svg>
