<svg xmlns="http://www.w3.org/2000/svg" width="25" height="24" viewBox="0 0 25 24">
    <g fill="none" fill-rule="evenodd">
        <g>
            <g>
                <g>
                    <g>
                        <path d="M0 0H24V24H0z" transform="translate(-240 -671) translate(48 279) translate(0 392) translate(192)"/>
                        <path fill="#151A30" d="M15.363 14.014l1.885-4.21 1.42.82c.447.256 1.017.104 1.274-.341l.933-1.613c.257-.445.105-1.014-.341-1.27L11.38 2.124c-.446-.257-1.016-.105-1.273.34l-.933 1.613c-.257.445-.105 1.014.341 1.271l1.42.818-2.709 3.735c-2.07-.183-4.116.449-5.102 2.153-.257.445-.105 1.014.341 1.271l4.577 2.638-2.021 3.493c-.024.041-.038.088-.041.136l-.125 2.078c-.015.254.268.418.482.277l1.74-1.147c.04-.026.073-.062.098-.103l2.02-3.493 4.576 2.637c.446.257 1.016.104 1.274-.341.96-1.66.53-3.663-.564-5.312l-.12-.175z" transform="translate(-240 -671) translate(48 279) translate(0 392) translate(192)"/>
                    </g>
                </g>
            </g>
        </g>
    </g>
</svg>
