<svg xmlns="http://www.w3.org/2000/svg" width="25" height="24" viewBox="0 0 25 24"><g fill="none" fill-rule="evenodd"><g><g><g><g><path d="M0 0H24V24H0z" transform="translate(-288 -503) translate(48 279) translate(0 224) translate(240)"/><path fill="#151A30" d="M20.821 2.375h-5.089l-.399-.804c-.172-.35-.525-.571-.911-.571H9.574c-.386-.001-.738.22-.907.571l-.4.804H3.18c-.375 0-.679.308-.679.688v1.375c0 .38.304.687.679.687H20.82c.375 0 .679-.308.679-.687V3.063c0-.38-.304-.688-.679-.688zM4.756 21.066C4.823 22.153 5.713 23 6.788 23h10.424c1.075 0 1.965-.847 2.032-1.934L20.143 6.5H3.857l.9 14.566z" transform="translate(-288 -503) translate(48 279) translate(0 224) translate(240)"/></g></g></g></g></g></svg>