<svg xmlns="http://www.w3.org/2000/svg" width="25" height="24" viewBox="0 0 25 24"><g fill="none" fill-rule="evenodd"><g><g><g><path d="M0 0H24V24H0z" transform="translate(-48 -391) translate(48 279) translate(0 112)"/><path fill="#151A30" d="M21.975 15.188h-.525v-3.59c0-.421-.167-.827-.463-1.125L17.71 7.156c-.295-.3-.695-.468-1.112-.468H15.15V5.093c0-.88-.705-1.594-1.575-1.594h-10.5c-.87 0-1.575.714-1.575 1.594v10.625c0 .88.705 1.594 1.575 1.594H3.6c0 1.76 1.41 3.187 3.15 3.187s3.15-1.428 3.15-3.188h4.2c0 1.76 1.41 3.188 3.15 3.188s3.15-1.428 3.15-3.188h1.575c.289 0 .525-.239.525-.53v-1.063c0-.292-.236-.531-.525-.531zM6.75 18.905c-.87 0-1.575-.714-1.575-1.593 0-.88.705-1.594 1.575-1.594s1.575.714 1.575 1.594c0 .88-.705 1.593-1.575 1.593zm10.5 0c-.87 0-1.575-.714-1.575-1.593 0-.88.705-1.594 1.575-1.594s1.575.714 1.575 1.594c0 .88-.705 1.593-1.575 1.593zM19.875 12H15.15V8.281h1.447l3.278 3.317V12z" transform="translate(-48 -391) translate(48 279) translate(0 112)"/></g></g></g></g></svg>