<svg xmlns="http://www.w3.org/2000/svg" width="25" height="24" viewBox="0 0 25 24">
    <g fill="none" fill-rule="evenodd">
        <g>
            <g>
                <g>
                    <g>
                        <path d="M0 0L24 0 24 24 0 24z" transform="translate(-432 -447) translate(48 279) translate(0 168) translate(384)"/>
                        <path fill="#151A30" d="M12.5 8c-2.65 0-5.05.99-6.9 2.6L3.707 8.707c-.39-.39-1.024-.39-1.414 0-.188.188-.293.442-.293.707V16h6.586c.552 0 1-.448 1-1 0-.265-.106-.52-.293-.707L7.38 12.38c1.39-1.16 3.16-1.88 5.12-1.88 3.54 0 6.55 2.31 7.6 5.5l2.37-.78C21.08 11.03 17.15 8 12.5 8z" transform="translate(-432 -447) translate(48 279) translate(0 168) translate(384)"/>
                    </g>
                </g>
            </g>
        </g>
    </g>
</svg>
