<svg xmlns="http://www.w3.org/2000/svg" width="25" height="24" viewBox="0 0 25 24"><g fill="none" fill-rule="evenodd"><g><g><g><g><path d="M0 0H24V24H0z" transform="translate(-384 -671) translate(48 279) translate(0 392) translate(336)"/><path fill="#151A30" d="M8.7 12c2.43 0 4.4-2.015 4.4-4.5 0-2.486-1.97-4.5-4.4-4.5-2.43 0-4.4 2.014-4.4 4.5 0 2.485 1.97 4.5 4.4 4.5zm3.08 1.125h-.574c-.763.358-1.612.562-2.506.562-.893 0-1.74-.204-2.506-.562H5.62C3.07 13.125 1 15.24 1 17.85v1.462C1 20.244 1.74 21 2.65 21h9.45c-.082-.24-.117-.493-.09-.75l.235-2.14.04-.39.272-.278 2.658-2.718c-.843-.973-2.063-1.6-3.435-1.6zm1.558 5.108l-.234 2.144c-.038.359.258.661.605.62l2.093-.24 4.741-4.848-2.465-2.52-4.74 4.844zm9.422-5.78l-1.303-1.332c-.32-.327-.842-.327-1.162 0l-1.299 1.329-.14.144 2.467 2.52 1.437-1.469c.32-.33.32-.861 0-1.192z" transform="translate(-384 -671) translate(48 279) translate(0 392) translate(336)"/></g></g></g></g></g></svg>