<svg xmlns="http://www.w3.org/2000/svg" width="25" height="24" viewBox="0 0 25 24"><g fill="none" fill-rule="evenodd"><g><g><g><g><path d="M0 0H24V24H0z" transform="translate(-336 -335) translate(48 279) translate(0 56) translate(288)"/><path fill="#151A30" d="M5.245 13.071c.719.335 1.51.536 2.355.536.816-.003 1.621-.186 2.355-.536h.286c2.187.002 3.959 1.729 3.959 3.859v.963c0 .887-.739 1.607-1.65 1.607h-9.9c-.911 0-1.65-.72-1.65-1.607v-.964c0-2.13 1.773-3.857 3.96-3.858zm10.736 0c.477.161.983.268 1.519.268.536 0 1.042-.107 1.52-.268h.134c2.125.001 3.847 1.68 3.846 3.75l-.006.14c-.072.822-.78 1.468-1.644 1.468h-6.07c.003-.07.02-.141.02-.215V16.93c0-1.293-.526-2.461-1.365-3.342.567-.318 1.214-.516 1.915-.516zm1.519-7.5c1.823 0 3.3 1.44 3.3 3.215S19.323 12 17.5 12l-.187-.005C15.577 11.9 14.2 10.5 14.2 8.785l.005-.182c.097-1.69 1.535-3.032 3.295-3.032zM7.6 4.5c2.126 0 3.85 1.679 3.85 3.75 0 2.071-1.724 3.75-3.85 3.75-2.13-.001-3.851-1.68-3.85-3.75C3.75 6.18 5.474 4.5 7.6 4.5z" transform="translate(-336 -335) translate(48 279) translate(0 56) translate(288)"/></g></g></g></g></g></svg>