<svg xmlns="http://www.w3.org/2000/svg" width="25" height="24" viewBox="0 0 25 24">
    <g fill="none" fill-rule="evenodd">
        <g>
            <g>
                <g>
                    <g>
                        <path d="M0 0H24V24H0z" transform="translate(-240 -839) translate(48 279) translate(0 560) translate(192)"/>
                        <path fill="#151A30" d="M14.008 4H1.992C.892 4 0 4.892 0 5.992v12.016C0 19.108.892 20 1.992 20h12.016c1.1 0 1.992-.892 1.992-1.992V5.992C16 4.892 15.108 4 14.008 4zM21.9 5.57l-4.567 3.15v6.56l4.567 3.145c.883.608 2.1-.012 2.1-1.075V6.646c0-1.058-1.212-1.683-2.1-1.075z" transform="translate(-240 -839) translate(48 279) translate(0 560) translate(192)"/>
                    </g>
                </g>
            </g>
        </g>
    </g>
</svg>
