<svg xmlns="http://www.w3.org/2000/svg" width="25" height="24" viewBox="0 0 25 24"><g fill="none" fill-rule="evenodd"><g><g><g><g><path d="M0 0H24V24H0z" transform="translate(-96 -335) translate(48 279) translate(0 56) translate(48)"/><path fill="#151A30" d="M20.938 2.5H3.063C1.923 2.5 1 3.412 1 4.536v14.928c0 1.124.924 2.036 2.063 2.036h17.875c1.138 0 2.062-.912 2.062-2.036V4.536c0-1.124-.924-2.036-2.063-2.036zM12 5.893c0-.75.614-1.357 1.375-1.357.76 0 1.375.606 1.375 1.357 0 .75-.614 1.357-1.375 1.357-.76 0-1.375-.606-1.375-1.357zm-4.125 0c0-.75.614-1.357 1.375-1.357.76 0 1.375.606 1.375 1.357 0 .75-.614 1.357-1.375 1.357-.76 0-1.375-.606-1.375-1.357zm-4.125 0c0-.75.614-1.357 1.375-1.357.76 0 1.375.606 1.375 1.357 0 .75-.614 1.357-1.375 1.357-.76 0-1.375-.606-1.375-1.357zM20.938 19.21c0 .14-.117.254-.258.254H3.32c-.141 0-.257-.114-.257-.254V9.286h17.875v9.924z" transform="translate(-96 -335) translate(48 279) translate(0 56) translate(48)"/></g></g></g></g></g></svg>